M48
;DRILL file {KiCad (5.0.1)-3} date 12/23/2018 12:57:59 PM
;FORMAT={-:-/ absolute / inch / decimal}
FMAT,2
INCH,TZ
T1C0.0394
%
G90
G05
M72
T1
X4.8Y-3.125
X4.8Y-3.225
X4.8Y-3.325
X4.8Y-3.425
X4.8Y-3.525
X4.8Y-3.625
X4.8Y-3.725
X4.8Y-3.825
X5.7Y-3.125
X5.7Y-3.225
X5.7Y-3.325
X5.7Y-3.425
X5.7Y-3.525
X5.7Y-3.625
X5.7Y-3.725
X5.7Y-3.825
X6.1Y-3.525
X6.1Y-3.725
X6.3Y-3.525
X6.3Y-3.725
X4.875Y-4.925
X4.975Y-4.925
X5.075Y-4.925
X6.775Y-4.925
X6.875Y-4.925
X6.975Y-4.925
X6.1Y-4.4
X6.1Y-4.6
X6.3Y-4.4
X6.3Y-4.6
X6.5Y-4.4
X6.5Y-4.6
X5.825Y-4.925
X5.925Y-4.925
X6.025Y-4.925
X4.5Y-2.85
X4.5Y-2.95
X4.5Y-3.05
X4.5Y-3.15
X4.5Y-3.25
X4.5Y-3.35
X4.5Y-3.45
X4.5Y-3.55
X4.5Y-3.65
X4.5Y-3.75
X4.5Y-3.85
X4.5Y-3.95
X4.5Y-4.05
X4.5Y-4.15
X6.95Y-4.025
X7.05Y-4.025
X7.15Y-4.025
X7.25Y-4.025
X5.35Y-4.4
X5.35Y-4.6
X5.55Y-4.4
X5.55Y-4.6
X5.75Y-4.4
X5.75Y-4.6
X5.525Y-4.05
X5.625Y-4.05
X6.025Y-4.05
X6.325Y-4.05
X5.4Y-3.325
X5.4Y-3.75
X6.45Y-3.125
X6.45Y-3.325
T0
M30
