G04 #@! TF.GenerationSoftware,KiCad,Pcbnew,(5.0.1)-3*
G04 #@! TF.CreationDate,2018-12-23T12:58:08+01:00*
G04 #@! TF.ProjectId,THERMOSTAT,544845524D4F535441542E6B69636164,rev?*
G04 #@! TF.SameCoordinates,Original*
G04 #@! TF.FileFunction,Soldermask,Top*
G04 #@! TF.FilePolarity,Negative*
%FSLAX46Y46*%
G04 Gerber Fmt 4.6, Leading zero omitted, Abs format (unit mm)*
G04 Created by KiCad (PCBNEW (5.0.1)-3) date 12/23/2018 12:58:08 PM*
%MOMM*%
%LPD*%
G01*
G04 APERTURE LIST*
%ADD10C,0.100000*%
G04 APERTURE END LIST*
D10*
G36*
X187065256Y-134916298D02*
X187171579Y-134937447D01*
X187472042Y-135061903D01*
X187738852Y-135240180D01*
X187742454Y-135242587D01*
X187972413Y-135472546D01*
X188153098Y-135742960D01*
X188277553Y-136043422D01*
X188341000Y-136362389D01*
X188341000Y-136687611D01*
X188277553Y-137006578D01*
X188153098Y-137307040D01*
X187972413Y-137577454D01*
X187742454Y-137807413D01*
X187742451Y-137807415D01*
X187472042Y-137988097D01*
X187171579Y-138112553D01*
X187065256Y-138133702D01*
X186852611Y-138176000D01*
X186527389Y-138176000D01*
X186314744Y-138133702D01*
X186208421Y-138112553D01*
X185907958Y-137988097D01*
X185637549Y-137807415D01*
X185637546Y-137807413D01*
X185407587Y-137577454D01*
X185226902Y-137307040D01*
X185102447Y-137006578D01*
X185039000Y-136687611D01*
X185039000Y-136362389D01*
X185102447Y-136043422D01*
X185226902Y-135742960D01*
X185407587Y-135472546D01*
X185637546Y-135242587D01*
X185641148Y-135240180D01*
X185907958Y-135061903D01*
X186208421Y-134937447D01*
X186314744Y-134916298D01*
X186527389Y-134874000D01*
X186852611Y-134874000D01*
X187065256Y-134916298D01*
X187065256Y-134916298D01*
G37*
G36*
X114675256Y-134916298D02*
X114781579Y-134937447D01*
X115082042Y-135061903D01*
X115348852Y-135240180D01*
X115352454Y-135242587D01*
X115582413Y-135472546D01*
X115763098Y-135742960D01*
X115887553Y-136043422D01*
X115951000Y-136362389D01*
X115951000Y-136687611D01*
X115887553Y-137006578D01*
X115763098Y-137307040D01*
X115582413Y-137577454D01*
X115352454Y-137807413D01*
X115352451Y-137807415D01*
X115082042Y-137988097D01*
X114781579Y-138112553D01*
X114675256Y-138133702D01*
X114462611Y-138176000D01*
X114137389Y-138176000D01*
X113924744Y-138133702D01*
X113818421Y-138112553D01*
X113517958Y-137988097D01*
X113247549Y-137807415D01*
X113247546Y-137807413D01*
X113017587Y-137577454D01*
X112836902Y-137307040D01*
X112712447Y-137006578D01*
X112649000Y-136687611D01*
X112649000Y-136362389D01*
X112712447Y-136043422D01*
X112836902Y-135742960D01*
X113017587Y-135472546D01*
X113247546Y-135242587D01*
X113251148Y-135240180D01*
X113517958Y-135061903D01*
X113818421Y-134937447D01*
X113924744Y-134916298D01*
X114137389Y-134874000D01*
X114462611Y-134874000D01*
X114675256Y-134916298D01*
X114675256Y-134916298D01*
G37*
G36*
X150772396Y-124180546D02*
X150945466Y-124252234D01*
X151101230Y-124356312D01*
X151233688Y-124488770D01*
X151337766Y-124644534D01*
X151409454Y-124817604D01*
X151446000Y-125001333D01*
X151446000Y-125188667D01*
X151409454Y-125372396D01*
X151337766Y-125545466D01*
X151233688Y-125701230D01*
X151101230Y-125833688D01*
X150945466Y-125937766D01*
X150772396Y-126009454D01*
X150588667Y-126046000D01*
X150401333Y-126046000D01*
X150217604Y-126009454D01*
X150044534Y-125937766D01*
X149888770Y-125833688D01*
X149756312Y-125701230D01*
X149652234Y-125545466D01*
X149580546Y-125372396D01*
X149544000Y-125188667D01*
X149544000Y-125001333D01*
X149580546Y-124817604D01*
X149652234Y-124644534D01*
X149756312Y-124488770D01*
X149888770Y-124356312D01*
X150044534Y-124252234D01*
X150217604Y-124180546D01*
X150401333Y-124144000D01*
X150588667Y-124144000D01*
X150772396Y-124180546D01*
X150772396Y-124180546D01*
G37*
G36*
X148232396Y-124180546D02*
X148405466Y-124252234D01*
X148561230Y-124356312D01*
X148693688Y-124488770D01*
X148797766Y-124644534D01*
X148869454Y-124817604D01*
X148906000Y-125001333D01*
X148906000Y-125188667D01*
X148869454Y-125372396D01*
X148797766Y-125545466D01*
X148693688Y-125701230D01*
X148561230Y-125833688D01*
X148405466Y-125937766D01*
X148232396Y-126009454D01*
X148048667Y-126046000D01*
X147861333Y-126046000D01*
X147677604Y-126009454D01*
X147504534Y-125937766D01*
X147348770Y-125833688D01*
X147216312Y-125701230D01*
X147112234Y-125545466D01*
X147040546Y-125372396D01*
X147004000Y-125188667D01*
X147004000Y-125001333D01*
X147040546Y-124817604D01*
X147112234Y-124644534D01*
X147216312Y-124488770D01*
X147348770Y-124356312D01*
X147504534Y-124252234D01*
X147677604Y-124180546D01*
X147861333Y-124144000D01*
X148048667Y-124144000D01*
X148232396Y-124180546D01*
X148232396Y-124180546D01*
G37*
G36*
X129182396Y-124180546D02*
X129355466Y-124252234D01*
X129511230Y-124356312D01*
X129643688Y-124488770D01*
X129747766Y-124644534D01*
X129819454Y-124817604D01*
X129856000Y-125001333D01*
X129856000Y-125188667D01*
X129819454Y-125372396D01*
X129747766Y-125545466D01*
X129643688Y-125701230D01*
X129511230Y-125833688D01*
X129355466Y-125937766D01*
X129182396Y-126009454D01*
X128998667Y-126046000D01*
X128811333Y-126046000D01*
X128627604Y-126009454D01*
X128454534Y-125937766D01*
X128298770Y-125833688D01*
X128166312Y-125701230D01*
X128062234Y-125545466D01*
X127990546Y-125372396D01*
X127954000Y-125188667D01*
X127954000Y-125001333D01*
X127990546Y-124817604D01*
X128062234Y-124644534D01*
X128166312Y-124488770D01*
X128298770Y-124356312D01*
X128454534Y-124252234D01*
X128627604Y-124180546D01*
X128811333Y-124144000D01*
X128998667Y-124144000D01*
X129182396Y-124180546D01*
X129182396Y-124180546D01*
G37*
G36*
X126642396Y-124180546D02*
X126815466Y-124252234D01*
X126971230Y-124356312D01*
X127103688Y-124488770D01*
X127207766Y-124644534D01*
X127279454Y-124817604D01*
X127316000Y-125001333D01*
X127316000Y-125188667D01*
X127279454Y-125372396D01*
X127207766Y-125545466D01*
X127103688Y-125701230D01*
X126971230Y-125833688D01*
X126815466Y-125937766D01*
X126642396Y-126009454D01*
X126458667Y-126046000D01*
X126271333Y-126046000D01*
X126087604Y-126009454D01*
X125914534Y-125937766D01*
X125758770Y-125833688D01*
X125626312Y-125701230D01*
X125522234Y-125545466D01*
X125450546Y-125372396D01*
X125414000Y-125188667D01*
X125414000Y-125001333D01*
X125450546Y-124817604D01*
X125522234Y-124644534D01*
X125626312Y-124488770D01*
X125758770Y-124356312D01*
X125914534Y-124252234D01*
X126087604Y-124180546D01*
X126271333Y-124144000D01*
X126458667Y-124144000D01*
X126642396Y-124180546D01*
X126642396Y-124180546D01*
G37*
G36*
X124102396Y-124180546D02*
X124275466Y-124252234D01*
X124431230Y-124356312D01*
X124563688Y-124488770D01*
X124667766Y-124644534D01*
X124739454Y-124817604D01*
X124776000Y-125001333D01*
X124776000Y-125188667D01*
X124739454Y-125372396D01*
X124667766Y-125545466D01*
X124563688Y-125701230D01*
X124431230Y-125833688D01*
X124275466Y-125937766D01*
X124102396Y-126009454D01*
X123918667Y-126046000D01*
X123731333Y-126046000D01*
X123547604Y-126009454D01*
X123374534Y-125937766D01*
X123218770Y-125833688D01*
X123086312Y-125701230D01*
X122982234Y-125545466D01*
X122910546Y-125372396D01*
X122874000Y-125188667D01*
X122874000Y-125001333D01*
X122910546Y-124817604D01*
X122982234Y-124644534D01*
X123086312Y-124488770D01*
X123218770Y-124356312D01*
X123374534Y-124252234D01*
X123547604Y-124180546D01*
X123731333Y-124144000D01*
X123918667Y-124144000D01*
X124102396Y-124180546D01*
X124102396Y-124180546D01*
G37*
G36*
X177442396Y-124180546D02*
X177615466Y-124252234D01*
X177771230Y-124356312D01*
X177903688Y-124488770D01*
X178007766Y-124644534D01*
X178079454Y-124817604D01*
X178116000Y-125001333D01*
X178116000Y-125188667D01*
X178079454Y-125372396D01*
X178007766Y-125545466D01*
X177903688Y-125701230D01*
X177771230Y-125833688D01*
X177615466Y-125937766D01*
X177442396Y-126009454D01*
X177258667Y-126046000D01*
X177071333Y-126046000D01*
X176887604Y-126009454D01*
X176714534Y-125937766D01*
X176558770Y-125833688D01*
X176426312Y-125701230D01*
X176322234Y-125545466D01*
X176250546Y-125372396D01*
X176214000Y-125188667D01*
X176214000Y-125001333D01*
X176250546Y-124817604D01*
X176322234Y-124644534D01*
X176426312Y-124488770D01*
X176558770Y-124356312D01*
X176714534Y-124252234D01*
X176887604Y-124180546D01*
X177071333Y-124144000D01*
X177258667Y-124144000D01*
X177442396Y-124180546D01*
X177442396Y-124180546D01*
G37*
G36*
X174902396Y-124180546D02*
X175075466Y-124252234D01*
X175231230Y-124356312D01*
X175363688Y-124488770D01*
X175467766Y-124644534D01*
X175539454Y-124817604D01*
X175576000Y-125001333D01*
X175576000Y-125188667D01*
X175539454Y-125372396D01*
X175467766Y-125545466D01*
X175363688Y-125701230D01*
X175231230Y-125833688D01*
X175075466Y-125937766D01*
X174902396Y-126009454D01*
X174718667Y-126046000D01*
X174531333Y-126046000D01*
X174347604Y-126009454D01*
X174174534Y-125937766D01*
X174018770Y-125833688D01*
X173886312Y-125701230D01*
X173782234Y-125545466D01*
X173710546Y-125372396D01*
X173674000Y-125188667D01*
X173674000Y-125001333D01*
X173710546Y-124817604D01*
X173782234Y-124644534D01*
X173886312Y-124488770D01*
X174018770Y-124356312D01*
X174174534Y-124252234D01*
X174347604Y-124180546D01*
X174531333Y-124144000D01*
X174718667Y-124144000D01*
X174902396Y-124180546D01*
X174902396Y-124180546D01*
G37*
G36*
X172362396Y-124180546D02*
X172535466Y-124252234D01*
X172691230Y-124356312D01*
X172823688Y-124488770D01*
X172927766Y-124644534D01*
X172999454Y-124817604D01*
X173036000Y-125001333D01*
X173036000Y-125188667D01*
X172999454Y-125372396D01*
X172927766Y-125545466D01*
X172823688Y-125701230D01*
X172691230Y-125833688D01*
X172535466Y-125937766D01*
X172362396Y-126009454D01*
X172178667Y-126046000D01*
X171991333Y-126046000D01*
X171807604Y-126009454D01*
X171634534Y-125937766D01*
X171478770Y-125833688D01*
X171346312Y-125701230D01*
X171242234Y-125545466D01*
X171170546Y-125372396D01*
X171134000Y-125188667D01*
X171134000Y-125001333D01*
X171170546Y-124817604D01*
X171242234Y-124644534D01*
X171346312Y-124488770D01*
X171478770Y-124356312D01*
X171634534Y-124252234D01*
X171807604Y-124180546D01*
X171991333Y-124144000D01*
X172178667Y-124144000D01*
X172362396Y-124180546D01*
X172362396Y-124180546D01*
G37*
G36*
X153312396Y-124180546D02*
X153485466Y-124252234D01*
X153641230Y-124356312D01*
X153773688Y-124488770D01*
X153877766Y-124644534D01*
X153949454Y-124817604D01*
X153986000Y-125001333D01*
X153986000Y-125188667D01*
X153949454Y-125372396D01*
X153877766Y-125545466D01*
X153773688Y-125701230D01*
X153641230Y-125833688D01*
X153485466Y-125937766D01*
X153312396Y-126009454D01*
X153128667Y-126046000D01*
X152941333Y-126046000D01*
X152757604Y-126009454D01*
X152584534Y-125937766D01*
X152428770Y-125833688D01*
X152296312Y-125701230D01*
X152192234Y-125545466D01*
X152120546Y-125372396D01*
X152084000Y-125188667D01*
X152084000Y-125001333D01*
X152120546Y-124817604D01*
X152192234Y-124644534D01*
X152296312Y-124488770D01*
X152428770Y-124356312D01*
X152584534Y-124252234D01*
X152757604Y-124180546D01*
X152941333Y-124144000D01*
X153128667Y-124144000D01*
X153312396Y-124180546D01*
X153312396Y-124180546D01*
G37*
G36*
X165377396Y-115925546D02*
X165550466Y-115997234D01*
X165706230Y-116101312D01*
X165838688Y-116233770D01*
X165942766Y-116389534D01*
X166014454Y-116562604D01*
X166051000Y-116746333D01*
X166051000Y-116933667D01*
X166014454Y-117117396D01*
X165942766Y-117290466D01*
X165838688Y-117446230D01*
X165706230Y-117578688D01*
X165550466Y-117682766D01*
X165377396Y-117754454D01*
X165193667Y-117791000D01*
X165006333Y-117791000D01*
X164822604Y-117754454D01*
X164649534Y-117682766D01*
X164493770Y-117578688D01*
X164361312Y-117446230D01*
X164257234Y-117290466D01*
X164185546Y-117117396D01*
X164149000Y-116933667D01*
X164149000Y-116746333D01*
X164185546Y-116562604D01*
X164257234Y-116389534D01*
X164361312Y-116233770D01*
X164493770Y-116101312D01*
X164649534Y-115997234D01*
X164822604Y-115925546D01*
X165006333Y-115889000D01*
X165193667Y-115889000D01*
X165377396Y-115925546D01*
X165377396Y-115925546D01*
G37*
G36*
X146327396Y-115925546D02*
X146500466Y-115997234D01*
X146656230Y-116101312D01*
X146788688Y-116233770D01*
X146892766Y-116389534D01*
X146964454Y-116562604D01*
X147001000Y-116746333D01*
X147001000Y-116933667D01*
X146964454Y-117117396D01*
X146892766Y-117290466D01*
X146788688Y-117446230D01*
X146656230Y-117578688D01*
X146500466Y-117682766D01*
X146327396Y-117754454D01*
X146143667Y-117791000D01*
X145956333Y-117791000D01*
X145772604Y-117754454D01*
X145599534Y-117682766D01*
X145443770Y-117578688D01*
X145311312Y-117446230D01*
X145207234Y-117290466D01*
X145135546Y-117117396D01*
X145099000Y-116933667D01*
X145099000Y-116746333D01*
X145135546Y-116562604D01*
X145207234Y-116389534D01*
X145311312Y-116233770D01*
X145443770Y-116101312D01*
X145599534Y-115997234D01*
X145772604Y-115925546D01*
X145956333Y-115889000D01*
X146143667Y-115889000D01*
X146327396Y-115925546D01*
X146327396Y-115925546D01*
G37*
G36*
X155217396Y-115925546D02*
X155390466Y-115997234D01*
X155546230Y-116101312D01*
X155678688Y-116233770D01*
X155782766Y-116389534D01*
X155854454Y-116562604D01*
X155891000Y-116746333D01*
X155891000Y-116933667D01*
X155854454Y-117117396D01*
X155782766Y-117290466D01*
X155678688Y-117446230D01*
X155546230Y-117578688D01*
X155390466Y-117682766D01*
X155217396Y-117754454D01*
X155033667Y-117791000D01*
X154846333Y-117791000D01*
X154662604Y-117754454D01*
X154489534Y-117682766D01*
X154333770Y-117578688D01*
X154201312Y-117446230D01*
X154097234Y-117290466D01*
X154025546Y-117117396D01*
X153989000Y-116933667D01*
X153989000Y-116746333D01*
X154025546Y-116562604D01*
X154097234Y-116389534D01*
X154201312Y-116233770D01*
X154333770Y-116101312D01*
X154489534Y-115997234D01*
X154662604Y-115925546D01*
X154846333Y-115889000D01*
X155033667Y-115889000D01*
X155217396Y-115925546D01*
X155217396Y-115925546D01*
G37*
G36*
X160297396Y-115925546D02*
X160470466Y-115997234D01*
X160626230Y-116101312D01*
X160758688Y-116233770D01*
X160862766Y-116389534D01*
X160934454Y-116562604D01*
X160971000Y-116746333D01*
X160971000Y-116933667D01*
X160934454Y-117117396D01*
X160862766Y-117290466D01*
X160758688Y-117446230D01*
X160626230Y-117578688D01*
X160470466Y-117682766D01*
X160297396Y-117754454D01*
X160113667Y-117791000D01*
X159926333Y-117791000D01*
X159742604Y-117754454D01*
X159569534Y-117682766D01*
X159413770Y-117578688D01*
X159281312Y-117446230D01*
X159177234Y-117290466D01*
X159105546Y-117117396D01*
X159069000Y-116933667D01*
X159069000Y-116746333D01*
X159105546Y-116562604D01*
X159177234Y-116389534D01*
X159281312Y-116233770D01*
X159413770Y-116101312D01*
X159569534Y-115997234D01*
X159742604Y-115925546D01*
X159926333Y-115889000D01*
X160113667Y-115889000D01*
X160297396Y-115925546D01*
X160297396Y-115925546D01*
G37*
G36*
X136167396Y-115925546D02*
X136340466Y-115997234D01*
X136496230Y-116101312D01*
X136628688Y-116233770D01*
X136732766Y-116389534D01*
X136804454Y-116562604D01*
X136841000Y-116746333D01*
X136841000Y-116933667D01*
X136804454Y-117117396D01*
X136732766Y-117290466D01*
X136628688Y-117446230D01*
X136496230Y-117578688D01*
X136340466Y-117682766D01*
X136167396Y-117754454D01*
X135983667Y-117791000D01*
X135796333Y-117791000D01*
X135612604Y-117754454D01*
X135439534Y-117682766D01*
X135283770Y-117578688D01*
X135151312Y-117446230D01*
X135047234Y-117290466D01*
X134975546Y-117117396D01*
X134939000Y-116933667D01*
X134939000Y-116746333D01*
X134975546Y-116562604D01*
X135047234Y-116389534D01*
X135151312Y-116233770D01*
X135283770Y-116101312D01*
X135439534Y-115997234D01*
X135612604Y-115925546D01*
X135796333Y-115889000D01*
X135983667Y-115889000D01*
X136167396Y-115925546D01*
X136167396Y-115925546D01*
G37*
G36*
X141247396Y-115925546D02*
X141420466Y-115997234D01*
X141576230Y-116101312D01*
X141708688Y-116233770D01*
X141812766Y-116389534D01*
X141884454Y-116562604D01*
X141921000Y-116746333D01*
X141921000Y-116933667D01*
X141884454Y-117117396D01*
X141812766Y-117290466D01*
X141708688Y-117446230D01*
X141576230Y-117578688D01*
X141420466Y-117682766D01*
X141247396Y-117754454D01*
X141063667Y-117791000D01*
X140876333Y-117791000D01*
X140692604Y-117754454D01*
X140519534Y-117682766D01*
X140363770Y-117578688D01*
X140231312Y-117446230D01*
X140127234Y-117290466D01*
X140055546Y-117117396D01*
X140019000Y-116933667D01*
X140019000Y-116746333D01*
X140055546Y-116562604D01*
X140127234Y-116389534D01*
X140231312Y-116233770D01*
X140363770Y-116101312D01*
X140519534Y-115997234D01*
X140692604Y-115925546D01*
X140876333Y-115889000D01*
X141063667Y-115889000D01*
X141247396Y-115925546D01*
X141247396Y-115925546D01*
G37*
G36*
X136167396Y-110845546D02*
X136340466Y-110917234D01*
X136496230Y-111021312D01*
X136628688Y-111153770D01*
X136732766Y-111309534D01*
X136804454Y-111482604D01*
X136841000Y-111666333D01*
X136841000Y-111853667D01*
X136804454Y-112037396D01*
X136732766Y-112210466D01*
X136628688Y-112366230D01*
X136496230Y-112498688D01*
X136340466Y-112602766D01*
X136167396Y-112674454D01*
X135983667Y-112711000D01*
X135796333Y-112711000D01*
X135612604Y-112674454D01*
X135439534Y-112602766D01*
X135283770Y-112498688D01*
X135151312Y-112366230D01*
X135047234Y-112210466D01*
X134975546Y-112037396D01*
X134939000Y-111853667D01*
X134939000Y-111666333D01*
X134975546Y-111482604D01*
X135047234Y-111309534D01*
X135151312Y-111153770D01*
X135283770Y-111021312D01*
X135439534Y-110917234D01*
X135612604Y-110845546D01*
X135796333Y-110809000D01*
X135983667Y-110809000D01*
X136167396Y-110845546D01*
X136167396Y-110845546D01*
G37*
G36*
X141247396Y-110845546D02*
X141420466Y-110917234D01*
X141576230Y-111021312D01*
X141708688Y-111153770D01*
X141812766Y-111309534D01*
X141884454Y-111482604D01*
X141921000Y-111666333D01*
X141921000Y-111853667D01*
X141884454Y-112037396D01*
X141812766Y-112210466D01*
X141708688Y-112366230D01*
X141576230Y-112498688D01*
X141420466Y-112602766D01*
X141247396Y-112674454D01*
X141063667Y-112711000D01*
X140876333Y-112711000D01*
X140692604Y-112674454D01*
X140519534Y-112602766D01*
X140363770Y-112498688D01*
X140231312Y-112366230D01*
X140127234Y-112210466D01*
X140055546Y-112037396D01*
X140019000Y-111853667D01*
X140019000Y-111666333D01*
X140055546Y-111482604D01*
X140127234Y-111309534D01*
X140231312Y-111153770D01*
X140363770Y-111021312D01*
X140519534Y-110917234D01*
X140692604Y-110845546D01*
X140876333Y-110809000D01*
X141063667Y-110809000D01*
X141247396Y-110845546D01*
X141247396Y-110845546D01*
G37*
G36*
X160297396Y-110845546D02*
X160470466Y-110917234D01*
X160626230Y-111021312D01*
X160758688Y-111153770D01*
X160862766Y-111309534D01*
X160934454Y-111482604D01*
X160971000Y-111666333D01*
X160971000Y-111853667D01*
X160934454Y-112037396D01*
X160862766Y-112210466D01*
X160758688Y-112366230D01*
X160626230Y-112498688D01*
X160470466Y-112602766D01*
X160297396Y-112674454D01*
X160113667Y-112711000D01*
X159926333Y-112711000D01*
X159742604Y-112674454D01*
X159569534Y-112602766D01*
X159413770Y-112498688D01*
X159281312Y-112366230D01*
X159177234Y-112210466D01*
X159105546Y-112037396D01*
X159069000Y-111853667D01*
X159069000Y-111666333D01*
X159105546Y-111482604D01*
X159177234Y-111309534D01*
X159281312Y-111153770D01*
X159413770Y-111021312D01*
X159569534Y-110917234D01*
X159742604Y-110845546D01*
X159926333Y-110809000D01*
X160113667Y-110809000D01*
X160297396Y-110845546D01*
X160297396Y-110845546D01*
G37*
G36*
X165377396Y-110845546D02*
X165550466Y-110917234D01*
X165706230Y-111021312D01*
X165838688Y-111153770D01*
X165942766Y-111309534D01*
X166014454Y-111482604D01*
X166051000Y-111666333D01*
X166051000Y-111853667D01*
X166014454Y-112037396D01*
X165942766Y-112210466D01*
X165838688Y-112366230D01*
X165706230Y-112498688D01*
X165550466Y-112602766D01*
X165377396Y-112674454D01*
X165193667Y-112711000D01*
X165006333Y-112711000D01*
X164822604Y-112674454D01*
X164649534Y-112602766D01*
X164493770Y-112498688D01*
X164361312Y-112366230D01*
X164257234Y-112210466D01*
X164185546Y-112037396D01*
X164149000Y-111853667D01*
X164149000Y-111666333D01*
X164185546Y-111482604D01*
X164257234Y-111309534D01*
X164361312Y-111153770D01*
X164493770Y-111021312D01*
X164649534Y-110917234D01*
X164822604Y-110845546D01*
X165006333Y-110809000D01*
X165193667Y-110809000D01*
X165377396Y-110845546D01*
X165377396Y-110845546D01*
G37*
G36*
X155217396Y-110845546D02*
X155390466Y-110917234D01*
X155546230Y-111021312D01*
X155678688Y-111153770D01*
X155782766Y-111309534D01*
X155854454Y-111482604D01*
X155891000Y-111666333D01*
X155891000Y-111853667D01*
X155854454Y-112037396D01*
X155782766Y-112210466D01*
X155678688Y-112366230D01*
X155546230Y-112498688D01*
X155390466Y-112602766D01*
X155217396Y-112674454D01*
X155033667Y-112711000D01*
X154846333Y-112711000D01*
X154662604Y-112674454D01*
X154489534Y-112602766D01*
X154333770Y-112498688D01*
X154201312Y-112366230D01*
X154097234Y-112210466D01*
X154025546Y-112037396D01*
X153989000Y-111853667D01*
X153989000Y-111666333D01*
X154025546Y-111482604D01*
X154097234Y-111309534D01*
X154201312Y-111153770D01*
X154333770Y-111021312D01*
X154489534Y-110917234D01*
X154662604Y-110845546D01*
X154846333Y-110809000D01*
X155033667Y-110809000D01*
X155217396Y-110845546D01*
X155217396Y-110845546D01*
G37*
G36*
X146327396Y-110845546D02*
X146500466Y-110917234D01*
X146656230Y-111021312D01*
X146788688Y-111153770D01*
X146892766Y-111309534D01*
X146964454Y-111482604D01*
X147001000Y-111666333D01*
X147001000Y-111853667D01*
X146964454Y-112037396D01*
X146892766Y-112210466D01*
X146788688Y-112366230D01*
X146656230Y-112498688D01*
X146500466Y-112602766D01*
X146327396Y-112674454D01*
X146143667Y-112711000D01*
X145956333Y-112711000D01*
X145772604Y-112674454D01*
X145599534Y-112602766D01*
X145443770Y-112498688D01*
X145311312Y-112366230D01*
X145207234Y-112210466D01*
X145135546Y-112037396D01*
X145099000Y-111853667D01*
X145099000Y-111666333D01*
X145135546Y-111482604D01*
X145207234Y-111309534D01*
X145311312Y-111153770D01*
X145443770Y-111021312D01*
X145599534Y-110917234D01*
X145772604Y-110845546D01*
X145956333Y-110809000D01*
X146143667Y-110809000D01*
X146327396Y-110845546D01*
X146327396Y-110845546D01*
G37*
G36*
X186430256Y-105706298D02*
X186536579Y-105727447D01*
X186837042Y-105851903D01*
X187082970Y-106016227D01*
X187107454Y-106032587D01*
X187337413Y-106262546D01*
X187518098Y-106532960D01*
X187642553Y-106833422D01*
X187706000Y-107152389D01*
X187706000Y-107477611D01*
X187642553Y-107796578D01*
X187518098Y-108097040D01*
X187337413Y-108367454D01*
X187107454Y-108597413D01*
X187107451Y-108597415D01*
X186837042Y-108778097D01*
X186536579Y-108902553D01*
X186430256Y-108923702D01*
X186217611Y-108966000D01*
X185892389Y-108966000D01*
X185679744Y-108923702D01*
X185573421Y-108902553D01*
X185272958Y-108778097D01*
X185002549Y-108597415D01*
X185002546Y-108597413D01*
X184772587Y-108367454D01*
X184591902Y-108097040D01*
X184467447Y-107796578D01*
X184404000Y-107477611D01*
X184404000Y-107152389D01*
X184467447Y-106833422D01*
X184591902Y-106532960D01*
X184772587Y-106262546D01*
X185002546Y-106032587D01*
X185027030Y-106016227D01*
X185272958Y-105851903D01*
X185573421Y-105727447D01*
X185679744Y-105706298D01*
X185892389Y-105664000D01*
X186217611Y-105664000D01*
X186430256Y-105706298D01*
X186430256Y-105706298D01*
G37*
G36*
X114577396Y-104495546D02*
X114750466Y-104567234D01*
X114906230Y-104671312D01*
X115038688Y-104803770D01*
X115142766Y-104959534D01*
X115214454Y-105132604D01*
X115251000Y-105316333D01*
X115251000Y-105503667D01*
X115214454Y-105687396D01*
X115142766Y-105860466D01*
X115038688Y-106016230D01*
X114906230Y-106148688D01*
X114750466Y-106252766D01*
X114577396Y-106324454D01*
X114393667Y-106361000D01*
X114206333Y-106361000D01*
X114022604Y-106324454D01*
X113849534Y-106252766D01*
X113693770Y-106148688D01*
X113561312Y-106016230D01*
X113457234Y-105860466D01*
X113385546Y-105687396D01*
X113349000Y-105503667D01*
X113349000Y-105316333D01*
X113385546Y-105132604D01*
X113457234Y-104959534D01*
X113561312Y-104803770D01*
X113693770Y-104671312D01*
X113849534Y-104567234D01*
X114022604Y-104495546D01*
X114206333Y-104459000D01*
X114393667Y-104459000D01*
X114577396Y-104495546D01*
X114577396Y-104495546D01*
G37*
G36*
X140612396Y-101955546D02*
X140785466Y-102027234D01*
X140941230Y-102131312D01*
X141073688Y-102263770D01*
X141177766Y-102419534D01*
X141249454Y-102592604D01*
X141286000Y-102776333D01*
X141286000Y-102963667D01*
X141249454Y-103147396D01*
X141177766Y-103320466D01*
X141073688Y-103476230D01*
X140941230Y-103608688D01*
X140785466Y-103712766D01*
X140612396Y-103784454D01*
X140428667Y-103821000D01*
X140241333Y-103821000D01*
X140057604Y-103784454D01*
X139884534Y-103712766D01*
X139728770Y-103608688D01*
X139596312Y-103476230D01*
X139492234Y-103320466D01*
X139420546Y-103147396D01*
X139384000Y-102963667D01*
X139384000Y-102776333D01*
X139420546Y-102592604D01*
X139492234Y-102419534D01*
X139596312Y-102263770D01*
X139728770Y-102131312D01*
X139884534Y-102027234D01*
X140057604Y-101955546D01*
X140241333Y-101919000D01*
X140428667Y-101919000D01*
X140612396Y-101955546D01*
X140612396Y-101955546D01*
G37*
G36*
X114577396Y-101955546D02*
X114750466Y-102027234D01*
X114906230Y-102131312D01*
X115038688Y-102263770D01*
X115142766Y-102419534D01*
X115214454Y-102592604D01*
X115251000Y-102776333D01*
X115251000Y-102963667D01*
X115214454Y-103147396D01*
X115142766Y-103320466D01*
X115038688Y-103476230D01*
X114906230Y-103608688D01*
X114750466Y-103712766D01*
X114577396Y-103784454D01*
X114393667Y-103821000D01*
X114206333Y-103821000D01*
X114022604Y-103784454D01*
X113849534Y-103712766D01*
X113693770Y-103608688D01*
X113561312Y-103476230D01*
X113457234Y-103320466D01*
X113385546Y-103147396D01*
X113349000Y-102963667D01*
X113349000Y-102776333D01*
X113385546Y-102592604D01*
X113457234Y-102419534D01*
X113561312Y-102263770D01*
X113693770Y-102131312D01*
X113849534Y-102027234D01*
X114022604Y-101955546D01*
X114206333Y-101919000D01*
X114393667Y-101919000D01*
X114577396Y-101955546D01*
X114577396Y-101955546D01*
G37*
G36*
X143152396Y-101955546D02*
X143325466Y-102027234D01*
X143481230Y-102131312D01*
X143613688Y-102263770D01*
X143717766Y-102419534D01*
X143789454Y-102592604D01*
X143826000Y-102776333D01*
X143826000Y-102963667D01*
X143789454Y-103147396D01*
X143717766Y-103320466D01*
X143613688Y-103476230D01*
X143481230Y-103608688D01*
X143325466Y-103712766D01*
X143152396Y-103784454D01*
X142968667Y-103821000D01*
X142781333Y-103821000D01*
X142597604Y-103784454D01*
X142424534Y-103712766D01*
X142268770Y-103608688D01*
X142136312Y-103476230D01*
X142032234Y-103320466D01*
X141960546Y-103147396D01*
X141924000Y-102963667D01*
X141924000Y-102776333D01*
X141960546Y-102592604D01*
X142032234Y-102419534D01*
X142136312Y-102263770D01*
X142268770Y-102131312D01*
X142424534Y-102027234D01*
X142597604Y-101955546D01*
X142781333Y-101919000D01*
X142968667Y-101919000D01*
X143152396Y-101955546D01*
X143152396Y-101955546D01*
G37*
G36*
X153312396Y-101955546D02*
X153485466Y-102027234D01*
X153641230Y-102131312D01*
X153773688Y-102263770D01*
X153877766Y-102419534D01*
X153949454Y-102592604D01*
X153986000Y-102776333D01*
X153986000Y-102963667D01*
X153949454Y-103147396D01*
X153877766Y-103320466D01*
X153773688Y-103476230D01*
X153641230Y-103608688D01*
X153485466Y-103712766D01*
X153312396Y-103784454D01*
X153128667Y-103821000D01*
X152941333Y-103821000D01*
X152757604Y-103784454D01*
X152584534Y-103712766D01*
X152428770Y-103608688D01*
X152296312Y-103476230D01*
X152192234Y-103320466D01*
X152120546Y-103147396D01*
X152084000Y-102963667D01*
X152084000Y-102776333D01*
X152120546Y-102592604D01*
X152192234Y-102419534D01*
X152296312Y-102263770D01*
X152428770Y-102131312D01*
X152584534Y-102027234D01*
X152757604Y-101955546D01*
X152941333Y-101919000D01*
X153128667Y-101919000D01*
X153312396Y-101955546D01*
X153312396Y-101955546D01*
G37*
G36*
X160932396Y-101955546D02*
X161105466Y-102027234D01*
X161261230Y-102131312D01*
X161393688Y-102263770D01*
X161497766Y-102419534D01*
X161569454Y-102592604D01*
X161606000Y-102776333D01*
X161606000Y-102963667D01*
X161569454Y-103147396D01*
X161497766Y-103320466D01*
X161393688Y-103476230D01*
X161261230Y-103608688D01*
X161105466Y-103712766D01*
X160932396Y-103784454D01*
X160748667Y-103821000D01*
X160561333Y-103821000D01*
X160377604Y-103784454D01*
X160204534Y-103712766D01*
X160048770Y-103608688D01*
X159916312Y-103476230D01*
X159812234Y-103320466D01*
X159740546Y-103147396D01*
X159704000Y-102963667D01*
X159704000Y-102776333D01*
X159740546Y-102592604D01*
X159812234Y-102419534D01*
X159916312Y-102263770D01*
X160048770Y-102131312D01*
X160204534Y-102027234D01*
X160377604Y-101955546D01*
X160561333Y-101919000D01*
X160748667Y-101919000D01*
X160932396Y-101955546D01*
X160932396Y-101955546D01*
G37*
G36*
X176807396Y-101320546D02*
X176980466Y-101392234D01*
X177136230Y-101496312D01*
X177268688Y-101628770D01*
X177372766Y-101784534D01*
X177444454Y-101957604D01*
X177481000Y-102141333D01*
X177481000Y-102328667D01*
X177444454Y-102512396D01*
X177372766Y-102685466D01*
X177268688Y-102841230D01*
X177136230Y-102973688D01*
X176980466Y-103077766D01*
X176807396Y-103149454D01*
X176623667Y-103186000D01*
X176436333Y-103186000D01*
X176252604Y-103149454D01*
X176079534Y-103077766D01*
X175923770Y-102973688D01*
X175791312Y-102841230D01*
X175687234Y-102685466D01*
X175615546Y-102512396D01*
X175579000Y-102328667D01*
X175579000Y-102141333D01*
X175615546Y-101957604D01*
X175687234Y-101784534D01*
X175791312Y-101628770D01*
X175923770Y-101496312D01*
X176079534Y-101392234D01*
X176252604Y-101320546D01*
X176436333Y-101284000D01*
X176623667Y-101284000D01*
X176807396Y-101320546D01*
X176807396Y-101320546D01*
G37*
G36*
X184427396Y-101320546D02*
X184600466Y-101392234D01*
X184756230Y-101496312D01*
X184888688Y-101628770D01*
X184992766Y-101784534D01*
X185064454Y-101957604D01*
X185101000Y-102141333D01*
X185101000Y-102328667D01*
X185064454Y-102512396D01*
X184992766Y-102685466D01*
X184888688Y-102841230D01*
X184756230Y-102973688D01*
X184600466Y-103077766D01*
X184427396Y-103149454D01*
X184243667Y-103186000D01*
X184056333Y-103186000D01*
X183872604Y-103149454D01*
X183699534Y-103077766D01*
X183543770Y-102973688D01*
X183411312Y-102841230D01*
X183307234Y-102685466D01*
X183235546Y-102512396D01*
X183199000Y-102328667D01*
X183199000Y-102141333D01*
X183235546Y-101957604D01*
X183307234Y-101784534D01*
X183411312Y-101628770D01*
X183543770Y-101496312D01*
X183699534Y-101392234D01*
X183872604Y-101320546D01*
X184056333Y-101284000D01*
X184243667Y-101284000D01*
X184427396Y-101320546D01*
X184427396Y-101320546D01*
G37*
G36*
X181887396Y-101320546D02*
X182060466Y-101392234D01*
X182216230Y-101496312D01*
X182348688Y-101628770D01*
X182452766Y-101784534D01*
X182524454Y-101957604D01*
X182561000Y-102141333D01*
X182561000Y-102328667D01*
X182524454Y-102512396D01*
X182452766Y-102685466D01*
X182348688Y-102841230D01*
X182216230Y-102973688D01*
X182060466Y-103077766D01*
X181887396Y-103149454D01*
X181703667Y-103186000D01*
X181516333Y-103186000D01*
X181332604Y-103149454D01*
X181159534Y-103077766D01*
X181003770Y-102973688D01*
X180871312Y-102841230D01*
X180767234Y-102685466D01*
X180695546Y-102512396D01*
X180659000Y-102328667D01*
X180659000Y-102141333D01*
X180695546Y-101957604D01*
X180767234Y-101784534D01*
X180871312Y-101628770D01*
X181003770Y-101496312D01*
X181159534Y-101392234D01*
X181332604Y-101320546D01*
X181516333Y-101284000D01*
X181703667Y-101284000D01*
X181887396Y-101320546D01*
X181887396Y-101320546D01*
G37*
G36*
X179347396Y-101320546D02*
X179520466Y-101392234D01*
X179676230Y-101496312D01*
X179808688Y-101628770D01*
X179912766Y-101784534D01*
X179984454Y-101957604D01*
X180021000Y-102141333D01*
X180021000Y-102328667D01*
X179984454Y-102512396D01*
X179912766Y-102685466D01*
X179808688Y-102841230D01*
X179676230Y-102973688D01*
X179520466Y-103077766D01*
X179347396Y-103149454D01*
X179163667Y-103186000D01*
X178976333Y-103186000D01*
X178792604Y-103149454D01*
X178619534Y-103077766D01*
X178463770Y-102973688D01*
X178331312Y-102841230D01*
X178227234Y-102685466D01*
X178155546Y-102512396D01*
X178119000Y-102328667D01*
X178119000Y-102141333D01*
X178155546Y-101957604D01*
X178227234Y-101784534D01*
X178331312Y-101628770D01*
X178463770Y-101496312D01*
X178619534Y-101392234D01*
X178792604Y-101320546D01*
X178976333Y-101284000D01*
X179163667Y-101284000D01*
X179347396Y-101320546D01*
X179347396Y-101320546D01*
G37*
G36*
X114577396Y-99415546D02*
X114750466Y-99487234D01*
X114906230Y-99591312D01*
X115038688Y-99723770D01*
X115142766Y-99879534D01*
X115214454Y-100052604D01*
X115251000Y-100236333D01*
X115251000Y-100423667D01*
X115214454Y-100607396D01*
X115142766Y-100780466D01*
X115038688Y-100936230D01*
X114906230Y-101068688D01*
X114750466Y-101172766D01*
X114577396Y-101244454D01*
X114393667Y-101281000D01*
X114206333Y-101281000D01*
X114022604Y-101244454D01*
X113849534Y-101172766D01*
X113693770Y-101068688D01*
X113561312Y-100936230D01*
X113457234Y-100780466D01*
X113385546Y-100607396D01*
X113349000Y-100423667D01*
X113349000Y-100236333D01*
X113385546Y-100052604D01*
X113457234Y-99879534D01*
X113561312Y-99723770D01*
X113693770Y-99591312D01*
X113849534Y-99487234D01*
X114022604Y-99415546D01*
X114206333Y-99379000D01*
X114393667Y-99379000D01*
X114577396Y-99415546D01*
X114577396Y-99415546D01*
G37*
G36*
X114577396Y-96875546D02*
X114750466Y-96947234D01*
X114906230Y-97051312D01*
X115038688Y-97183770D01*
X115142766Y-97339534D01*
X115214454Y-97512604D01*
X115251000Y-97696333D01*
X115251000Y-97883667D01*
X115214454Y-98067396D01*
X115142766Y-98240466D01*
X115038688Y-98396230D01*
X114906230Y-98528688D01*
X114750466Y-98632766D01*
X114577396Y-98704454D01*
X114393667Y-98741000D01*
X114206333Y-98741000D01*
X114022604Y-98704454D01*
X113849534Y-98632766D01*
X113693770Y-98528688D01*
X113561312Y-98396230D01*
X113457234Y-98240466D01*
X113385546Y-98067396D01*
X113349000Y-97883667D01*
X113349000Y-97696333D01*
X113385546Y-97512604D01*
X113457234Y-97339534D01*
X113561312Y-97183770D01*
X113693770Y-97051312D01*
X113849534Y-96947234D01*
X114022604Y-96875546D01*
X114206333Y-96839000D01*
X114393667Y-96839000D01*
X114577396Y-96875546D01*
X114577396Y-96875546D01*
G37*
G36*
X122197396Y-96240546D02*
X122370466Y-96312234D01*
X122526230Y-96416312D01*
X122658688Y-96548770D01*
X122762766Y-96704534D01*
X122834454Y-96877604D01*
X122871000Y-97061333D01*
X122871000Y-97248667D01*
X122834454Y-97432396D01*
X122762766Y-97605466D01*
X122658688Y-97761230D01*
X122526230Y-97893688D01*
X122370466Y-97997766D01*
X122197396Y-98069454D01*
X122013667Y-98106000D01*
X121826333Y-98106000D01*
X121642604Y-98069454D01*
X121469534Y-97997766D01*
X121313770Y-97893688D01*
X121181312Y-97761230D01*
X121077234Y-97605466D01*
X121005546Y-97432396D01*
X120969000Y-97248667D01*
X120969000Y-97061333D01*
X121005546Y-96877604D01*
X121077234Y-96704534D01*
X121181312Y-96548770D01*
X121313770Y-96416312D01*
X121469534Y-96312234D01*
X121642604Y-96240546D01*
X121826333Y-96204000D01*
X122013667Y-96204000D01*
X122197396Y-96240546D01*
X122197396Y-96240546D01*
G37*
G36*
X145057396Y-96240546D02*
X145230466Y-96312234D01*
X145386230Y-96416312D01*
X145518688Y-96548770D01*
X145622766Y-96704534D01*
X145694454Y-96877604D01*
X145731000Y-97061333D01*
X145731000Y-97248667D01*
X145694454Y-97432396D01*
X145622766Y-97605466D01*
X145518688Y-97761230D01*
X145386230Y-97893688D01*
X145230466Y-97997766D01*
X145057396Y-98069454D01*
X144873667Y-98106000D01*
X144686333Y-98106000D01*
X144502604Y-98069454D01*
X144329534Y-97997766D01*
X144173770Y-97893688D01*
X144041312Y-97761230D01*
X143937234Y-97605466D01*
X143865546Y-97432396D01*
X143829000Y-97248667D01*
X143829000Y-97061333D01*
X143865546Y-96877604D01*
X143937234Y-96704534D01*
X144041312Y-96548770D01*
X144173770Y-96416312D01*
X144329534Y-96312234D01*
X144502604Y-96240546D01*
X144686333Y-96204000D01*
X144873667Y-96204000D01*
X145057396Y-96240546D01*
X145057396Y-96240546D01*
G37*
G36*
X114577396Y-94335546D02*
X114750466Y-94407234D01*
X114906230Y-94511312D01*
X115038688Y-94643770D01*
X115142766Y-94799534D01*
X115214454Y-94972604D01*
X115251000Y-95156333D01*
X115251000Y-95343667D01*
X115214454Y-95527396D01*
X115142766Y-95700466D01*
X115038688Y-95856230D01*
X114906230Y-95988688D01*
X114750466Y-96092766D01*
X114577396Y-96164454D01*
X114393667Y-96201000D01*
X114206333Y-96201000D01*
X114022604Y-96164454D01*
X113849534Y-96092766D01*
X113693770Y-95988688D01*
X113561312Y-95856230D01*
X113457234Y-95700466D01*
X113385546Y-95527396D01*
X113349000Y-95343667D01*
X113349000Y-95156333D01*
X113385546Y-94972604D01*
X113457234Y-94799534D01*
X113561312Y-94643770D01*
X113693770Y-94511312D01*
X113849534Y-94407234D01*
X114022604Y-94335546D01*
X114206333Y-94299000D01*
X114393667Y-94299000D01*
X114577396Y-94335546D01*
X114577396Y-94335546D01*
G37*
G36*
X137437396Y-94335546D02*
X137610466Y-94407234D01*
X137766230Y-94511312D01*
X137898688Y-94643770D01*
X138002766Y-94799534D01*
X138074454Y-94972604D01*
X138111000Y-95156333D01*
X138111000Y-95343667D01*
X138074454Y-95527396D01*
X138002766Y-95700466D01*
X137898688Y-95856230D01*
X137766230Y-95988688D01*
X137610466Y-96092766D01*
X137437396Y-96164454D01*
X137253667Y-96201000D01*
X137066333Y-96201000D01*
X136882604Y-96164454D01*
X136709534Y-96092766D01*
X136553770Y-95988688D01*
X136421312Y-95856230D01*
X136317234Y-95700466D01*
X136245546Y-95527396D01*
X136209000Y-95343667D01*
X136209000Y-95156333D01*
X136245546Y-94972604D01*
X136317234Y-94799534D01*
X136421312Y-94643770D01*
X136553770Y-94511312D01*
X136709534Y-94407234D01*
X136882604Y-94335546D01*
X137066333Y-94299000D01*
X137253667Y-94299000D01*
X137437396Y-94335546D01*
X137437396Y-94335546D01*
G37*
G36*
X155217396Y-93700546D02*
X155390466Y-93772234D01*
X155546230Y-93876312D01*
X155678688Y-94008770D01*
X155782766Y-94164534D01*
X155854454Y-94337604D01*
X155891000Y-94521333D01*
X155891000Y-94708667D01*
X155854454Y-94892396D01*
X155782766Y-95065466D01*
X155678688Y-95221230D01*
X155546230Y-95353688D01*
X155390466Y-95457766D01*
X155217396Y-95529454D01*
X155033667Y-95566000D01*
X154846333Y-95566000D01*
X154662604Y-95529454D01*
X154489534Y-95457766D01*
X154333770Y-95353688D01*
X154201312Y-95221230D01*
X154097234Y-95065466D01*
X154025546Y-94892396D01*
X153989000Y-94708667D01*
X153989000Y-94521333D01*
X154025546Y-94337604D01*
X154097234Y-94164534D01*
X154201312Y-94008770D01*
X154333770Y-93876312D01*
X154489534Y-93772234D01*
X154662604Y-93700546D01*
X154846333Y-93664000D01*
X155033667Y-93664000D01*
X155217396Y-93700546D01*
X155217396Y-93700546D01*
G37*
G36*
X122197396Y-93700546D02*
X122370466Y-93772234D01*
X122526230Y-93876312D01*
X122658688Y-94008770D01*
X122762766Y-94164534D01*
X122834454Y-94337604D01*
X122871000Y-94521333D01*
X122871000Y-94708667D01*
X122834454Y-94892396D01*
X122762766Y-95065466D01*
X122658688Y-95221230D01*
X122526230Y-95353688D01*
X122370466Y-95457766D01*
X122197396Y-95529454D01*
X122013667Y-95566000D01*
X121826333Y-95566000D01*
X121642604Y-95529454D01*
X121469534Y-95457766D01*
X121313770Y-95353688D01*
X121181312Y-95221230D01*
X121077234Y-95065466D01*
X121005546Y-94892396D01*
X120969000Y-94708667D01*
X120969000Y-94521333D01*
X121005546Y-94337604D01*
X121077234Y-94164534D01*
X121181312Y-94008770D01*
X121313770Y-93876312D01*
X121469534Y-93772234D01*
X121642604Y-93700546D01*
X121826333Y-93664000D01*
X122013667Y-93664000D01*
X122197396Y-93700546D01*
X122197396Y-93700546D01*
G37*
G36*
X145057396Y-93700546D02*
X145230466Y-93772234D01*
X145386230Y-93876312D01*
X145518688Y-94008770D01*
X145622766Y-94164534D01*
X145694454Y-94337604D01*
X145731000Y-94521333D01*
X145731000Y-94708667D01*
X145694454Y-94892396D01*
X145622766Y-95065466D01*
X145518688Y-95221230D01*
X145386230Y-95353688D01*
X145230466Y-95457766D01*
X145057396Y-95529454D01*
X144873667Y-95566000D01*
X144686333Y-95566000D01*
X144502604Y-95529454D01*
X144329534Y-95457766D01*
X144173770Y-95353688D01*
X144041312Y-95221230D01*
X143937234Y-95065466D01*
X143865546Y-94892396D01*
X143829000Y-94708667D01*
X143829000Y-94521333D01*
X143865546Y-94337604D01*
X143937234Y-94164534D01*
X144041312Y-94008770D01*
X144173770Y-93876312D01*
X144329534Y-93772234D01*
X144502604Y-93700546D01*
X144686333Y-93664000D01*
X144873667Y-93664000D01*
X145057396Y-93700546D01*
X145057396Y-93700546D01*
G37*
G36*
X160297396Y-93700546D02*
X160470466Y-93772234D01*
X160626230Y-93876312D01*
X160758688Y-94008770D01*
X160862766Y-94164534D01*
X160934454Y-94337604D01*
X160971000Y-94521333D01*
X160971000Y-94708667D01*
X160934454Y-94892396D01*
X160862766Y-95065466D01*
X160758688Y-95221230D01*
X160626230Y-95353688D01*
X160470466Y-95457766D01*
X160297396Y-95529454D01*
X160113667Y-95566000D01*
X159926333Y-95566000D01*
X159742604Y-95529454D01*
X159569534Y-95457766D01*
X159413770Y-95353688D01*
X159281312Y-95221230D01*
X159177234Y-95065466D01*
X159105546Y-94892396D01*
X159069000Y-94708667D01*
X159069000Y-94521333D01*
X159105546Y-94337604D01*
X159177234Y-94164534D01*
X159281312Y-94008770D01*
X159413770Y-93876312D01*
X159569534Y-93772234D01*
X159742604Y-93700546D01*
X159926333Y-93664000D01*
X160113667Y-93664000D01*
X160297396Y-93700546D01*
X160297396Y-93700546D01*
G37*
G36*
X114577396Y-91795546D02*
X114750466Y-91867234D01*
X114906230Y-91971312D01*
X115038688Y-92103770D01*
X115142766Y-92259534D01*
X115214454Y-92432604D01*
X115251000Y-92616333D01*
X115251000Y-92803667D01*
X115214454Y-92987396D01*
X115142766Y-93160466D01*
X115038688Y-93316230D01*
X114906230Y-93448688D01*
X114750466Y-93552766D01*
X114577396Y-93624454D01*
X114393667Y-93661000D01*
X114206333Y-93661000D01*
X114022604Y-93624454D01*
X113849534Y-93552766D01*
X113693770Y-93448688D01*
X113561312Y-93316230D01*
X113457234Y-93160466D01*
X113385546Y-92987396D01*
X113349000Y-92803667D01*
X113349000Y-92616333D01*
X113385546Y-92432604D01*
X113457234Y-92259534D01*
X113561312Y-92103770D01*
X113693770Y-91971312D01*
X113849534Y-91867234D01*
X114022604Y-91795546D01*
X114206333Y-91759000D01*
X114393667Y-91759000D01*
X114577396Y-91795546D01*
X114577396Y-91795546D01*
G37*
G36*
X145057396Y-91160546D02*
X145230466Y-91232234D01*
X145386230Y-91336312D01*
X145518688Y-91468770D01*
X145622766Y-91624534D01*
X145694454Y-91797604D01*
X145731000Y-91981333D01*
X145731000Y-92168667D01*
X145694454Y-92352396D01*
X145622766Y-92525466D01*
X145518688Y-92681230D01*
X145386230Y-92813688D01*
X145230466Y-92917766D01*
X145057396Y-92989454D01*
X144873667Y-93026000D01*
X144686333Y-93026000D01*
X144502604Y-92989454D01*
X144329534Y-92917766D01*
X144173770Y-92813688D01*
X144041312Y-92681230D01*
X143937234Y-92525466D01*
X143865546Y-92352396D01*
X143829000Y-92168667D01*
X143829000Y-91981333D01*
X143865546Y-91797604D01*
X143937234Y-91624534D01*
X144041312Y-91468770D01*
X144173770Y-91336312D01*
X144329534Y-91232234D01*
X144502604Y-91160546D01*
X144686333Y-91124000D01*
X144873667Y-91124000D01*
X145057396Y-91160546D01*
X145057396Y-91160546D01*
G37*
G36*
X122197396Y-91160546D02*
X122370466Y-91232234D01*
X122526230Y-91336312D01*
X122658688Y-91468770D01*
X122762766Y-91624534D01*
X122834454Y-91797604D01*
X122871000Y-91981333D01*
X122871000Y-92168667D01*
X122834454Y-92352396D01*
X122762766Y-92525466D01*
X122658688Y-92681230D01*
X122526230Y-92813688D01*
X122370466Y-92917766D01*
X122197396Y-92989454D01*
X122013667Y-93026000D01*
X121826333Y-93026000D01*
X121642604Y-92989454D01*
X121469534Y-92917766D01*
X121313770Y-92813688D01*
X121181312Y-92681230D01*
X121077234Y-92525466D01*
X121005546Y-92352396D01*
X120969000Y-92168667D01*
X120969000Y-91981333D01*
X121005546Y-91797604D01*
X121077234Y-91624534D01*
X121181312Y-91468770D01*
X121313770Y-91336312D01*
X121469534Y-91232234D01*
X121642604Y-91160546D01*
X121826333Y-91124000D01*
X122013667Y-91124000D01*
X122197396Y-91160546D01*
X122197396Y-91160546D01*
G37*
G36*
X114577396Y-89255546D02*
X114750466Y-89327234D01*
X114906230Y-89431312D01*
X115038688Y-89563770D01*
X115142766Y-89719534D01*
X115214454Y-89892604D01*
X115251000Y-90076333D01*
X115251000Y-90263667D01*
X115214454Y-90447396D01*
X115142766Y-90620466D01*
X115038688Y-90776230D01*
X114906230Y-90908688D01*
X114750466Y-91012766D01*
X114577396Y-91084454D01*
X114393667Y-91121000D01*
X114206333Y-91121000D01*
X114022604Y-91084454D01*
X113849534Y-91012766D01*
X113693770Y-90908688D01*
X113561312Y-90776230D01*
X113457234Y-90620466D01*
X113385546Y-90447396D01*
X113349000Y-90263667D01*
X113349000Y-90076333D01*
X113385546Y-89892604D01*
X113457234Y-89719534D01*
X113561312Y-89563770D01*
X113693770Y-89431312D01*
X113849534Y-89327234D01*
X114022604Y-89255546D01*
X114206333Y-89219000D01*
X114393667Y-89219000D01*
X114577396Y-89255546D01*
X114577396Y-89255546D01*
G37*
G36*
X145057396Y-88620546D02*
X145230466Y-88692234D01*
X145386230Y-88796312D01*
X145518688Y-88928770D01*
X145622766Y-89084534D01*
X145694454Y-89257604D01*
X145731000Y-89441333D01*
X145731000Y-89628667D01*
X145694454Y-89812396D01*
X145622766Y-89985466D01*
X145518688Y-90141230D01*
X145386230Y-90273688D01*
X145230466Y-90377766D01*
X145057396Y-90449454D01*
X144873667Y-90486000D01*
X144686333Y-90486000D01*
X144502604Y-90449454D01*
X144329534Y-90377766D01*
X144173770Y-90273688D01*
X144041312Y-90141230D01*
X143937234Y-89985466D01*
X143865546Y-89812396D01*
X143829000Y-89628667D01*
X143829000Y-89441333D01*
X143865546Y-89257604D01*
X143937234Y-89084534D01*
X144041312Y-88928770D01*
X144173770Y-88796312D01*
X144329534Y-88692234D01*
X144502604Y-88620546D01*
X144686333Y-88584000D01*
X144873667Y-88584000D01*
X145057396Y-88620546D01*
X145057396Y-88620546D01*
G37*
G36*
X160297396Y-88620546D02*
X160470466Y-88692234D01*
X160626230Y-88796312D01*
X160758688Y-88928770D01*
X160862766Y-89084534D01*
X160934454Y-89257604D01*
X160971000Y-89441333D01*
X160971000Y-89628667D01*
X160934454Y-89812396D01*
X160862766Y-89985466D01*
X160758688Y-90141230D01*
X160626230Y-90273688D01*
X160470466Y-90377766D01*
X160297396Y-90449454D01*
X160113667Y-90486000D01*
X159926333Y-90486000D01*
X159742604Y-90449454D01*
X159569534Y-90377766D01*
X159413770Y-90273688D01*
X159281312Y-90141230D01*
X159177234Y-89985466D01*
X159105546Y-89812396D01*
X159069000Y-89628667D01*
X159069000Y-89441333D01*
X159105546Y-89257604D01*
X159177234Y-89084534D01*
X159281312Y-88928770D01*
X159413770Y-88796312D01*
X159569534Y-88692234D01*
X159742604Y-88620546D01*
X159926333Y-88584000D01*
X160113667Y-88584000D01*
X160297396Y-88620546D01*
X160297396Y-88620546D01*
G37*
G36*
X155217396Y-88620546D02*
X155390466Y-88692234D01*
X155546230Y-88796312D01*
X155678688Y-88928770D01*
X155782766Y-89084534D01*
X155854454Y-89257604D01*
X155891000Y-89441333D01*
X155891000Y-89628667D01*
X155854454Y-89812396D01*
X155782766Y-89985466D01*
X155678688Y-90141230D01*
X155546230Y-90273688D01*
X155390466Y-90377766D01*
X155217396Y-90449454D01*
X155033667Y-90486000D01*
X154846333Y-90486000D01*
X154662604Y-90449454D01*
X154489534Y-90377766D01*
X154333770Y-90273688D01*
X154201312Y-90141230D01*
X154097234Y-89985466D01*
X154025546Y-89812396D01*
X153989000Y-89628667D01*
X153989000Y-89441333D01*
X154025546Y-89257604D01*
X154097234Y-89084534D01*
X154201312Y-88928770D01*
X154333770Y-88796312D01*
X154489534Y-88692234D01*
X154662604Y-88620546D01*
X154846333Y-88584000D01*
X155033667Y-88584000D01*
X155217396Y-88620546D01*
X155217396Y-88620546D01*
G37*
G36*
X122197396Y-88620546D02*
X122370466Y-88692234D01*
X122526230Y-88796312D01*
X122658688Y-88928770D01*
X122762766Y-89084534D01*
X122834454Y-89257604D01*
X122871000Y-89441333D01*
X122871000Y-89628667D01*
X122834454Y-89812396D01*
X122762766Y-89985466D01*
X122658688Y-90141230D01*
X122526230Y-90273688D01*
X122370466Y-90377766D01*
X122197396Y-90449454D01*
X122013667Y-90486000D01*
X121826333Y-90486000D01*
X121642604Y-90449454D01*
X121469534Y-90377766D01*
X121313770Y-90273688D01*
X121181312Y-90141230D01*
X121077234Y-89985466D01*
X121005546Y-89812396D01*
X120969000Y-89628667D01*
X120969000Y-89441333D01*
X121005546Y-89257604D01*
X121077234Y-89084534D01*
X121181312Y-88928770D01*
X121313770Y-88796312D01*
X121469534Y-88692234D01*
X121642604Y-88620546D01*
X121826333Y-88584000D01*
X122013667Y-88584000D01*
X122197396Y-88620546D01*
X122197396Y-88620546D01*
G37*
G36*
X114577396Y-86715546D02*
X114750466Y-86787234D01*
X114906230Y-86891312D01*
X115038688Y-87023770D01*
X115142766Y-87179534D01*
X115214454Y-87352604D01*
X115251000Y-87536333D01*
X115251000Y-87723667D01*
X115214454Y-87907396D01*
X115142766Y-88080466D01*
X115038688Y-88236230D01*
X114906230Y-88368688D01*
X114750466Y-88472766D01*
X114577396Y-88544454D01*
X114393667Y-88581000D01*
X114206333Y-88581000D01*
X114022604Y-88544454D01*
X113849534Y-88472766D01*
X113693770Y-88368688D01*
X113561312Y-88236230D01*
X113457234Y-88080466D01*
X113385546Y-87907396D01*
X113349000Y-87723667D01*
X113349000Y-87536333D01*
X113385546Y-87352604D01*
X113457234Y-87179534D01*
X113561312Y-87023770D01*
X113693770Y-86891312D01*
X113849534Y-86787234D01*
X114022604Y-86715546D01*
X114206333Y-86679000D01*
X114393667Y-86679000D01*
X114577396Y-86715546D01*
X114577396Y-86715546D01*
G37*
G36*
X145057396Y-86080546D02*
X145230466Y-86152234D01*
X145386230Y-86256312D01*
X145518688Y-86388770D01*
X145622766Y-86544534D01*
X145694454Y-86717604D01*
X145731000Y-86901333D01*
X145731000Y-87088667D01*
X145694454Y-87272396D01*
X145622766Y-87445466D01*
X145518688Y-87601230D01*
X145386230Y-87733688D01*
X145230466Y-87837766D01*
X145057396Y-87909454D01*
X144873667Y-87946000D01*
X144686333Y-87946000D01*
X144502604Y-87909454D01*
X144329534Y-87837766D01*
X144173770Y-87733688D01*
X144041312Y-87601230D01*
X143937234Y-87445466D01*
X143865546Y-87272396D01*
X143829000Y-87088667D01*
X143829000Y-86901333D01*
X143865546Y-86717604D01*
X143937234Y-86544534D01*
X144041312Y-86388770D01*
X144173770Y-86256312D01*
X144329534Y-86152234D01*
X144502604Y-86080546D01*
X144686333Y-86044000D01*
X144873667Y-86044000D01*
X145057396Y-86080546D01*
X145057396Y-86080546D01*
G37*
G36*
X122197396Y-86080546D02*
X122370466Y-86152234D01*
X122526230Y-86256312D01*
X122658688Y-86388770D01*
X122762766Y-86544534D01*
X122834454Y-86717604D01*
X122871000Y-86901333D01*
X122871000Y-87088667D01*
X122834454Y-87272396D01*
X122762766Y-87445466D01*
X122658688Y-87601230D01*
X122526230Y-87733688D01*
X122370466Y-87837766D01*
X122197396Y-87909454D01*
X122013667Y-87946000D01*
X121826333Y-87946000D01*
X121642604Y-87909454D01*
X121469534Y-87837766D01*
X121313770Y-87733688D01*
X121181312Y-87601230D01*
X121077234Y-87445466D01*
X121005546Y-87272396D01*
X120969000Y-87088667D01*
X120969000Y-86901333D01*
X121005546Y-86717604D01*
X121077234Y-86544534D01*
X121181312Y-86388770D01*
X121313770Y-86256312D01*
X121469534Y-86152234D01*
X121642604Y-86080546D01*
X121826333Y-86044000D01*
X122013667Y-86044000D01*
X122197396Y-86080546D01*
X122197396Y-86080546D01*
G37*
G36*
X114577396Y-84175546D02*
X114750466Y-84247234D01*
X114906230Y-84351312D01*
X115038688Y-84483770D01*
X115142766Y-84639534D01*
X115214454Y-84812604D01*
X115251000Y-84996333D01*
X115251000Y-85183667D01*
X115214454Y-85367396D01*
X115142766Y-85540466D01*
X115038688Y-85696230D01*
X114906230Y-85828688D01*
X114750466Y-85932766D01*
X114577396Y-86004454D01*
X114393667Y-86041000D01*
X114206333Y-86041000D01*
X114022604Y-86004454D01*
X113849534Y-85932766D01*
X113693770Y-85828688D01*
X113561312Y-85696230D01*
X113457234Y-85540466D01*
X113385546Y-85367396D01*
X113349000Y-85183667D01*
X113349000Y-84996333D01*
X113385546Y-84812604D01*
X113457234Y-84639534D01*
X113561312Y-84483770D01*
X113693770Y-84351312D01*
X113849534Y-84247234D01*
X114022604Y-84175546D01*
X114206333Y-84139000D01*
X114393667Y-84139000D01*
X114577396Y-84175546D01*
X114577396Y-84175546D01*
G37*
G36*
X145057396Y-83540546D02*
X145230466Y-83612234D01*
X145386230Y-83716312D01*
X145518688Y-83848770D01*
X145622766Y-84004534D01*
X145694454Y-84177604D01*
X145731000Y-84361333D01*
X145731000Y-84548667D01*
X145694454Y-84732396D01*
X145622766Y-84905466D01*
X145518688Y-85061230D01*
X145386230Y-85193688D01*
X145230466Y-85297766D01*
X145057396Y-85369454D01*
X144873667Y-85406000D01*
X144686333Y-85406000D01*
X144502604Y-85369454D01*
X144329534Y-85297766D01*
X144173770Y-85193688D01*
X144041312Y-85061230D01*
X143937234Y-84905466D01*
X143865546Y-84732396D01*
X143829000Y-84548667D01*
X143829000Y-84361333D01*
X143865546Y-84177604D01*
X143937234Y-84004534D01*
X144041312Y-83848770D01*
X144173770Y-83716312D01*
X144329534Y-83612234D01*
X144502604Y-83540546D01*
X144686333Y-83504000D01*
X144873667Y-83504000D01*
X145057396Y-83540546D01*
X145057396Y-83540546D01*
G37*
G36*
X137437396Y-83540546D02*
X137610466Y-83612234D01*
X137766230Y-83716312D01*
X137898688Y-83848770D01*
X138002766Y-84004534D01*
X138074454Y-84177604D01*
X138111000Y-84361333D01*
X138111000Y-84548667D01*
X138074454Y-84732396D01*
X138002766Y-84905466D01*
X137898688Y-85061230D01*
X137766230Y-85193688D01*
X137610466Y-85297766D01*
X137437396Y-85369454D01*
X137253667Y-85406000D01*
X137066333Y-85406000D01*
X136882604Y-85369454D01*
X136709534Y-85297766D01*
X136553770Y-85193688D01*
X136421312Y-85061230D01*
X136317234Y-84905466D01*
X136245546Y-84732396D01*
X136209000Y-84548667D01*
X136209000Y-84361333D01*
X136245546Y-84177604D01*
X136317234Y-84004534D01*
X136421312Y-83848770D01*
X136553770Y-83716312D01*
X136709534Y-83612234D01*
X136882604Y-83540546D01*
X137066333Y-83504000D01*
X137253667Y-83504000D01*
X137437396Y-83540546D01*
X137437396Y-83540546D01*
G37*
G36*
X122197396Y-83540546D02*
X122370466Y-83612234D01*
X122526230Y-83716312D01*
X122658688Y-83848770D01*
X122762766Y-84004534D01*
X122834454Y-84177604D01*
X122871000Y-84361333D01*
X122871000Y-84548667D01*
X122834454Y-84732396D01*
X122762766Y-84905466D01*
X122658688Y-85061230D01*
X122526230Y-85193688D01*
X122370466Y-85297766D01*
X122197396Y-85369454D01*
X122013667Y-85406000D01*
X121826333Y-85406000D01*
X121642604Y-85369454D01*
X121469534Y-85297766D01*
X121313770Y-85193688D01*
X121181312Y-85061230D01*
X121077234Y-84905466D01*
X121005546Y-84732396D01*
X120969000Y-84548667D01*
X120969000Y-84361333D01*
X121005546Y-84177604D01*
X121077234Y-84004534D01*
X121181312Y-83848770D01*
X121313770Y-83716312D01*
X121469534Y-83612234D01*
X121642604Y-83540546D01*
X121826333Y-83504000D01*
X122013667Y-83504000D01*
X122197396Y-83540546D01*
X122197396Y-83540546D01*
G37*
G36*
X164107396Y-83540546D02*
X164280466Y-83612234D01*
X164436230Y-83716312D01*
X164568688Y-83848770D01*
X164672766Y-84004534D01*
X164744454Y-84177604D01*
X164781000Y-84361333D01*
X164781000Y-84548667D01*
X164744454Y-84732396D01*
X164672766Y-84905466D01*
X164568688Y-85061230D01*
X164436230Y-85193688D01*
X164280466Y-85297766D01*
X164107396Y-85369454D01*
X163923667Y-85406000D01*
X163736333Y-85406000D01*
X163552604Y-85369454D01*
X163379534Y-85297766D01*
X163223770Y-85193688D01*
X163091312Y-85061230D01*
X162987234Y-84905466D01*
X162915546Y-84732396D01*
X162879000Y-84548667D01*
X162879000Y-84361333D01*
X162915546Y-84177604D01*
X162987234Y-84004534D01*
X163091312Y-83848770D01*
X163223770Y-83716312D01*
X163379534Y-83612234D01*
X163552604Y-83540546D01*
X163736333Y-83504000D01*
X163923667Y-83504000D01*
X164107396Y-83540546D01*
X164107396Y-83540546D01*
G37*
G36*
X114577396Y-81635546D02*
X114750466Y-81707234D01*
X114906230Y-81811312D01*
X115038688Y-81943770D01*
X115142766Y-82099534D01*
X115214454Y-82272604D01*
X115251000Y-82456333D01*
X115251000Y-82643667D01*
X115214454Y-82827396D01*
X115142766Y-83000466D01*
X115038688Y-83156230D01*
X114906230Y-83288688D01*
X114750466Y-83392766D01*
X114577396Y-83464454D01*
X114393667Y-83501000D01*
X114206333Y-83501000D01*
X114022604Y-83464454D01*
X113849534Y-83392766D01*
X113693770Y-83288688D01*
X113561312Y-83156230D01*
X113457234Y-83000466D01*
X113385546Y-82827396D01*
X113349000Y-82643667D01*
X113349000Y-82456333D01*
X113385546Y-82272604D01*
X113457234Y-82099534D01*
X113561312Y-81943770D01*
X113693770Y-81811312D01*
X113849534Y-81707234D01*
X114022604Y-81635546D01*
X114206333Y-81599000D01*
X114393667Y-81599000D01*
X114577396Y-81635546D01*
X114577396Y-81635546D01*
G37*
G36*
X122197396Y-81000546D02*
X122370466Y-81072234D01*
X122526230Y-81176312D01*
X122658688Y-81308770D01*
X122762766Y-81464534D01*
X122834454Y-81637604D01*
X122871000Y-81821333D01*
X122871000Y-82008667D01*
X122834454Y-82192396D01*
X122762766Y-82365466D01*
X122658688Y-82521230D01*
X122526230Y-82653688D01*
X122370466Y-82757766D01*
X122197396Y-82829454D01*
X122013667Y-82866000D01*
X121826333Y-82866000D01*
X121642604Y-82829454D01*
X121469534Y-82757766D01*
X121313770Y-82653688D01*
X121181312Y-82521230D01*
X121077234Y-82365466D01*
X121005546Y-82192396D01*
X120969000Y-82008667D01*
X120969000Y-81821333D01*
X121005546Y-81637604D01*
X121077234Y-81464534D01*
X121181312Y-81308770D01*
X121313770Y-81176312D01*
X121469534Y-81072234D01*
X121642604Y-81000546D01*
X121826333Y-80964000D01*
X122013667Y-80964000D01*
X122197396Y-81000546D01*
X122197396Y-81000546D01*
G37*
G36*
X145057396Y-81000546D02*
X145230466Y-81072234D01*
X145386230Y-81176312D01*
X145518688Y-81308770D01*
X145622766Y-81464534D01*
X145694454Y-81637604D01*
X145731000Y-81821333D01*
X145731000Y-82008667D01*
X145694454Y-82192396D01*
X145622766Y-82365466D01*
X145518688Y-82521230D01*
X145386230Y-82653688D01*
X145230466Y-82757766D01*
X145057396Y-82829454D01*
X144873667Y-82866000D01*
X144686333Y-82866000D01*
X144502604Y-82829454D01*
X144329534Y-82757766D01*
X144173770Y-82653688D01*
X144041312Y-82521230D01*
X143937234Y-82365466D01*
X143865546Y-82192396D01*
X143829000Y-82008667D01*
X143829000Y-81821333D01*
X143865546Y-81637604D01*
X143937234Y-81464534D01*
X144041312Y-81308770D01*
X144173770Y-81176312D01*
X144329534Y-81072234D01*
X144502604Y-81000546D01*
X144686333Y-80964000D01*
X144873667Y-80964000D01*
X145057396Y-81000546D01*
X145057396Y-81000546D01*
G37*
G36*
X114577396Y-79095546D02*
X114750466Y-79167234D01*
X114906230Y-79271312D01*
X115038688Y-79403770D01*
X115142766Y-79559534D01*
X115214454Y-79732604D01*
X115251000Y-79916333D01*
X115251000Y-80103667D01*
X115214454Y-80287396D01*
X115142766Y-80460466D01*
X115038688Y-80616230D01*
X114906230Y-80748688D01*
X114750466Y-80852766D01*
X114577396Y-80924454D01*
X114393667Y-80961000D01*
X114206333Y-80961000D01*
X114022604Y-80924454D01*
X113849534Y-80852766D01*
X113693770Y-80748688D01*
X113561312Y-80616230D01*
X113457234Y-80460466D01*
X113385546Y-80287396D01*
X113349000Y-80103667D01*
X113349000Y-79916333D01*
X113385546Y-79732604D01*
X113457234Y-79559534D01*
X113561312Y-79403770D01*
X113693770Y-79271312D01*
X113849534Y-79167234D01*
X114022604Y-79095546D01*
X114206333Y-79059000D01*
X114393667Y-79059000D01*
X114577396Y-79095546D01*
X114577396Y-79095546D01*
G37*
G36*
X145057396Y-78460546D02*
X145230466Y-78532234D01*
X145386230Y-78636312D01*
X145518688Y-78768770D01*
X145622766Y-78924534D01*
X145694454Y-79097604D01*
X145731000Y-79281333D01*
X145731000Y-79468667D01*
X145694454Y-79652396D01*
X145622766Y-79825466D01*
X145518688Y-79981230D01*
X145386230Y-80113688D01*
X145230466Y-80217766D01*
X145057396Y-80289454D01*
X144873667Y-80326000D01*
X144686333Y-80326000D01*
X144502604Y-80289454D01*
X144329534Y-80217766D01*
X144173770Y-80113688D01*
X144041312Y-79981230D01*
X143937234Y-79825466D01*
X143865546Y-79652396D01*
X143829000Y-79468667D01*
X143829000Y-79281333D01*
X143865546Y-79097604D01*
X143937234Y-78924534D01*
X144041312Y-78768770D01*
X144173770Y-78636312D01*
X144329534Y-78532234D01*
X144502604Y-78460546D01*
X144686333Y-78424000D01*
X144873667Y-78424000D01*
X145057396Y-78460546D01*
X145057396Y-78460546D01*
G37*
G36*
X164107396Y-78460546D02*
X164280466Y-78532234D01*
X164436230Y-78636312D01*
X164568688Y-78768770D01*
X164672766Y-78924534D01*
X164744454Y-79097604D01*
X164781000Y-79281333D01*
X164781000Y-79468667D01*
X164744454Y-79652396D01*
X164672766Y-79825466D01*
X164568688Y-79981230D01*
X164436230Y-80113688D01*
X164280466Y-80217766D01*
X164107396Y-80289454D01*
X163923667Y-80326000D01*
X163736333Y-80326000D01*
X163552604Y-80289454D01*
X163379534Y-80217766D01*
X163223770Y-80113688D01*
X163091312Y-79981230D01*
X162987234Y-79825466D01*
X162915546Y-79652396D01*
X162879000Y-79468667D01*
X162879000Y-79281333D01*
X162915546Y-79097604D01*
X162987234Y-78924534D01*
X163091312Y-78768770D01*
X163223770Y-78636312D01*
X163379534Y-78532234D01*
X163552604Y-78460546D01*
X163736333Y-78424000D01*
X163923667Y-78424000D01*
X164107396Y-78460546D01*
X164107396Y-78460546D01*
G37*
G36*
X122197396Y-78460546D02*
X122370466Y-78532234D01*
X122526230Y-78636312D01*
X122658688Y-78768770D01*
X122762766Y-78924534D01*
X122834454Y-79097604D01*
X122871000Y-79281333D01*
X122871000Y-79468667D01*
X122834454Y-79652396D01*
X122762766Y-79825466D01*
X122658688Y-79981230D01*
X122526230Y-80113688D01*
X122370466Y-80217766D01*
X122197396Y-80289454D01*
X122013667Y-80326000D01*
X121826333Y-80326000D01*
X121642604Y-80289454D01*
X121469534Y-80217766D01*
X121313770Y-80113688D01*
X121181312Y-79981230D01*
X121077234Y-79825466D01*
X121005546Y-79652396D01*
X120969000Y-79468667D01*
X120969000Y-79281333D01*
X121005546Y-79097604D01*
X121077234Y-78924534D01*
X121181312Y-78768770D01*
X121313770Y-78636312D01*
X121469534Y-78532234D01*
X121642604Y-78460546D01*
X121826333Y-78424000D01*
X122013667Y-78424000D01*
X122197396Y-78460546D01*
X122197396Y-78460546D01*
G37*
G36*
X114577396Y-76555546D02*
X114750466Y-76627234D01*
X114906230Y-76731312D01*
X115038688Y-76863770D01*
X115142766Y-77019534D01*
X115214454Y-77192604D01*
X115251000Y-77376333D01*
X115251000Y-77563667D01*
X115214454Y-77747396D01*
X115142766Y-77920466D01*
X115038688Y-78076230D01*
X114906230Y-78208688D01*
X114750466Y-78312766D01*
X114577396Y-78384454D01*
X114393667Y-78421000D01*
X114206333Y-78421000D01*
X114022604Y-78384454D01*
X113849534Y-78312766D01*
X113693770Y-78208688D01*
X113561312Y-78076230D01*
X113457234Y-77920466D01*
X113385546Y-77747396D01*
X113349000Y-77563667D01*
X113349000Y-77376333D01*
X113385546Y-77192604D01*
X113457234Y-77019534D01*
X113561312Y-76863770D01*
X113693770Y-76731312D01*
X113849534Y-76627234D01*
X114022604Y-76555546D01*
X114206333Y-76519000D01*
X114393667Y-76519000D01*
X114577396Y-76555546D01*
X114577396Y-76555546D01*
G37*
G36*
X114577396Y-74015546D02*
X114750466Y-74087234D01*
X114906230Y-74191312D01*
X115038688Y-74323770D01*
X115142766Y-74479534D01*
X115214454Y-74652604D01*
X115251000Y-74836333D01*
X115251000Y-75023667D01*
X115214454Y-75207396D01*
X115142766Y-75380466D01*
X115038688Y-75536230D01*
X114906230Y-75668688D01*
X114750466Y-75772766D01*
X114577396Y-75844454D01*
X114393667Y-75881000D01*
X114206333Y-75881000D01*
X114022604Y-75844454D01*
X113849534Y-75772766D01*
X113693770Y-75668688D01*
X113561312Y-75536230D01*
X113457234Y-75380466D01*
X113385546Y-75207396D01*
X113349000Y-75023667D01*
X113349000Y-74836333D01*
X113385546Y-74652604D01*
X113457234Y-74479534D01*
X113561312Y-74323770D01*
X113693770Y-74191312D01*
X113849534Y-74087234D01*
X114022604Y-74015546D01*
X114206333Y-73979000D01*
X114393667Y-73979000D01*
X114577396Y-74015546D01*
X114577396Y-74015546D01*
G37*
G36*
X114577396Y-71475546D02*
X114750466Y-71547234D01*
X114906230Y-71651312D01*
X115038688Y-71783770D01*
X115142766Y-71939534D01*
X115214454Y-72112604D01*
X115251000Y-72296333D01*
X115251000Y-72483667D01*
X115214454Y-72667396D01*
X115142766Y-72840466D01*
X115038688Y-72996230D01*
X114906230Y-73128688D01*
X114750466Y-73232766D01*
X114577396Y-73304454D01*
X114393667Y-73341000D01*
X114206333Y-73341000D01*
X114022604Y-73304454D01*
X113849534Y-73232766D01*
X113693770Y-73128688D01*
X113561312Y-72996230D01*
X113457234Y-72840466D01*
X113385546Y-72667396D01*
X113349000Y-72483667D01*
X113349000Y-72296333D01*
X113385546Y-72112604D01*
X113457234Y-71939534D01*
X113561312Y-71783770D01*
X113693770Y-71651312D01*
X113849534Y-71547234D01*
X114022604Y-71475546D01*
X114206333Y-71439000D01*
X114393667Y-71439000D01*
X114577396Y-71475546D01*
X114577396Y-71475546D01*
G37*
G36*
X186430256Y-68876298D02*
X186536579Y-68897447D01*
X186837042Y-69021903D01*
X187103852Y-69200180D01*
X187107454Y-69202587D01*
X187337413Y-69432546D01*
X187518098Y-69702960D01*
X187642553Y-70003422D01*
X187706000Y-70322389D01*
X187706000Y-70647611D01*
X187642553Y-70966578D01*
X187518098Y-71267040D01*
X187337413Y-71537454D01*
X187107454Y-71767413D01*
X187107451Y-71767415D01*
X186837042Y-71948097D01*
X186536579Y-72072553D01*
X186430256Y-72093702D01*
X186217611Y-72136000D01*
X185892389Y-72136000D01*
X185679744Y-72093702D01*
X185573421Y-72072553D01*
X185272958Y-71948097D01*
X185002549Y-71767415D01*
X185002546Y-71767413D01*
X184772587Y-71537454D01*
X184591902Y-71267040D01*
X184467447Y-70966578D01*
X184404000Y-70647611D01*
X184404000Y-70322389D01*
X184467447Y-70003422D01*
X184591902Y-69702960D01*
X184772587Y-69432546D01*
X185002546Y-69202587D01*
X185006148Y-69200180D01*
X185272958Y-69021903D01*
X185573421Y-68897447D01*
X185679744Y-68876298D01*
X185892389Y-68834000D01*
X186217611Y-68834000D01*
X186430256Y-68876298D01*
X186430256Y-68876298D01*
G37*
G36*
X187065256Y-62526298D02*
X187171579Y-62547447D01*
X187472042Y-62671903D01*
X187738852Y-62850180D01*
X187742454Y-62852587D01*
X187972413Y-63082546D01*
X188153098Y-63352960D01*
X188277553Y-63653422D01*
X188341000Y-63972389D01*
X188341000Y-64297611D01*
X188277553Y-64616578D01*
X188153098Y-64917040D01*
X187972413Y-65187454D01*
X187742454Y-65417413D01*
X187742451Y-65417415D01*
X187472042Y-65598097D01*
X187171579Y-65722553D01*
X187065256Y-65743702D01*
X186852611Y-65786000D01*
X186527389Y-65786000D01*
X186314744Y-65743702D01*
X186208421Y-65722553D01*
X185907958Y-65598097D01*
X185637549Y-65417415D01*
X185637546Y-65417413D01*
X185407587Y-65187454D01*
X185226902Y-64917040D01*
X185102447Y-64616578D01*
X185039000Y-64297611D01*
X185039000Y-63972389D01*
X185102447Y-63653422D01*
X185226902Y-63352960D01*
X185407587Y-63082546D01*
X185637546Y-62852587D01*
X185641148Y-62850180D01*
X185907958Y-62671903D01*
X186208421Y-62547447D01*
X186314744Y-62526298D01*
X186527389Y-62484000D01*
X186852611Y-62484000D01*
X187065256Y-62526298D01*
X187065256Y-62526298D01*
G37*
G36*
X114675256Y-62526298D02*
X114781579Y-62547447D01*
X115082042Y-62671903D01*
X115348852Y-62850180D01*
X115352454Y-62852587D01*
X115582413Y-63082546D01*
X115763098Y-63352960D01*
X115887553Y-63653422D01*
X115951000Y-63972389D01*
X115951000Y-64297611D01*
X115887553Y-64616578D01*
X115763098Y-64917040D01*
X115582413Y-65187454D01*
X115352454Y-65417413D01*
X115352451Y-65417415D01*
X115082042Y-65598097D01*
X114781579Y-65722553D01*
X114675256Y-65743702D01*
X114462611Y-65786000D01*
X114137389Y-65786000D01*
X113924744Y-65743702D01*
X113818421Y-65722553D01*
X113517958Y-65598097D01*
X113247549Y-65417415D01*
X113247546Y-65417413D01*
X113017587Y-65187454D01*
X112836902Y-64917040D01*
X112712447Y-64616578D01*
X112649000Y-64297611D01*
X112649000Y-63972389D01*
X112712447Y-63653422D01*
X112836902Y-63352960D01*
X113017587Y-63082546D01*
X113247546Y-62852587D01*
X113251148Y-62850180D01*
X113517958Y-62671903D01*
X113818421Y-62547447D01*
X113924744Y-62526298D01*
X114137389Y-62484000D01*
X114462611Y-62484000D01*
X114675256Y-62526298D01*
X114675256Y-62526298D01*
G37*
M02*
