G04 #@! TF.GenerationSoftware,KiCad,Pcbnew,(5.0.1)-3*
G04 #@! TF.CreationDate,2018-12-23T12:58:08+01:00*
G04 #@! TF.ProjectId,THERMOSTAT,544845524D4F535441542E6B69636164,rev?*
G04 #@! TF.SameCoordinates,Original*
G04 #@! TF.FileFunction,Legend,Top*
G04 #@! TF.FilePolarity,Positive*
%FSLAX46Y46*%
G04 Gerber Fmt 4.6, Leading zero omitted, Abs format (unit mm)*
G04 Created by KiCad (PCBNEW (5.0.1)-3) date 12/23/2018 12:58:08 PM*
%MOMM*%
%LPD*%
G01*
G04 APERTURE LIST*
%ADD10C,0.300000*%
%ADD11C,0.150000*%
G04 APERTURE END LIST*
D10*
X150114285Y-67123571D02*
X150614285Y-68623571D01*
X151114285Y-67123571D01*
X151542857Y-67266428D02*
X151614285Y-67195000D01*
X151757142Y-67123571D01*
X152114285Y-67123571D01*
X152257142Y-67195000D01*
X152328571Y-67266428D01*
X152400000Y-67409285D01*
X152400000Y-67552142D01*
X152328571Y-67766428D01*
X151471428Y-68623571D01*
X152400000Y-68623571D01*
X153042857Y-68480714D02*
X153114285Y-68552142D01*
X153042857Y-68623571D01*
X152971428Y-68552142D01*
X153042857Y-68480714D01*
X153042857Y-68623571D01*
X154042857Y-67123571D02*
X154185714Y-67123571D01*
X154328571Y-67195000D01*
X154400000Y-67266428D01*
X154471428Y-67409285D01*
X154542857Y-67695000D01*
X154542857Y-68052142D01*
X154471428Y-68337857D01*
X154400000Y-68480714D01*
X154328571Y-68552142D01*
X154185714Y-68623571D01*
X154042857Y-68623571D01*
X153900000Y-68552142D01*
X153828571Y-68480714D01*
X153757142Y-68337857D01*
X153685714Y-68052142D01*
X153685714Y-67695000D01*
X153757142Y-67409285D01*
X153828571Y-67266428D01*
X153900000Y-67195000D01*
X154042857Y-67123571D01*
X133407857Y-65206428D02*
X133265000Y-65349285D01*
X132836428Y-65492142D01*
X132550714Y-65492142D01*
X132122142Y-65349285D01*
X131836428Y-65063571D01*
X131693571Y-64777857D01*
X131550714Y-64206428D01*
X131550714Y-63777857D01*
X131693571Y-63206428D01*
X131836428Y-62920714D01*
X132122142Y-62635000D01*
X132550714Y-62492142D01*
X132836428Y-62492142D01*
X133265000Y-62635000D01*
X133407857Y-62777857D01*
X135265000Y-62492142D02*
X135836428Y-62492142D01*
X136122142Y-62635000D01*
X136407857Y-62920714D01*
X136550714Y-63492142D01*
X136550714Y-64492142D01*
X136407857Y-65063571D01*
X136122142Y-65349285D01*
X135836428Y-65492142D01*
X135265000Y-65492142D01*
X134979285Y-65349285D01*
X134693571Y-65063571D01*
X134550714Y-64492142D01*
X134550714Y-63492142D01*
X134693571Y-62920714D01*
X134979285Y-62635000D01*
X135265000Y-62492142D01*
X137550714Y-62492142D02*
X139550714Y-62492142D01*
X137550714Y-65492142D01*
X139550714Y-65492142D01*
X141265000Y-64063571D02*
X141265000Y-65492142D01*
X140265000Y-62492142D02*
X141265000Y-64063571D01*
X142265000Y-62492142D01*
X145122142Y-62492142D02*
X146836428Y-62492142D01*
X145979285Y-65492142D02*
X145979285Y-62492142D01*
X147836428Y-65492142D02*
X147836428Y-62492142D01*
X147836428Y-63920714D02*
X149550714Y-63920714D01*
X149550714Y-65492142D02*
X149550714Y-62492142D01*
X150979285Y-63920714D02*
X151979285Y-63920714D01*
X152407857Y-65492142D02*
X150979285Y-65492142D01*
X150979285Y-62492142D01*
X152407857Y-62492142D01*
X155407857Y-65492142D02*
X154407857Y-64063571D01*
X153693571Y-65492142D02*
X153693571Y-62492142D01*
X154836428Y-62492142D01*
X155122142Y-62635000D01*
X155265000Y-62777857D01*
X155407857Y-63063571D01*
X155407857Y-63492142D01*
X155265000Y-63777857D01*
X155122142Y-63920714D01*
X154836428Y-64063571D01*
X153693571Y-64063571D01*
X156693571Y-65492142D02*
X156693571Y-62492142D01*
X157693571Y-64635000D01*
X158693571Y-62492142D01*
X158693571Y-65492142D01*
X160693571Y-62492142D02*
X161265000Y-62492142D01*
X161550714Y-62635000D01*
X161836428Y-62920714D01*
X161979285Y-63492142D01*
X161979285Y-64492142D01*
X161836428Y-65063571D01*
X161550714Y-65349285D01*
X161265000Y-65492142D01*
X160693571Y-65492142D01*
X160407857Y-65349285D01*
X160122142Y-65063571D01*
X159979285Y-64492142D01*
X159979285Y-63492142D01*
X160122142Y-62920714D01*
X160407857Y-62635000D01*
X160693571Y-62492142D01*
X163122142Y-65349285D02*
X163550714Y-65492142D01*
X164265000Y-65492142D01*
X164550714Y-65349285D01*
X164693571Y-65206428D01*
X164836428Y-64920714D01*
X164836428Y-64635000D01*
X164693571Y-64349285D01*
X164550714Y-64206428D01*
X164265000Y-64063571D01*
X163693571Y-63920714D01*
X163407857Y-63777857D01*
X163265000Y-63635000D01*
X163122142Y-63349285D01*
X163122142Y-63063571D01*
X163265000Y-62777857D01*
X163407857Y-62635000D01*
X163693571Y-62492142D01*
X164407857Y-62492142D01*
X164836428Y-62635000D01*
X165693571Y-62492142D02*
X167407857Y-62492142D01*
X166550714Y-65492142D02*
X166550714Y-62492142D01*
X168265000Y-64635000D02*
X169693571Y-64635000D01*
X167979285Y-65492142D02*
X168979285Y-62492142D01*
X169979285Y-65492142D01*
X170550714Y-62492142D02*
X172265000Y-62492142D01*
X171407857Y-65492142D02*
X171407857Y-62492142D01*
D11*
G04 #@! TO.C,ESP1*
X130810000Y-74295000D02*
X130810000Y-70485000D01*
X135890000Y-74295000D02*
X130810000Y-74295000D01*
X135890000Y-70485000D02*
X135890000Y-74295000D01*
X138430000Y-100965000D02*
X138430000Y-103505000D01*
X135890000Y-100965000D02*
X138430000Y-100965000D01*
X135890000Y-103505000D02*
X135890000Y-100965000D01*
X133350000Y-103505000D02*
X135890000Y-103505000D01*
X133350000Y-100965000D02*
X133350000Y-103505000D01*
X130810000Y-100965000D02*
X133350000Y-100965000D01*
X130810000Y-103505000D02*
X130810000Y-100965000D01*
X128270000Y-103505000D02*
X130810000Y-103505000D01*
X128270000Y-100965000D02*
X128270000Y-103505000D01*
X138430000Y-99695000D02*
X138430000Y-98425000D01*
X128270000Y-99695000D02*
X138430000Y-99695000D01*
X128270000Y-88265000D02*
X128270000Y-99695000D01*
X138430000Y-88265000D02*
X128270000Y-88265000D01*
X138430000Y-98425000D02*
X138430000Y-88265000D01*
X127000000Y-104775000D02*
X138430000Y-104775000D01*
X127000000Y-86995000D02*
X127000000Y-104775000D01*
X128270000Y-86995000D02*
X127000000Y-86995000D01*
X139700000Y-86995000D02*
X128270000Y-86995000D01*
X139700000Y-104775000D02*
X139700000Y-86995000D01*
X146050000Y-70485000D02*
X146050000Y-104775000D01*
X120650000Y-70485000D02*
X146050000Y-70485000D01*
X120650000Y-104775000D02*
X120650000Y-70485000D01*
X146050000Y-104775000D02*
X120650000Y-104775000D01*
G04 #@! TO.C,TouchMenu1*
X154087102Y-132715000D02*
G75*
G03X154087102Y-132715000I-3592102J0D01*
G01*
X156845000Y-122555000D02*
X156845000Y-137795000D01*
X144145000Y-122555000D02*
X156845000Y-122555000D01*
X144145000Y-137795000D02*
X144145000Y-122555000D01*
X156845000Y-137795000D02*
X144145000Y-137795000D01*
G04 #@! TO.C,TouchUp1*
X178217102Y-132715000D02*
G75*
G03X178217102Y-132715000I-3592102J0D01*
G01*
X180975000Y-122555000D02*
X180975000Y-137795000D01*
X168275000Y-122555000D02*
X180975000Y-122555000D01*
X168275000Y-137795000D02*
X168275000Y-122555000D01*
X180975000Y-137795000D02*
X168275000Y-137795000D01*
G04 #@! TO.C,DHT1*
X184150000Y-97155000D02*
X184150000Y-81915000D01*
X181610000Y-97155000D02*
X184150000Y-97155000D01*
X181610000Y-81915000D02*
X181610000Y-97155000D01*
X179070000Y-81915000D02*
X181610000Y-81915000D01*
X179070000Y-97155000D02*
X179070000Y-81915000D01*
X176530000Y-97155000D02*
X179070000Y-97155000D01*
X176530000Y-81915000D02*
X176530000Y-97155000D01*
X173990000Y-81915000D02*
X173990000Y-94615000D01*
X186690000Y-81915000D02*
X173990000Y-81915000D01*
X186690000Y-97155000D02*
X186690000Y-81915000D01*
X173990000Y-97155000D02*
X186690000Y-97155000D01*
X173990000Y-94615000D02*
X173990000Y-97155000D01*
X186690000Y-94615000D02*
X173990000Y-94615000D01*
X186690000Y-92075000D02*
X186690000Y-94615000D01*
X173990000Y-92075000D02*
X186690000Y-92075000D01*
X173990000Y-89535000D02*
X173990000Y-92075000D01*
X186690000Y-89535000D02*
X173990000Y-89535000D01*
X186690000Y-86995000D02*
X186690000Y-89535000D01*
X173990000Y-86995000D02*
X186690000Y-86995000D01*
X173990000Y-84455000D02*
X173990000Y-86995000D01*
X186690000Y-84455000D02*
X173990000Y-84455000D01*
X186690000Y-81915000D02*
X186690000Y-84455000D01*
X173990000Y-81915000D02*
X186690000Y-81915000D01*
X182880000Y-76835000D02*
G75*
G03X182880000Y-76835000I-2540000J0D01*
G01*
X189230000Y-104775000D02*
X189230000Y-99695000D01*
X171450000Y-104775000D02*
X189230000Y-104775000D01*
X171450000Y-99695000D02*
X171450000Y-104775000D01*
X171450000Y-99695000D02*
X171450000Y-74295000D01*
X189230000Y-99695000D02*
X171450000Y-99695000D01*
X189230000Y-74295000D02*
X189230000Y-99695000D01*
X171450000Y-74295000D02*
X189230000Y-74295000D01*
G04 #@! TO.C,TouchDown1*
X129957102Y-132715000D02*
G75*
G03X129957102Y-132715000I-3592102J0D01*
G01*
X132715000Y-122555000D02*
X132715000Y-137795000D01*
X120015000Y-122555000D02*
X132715000Y-122555000D01*
X120015000Y-137795000D02*
X120015000Y-122555000D01*
X132715000Y-137795000D02*
X120015000Y-137795000D01*
G04 #@! TO.C,TFT1*
X111760000Y-107950000D02*
X116840000Y-107950000D01*
X116840000Y-69850000D02*
X116840000Y-107950000D01*
X111760000Y-69850000D02*
X116840000Y-69850000D01*
X111760000Y-107950000D02*
X111760000Y-69850000D01*
G04 #@! TO.C,ESP1*
X131683333Y-72318571D02*
X132016666Y-72318571D01*
X132159523Y-72842380D02*
X131683333Y-72842380D01*
X131683333Y-71842380D01*
X132159523Y-71842380D01*
X132540476Y-72794761D02*
X132683333Y-72842380D01*
X132921428Y-72842380D01*
X133016666Y-72794761D01*
X133064285Y-72747142D01*
X133111904Y-72651904D01*
X133111904Y-72556666D01*
X133064285Y-72461428D01*
X133016666Y-72413809D01*
X132921428Y-72366190D01*
X132730952Y-72318571D01*
X132635714Y-72270952D01*
X132588095Y-72223333D01*
X132540476Y-72128095D01*
X132540476Y-72032857D01*
X132588095Y-71937619D01*
X132635714Y-71890000D01*
X132730952Y-71842380D01*
X132969047Y-71842380D01*
X133111904Y-71890000D01*
X133540476Y-72842380D02*
X133540476Y-71842380D01*
X133921428Y-71842380D01*
X134016666Y-71890000D01*
X134064285Y-71937619D01*
X134111904Y-72032857D01*
X134111904Y-72175714D01*
X134064285Y-72270952D01*
X134016666Y-72318571D01*
X133921428Y-72366190D01*
X133540476Y-72366190D01*
X135064285Y-72842380D02*
X134492857Y-72842380D01*
X134778571Y-72842380D02*
X134778571Y-71842380D01*
X134683333Y-71985238D01*
X134588095Y-72080476D01*
X134492857Y-72128095D01*
X141001904Y-78827380D02*
X141620952Y-78827380D01*
X141287619Y-79208333D01*
X141430476Y-79208333D01*
X141525714Y-79255952D01*
X141573333Y-79303571D01*
X141620952Y-79398809D01*
X141620952Y-79636904D01*
X141573333Y-79732142D01*
X141525714Y-79779761D01*
X141430476Y-79827380D01*
X141144761Y-79827380D01*
X141049523Y-79779761D01*
X141001904Y-79732142D01*
X141906666Y-78827380D02*
X142240000Y-79827380D01*
X142573333Y-78827380D01*
X142811428Y-78827380D02*
X143430476Y-78827380D01*
X143097142Y-79208333D01*
X143240000Y-79208333D01*
X143335238Y-79255952D01*
X143382857Y-79303571D01*
X143430476Y-79398809D01*
X143430476Y-79636904D01*
X143382857Y-79732142D01*
X143335238Y-79779761D01*
X143240000Y-79827380D01*
X142954285Y-79827380D01*
X142859047Y-79779761D01*
X142811428Y-79732142D01*
X141501904Y-82367380D02*
X141501904Y-81367380D01*
X141740000Y-81367380D01*
X141882857Y-81415000D01*
X141978095Y-81510238D01*
X142025714Y-81605476D01*
X142073333Y-81795952D01*
X142073333Y-81938809D01*
X142025714Y-82129285D01*
X141978095Y-82224523D01*
X141882857Y-82319761D01*
X141740000Y-82367380D01*
X141501904Y-82367380D01*
X142644761Y-81795952D02*
X142549523Y-81748333D01*
X142501904Y-81700714D01*
X142454285Y-81605476D01*
X142454285Y-81557857D01*
X142501904Y-81462619D01*
X142549523Y-81415000D01*
X142644761Y-81367380D01*
X142835238Y-81367380D01*
X142930476Y-81415000D01*
X142978095Y-81462619D01*
X143025714Y-81557857D01*
X143025714Y-81605476D01*
X142978095Y-81700714D01*
X142930476Y-81748333D01*
X142835238Y-81795952D01*
X142644761Y-81795952D01*
X142549523Y-81843571D01*
X142501904Y-81891190D01*
X142454285Y-81986428D01*
X142454285Y-82176904D01*
X142501904Y-82272142D01*
X142549523Y-82319761D01*
X142644761Y-82367380D01*
X142835238Y-82367380D01*
X142930476Y-82319761D01*
X142978095Y-82272142D01*
X143025714Y-82176904D01*
X143025714Y-81986428D01*
X142978095Y-81891190D01*
X142930476Y-81843571D01*
X142835238Y-81795952D01*
X141501904Y-84907380D02*
X141501904Y-83907380D01*
X141740000Y-83907380D01*
X141882857Y-83955000D01*
X141978095Y-84050238D01*
X142025714Y-84145476D01*
X142073333Y-84335952D01*
X142073333Y-84478809D01*
X142025714Y-84669285D01*
X141978095Y-84764523D01*
X141882857Y-84859761D01*
X141740000Y-84907380D01*
X141501904Y-84907380D01*
X142406666Y-83907380D02*
X143073333Y-83907380D01*
X142644761Y-84907380D01*
X141501904Y-87447380D02*
X141501904Y-86447380D01*
X141740000Y-86447380D01*
X141882857Y-86495000D01*
X141978095Y-86590238D01*
X142025714Y-86685476D01*
X142073333Y-86875952D01*
X142073333Y-87018809D01*
X142025714Y-87209285D01*
X141978095Y-87304523D01*
X141882857Y-87399761D01*
X141740000Y-87447380D01*
X141501904Y-87447380D01*
X142930476Y-86447380D02*
X142740000Y-86447380D01*
X142644761Y-86495000D01*
X142597142Y-86542619D01*
X142501904Y-86685476D01*
X142454285Y-86875952D01*
X142454285Y-87256904D01*
X142501904Y-87352142D01*
X142549523Y-87399761D01*
X142644761Y-87447380D01*
X142835238Y-87447380D01*
X142930476Y-87399761D01*
X142978095Y-87352142D01*
X143025714Y-87256904D01*
X143025714Y-87018809D01*
X142978095Y-86923571D01*
X142930476Y-86875952D01*
X142835238Y-86828333D01*
X142644761Y-86828333D01*
X142549523Y-86875952D01*
X142501904Y-86923571D01*
X142454285Y-87018809D01*
X141501904Y-89987380D02*
X141501904Y-88987380D01*
X141740000Y-88987380D01*
X141882857Y-89035000D01*
X141978095Y-89130238D01*
X142025714Y-89225476D01*
X142073333Y-89415952D01*
X142073333Y-89558809D01*
X142025714Y-89749285D01*
X141978095Y-89844523D01*
X141882857Y-89939761D01*
X141740000Y-89987380D01*
X141501904Y-89987380D01*
X142978095Y-88987380D02*
X142501904Y-88987380D01*
X142454285Y-89463571D01*
X142501904Y-89415952D01*
X142597142Y-89368333D01*
X142835238Y-89368333D01*
X142930476Y-89415952D01*
X142978095Y-89463571D01*
X143025714Y-89558809D01*
X143025714Y-89796904D01*
X142978095Y-89892142D01*
X142930476Y-89939761D01*
X142835238Y-89987380D01*
X142597142Y-89987380D01*
X142501904Y-89939761D01*
X142454285Y-89892142D01*
X141501904Y-92527380D02*
X141501904Y-91527380D01*
X141740000Y-91527380D01*
X141882857Y-91575000D01*
X141978095Y-91670238D01*
X142025714Y-91765476D01*
X142073333Y-91955952D01*
X142073333Y-92098809D01*
X142025714Y-92289285D01*
X141978095Y-92384523D01*
X141882857Y-92479761D01*
X141740000Y-92527380D01*
X141501904Y-92527380D01*
X142692380Y-91527380D02*
X142787619Y-91527380D01*
X142882857Y-91575000D01*
X142930476Y-91622619D01*
X142978095Y-91717857D01*
X143025714Y-91908333D01*
X143025714Y-92146428D01*
X142978095Y-92336904D01*
X142930476Y-92432142D01*
X142882857Y-92479761D01*
X142787619Y-92527380D01*
X142692380Y-92527380D01*
X142597142Y-92479761D01*
X142549523Y-92432142D01*
X142501904Y-92336904D01*
X142454285Y-92146428D01*
X142454285Y-91908333D01*
X142501904Y-91717857D01*
X142549523Y-91622619D01*
X142597142Y-91575000D01*
X142692380Y-91527380D01*
X141525714Y-94781666D02*
X142001904Y-94781666D01*
X141430476Y-95067380D02*
X141763809Y-94067380D01*
X142097142Y-95067380D01*
X142620952Y-94067380D02*
X142716190Y-94067380D01*
X142811428Y-94115000D01*
X142859047Y-94162619D01*
X142906666Y-94257857D01*
X142954285Y-94448333D01*
X142954285Y-94686428D01*
X142906666Y-94876904D01*
X142859047Y-94972142D01*
X142811428Y-95019761D01*
X142716190Y-95067380D01*
X142620952Y-95067380D01*
X142525714Y-95019761D01*
X142478095Y-94972142D01*
X142430476Y-94876904D01*
X142382857Y-94686428D01*
X142382857Y-94448333D01*
X142430476Y-94257857D01*
X142478095Y-94162619D01*
X142525714Y-94115000D01*
X142620952Y-94067380D01*
X141692380Y-97607380D02*
X141359047Y-97131190D01*
X141120952Y-97607380D02*
X141120952Y-96607380D01*
X141501904Y-96607380D01*
X141597142Y-96655000D01*
X141644761Y-96702619D01*
X141692380Y-96797857D01*
X141692380Y-96940714D01*
X141644761Y-97035952D01*
X141597142Y-97083571D01*
X141501904Y-97131190D01*
X141120952Y-97131190D01*
X142073333Y-97559761D02*
X142216190Y-97607380D01*
X142454285Y-97607380D01*
X142549523Y-97559761D01*
X142597142Y-97512142D01*
X142644761Y-97416904D01*
X142644761Y-97321666D01*
X142597142Y-97226428D01*
X142549523Y-97178809D01*
X142454285Y-97131190D01*
X142263809Y-97083571D01*
X142168571Y-97035952D01*
X142120952Y-96988333D01*
X142073333Y-96893095D01*
X142073333Y-96797857D01*
X142120952Y-96702619D01*
X142168571Y-96655000D01*
X142263809Y-96607380D01*
X142501904Y-96607380D01*
X142644761Y-96655000D01*
X142930476Y-96607380D02*
X143501904Y-96607380D01*
X143216190Y-97607380D02*
X143216190Y-96607380D01*
X124269523Y-78827380D02*
X123793333Y-78827380D01*
X123745714Y-79303571D01*
X123793333Y-79255952D01*
X123888571Y-79208333D01*
X124126666Y-79208333D01*
X124221904Y-79255952D01*
X124269523Y-79303571D01*
X124317142Y-79398809D01*
X124317142Y-79636904D01*
X124269523Y-79732142D01*
X124221904Y-79779761D01*
X124126666Y-79827380D01*
X123888571Y-79827380D01*
X123793333Y-79779761D01*
X123745714Y-79732142D01*
X124602857Y-78827380D02*
X124936190Y-79827380D01*
X125269523Y-78827380D01*
X123698095Y-81415000D02*
X123602857Y-81367380D01*
X123460000Y-81367380D01*
X123317142Y-81415000D01*
X123221904Y-81510238D01*
X123174285Y-81605476D01*
X123126666Y-81795952D01*
X123126666Y-81938809D01*
X123174285Y-82129285D01*
X123221904Y-82224523D01*
X123317142Y-82319761D01*
X123460000Y-82367380D01*
X123555238Y-82367380D01*
X123698095Y-82319761D01*
X123745714Y-82272142D01*
X123745714Y-81938809D01*
X123555238Y-81938809D01*
X124174285Y-82367380D02*
X124174285Y-81367380D01*
X124745714Y-82367380D01*
X124745714Y-81367380D01*
X125221904Y-82367380D02*
X125221904Y-81367380D01*
X125460000Y-81367380D01*
X125602857Y-81415000D01*
X125698095Y-81510238D01*
X125745714Y-81605476D01*
X125793333Y-81795952D01*
X125793333Y-81938809D01*
X125745714Y-82129285D01*
X125698095Y-82224523D01*
X125602857Y-82319761D01*
X125460000Y-82367380D01*
X125221904Y-82367380D01*
X123721904Y-84907380D02*
X123721904Y-83907380D01*
X123960000Y-83907380D01*
X124102857Y-83955000D01*
X124198095Y-84050238D01*
X124245714Y-84145476D01*
X124293333Y-84335952D01*
X124293333Y-84478809D01*
X124245714Y-84669285D01*
X124198095Y-84764523D01*
X124102857Y-84859761D01*
X123960000Y-84907380D01*
X123721904Y-84907380D01*
X125150476Y-84240714D02*
X125150476Y-84907380D01*
X124912380Y-83859761D02*
X124674285Y-84574047D01*
X125293333Y-84574047D01*
X123721904Y-87447380D02*
X123721904Y-86447380D01*
X123960000Y-86447380D01*
X124102857Y-86495000D01*
X124198095Y-86590238D01*
X124245714Y-86685476D01*
X124293333Y-86875952D01*
X124293333Y-87018809D01*
X124245714Y-87209285D01*
X124198095Y-87304523D01*
X124102857Y-87399761D01*
X123960000Y-87447380D01*
X123721904Y-87447380D01*
X124626666Y-86447380D02*
X125245714Y-86447380D01*
X124912380Y-86828333D01*
X125055238Y-86828333D01*
X125150476Y-86875952D01*
X125198095Y-86923571D01*
X125245714Y-87018809D01*
X125245714Y-87256904D01*
X125198095Y-87352142D01*
X125150476Y-87399761D01*
X125055238Y-87447380D01*
X124769523Y-87447380D01*
X124674285Y-87399761D01*
X124626666Y-87352142D01*
X123721904Y-89987380D02*
X123721904Y-88987380D01*
X123960000Y-88987380D01*
X124102857Y-89035000D01*
X124198095Y-89130238D01*
X124245714Y-89225476D01*
X124293333Y-89415952D01*
X124293333Y-89558809D01*
X124245714Y-89749285D01*
X124198095Y-89844523D01*
X124102857Y-89939761D01*
X123960000Y-89987380D01*
X123721904Y-89987380D01*
X124674285Y-89082619D02*
X124721904Y-89035000D01*
X124817142Y-88987380D01*
X125055238Y-88987380D01*
X125150476Y-89035000D01*
X125198095Y-89082619D01*
X125245714Y-89177857D01*
X125245714Y-89273095D01*
X125198095Y-89415952D01*
X124626666Y-89987380D01*
X125245714Y-89987380D01*
X123721904Y-92527380D02*
X123721904Y-91527380D01*
X123960000Y-91527380D01*
X124102857Y-91575000D01*
X124198095Y-91670238D01*
X124245714Y-91765476D01*
X124293333Y-91955952D01*
X124293333Y-92098809D01*
X124245714Y-92289285D01*
X124198095Y-92384523D01*
X124102857Y-92479761D01*
X123960000Y-92527380D01*
X123721904Y-92527380D01*
X125245714Y-92527380D02*
X124674285Y-92527380D01*
X124960000Y-92527380D02*
X124960000Y-91527380D01*
X124864761Y-91670238D01*
X124769523Y-91765476D01*
X124674285Y-91813095D01*
X124293333Y-95067380D02*
X123960000Y-94591190D01*
X123721904Y-95067380D02*
X123721904Y-94067380D01*
X124102857Y-94067380D01*
X124198095Y-94115000D01*
X124245714Y-94162619D01*
X124293333Y-94257857D01*
X124293333Y-94400714D01*
X124245714Y-94495952D01*
X124198095Y-94543571D01*
X124102857Y-94591190D01*
X123721904Y-94591190D01*
X124626666Y-94067380D02*
X125293333Y-95067380D01*
X125293333Y-94067380D02*
X124626666Y-95067380D01*
X123698095Y-96607380D02*
X124269523Y-96607380D01*
X123983809Y-97607380D02*
X123983809Y-96607380D01*
X124507619Y-96607380D02*
X125174285Y-97607380D01*
X125174285Y-96607380D02*
X124507619Y-97607380D01*
G04 #@! TO.C,TouchMenu1*
X146042619Y-127087380D02*
X146614047Y-127087380D01*
X146328333Y-128087380D02*
X146328333Y-127087380D01*
X147090238Y-128087380D02*
X146995000Y-128039761D01*
X146947380Y-127992142D01*
X146899761Y-127896904D01*
X146899761Y-127611190D01*
X146947380Y-127515952D01*
X146995000Y-127468333D01*
X147090238Y-127420714D01*
X147233095Y-127420714D01*
X147328333Y-127468333D01*
X147375952Y-127515952D01*
X147423571Y-127611190D01*
X147423571Y-127896904D01*
X147375952Y-127992142D01*
X147328333Y-128039761D01*
X147233095Y-128087380D01*
X147090238Y-128087380D01*
X148280714Y-127420714D02*
X148280714Y-128087380D01*
X147852142Y-127420714D02*
X147852142Y-127944523D01*
X147899761Y-128039761D01*
X147995000Y-128087380D01*
X148137857Y-128087380D01*
X148233095Y-128039761D01*
X148280714Y-127992142D01*
X149185476Y-128039761D02*
X149090238Y-128087380D01*
X148899761Y-128087380D01*
X148804523Y-128039761D01*
X148756904Y-127992142D01*
X148709285Y-127896904D01*
X148709285Y-127611190D01*
X148756904Y-127515952D01*
X148804523Y-127468333D01*
X148899761Y-127420714D01*
X149090238Y-127420714D01*
X149185476Y-127468333D01*
X149614047Y-128087380D02*
X149614047Y-127087380D01*
X150042619Y-128087380D02*
X150042619Y-127563571D01*
X149995000Y-127468333D01*
X149899761Y-127420714D01*
X149756904Y-127420714D01*
X149661666Y-127468333D01*
X149614047Y-127515952D01*
X150518809Y-128087380D02*
X150518809Y-127087380D01*
X150852142Y-127801666D01*
X151185476Y-127087380D01*
X151185476Y-128087380D01*
X152042619Y-128039761D02*
X151947380Y-128087380D01*
X151756904Y-128087380D01*
X151661666Y-128039761D01*
X151614047Y-127944523D01*
X151614047Y-127563571D01*
X151661666Y-127468333D01*
X151756904Y-127420714D01*
X151947380Y-127420714D01*
X152042619Y-127468333D01*
X152090238Y-127563571D01*
X152090238Y-127658809D01*
X151614047Y-127754047D01*
X152518809Y-127420714D02*
X152518809Y-128087380D01*
X152518809Y-127515952D02*
X152566428Y-127468333D01*
X152661666Y-127420714D01*
X152804523Y-127420714D01*
X152899761Y-127468333D01*
X152947380Y-127563571D01*
X152947380Y-128087380D01*
X153852142Y-127420714D02*
X153852142Y-128087380D01*
X153423571Y-127420714D02*
X153423571Y-127944523D01*
X153471190Y-128039761D01*
X153566428Y-128087380D01*
X153709285Y-128087380D01*
X153804523Y-128039761D01*
X153852142Y-127992142D01*
X154852142Y-128087380D02*
X154280714Y-128087380D01*
X154566428Y-128087380D02*
X154566428Y-127087380D01*
X154471190Y-127230238D01*
X154375952Y-127325476D01*
X154280714Y-127373095D01*
X147455000Y-123316904D02*
X147407380Y-123412142D01*
X147407380Y-123555000D01*
X147455000Y-123697857D01*
X147550238Y-123793095D01*
X147645476Y-123840714D01*
X147835952Y-123888333D01*
X147978809Y-123888333D01*
X148169285Y-123840714D01*
X148264523Y-123793095D01*
X148359761Y-123697857D01*
X148407380Y-123555000D01*
X148407380Y-123459761D01*
X148359761Y-123316904D01*
X148312142Y-123269285D01*
X147978809Y-123269285D01*
X147978809Y-123459761D01*
X148407380Y-122840714D02*
X147407380Y-122840714D01*
X148407380Y-122269285D01*
X147407380Y-122269285D01*
X148407380Y-121793095D02*
X147407380Y-121793095D01*
X147407380Y-121555000D01*
X147455000Y-121412142D01*
X147550238Y-121316904D01*
X147645476Y-121269285D01*
X147835952Y-121221666D01*
X147978809Y-121221666D01*
X148169285Y-121269285D01*
X148264523Y-121316904D01*
X148359761Y-121412142D01*
X148407380Y-121555000D01*
X148407380Y-121793095D01*
X150947380Y-123078809D02*
X149947380Y-123078809D01*
X149947380Y-122412142D02*
X149947380Y-122221666D01*
X149995000Y-122126428D01*
X150090238Y-122031190D01*
X150280714Y-121983571D01*
X150614047Y-121983571D01*
X150804523Y-122031190D01*
X150899761Y-122126428D01*
X150947380Y-122221666D01*
X150947380Y-122412142D01*
X150899761Y-122507380D01*
X150804523Y-122602619D01*
X150614047Y-122650238D01*
X150280714Y-122650238D01*
X150090238Y-122602619D01*
X149995000Y-122507380D01*
X149947380Y-122412142D01*
X152487380Y-123888333D02*
X153487380Y-123555000D01*
X152487380Y-123221666D01*
X153392142Y-122316904D02*
X153439761Y-122364523D01*
X153487380Y-122507380D01*
X153487380Y-122602619D01*
X153439761Y-122745476D01*
X153344523Y-122840714D01*
X153249285Y-122888333D01*
X153058809Y-122935952D01*
X152915952Y-122935952D01*
X152725476Y-122888333D01*
X152630238Y-122840714D01*
X152535000Y-122745476D01*
X152487380Y-122602619D01*
X152487380Y-122507380D01*
X152535000Y-122364523D01*
X152582619Y-122316904D01*
X153392142Y-121316904D02*
X153439761Y-121364523D01*
X153487380Y-121507380D01*
X153487380Y-121602619D01*
X153439761Y-121745476D01*
X153344523Y-121840714D01*
X153249285Y-121888333D01*
X153058809Y-121935952D01*
X152915952Y-121935952D01*
X152725476Y-121888333D01*
X152630238Y-121840714D01*
X152535000Y-121745476D01*
X152487380Y-121602619D01*
X152487380Y-121507380D01*
X152535000Y-121364523D01*
X152582619Y-121316904D01*
X148137857Y-132167380D02*
X148709285Y-132167380D01*
X148423571Y-133167380D02*
X148423571Y-132167380D01*
X149233095Y-132167380D02*
X149423571Y-132167380D01*
X149518809Y-132215000D01*
X149614047Y-132310238D01*
X149661666Y-132500714D01*
X149661666Y-132834047D01*
X149614047Y-133024523D01*
X149518809Y-133119761D01*
X149423571Y-133167380D01*
X149233095Y-133167380D01*
X149137857Y-133119761D01*
X149042619Y-133024523D01*
X148995000Y-132834047D01*
X148995000Y-132500714D01*
X149042619Y-132310238D01*
X149137857Y-132215000D01*
X149233095Y-132167380D01*
X150090238Y-132167380D02*
X150090238Y-132976904D01*
X150137857Y-133072142D01*
X150185476Y-133119761D01*
X150280714Y-133167380D01*
X150471190Y-133167380D01*
X150566428Y-133119761D01*
X150614047Y-133072142D01*
X150661666Y-132976904D01*
X150661666Y-132167380D01*
X151709285Y-133072142D02*
X151661666Y-133119761D01*
X151518809Y-133167380D01*
X151423571Y-133167380D01*
X151280714Y-133119761D01*
X151185476Y-133024523D01*
X151137857Y-132929285D01*
X151090238Y-132738809D01*
X151090238Y-132595952D01*
X151137857Y-132405476D01*
X151185476Y-132310238D01*
X151280714Y-132215000D01*
X151423571Y-132167380D01*
X151518809Y-132167380D01*
X151661666Y-132215000D01*
X151709285Y-132262619D01*
X152137857Y-133167380D02*
X152137857Y-132167380D01*
X152137857Y-132643571D02*
X152709285Y-132643571D01*
X152709285Y-133167380D02*
X152709285Y-132167380D01*
G04 #@! TO.C,Hole6*
X184150238Y-111577380D02*
X184150238Y-110577380D01*
X184150238Y-111053571D02*
X184721666Y-111053571D01*
X184721666Y-111577380D02*
X184721666Y-110577380D01*
X185340714Y-111577380D02*
X185245476Y-111529761D01*
X185197857Y-111482142D01*
X185150238Y-111386904D01*
X185150238Y-111101190D01*
X185197857Y-111005952D01*
X185245476Y-110958333D01*
X185340714Y-110910714D01*
X185483571Y-110910714D01*
X185578809Y-110958333D01*
X185626428Y-111005952D01*
X185674047Y-111101190D01*
X185674047Y-111386904D01*
X185626428Y-111482142D01*
X185578809Y-111529761D01*
X185483571Y-111577380D01*
X185340714Y-111577380D01*
X186245476Y-111577380D02*
X186150238Y-111529761D01*
X186102619Y-111434523D01*
X186102619Y-110577380D01*
X187007380Y-111529761D02*
X186912142Y-111577380D01*
X186721666Y-111577380D01*
X186626428Y-111529761D01*
X186578809Y-111434523D01*
X186578809Y-111053571D01*
X186626428Y-110958333D01*
X186721666Y-110910714D01*
X186912142Y-110910714D01*
X187007380Y-110958333D01*
X187055000Y-111053571D01*
X187055000Y-111148809D01*
X186578809Y-111244047D01*
X187912142Y-110577380D02*
X187721666Y-110577380D01*
X187626428Y-110625000D01*
X187578809Y-110672619D01*
X187483571Y-110815476D01*
X187435952Y-111005952D01*
X187435952Y-111386904D01*
X187483571Y-111482142D01*
X187531190Y-111529761D01*
X187626428Y-111577380D01*
X187816904Y-111577380D01*
X187912142Y-111529761D01*
X187959761Y-111482142D01*
X188007380Y-111386904D01*
X188007380Y-111148809D01*
X187959761Y-111053571D01*
X187912142Y-111005952D01*
X187816904Y-110958333D01*
X187626428Y-110958333D01*
X187531190Y-111005952D01*
X187483571Y-111053571D01*
X187435952Y-111148809D01*
G04 #@! TO.C,Hole5*
X179070238Y-70937380D02*
X179070238Y-69937380D01*
X179070238Y-70413571D02*
X179641666Y-70413571D01*
X179641666Y-70937380D02*
X179641666Y-69937380D01*
X180260714Y-70937380D02*
X180165476Y-70889761D01*
X180117857Y-70842142D01*
X180070238Y-70746904D01*
X180070238Y-70461190D01*
X180117857Y-70365952D01*
X180165476Y-70318333D01*
X180260714Y-70270714D01*
X180403571Y-70270714D01*
X180498809Y-70318333D01*
X180546428Y-70365952D01*
X180594047Y-70461190D01*
X180594047Y-70746904D01*
X180546428Y-70842142D01*
X180498809Y-70889761D01*
X180403571Y-70937380D01*
X180260714Y-70937380D01*
X181165476Y-70937380D02*
X181070238Y-70889761D01*
X181022619Y-70794523D01*
X181022619Y-69937380D01*
X181927380Y-70889761D02*
X181832142Y-70937380D01*
X181641666Y-70937380D01*
X181546428Y-70889761D01*
X181498809Y-70794523D01*
X181498809Y-70413571D01*
X181546428Y-70318333D01*
X181641666Y-70270714D01*
X181832142Y-70270714D01*
X181927380Y-70318333D01*
X181975000Y-70413571D01*
X181975000Y-70508809D01*
X181498809Y-70604047D01*
X182879761Y-69937380D02*
X182403571Y-69937380D01*
X182355952Y-70413571D01*
X182403571Y-70365952D01*
X182498809Y-70318333D01*
X182736904Y-70318333D01*
X182832142Y-70365952D01*
X182879761Y-70413571D01*
X182927380Y-70508809D01*
X182927380Y-70746904D01*
X182879761Y-70842142D01*
X182832142Y-70889761D01*
X182736904Y-70937380D01*
X182498809Y-70937380D01*
X182403571Y-70889761D01*
X182355952Y-70842142D01*
G04 #@! TO.C,TouchUp1*
X171101190Y-127087380D02*
X171672619Y-127087380D01*
X171386904Y-128087380D02*
X171386904Y-127087380D01*
X172148809Y-128087380D02*
X172053571Y-128039761D01*
X172005952Y-127992142D01*
X171958333Y-127896904D01*
X171958333Y-127611190D01*
X172005952Y-127515952D01*
X172053571Y-127468333D01*
X172148809Y-127420714D01*
X172291666Y-127420714D01*
X172386904Y-127468333D01*
X172434523Y-127515952D01*
X172482142Y-127611190D01*
X172482142Y-127896904D01*
X172434523Y-127992142D01*
X172386904Y-128039761D01*
X172291666Y-128087380D01*
X172148809Y-128087380D01*
X173339285Y-127420714D02*
X173339285Y-128087380D01*
X172910714Y-127420714D02*
X172910714Y-127944523D01*
X172958333Y-128039761D01*
X173053571Y-128087380D01*
X173196428Y-128087380D01*
X173291666Y-128039761D01*
X173339285Y-127992142D01*
X174244047Y-128039761D02*
X174148809Y-128087380D01*
X173958333Y-128087380D01*
X173863095Y-128039761D01*
X173815476Y-127992142D01*
X173767857Y-127896904D01*
X173767857Y-127611190D01*
X173815476Y-127515952D01*
X173863095Y-127468333D01*
X173958333Y-127420714D01*
X174148809Y-127420714D01*
X174244047Y-127468333D01*
X174672619Y-128087380D02*
X174672619Y-127087380D01*
X175101190Y-128087380D02*
X175101190Y-127563571D01*
X175053571Y-127468333D01*
X174958333Y-127420714D01*
X174815476Y-127420714D01*
X174720238Y-127468333D01*
X174672619Y-127515952D01*
X175577380Y-127087380D02*
X175577380Y-127896904D01*
X175625000Y-127992142D01*
X175672619Y-128039761D01*
X175767857Y-128087380D01*
X175958333Y-128087380D01*
X176053571Y-128039761D01*
X176101190Y-127992142D01*
X176148809Y-127896904D01*
X176148809Y-127087380D01*
X176625000Y-127420714D02*
X176625000Y-128420714D01*
X176625000Y-127468333D02*
X176720238Y-127420714D01*
X176910714Y-127420714D01*
X177005952Y-127468333D01*
X177053571Y-127515952D01*
X177101190Y-127611190D01*
X177101190Y-127896904D01*
X177053571Y-127992142D01*
X177005952Y-128039761D01*
X176910714Y-128087380D01*
X176720238Y-128087380D01*
X176625000Y-128039761D01*
X178053571Y-128087380D02*
X177482142Y-128087380D01*
X177767857Y-128087380D02*
X177767857Y-127087380D01*
X177672619Y-127230238D01*
X177577380Y-127325476D01*
X177482142Y-127373095D01*
X171585000Y-123316904D02*
X171537380Y-123412142D01*
X171537380Y-123555000D01*
X171585000Y-123697857D01*
X171680238Y-123793095D01*
X171775476Y-123840714D01*
X171965952Y-123888333D01*
X172108809Y-123888333D01*
X172299285Y-123840714D01*
X172394523Y-123793095D01*
X172489761Y-123697857D01*
X172537380Y-123555000D01*
X172537380Y-123459761D01*
X172489761Y-123316904D01*
X172442142Y-123269285D01*
X172108809Y-123269285D01*
X172108809Y-123459761D01*
X172537380Y-122840714D02*
X171537380Y-122840714D01*
X172537380Y-122269285D01*
X171537380Y-122269285D01*
X172537380Y-121793095D02*
X171537380Y-121793095D01*
X171537380Y-121555000D01*
X171585000Y-121412142D01*
X171680238Y-121316904D01*
X171775476Y-121269285D01*
X171965952Y-121221666D01*
X172108809Y-121221666D01*
X172299285Y-121269285D01*
X172394523Y-121316904D01*
X172489761Y-121412142D01*
X172537380Y-121555000D01*
X172537380Y-121793095D01*
X175077380Y-123078809D02*
X174077380Y-123078809D01*
X174077380Y-122412142D02*
X174077380Y-122221666D01*
X174125000Y-122126428D01*
X174220238Y-122031190D01*
X174410714Y-121983571D01*
X174744047Y-121983571D01*
X174934523Y-122031190D01*
X175029761Y-122126428D01*
X175077380Y-122221666D01*
X175077380Y-122412142D01*
X175029761Y-122507380D01*
X174934523Y-122602619D01*
X174744047Y-122650238D01*
X174410714Y-122650238D01*
X174220238Y-122602619D01*
X174125000Y-122507380D01*
X174077380Y-122412142D01*
X176617380Y-123888333D02*
X177617380Y-123555000D01*
X176617380Y-123221666D01*
X177522142Y-122316904D02*
X177569761Y-122364523D01*
X177617380Y-122507380D01*
X177617380Y-122602619D01*
X177569761Y-122745476D01*
X177474523Y-122840714D01*
X177379285Y-122888333D01*
X177188809Y-122935952D01*
X177045952Y-122935952D01*
X176855476Y-122888333D01*
X176760238Y-122840714D01*
X176665000Y-122745476D01*
X176617380Y-122602619D01*
X176617380Y-122507380D01*
X176665000Y-122364523D01*
X176712619Y-122316904D01*
X177522142Y-121316904D02*
X177569761Y-121364523D01*
X177617380Y-121507380D01*
X177617380Y-121602619D01*
X177569761Y-121745476D01*
X177474523Y-121840714D01*
X177379285Y-121888333D01*
X177188809Y-121935952D01*
X177045952Y-121935952D01*
X176855476Y-121888333D01*
X176760238Y-121840714D01*
X176665000Y-121745476D01*
X176617380Y-121602619D01*
X176617380Y-121507380D01*
X176665000Y-121364523D01*
X176712619Y-121316904D01*
X172267857Y-132167380D02*
X172839285Y-132167380D01*
X172553571Y-133167380D02*
X172553571Y-132167380D01*
X173363095Y-132167380D02*
X173553571Y-132167380D01*
X173648809Y-132215000D01*
X173744047Y-132310238D01*
X173791666Y-132500714D01*
X173791666Y-132834047D01*
X173744047Y-133024523D01*
X173648809Y-133119761D01*
X173553571Y-133167380D01*
X173363095Y-133167380D01*
X173267857Y-133119761D01*
X173172619Y-133024523D01*
X173125000Y-132834047D01*
X173125000Y-132500714D01*
X173172619Y-132310238D01*
X173267857Y-132215000D01*
X173363095Y-132167380D01*
X174220238Y-132167380D02*
X174220238Y-132976904D01*
X174267857Y-133072142D01*
X174315476Y-133119761D01*
X174410714Y-133167380D01*
X174601190Y-133167380D01*
X174696428Y-133119761D01*
X174744047Y-133072142D01*
X174791666Y-132976904D01*
X174791666Y-132167380D01*
X175839285Y-133072142D02*
X175791666Y-133119761D01*
X175648809Y-133167380D01*
X175553571Y-133167380D01*
X175410714Y-133119761D01*
X175315476Y-133024523D01*
X175267857Y-132929285D01*
X175220238Y-132738809D01*
X175220238Y-132595952D01*
X175267857Y-132405476D01*
X175315476Y-132310238D01*
X175410714Y-132215000D01*
X175553571Y-132167380D01*
X175648809Y-132167380D01*
X175791666Y-132215000D01*
X175839285Y-132262619D01*
X176267857Y-133167380D02*
X176267857Y-132167380D01*
X176267857Y-132643571D02*
X176839285Y-132643571D01*
X176839285Y-133167380D02*
X176839285Y-132167380D01*
G04 #@! TO.C,Hole4*
X184785238Y-133167380D02*
X184785238Y-132167380D01*
X184785238Y-132643571D02*
X185356666Y-132643571D01*
X185356666Y-133167380D02*
X185356666Y-132167380D01*
X185975714Y-133167380D02*
X185880476Y-133119761D01*
X185832857Y-133072142D01*
X185785238Y-132976904D01*
X185785238Y-132691190D01*
X185832857Y-132595952D01*
X185880476Y-132548333D01*
X185975714Y-132500714D01*
X186118571Y-132500714D01*
X186213809Y-132548333D01*
X186261428Y-132595952D01*
X186309047Y-132691190D01*
X186309047Y-132976904D01*
X186261428Y-133072142D01*
X186213809Y-133119761D01*
X186118571Y-133167380D01*
X185975714Y-133167380D01*
X186880476Y-133167380D02*
X186785238Y-133119761D01*
X186737619Y-133024523D01*
X186737619Y-132167380D01*
X187642380Y-133119761D02*
X187547142Y-133167380D01*
X187356666Y-133167380D01*
X187261428Y-133119761D01*
X187213809Y-133024523D01*
X187213809Y-132643571D01*
X187261428Y-132548333D01*
X187356666Y-132500714D01*
X187547142Y-132500714D01*
X187642380Y-132548333D01*
X187690000Y-132643571D01*
X187690000Y-132738809D01*
X187213809Y-132834047D01*
X188547142Y-132500714D02*
X188547142Y-133167380D01*
X188309047Y-132119761D02*
X188070952Y-132834047D01*
X188690000Y-132834047D01*
G04 #@! TO.C,Hole3*
X112395238Y-133167380D02*
X112395238Y-132167380D01*
X112395238Y-132643571D02*
X112966666Y-132643571D01*
X112966666Y-133167380D02*
X112966666Y-132167380D01*
X113585714Y-133167380D02*
X113490476Y-133119761D01*
X113442857Y-133072142D01*
X113395238Y-132976904D01*
X113395238Y-132691190D01*
X113442857Y-132595952D01*
X113490476Y-132548333D01*
X113585714Y-132500714D01*
X113728571Y-132500714D01*
X113823809Y-132548333D01*
X113871428Y-132595952D01*
X113919047Y-132691190D01*
X113919047Y-132976904D01*
X113871428Y-133072142D01*
X113823809Y-133119761D01*
X113728571Y-133167380D01*
X113585714Y-133167380D01*
X114490476Y-133167380D02*
X114395238Y-133119761D01*
X114347619Y-133024523D01*
X114347619Y-132167380D01*
X115252380Y-133119761D02*
X115157142Y-133167380D01*
X114966666Y-133167380D01*
X114871428Y-133119761D01*
X114823809Y-133024523D01*
X114823809Y-132643571D01*
X114871428Y-132548333D01*
X114966666Y-132500714D01*
X115157142Y-132500714D01*
X115252380Y-132548333D01*
X115300000Y-132643571D01*
X115300000Y-132738809D01*
X114823809Y-132834047D01*
X115633333Y-132167380D02*
X116252380Y-132167380D01*
X115919047Y-132548333D01*
X116061904Y-132548333D01*
X116157142Y-132595952D01*
X116204761Y-132643571D01*
X116252380Y-132738809D01*
X116252380Y-132976904D01*
X116204761Y-133072142D01*
X116157142Y-133119761D01*
X116061904Y-133167380D01*
X115776190Y-133167380D01*
X115680952Y-133119761D01*
X115633333Y-133072142D01*
G04 #@! TO.C,Hole2*
X179705238Y-64587380D02*
X179705238Y-63587380D01*
X179705238Y-64063571D02*
X180276666Y-64063571D01*
X180276666Y-64587380D02*
X180276666Y-63587380D01*
X180895714Y-64587380D02*
X180800476Y-64539761D01*
X180752857Y-64492142D01*
X180705238Y-64396904D01*
X180705238Y-64111190D01*
X180752857Y-64015952D01*
X180800476Y-63968333D01*
X180895714Y-63920714D01*
X181038571Y-63920714D01*
X181133809Y-63968333D01*
X181181428Y-64015952D01*
X181229047Y-64111190D01*
X181229047Y-64396904D01*
X181181428Y-64492142D01*
X181133809Y-64539761D01*
X181038571Y-64587380D01*
X180895714Y-64587380D01*
X181800476Y-64587380D02*
X181705238Y-64539761D01*
X181657619Y-64444523D01*
X181657619Y-63587380D01*
X182562380Y-64539761D02*
X182467142Y-64587380D01*
X182276666Y-64587380D01*
X182181428Y-64539761D01*
X182133809Y-64444523D01*
X182133809Y-64063571D01*
X182181428Y-63968333D01*
X182276666Y-63920714D01*
X182467142Y-63920714D01*
X182562380Y-63968333D01*
X182610000Y-64063571D01*
X182610000Y-64158809D01*
X182133809Y-64254047D01*
X182990952Y-63682619D02*
X183038571Y-63635000D01*
X183133809Y-63587380D01*
X183371904Y-63587380D01*
X183467142Y-63635000D01*
X183514761Y-63682619D01*
X183562380Y-63777857D01*
X183562380Y-63873095D01*
X183514761Y-64015952D01*
X182943333Y-64587380D01*
X183562380Y-64587380D01*
G04 #@! TO.C,Hole1*
X117475238Y-64587380D02*
X117475238Y-63587380D01*
X117475238Y-64063571D02*
X118046666Y-64063571D01*
X118046666Y-64587380D02*
X118046666Y-63587380D01*
X118665714Y-64587380D02*
X118570476Y-64539761D01*
X118522857Y-64492142D01*
X118475238Y-64396904D01*
X118475238Y-64111190D01*
X118522857Y-64015952D01*
X118570476Y-63968333D01*
X118665714Y-63920714D01*
X118808571Y-63920714D01*
X118903809Y-63968333D01*
X118951428Y-64015952D01*
X118999047Y-64111190D01*
X118999047Y-64396904D01*
X118951428Y-64492142D01*
X118903809Y-64539761D01*
X118808571Y-64587380D01*
X118665714Y-64587380D01*
X119570476Y-64587380D02*
X119475238Y-64539761D01*
X119427619Y-64444523D01*
X119427619Y-63587380D01*
X120332380Y-64539761D02*
X120237142Y-64587380D01*
X120046666Y-64587380D01*
X119951428Y-64539761D01*
X119903809Y-64444523D01*
X119903809Y-64063571D01*
X119951428Y-63968333D01*
X120046666Y-63920714D01*
X120237142Y-63920714D01*
X120332380Y-63968333D01*
X120380000Y-64063571D01*
X120380000Y-64158809D01*
X119903809Y-64254047D01*
X121332380Y-64587380D02*
X120760952Y-64587380D01*
X121046666Y-64587380D02*
X121046666Y-63587380D01*
X120951428Y-63730238D01*
X120856190Y-63825476D01*
X120760952Y-63873095D01*
G04 #@! TO.C,DHT1*
X178697142Y-81097380D02*
X178697142Y-80097380D01*
X178935238Y-80097380D01*
X179078095Y-80145000D01*
X179173333Y-80240238D01*
X179220952Y-80335476D01*
X179268571Y-80525952D01*
X179268571Y-80668809D01*
X179220952Y-80859285D01*
X179173333Y-80954523D01*
X179078095Y-81049761D01*
X178935238Y-81097380D01*
X178697142Y-81097380D01*
X179697142Y-81097380D02*
X179697142Y-80097380D01*
X179697142Y-80573571D02*
X180268571Y-80573571D01*
X180268571Y-81097380D02*
X180268571Y-80097380D01*
X180601904Y-80097380D02*
X181173333Y-80097380D01*
X180887619Y-81097380D02*
X180887619Y-80097380D01*
X182030476Y-81097380D02*
X181459047Y-81097380D01*
X181744761Y-81097380D02*
X181744761Y-80097380D01*
X181649523Y-80240238D01*
X181554285Y-80335476D01*
X181459047Y-80383095D01*
X183650000Y-105536904D02*
X183602380Y-105632142D01*
X183602380Y-105775000D01*
X183650000Y-105917857D01*
X183745238Y-106013095D01*
X183840476Y-106060714D01*
X184030952Y-106108333D01*
X184173809Y-106108333D01*
X184364285Y-106060714D01*
X184459523Y-106013095D01*
X184554761Y-105917857D01*
X184602380Y-105775000D01*
X184602380Y-105679761D01*
X184554761Y-105536904D01*
X184507142Y-105489285D01*
X184173809Y-105489285D01*
X184173809Y-105679761D01*
X184602380Y-105060714D02*
X183602380Y-105060714D01*
X184602380Y-104489285D01*
X183602380Y-104489285D01*
X184602380Y-104013095D02*
X183602380Y-104013095D01*
X183602380Y-103775000D01*
X183650000Y-103632142D01*
X183745238Y-103536904D01*
X183840476Y-103489285D01*
X184030952Y-103441666D01*
X184173809Y-103441666D01*
X184364285Y-103489285D01*
X184459523Y-103536904D01*
X184554761Y-103632142D01*
X184602380Y-103775000D01*
X184602380Y-104013095D01*
X182062380Y-105560714D02*
X181062380Y-105560714D01*
X182062380Y-104989285D01*
X181062380Y-104989285D01*
X181967142Y-103941666D02*
X182014761Y-103989285D01*
X182062380Y-104132142D01*
X182062380Y-104227380D01*
X182014761Y-104370238D01*
X181919523Y-104465476D01*
X181824285Y-104513095D01*
X181633809Y-104560714D01*
X181490952Y-104560714D01*
X181300476Y-104513095D01*
X181205238Y-104465476D01*
X181110000Y-104370238D01*
X181062380Y-104227380D01*
X181062380Y-104132142D01*
X181110000Y-103989285D01*
X181157619Y-103941666D01*
X179522380Y-106275000D02*
X178522380Y-106275000D01*
X178522380Y-106036904D01*
X178570000Y-105894047D01*
X178665238Y-105798809D01*
X178760476Y-105751190D01*
X178950952Y-105703571D01*
X179093809Y-105703571D01*
X179284285Y-105751190D01*
X179379523Y-105798809D01*
X179474761Y-105894047D01*
X179522380Y-106036904D01*
X179522380Y-106275000D01*
X179236666Y-105322619D02*
X179236666Y-104846428D01*
X179522380Y-105417857D02*
X178522380Y-105084523D01*
X179522380Y-104751190D01*
X178522380Y-104560714D02*
X178522380Y-103989285D01*
X179522380Y-104275000D02*
X178522380Y-104275000D01*
X179236666Y-103703571D02*
X179236666Y-103227380D01*
X179522380Y-103798809D02*
X178522380Y-103465476D01*
X179522380Y-103132142D01*
X175982380Y-106108333D02*
X176982380Y-105775000D01*
X175982380Y-105441666D01*
X176887142Y-104536904D02*
X176934761Y-104584523D01*
X176982380Y-104727380D01*
X176982380Y-104822619D01*
X176934761Y-104965476D01*
X176839523Y-105060714D01*
X176744285Y-105108333D01*
X176553809Y-105155952D01*
X176410952Y-105155952D01*
X176220476Y-105108333D01*
X176125238Y-105060714D01*
X176030000Y-104965476D01*
X175982380Y-104822619D01*
X175982380Y-104727380D01*
X176030000Y-104584523D01*
X176077619Y-104536904D01*
X176887142Y-103536904D02*
X176934761Y-103584523D01*
X176982380Y-103727380D01*
X176982380Y-103822619D01*
X176934761Y-103965476D01*
X176839523Y-104060714D01*
X176744285Y-104108333D01*
X176553809Y-104155952D01*
X176410952Y-104155952D01*
X176220476Y-104108333D01*
X176125238Y-104060714D01*
X176030000Y-103965476D01*
X175982380Y-103822619D01*
X175982380Y-103727380D01*
X176030000Y-103584523D01*
X176077619Y-103536904D01*
G04 #@! TO.C,TouchDown1*
X121888809Y-127087380D02*
X122460238Y-127087380D01*
X122174523Y-128087380D02*
X122174523Y-127087380D01*
X122936428Y-128087380D02*
X122841190Y-128039761D01*
X122793571Y-127992142D01*
X122745952Y-127896904D01*
X122745952Y-127611190D01*
X122793571Y-127515952D01*
X122841190Y-127468333D01*
X122936428Y-127420714D01*
X123079285Y-127420714D01*
X123174523Y-127468333D01*
X123222142Y-127515952D01*
X123269761Y-127611190D01*
X123269761Y-127896904D01*
X123222142Y-127992142D01*
X123174523Y-128039761D01*
X123079285Y-128087380D01*
X122936428Y-128087380D01*
X124126904Y-127420714D02*
X124126904Y-128087380D01*
X123698333Y-127420714D02*
X123698333Y-127944523D01*
X123745952Y-128039761D01*
X123841190Y-128087380D01*
X123984047Y-128087380D01*
X124079285Y-128039761D01*
X124126904Y-127992142D01*
X125031666Y-128039761D02*
X124936428Y-128087380D01*
X124745952Y-128087380D01*
X124650714Y-128039761D01*
X124603095Y-127992142D01*
X124555476Y-127896904D01*
X124555476Y-127611190D01*
X124603095Y-127515952D01*
X124650714Y-127468333D01*
X124745952Y-127420714D01*
X124936428Y-127420714D01*
X125031666Y-127468333D01*
X125460238Y-128087380D02*
X125460238Y-127087380D01*
X125888809Y-128087380D02*
X125888809Y-127563571D01*
X125841190Y-127468333D01*
X125745952Y-127420714D01*
X125603095Y-127420714D01*
X125507857Y-127468333D01*
X125460238Y-127515952D01*
X126365000Y-128087380D02*
X126365000Y-127087380D01*
X126603095Y-127087380D01*
X126745952Y-127135000D01*
X126841190Y-127230238D01*
X126888809Y-127325476D01*
X126936428Y-127515952D01*
X126936428Y-127658809D01*
X126888809Y-127849285D01*
X126841190Y-127944523D01*
X126745952Y-128039761D01*
X126603095Y-128087380D01*
X126365000Y-128087380D01*
X127507857Y-128087380D02*
X127412619Y-128039761D01*
X127365000Y-127992142D01*
X127317380Y-127896904D01*
X127317380Y-127611190D01*
X127365000Y-127515952D01*
X127412619Y-127468333D01*
X127507857Y-127420714D01*
X127650714Y-127420714D01*
X127745952Y-127468333D01*
X127793571Y-127515952D01*
X127841190Y-127611190D01*
X127841190Y-127896904D01*
X127793571Y-127992142D01*
X127745952Y-128039761D01*
X127650714Y-128087380D01*
X127507857Y-128087380D01*
X128174523Y-127420714D02*
X128365000Y-128087380D01*
X128555476Y-127611190D01*
X128745952Y-128087380D01*
X128936428Y-127420714D01*
X129317380Y-127420714D02*
X129317380Y-128087380D01*
X129317380Y-127515952D02*
X129365000Y-127468333D01*
X129460238Y-127420714D01*
X129603095Y-127420714D01*
X129698333Y-127468333D01*
X129745952Y-127563571D01*
X129745952Y-128087380D01*
X130745952Y-128087380D02*
X130174523Y-128087380D01*
X130460238Y-128087380D02*
X130460238Y-127087380D01*
X130365000Y-127230238D01*
X130269761Y-127325476D01*
X130174523Y-127373095D01*
X123325000Y-123316904D02*
X123277380Y-123412142D01*
X123277380Y-123555000D01*
X123325000Y-123697857D01*
X123420238Y-123793095D01*
X123515476Y-123840714D01*
X123705952Y-123888333D01*
X123848809Y-123888333D01*
X124039285Y-123840714D01*
X124134523Y-123793095D01*
X124229761Y-123697857D01*
X124277380Y-123555000D01*
X124277380Y-123459761D01*
X124229761Y-123316904D01*
X124182142Y-123269285D01*
X123848809Y-123269285D01*
X123848809Y-123459761D01*
X124277380Y-122840714D02*
X123277380Y-122840714D01*
X124277380Y-122269285D01*
X123277380Y-122269285D01*
X124277380Y-121793095D02*
X123277380Y-121793095D01*
X123277380Y-121555000D01*
X123325000Y-121412142D01*
X123420238Y-121316904D01*
X123515476Y-121269285D01*
X123705952Y-121221666D01*
X123848809Y-121221666D01*
X124039285Y-121269285D01*
X124134523Y-121316904D01*
X124229761Y-121412142D01*
X124277380Y-121555000D01*
X124277380Y-121793095D01*
X126817380Y-123078809D02*
X125817380Y-123078809D01*
X125817380Y-122412142D02*
X125817380Y-122221666D01*
X125865000Y-122126428D01*
X125960238Y-122031190D01*
X126150714Y-121983571D01*
X126484047Y-121983571D01*
X126674523Y-122031190D01*
X126769761Y-122126428D01*
X126817380Y-122221666D01*
X126817380Y-122412142D01*
X126769761Y-122507380D01*
X126674523Y-122602619D01*
X126484047Y-122650238D01*
X126150714Y-122650238D01*
X125960238Y-122602619D01*
X125865000Y-122507380D01*
X125817380Y-122412142D01*
X128357380Y-123888333D02*
X129357380Y-123555000D01*
X128357380Y-123221666D01*
X129262142Y-122316904D02*
X129309761Y-122364523D01*
X129357380Y-122507380D01*
X129357380Y-122602619D01*
X129309761Y-122745476D01*
X129214523Y-122840714D01*
X129119285Y-122888333D01*
X128928809Y-122935952D01*
X128785952Y-122935952D01*
X128595476Y-122888333D01*
X128500238Y-122840714D01*
X128405000Y-122745476D01*
X128357380Y-122602619D01*
X128357380Y-122507380D01*
X128405000Y-122364523D01*
X128452619Y-122316904D01*
X129262142Y-121316904D02*
X129309761Y-121364523D01*
X129357380Y-121507380D01*
X129357380Y-121602619D01*
X129309761Y-121745476D01*
X129214523Y-121840714D01*
X129119285Y-121888333D01*
X128928809Y-121935952D01*
X128785952Y-121935952D01*
X128595476Y-121888333D01*
X128500238Y-121840714D01*
X128405000Y-121745476D01*
X128357380Y-121602619D01*
X128357380Y-121507380D01*
X128405000Y-121364523D01*
X128452619Y-121316904D01*
X124007857Y-132167380D02*
X124579285Y-132167380D01*
X124293571Y-133167380D02*
X124293571Y-132167380D01*
X125103095Y-132167380D02*
X125293571Y-132167380D01*
X125388809Y-132215000D01*
X125484047Y-132310238D01*
X125531666Y-132500714D01*
X125531666Y-132834047D01*
X125484047Y-133024523D01*
X125388809Y-133119761D01*
X125293571Y-133167380D01*
X125103095Y-133167380D01*
X125007857Y-133119761D01*
X124912619Y-133024523D01*
X124865000Y-132834047D01*
X124865000Y-132500714D01*
X124912619Y-132310238D01*
X125007857Y-132215000D01*
X125103095Y-132167380D01*
X125960238Y-132167380D02*
X125960238Y-132976904D01*
X126007857Y-133072142D01*
X126055476Y-133119761D01*
X126150714Y-133167380D01*
X126341190Y-133167380D01*
X126436428Y-133119761D01*
X126484047Y-133072142D01*
X126531666Y-132976904D01*
X126531666Y-132167380D01*
X127579285Y-133072142D02*
X127531666Y-133119761D01*
X127388809Y-133167380D01*
X127293571Y-133167380D01*
X127150714Y-133119761D01*
X127055476Y-133024523D01*
X127007857Y-132929285D01*
X126960238Y-132738809D01*
X126960238Y-132595952D01*
X127007857Y-132405476D01*
X127055476Y-132310238D01*
X127150714Y-132215000D01*
X127293571Y-132167380D01*
X127388809Y-132167380D01*
X127531666Y-132215000D01*
X127579285Y-132262619D01*
X128007857Y-133167380D02*
X128007857Y-132167380D01*
X128007857Y-132643571D02*
X128579285Y-132643571D01*
X128579285Y-133167380D02*
X128579285Y-132167380D01*
G04 #@! TO.C,TFT1*
X112728571Y-68667380D02*
X113300000Y-68667380D01*
X113014285Y-69667380D02*
X113014285Y-68667380D01*
X113966666Y-69143571D02*
X113633333Y-69143571D01*
X113633333Y-69667380D02*
X113633333Y-68667380D01*
X114109523Y-68667380D01*
X114347619Y-68667380D02*
X114919047Y-68667380D01*
X114633333Y-69667380D02*
X114633333Y-68667380D01*
X115776190Y-69667380D02*
X115204761Y-69667380D01*
X115490476Y-69667380D02*
X115490476Y-68667380D01*
X115395238Y-68810238D01*
X115300000Y-68905476D01*
X115204761Y-68953095D01*
X109402857Y-104862380D02*
X109974285Y-104862380D01*
X109688571Y-105862380D02*
X109688571Y-104862380D01*
X110498095Y-104862380D02*
X110688571Y-104862380D01*
X110783809Y-104910000D01*
X110879047Y-105005238D01*
X110926666Y-105195714D01*
X110926666Y-105529047D01*
X110879047Y-105719523D01*
X110783809Y-105814761D01*
X110688571Y-105862380D01*
X110498095Y-105862380D01*
X110402857Y-105814761D01*
X110307619Y-105719523D01*
X110260000Y-105529047D01*
X110260000Y-105195714D01*
X110307619Y-105005238D01*
X110402857Y-104910000D01*
X110498095Y-104862380D01*
X111355238Y-104862380D02*
X111355238Y-105671904D01*
X111402857Y-105767142D01*
X111450476Y-105814761D01*
X111545714Y-105862380D01*
X111736190Y-105862380D01*
X111831428Y-105814761D01*
X111879047Y-105767142D01*
X111926666Y-105671904D01*
X111926666Y-104862380D01*
X112974285Y-105767142D02*
X112926666Y-105814761D01*
X112783809Y-105862380D01*
X112688571Y-105862380D01*
X112545714Y-105814761D01*
X112450476Y-105719523D01*
X112402857Y-105624285D01*
X112355238Y-105433809D01*
X112355238Y-105290952D01*
X112402857Y-105100476D01*
X112450476Y-105005238D01*
X112545714Y-104910000D01*
X112688571Y-104862380D01*
X112783809Y-104862380D01*
X112926666Y-104910000D01*
X112974285Y-104957619D01*
X113402857Y-105862380D02*
X113402857Y-104862380D01*
X113402857Y-105338571D02*
X113974285Y-105338571D01*
X113974285Y-105862380D02*
X113974285Y-104862380D01*
X109402857Y-102322380D02*
X109974285Y-102322380D01*
X109688571Y-103322380D02*
X109688571Y-102322380D01*
X110498095Y-102322380D02*
X110688571Y-102322380D01*
X110783809Y-102370000D01*
X110879047Y-102465238D01*
X110926666Y-102655714D01*
X110926666Y-102989047D01*
X110879047Y-103179523D01*
X110783809Y-103274761D01*
X110688571Y-103322380D01*
X110498095Y-103322380D01*
X110402857Y-103274761D01*
X110307619Y-103179523D01*
X110260000Y-102989047D01*
X110260000Y-102655714D01*
X110307619Y-102465238D01*
X110402857Y-102370000D01*
X110498095Y-102322380D01*
X111355238Y-102322380D02*
X111355238Y-103131904D01*
X111402857Y-103227142D01*
X111450476Y-103274761D01*
X111545714Y-103322380D01*
X111736190Y-103322380D01*
X111831428Y-103274761D01*
X111879047Y-103227142D01*
X111926666Y-103131904D01*
X111926666Y-102322380D01*
X112974285Y-103227142D02*
X112926666Y-103274761D01*
X112783809Y-103322380D01*
X112688571Y-103322380D01*
X112545714Y-103274761D01*
X112450476Y-103179523D01*
X112402857Y-103084285D01*
X112355238Y-102893809D01*
X112355238Y-102750952D01*
X112402857Y-102560476D01*
X112450476Y-102465238D01*
X112545714Y-102370000D01*
X112688571Y-102322380D01*
X112783809Y-102322380D01*
X112926666Y-102370000D01*
X112974285Y-102417619D01*
X113402857Y-103322380D02*
X113402857Y-102322380D01*
X113402857Y-102798571D02*
X113974285Y-102798571D01*
X113974285Y-103322380D02*
X113974285Y-102322380D01*
X109402857Y-99782380D02*
X109974285Y-99782380D01*
X109688571Y-100782380D02*
X109688571Y-99782380D01*
X110498095Y-99782380D02*
X110688571Y-99782380D01*
X110783809Y-99830000D01*
X110879047Y-99925238D01*
X110926666Y-100115714D01*
X110926666Y-100449047D01*
X110879047Y-100639523D01*
X110783809Y-100734761D01*
X110688571Y-100782380D01*
X110498095Y-100782380D01*
X110402857Y-100734761D01*
X110307619Y-100639523D01*
X110260000Y-100449047D01*
X110260000Y-100115714D01*
X110307619Y-99925238D01*
X110402857Y-99830000D01*
X110498095Y-99782380D01*
X111355238Y-99782380D02*
X111355238Y-100591904D01*
X111402857Y-100687142D01*
X111450476Y-100734761D01*
X111545714Y-100782380D01*
X111736190Y-100782380D01*
X111831428Y-100734761D01*
X111879047Y-100687142D01*
X111926666Y-100591904D01*
X111926666Y-99782380D01*
X112974285Y-100687142D02*
X112926666Y-100734761D01*
X112783809Y-100782380D01*
X112688571Y-100782380D01*
X112545714Y-100734761D01*
X112450476Y-100639523D01*
X112402857Y-100544285D01*
X112355238Y-100353809D01*
X112355238Y-100210952D01*
X112402857Y-100020476D01*
X112450476Y-99925238D01*
X112545714Y-99830000D01*
X112688571Y-99782380D01*
X112783809Y-99782380D01*
X112926666Y-99830000D01*
X112974285Y-99877619D01*
X113402857Y-100782380D02*
X113402857Y-99782380D01*
X113402857Y-100258571D02*
X113974285Y-100258571D01*
X113974285Y-100782380D02*
X113974285Y-99782380D01*
X109402857Y-97242380D02*
X109974285Y-97242380D01*
X109688571Y-98242380D02*
X109688571Y-97242380D01*
X110498095Y-97242380D02*
X110688571Y-97242380D01*
X110783809Y-97290000D01*
X110879047Y-97385238D01*
X110926666Y-97575714D01*
X110926666Y-97909047D01*
X110879047Y-98099523D01*
X110783809Y-98194761D01*
X110688571Y-98242380D01*
X110498095Y-98242380D01*
X110402857Y-98194761D01*
X110307619Y-98099523D01*
X110260000Y-97909047D01*
X110260000Y-97575714D01*
X110307619Y-97385238D01*
X110402857Y-97290000D01*
X110498095Y-97242380D01*
X111355238Y-97242380D02*
X111355238Y-98051904D01*
X111402857Y-98147142D01*
X111450476Y-98194761D01*
X111545714Y-98242380D01*
X111736190Y-98242380D01*
X111831428Y-98194761D01*
X111879047Y-98147142D01*
X111926666Y-98051904D01*
X111926666Y-97242380D01*
X112974285Y-98147142D02*
X112926666Y-98194761D01*
X112783809Y-98242380D01*
X112688571Y-98242380D01*
X112545714Y-98194761D01*
X112450476Y-98099523D01*
X112402857Y-98004285D01*
X112355238Y-97813809D01*
X112355238Y-97670952D01*
X112402857Y-97480476D01*
X112450476Y-97385238D01*
X112545714Y-97290000D01*
X112688571Y-97242380D01*
X112783809Y-97242380D01*
X112926666Y-97290000D01*
X112974285Y-97337619D01*
X113402857Y-98242380D02*
X113402857Y-97242380D01*
X113402857Y-97718571D02*
X113974285Y-97718571D01*
X113974285Y-98242380D02*
X113974285Y-97242380D01*
X109402857Y-94702380D02*
X109974285Y-94702380D01*
X109688571Y-95702380D02*
X109688571Y-94702380D01*
X110498095Y-94702380D02*
X110688571Y-94702380D01*
X110783809Y-94750000D01*
X110879047Y-94845238D01*
X110926666Y-95035714D01*
X110926666Y-95369047D01*
X110879047Y-95559523D01*
X110783809Y-95654761D01*
X110688571Y-95702380D01*
X110498095Y-95702380D01*
X110402857Y-95654761D01*
X110307619Y-95559523D01*
X110260000Y-95369047D01*
X110260000Y-95035714D01*
X110307619Y-94845238D01*
X110402857Y-94750000D01*
X110498095Y-94702380D01*
X111355238Y-94702380D02*
X111355238Y-95511904D01*
X111402857Y-95607142D01*
X111450476Y-95654761D01*
X111545714Y-95702380D01*
X111736190Y-95702380D01*
X111831428Y-95654761D01*
X111879047Y-95607142D01*
X111926666Y-95511904D01*
X111926666Y-94702380D01*
X112974285Y-95607142D02*
X112926666Y-95654761D01*
X112783809Y-95702380D01*
X112688571Y-95702380D01*
X112545714Y-95654761D01*
X112450476Y-95559523D01*
X112402857Y-95464285D01*
X112355238Y-95273809D01*
X112355238Y-95130952D01*
X112402857Y-94940476D01*
X112450476Y-94845238D01*
X112545714Y-94750000D01*
X112688571Y-94702380D01*
X112783809Y-94702380D01*
X112926666Y-94750000D01*
X112974285Y-94797619D01*
X113402857Y-95702380D02*
X113402857Y-94702380D01*
X113402857Y-95178571D02*
X113974285Y-95178571D01*
X113974285Y-95702380D02*
X113974285Y-94702380D01*
X110188571Y-93162380D02*
X110188571Y-92162380D01*
X110521904Y-92876666D01*
X110855238Y-92162380D01*
X110855238Y-93162380D01*
X111331428Y-93162380D02*
X111331428Y-92162380D01*
X111760000Y-93114761D02*
X111902857Y-93162380D01*
X112140952Y-93162380D01*
X112236190Y-93114761D01*
X112283809Y-93067142D01*
X112331428Y-92971904D01*
X112331428Y-92876666D01*
X112283809Y-92781428D01*
X112236190Y-92733809D01*
X112140952Y-92686190D01*
X111950476Y-92638571D01*
X111855238Y-92590952D01*
X111807619Y-92543333D01*
X111760000Y-92448095D01*
X111760000Y-92352857D01*
X111807619Y-92257619D01*
X111855238Y-92210000D01*
X111950476Y-92162380D01*
X112188571Y-92162380D01*
X112331428Y-92210000D01*
X112950476Y-92162380D02*
X113140952Y-92162380D01*
X113236190Y-92210000D01*
X113331428Y-92305238D01*
X113379047Y-92495714D01*
X113379047Y-92829047D01*
X113331428Y-93019523D01*
X113236190Y-93114761D01*
X113140952Y-93162380D01*
X112950476Y-93162380D01*
X112855238Y-93114761D01*
X112760000Y-93019523D01*
X112712380Y-92829047D01*
X112712380Y-92495714D01*
X112760000Y-92305238D01*
X112855238Y-92210000D01*
X112950476Y-92162380D01*
X111117142Y-90622380D02*
X110640952Y-90622380D01*
X110640952Y-89622380D01*
X111450476Y-90098571D02*
X111783809Y-90098571D01*
X111926666Y-90622380D02*
X111450476Y-90622380D01*
X111450476Y-89622380D01*
X111926666Y-89622380D01*
X112355238Y-90622380D02*
X112355238Y-89622380D01*
X112593333Y-89622380D01*
X112736190Y-89670000D01*
X112831428Y-89765238D01*
X112879047Y-89860476D01*
X112926666Y-90050952D01*
X112926666Y-90193809D01*
X112879047Y-90384285D01*
X112831428Y-90479523D01*
X112736190Y-90574761D01*
X112593333Y-90622380D01*
X112355238Y-90622380D01*
X110474285Y-88034761D02*
X110617142Y-88082380D01*
X110855238Y-88082380D01*
X110950476Y-88034761D01*
X110998095Y-87987142D01*
X111045714Y-87891904D01*
X111045714Y-87796666D01*
X110998095Y-87701428D01*
X110950476Y-87653809D01*
X110855238Y-87606190D01*
X110664761Y-87558571D01*
X110569523Y-87510952D01*
X110521904Y-87463333D01*
X110474285Y-87368095D01*
X110474285Y-87272857D01*
X110521904Y-87177619D01*
X110569523Y-87130000D01*
X110664761Y-87082380D01*
X110902857Y-87082380D01*
X111045714Y-87130000D01*
X112045714Y-87987142D02*
X111998095Y-88034761D01*
X111855238Y-88082380D01*
X111760000Y-88082380D01*
X111617142Y-88034761D01*
X111521904Y-87939523D01*
X111474285Y-87844285D01*
X111426666Y-87653809D01*
X111426666Y-87510952D01*
X111474285Y-87320476D01*
X111521904Y-87225238D01*
X111617142Y-87130000D01*
X111760000Y-87082380D01*
X111855238Y-87082380D01*
X111998095Y-87130000D01*
X112045714Y-87177619D01*
X112474285Y-88082380D02*
X112474285Y-87082380D01*
X113045714Y-88082380D02*
X112617142Y-87510952D01*
X113045714Y-87082380D02*
X112474285Y-87653809D01*
X110188571Y-85542380D02*
X110188571Y-84542380D01*
X110521904Y-85256666D01*
X110855238Y-84542380D01*
X110855238Y-85542380D01*
X111521904Y-84542380D02*
X111712380Y-84542380D01*
X111807619Y-84590000D01*
X111902857Y-84685238D01*
X111950476Y-84875714D01*
X111950476Y-85209047D01*
X111902857Y-85399523D01*
X111807619Y-85494761D01*
X111712380Y-85542380D01*
X111521904Y-85542380D01*
X111426666Y-85494761D01*
X111331428Y-85399523D01*
X111283809Y-85209047D01*
X111283809Y-84875714D01*
X111331428Y-84685238D01*
X111426666Y-84590000D01*
X111521904Y-84542380D01*
X112331428Y-85494761D02*
X112474285Y-85542380D01*
X112712380Y-85542380D01*
X112807619Y-85494761D01*
X112855238Y-85447142D01*
X112902857Y-85351904D01*
X112902857Y-85256666D01*
X112855238Y-85161428D01*
X112807619Y-85113809D01*
X112712380Y-85066190D01*
X112521904Y-85018571D01*
X112426666Y-84970952D01*
X112379047Y-84923333D01*
X112331428Y-84828095D01*
X112331428Y-84732857D01*
X112379047Y-84637619D01*
X112426666Y-84590000D01*
X112521904Y-84542380D01*
X112760000Y-84542380D01*
X112902857Y-84590000D01*
X113331428Y-85542380D02*
X113331428Y-84542380D01*
X110998095Y-83002380D02*
X110998095Y-82002380D01*
X111236190Y-82002380D01*
X111379047Y-82050000D01*
X111474285Y-82145238D01*
X111521904Y-82240476D01*
X111569523Y-82430952D01*
X111569523Y-82573809D01*
X111521904Y-82764285D01*
X111474285Y-82859523D01*
X111379047Y-82954761D01*
X111236190Y-83002380D01*
X110998095Y-83002380D01*
X112569523Y-82907142D02*
X112521904Y-82954761D01*
X112379047Y-83002380D01*
X112283809Y-83002380D01*
X112140952Y-82954761D01*
X112045714Y-82859523D01*
X111998095Y-82764285D01*
X111950476Y-82573809D01*
X111950476Y-82430952D01*
X111998095Y-82240476D01*
X112045714Y-82145238D01*
X112140952Y-82050000D01*
X112283809Y-82002380D01*
X112379047Y-82002380D01*
X112521904Y-82050000D01*
X112569523Y-82097619D01*
X111212380Y-80462380D02*
X110879047Y-79986190D01*
X110640952Y-80462380D02*
X110640952Y-79462380D01*
X111021904Y-79462380D01*
X111117142Y-79510000D01*
X111164761Y-79557619D01*
X111212380Y-79652857D01*
X111212380Y-79795714D01*
X111164761Y-79890952D01*
X111117142Y-79938571D01*
X111021904Y-79986190D01*
X110640952Y-79986190D01*
X111593333Y-80414761D02*
X111736190Y-80462380D01*
X111974285Y-80462380D01*
X112069523Y-80414761D01*
X112117142Y-80367142D01*
X112164761Y-80271904D01*
X112164761Y-80176666D01*
X112117142Y-80081428D01*
X112069523Y-80033809D01*
X111974285Y-79986190D01*
X111783809Y-79938571D01*
X111688571Y-79890952D01*
X111640952Y-79843333D01*
X111593333Y-79748095D01*
X111593333Y-79652857D01*
X111640952Y-79557619D01*
X111688571Y-79510000D01*
X111783809Y-79462380D01*
X112021904Y-79462380D01*
X112164761Y-79510000D01*
X112450476Y-79462380D02*
X113021904Y-79462380D01*
X112736190Y-80462380D02*
X112736190Y-79462380D01*
X111593333Y-77827142D02*
X111545714Y-77874761D01*
X111402857Y-77922380D01*
X111307619Y-77922380D01*
X111164761Y-77874761D01*
X111069523Y-77779523D01*
X111021904Y-77684285D01*
X110974285Y-77493809D01*
X110974285Y-77350952D01*
X111021904Y-77160476D01*
X111069523Y-77065238D01*
X111164761Y-76970000D01*
X111307619Y-76922380D01*
X111402857Y-76922380D01*
X111545714Y-76970000D01*
X111593333Y-77017619D01*
X111974285Y-77874761D02*
X112117142Y-77922380D01*
X112355238Y-77922380D01*
X112450476Y-77874761D01*
X112498095Y-77827142D01*
X112545714Y-77731904D01*
X112545714Y-77636666D01*
X112498095Y-77541428D01*
X112450476Y-77493809D01*
X112355238Y-77446190D01*
X112164761Y-77398571D01*
X112069523Y-77350952D01*
X112021904Y-77303333D01*
X111974285Y-77208095D01*
X111974285Y-77112857D01*
X112021904Y-77017619D01*
X112069523Y-76970000D01*
X112164761Y-76922380D01*
X112402857Y-76922380D01*
X112545714Y-76970000D01*
X110998095Y-74430000D02*
X110902857Y-74382380D01*
X110760000Y-74382380D01*
X110617142Y-74430000D01*
X110521904Y-74525238D01*
X110474285Y-74620476D01*
X110426666Y-74810952D01*
X110426666Y-74953809D01*
X110474285Y-75144285D01*
X110521904Y-75239523D01*
X110617142Y-75334761D01*
X110760000Y-75382380D01*
X110855238Y-75382380D01*
X110998095Y-75334761D01*
X111045714Y-75287142D01*
X111045714Y-74953809D01*
X110855238Y-74953809D01*
X111474285Y-75382380D02*
X111474285Y-74382380D01*
X112045714Y-75382380D01*
X112045714Y-74382380D01*
X112521904Y-75382380D02*
X112521904Y-74382380D01*
X112760000Y-74382380D01*
X112902857Y-74430000D01*
X112998095Y-74525238D01*
X113045714Y-74620476D01*
X113093333Y-74810952D01*
X113093333Y-74953809D01*
X113045714Y-75144285D01*
X112998095Y-75239523D01*
X112902857Y-75334761D01*
X112760000Y-75382380D01*
X112521904Y-75382380D01*
X110426666Y-71842380D02*
X110760000Y-72842380D01*
X111093333Y-71842380D01*
X111998095Y-72747142D02*
X111950476Y-72794761D01*
X111807619Y-72842380D01*
X111712380Y-72842380D01*
X111569523Y-72794761D01*
X111474285Y-72699523D01*
X111426666Y-72604285D01*
X111379047Y-72413809D01*
X111379047Y-72270952D01*
X111426666Y-72080476D01*
X111474285Y-71985238D01*
X111569523Y-71890000D01*
X111712380Y-71842380D01*
X111807619Y-71842380D01*
X111950476Y-71890000D01*
X111998095Y-71937619D01*
X112998095Y-72747142D02*
X112950476Y-72794761D01*
X112807619Y-72842380D01*
X112712380Y-72842380D01*
X112569523Y-72794761D01*
X112474285Y-72699523D01*
X112426666Y-72604285D01*
X112379047Y-72413809D01*
X112379047Y-72270952D01*
X112426666Y-72080476D01*
X112474285Y-71985238D01*
X112569523Y-71890000D01*
X112712380Y-71842380D01*
X112807619Y-71842380D01*
X112950476Y-71890000D01*
X112998095Y-71937619D01*
G04 #@! TD*
M02*
