G04 #@! TF.GenerationSoftware,KiCad,Pcbnew,(5.0.1)-3*
G04 #@! TF.CreationDate,2019-02-20T08:20:08+01:00*
G04 #@! TF.ProjectId,THERMOSTAT,544845524D4F535441542E6B69636164,rev?*
G04 #@! TF.SameCoordinates,Original*
G04 #@! TF.FileFunction,Legend,Top*
G04 #@! TF.FilePolarity,Positive*
%FSLAX46Y46*%
G04 Gerber Fmt 4.6, Leading zero omitted, Abs format (unit mm)*
G04 Created by KiCad (PCBNEW (5.0.1)-3) date 2/20/2019 8:20:08 AM*
%MOMM*%
%LPD*%
G01*
G04 APERTURE LIST*
%ADD10C,0.300000*%
%ADD11C,0.120000*%
%ADD12C,0.150000*%
G04 APERTURE END LIST*
D10*
X136494999Y-130075714D02*
X136423571Y-130147142D01*
X136209285Y-130218571D01*
X136066428Y-130218571D01*
X135852142Y-130147142D01*
X135709285Y-130004285D01*
X135637857Y-129861428D01*
X135566428Y-129575714D01*
X135566428Y-129361428D01*
X135637857Y-129075714D01*
X135709285Y-128932857D01*
X135852142Y-128790000D01*
X136066428Y-128718571D01*
X136209285Y-128718571D01*
X136423571Y-128790000D01*
X136494999Y-128861428D01*
X137352142Y-130218571D02*
X137209285Y-130147142D01*
X137137857Y-130075714D01*
X137066428Y-129932857D01*
X137066428Y-129504285D01*
X137137857Y-129361428D01*
X137209285Y-129290000D01*
X137352142Y-129218571D01*
X137566428Y-129218571D01*
X137709285Y-129290000D01*
X137780714Y-129361428D01*
X137852142Y-129504285D01*
X137852142Y-129932857D01*
X137780714Y-130075714D01*
X137709285Y-130147142D01*
X137566428Y-130218571D01*
X137352142Y-130218571D01*
X138494999Y-129218571D02*
X138494999Y-130718571D01*
X138494999Y-129290000D02*
X138637857Y-129218571D01*
X138923571Y-129218571D01*
X139066428Y-129290000D01*
X139137857Y-129361428D01*
X139209285Y-129504285D01*
X139209285Y-129932857D01*
X139137857Y-130075714D01*
X139066428Y-130147142D01*
X138923571Y-130218571D01*
X138637857Y-130218571D01*
X138494999Y-130147142D01*
X139709285Y-129218571D02*
X140066428Y-130218571D01*
X140423571Y-129218571D02*
X140066428Y-130218571D01*
X139923571Y-130575714D01*
X139852142Y-130647142D01*
X139709285Y-130718571D01*
X140994999Y-130218571D02*
X140994999Y-129218571D01*
X140994999Y-129504285D02*
X141066428Y-129361428D01*
X141137857Y-129290000D01*
X141280714Y-129218571D01*
X141423571Y-129218571D01*
X141923571Y-130218571D02*
X141923571Y-129218571D01*
X141923571Y-128718571D02*
X141852142Y-128790000D01*
X141923571Y-128861428D01*
X141994999Y-128790000D01*
X141923571Y-128718571D01*
X141923571Y-128861428D01*
X143280714Y-129218571D02*
X143280714Y-130432857D01*
X143209285Y-130575714D01*
X143137857Y-130647142D01*
X142994999Y-130718571D01*
X142780714Y-130718571D01*
X142637857Y-130647142D01*
X143280714Y-130147142D02*
X143137857Y-130218571D01*
X142852142Y-130218571D01*
X142709285Y-130147142D01*
X142637857Y-130075714D01*
X142566428Y-129932857D01*
X142566428Y-129504285D01*
X142637857Y-129361428D01*
X142709285Y-129290000D01*
X142852142Y-129218571D01*
X143137857Y-129218571D01*
X143280714Y-129290000D01*
X143994999Y-130218571D02*
X143994999Y-128718571D01*
X144637857Y-130218571D02*
X144637857Y-129432857D01*
X144566428Y-129290000D01*
X144423571Y-129218571D01*
X144209285Y-129218571D01*
X144066428Y-129290000D01*
X143994999Y-129361428D01*
X145137857Y-129218571D02*
X145709285Y-129218571D01*
X145352142Y-128718571D02*
X145352142Y-130004285D01*
X145423571Y-130147142D01*
X145566428Y-130218571D01*
X145709285Y-130218571D01*
X147280714Y-128861428D02*
X147352142Y-128790000D01*
X147494999Y-128718571D01*
X147852142Y-128718571D01*
X147994999Y-128790000D01*
X148066428Y-128861428D01*
X148137857Y-129004285D01*
X148137857Y-129147142D01*
X148066428Y-129361428D01*
X147209285Y-130218571D01*
X148137857Y-130218571D01*
X149066428Y-128718571D02*
X149209285Y-128718571D01*
X149352142Y-128790000D01*
X149423571Y-128861428D01*
X149494999Y-129004285D01*
X149566428Y-129290000D01*
X149566428Y-129647142D01*
X149494999Y-129932857D01*
X149423571Y-130075714D01*
X149352142Y-130147142D01*
X149209285Y-130218571D01*
X149066428Y-130218571D01*
X148923571Y-130147142D01*
X148852142Y-130075714D01*
X148780714Y-129932857D01*
X148709285Y-129647142D01*
X148709285Y-129290000D01*
X148780714Y-129004285D01*
X148852142Y-128861428D01*
X148923571Y-128790000D01*
X149066428Y-128718571D01*
X150994999Y-130218571D02*
X150137857Y-130218571D01*
X150566428Y-130218571D02*
X150566428Y-128718571D01*
X150423571Y-128932857D01*
X150280714Y-129075714D01*
X150137857Y-129147142D01*
X151709285Y-130218571D02*
X151994999Y-130218571D01*
X152137857Y-130147142D01*
X152209285Y-130075714D01*
X152352142Y-129861428D01*
X152423571Y-129575714D01*
X152423571Y-129004285D01*
X152352142Y-128861428D01*
X152280714Y-128790000D01*
X152137857Y-128718571D01*
X151852142Y-128718571D01*
X151709285Y-128790000D01*
X151637857Y-128861428D01*
X151566428Y-129004285D01*
X151566428Y-129361428D01*
X151637857Y-129504285D01*
X151709285Y-129575714D01*
X151852142Y-129647142D01*
X152137857Y-129647142D01*
X152280714Y-129575714D01*
X152352142Y-129504285D01*
X152423571Y-129361428D01*
X153137857Y-130147142D02*
X153137857Y-130218571D01*
X153066428Y-130361428D01*
X152995000Y-130432857D01*
X154923571Y-130218571D02*
X154923571Y-128718571D01*
X155494999Y-128718571D01*
X155637857Y-128790000D01*
X155709285Y-128861428D01*
X155780714Y-129004285D01*
X155780714Y-129218571D01*
X155709285Y-129361428D01*
X155637857Y-129432857D01*
X155494999Y-129504285D01*
X154923571Y-129504285D01*
X156637857Y-130218571D02*
X156494999Y-130147142D01*
X156423571Y-130004285D01*
X156423571Y-128718571D01*
X157852142Y-129218571D02*
X157852142Y-130218571D01*
X157209285Y-129218571D02*
X157209285Y-130004285D01*
X157280714Y-130147142D01*
X157423571Y-130218571D01*
X157637857Y-130218571D01*
X157780714Y-130147142D01*
X157852142Y-130075714D01*
X158352142Y-129218571D02*
X158923571Y-129218571D01*
X158566428Y-128718571D02*
X158566428Y-130004285D01*
X158637857Y-130147142D01*
X158780714Y-130218571D01*
X158923571Y-130218571D01*
X159637857Y-130218571D02*
X159495000Y-130147142D01*
X159423571Y-130075714D01*
X159352142Y-129932857D01*
X159352142Y-129504285D01*
X159423571Y-129361428D01*
X159495000Y-129290000D01*
X159637857Y-129218571D01*
X159852142Y-129218571D01*
X159995000Y-129290000D01*
X160066428Y-129361428D01*
X160137857Y-129504285D01*
X160137857Y-129932857D01*
X160066428Y-130075714D01*
X159995000Y-130147142D01*
X159852142Y-130218571D01*
X159637857Y-130218571D01*
X162637857Y-130218571D02*
X161923571Y-130218571D01*
X161923571Y-128718571D01*
X162923571Y-129218571D02*
X163494999Y-129218571D01*
X163137857Y-128718571D02*
X163137857Y-130004285D01*
X163209285Y-130147142D01*
X163352142Y-130218571D01*
X163494999Y-130218571D01*
X164637857Y-130218571D02*
X164637857Y-128718571D01*
X164637857Y-130147142D02*
X164495000Y-130218571D01*
X164209285Y-130218571D01*
X164066428Y-130147142D01*
X163995000Y-130075714D01*
X163923571Y-129932857D01*
X163923571Y-129504285D01*
X163995000Y-129361428D01*
X164066428Y-129290000D01*
X164209285Y-129218571D01*
X164495000Y-129218571D01*
X164637857Y-129290000D01*
X165352142Y-130075714D02*
X165423571Y-130147142D01*
X165352142Y-130218571D01*
X165280714Y-130147142D01*
X165352142Y-130075714D01*
X165352142Y-130218571D01*
X150114285Y-66488571D02*
X150614285Y-67988571D01*
X151114285Y-66488571D01*
X151471428Y-66488571D02*
X152400000Y-66488571D01*
X151900000Y-67060000D01*
X152114285Y-67060000D01*
X152257142Y-67131428D01*
X152328571Y-67202857D01*
X152400000Y-67345714D01*
X152400000Y-67702857D01*
X152328571Y-67845714D01*
X152257142Y-67917142D01*
X152114285Y-67988571D01*
X151685714Y-67988571D01*
X151542857Y-67917142D01*
X151471428Y-67845714D01*
X153042857Y-67845714D02*
X153114285Y-67917142D01*
X153042857Y-67988571D01*
X152971428Y-67917142D01*
X153042857Y-67845714D01*
X153042857Y-67988571D01*
X154042857Y-66488571D02*
X154185714Y-66488571D01*
X154328571Y-66560000D01*
X154400000Y-66631428D01*
X154471428Y-66774285D01*
X154542857Y-67060000D01*
X154542857Y-67417142D01*
X154471428Y-67702857D01*
X154400000Y-67845714D01*
X154328571Y-67917142D01*
X154185714Y-67988571D01*
X154042857Y-67988571D01*
X153900000Y-67917142D01*
X153828571Y-67845714D01*
X153757142Y-67702857D01*
X153685714Y-67417142D01*
X153685714Y-67060000D01*
X153757142Y-66774285D01*
X153828571Y-66631428D01*
X153900000Y-66560000D01*
X154042857Y-66488571D01*
X130479285Y-64857142D02*
X130479285Y-61857142D01*
X131622142Y-61857142D01*
X131907857Y-62000000D01*
X132050714Y-62142857D01*
X132193571Y-62428571D01*
X132193571Y-62857142D01*
X132050714Y-63142857D01*
X131907857Y-63285714D01*
X131622142Y-63428571D01*
X130479285Y-63428571D01*
X134907857Y-64857142D02*
X133479285Y-64857142D01*
X133479285Y-61857142D01*
X135907857Y-61857142D02*
X135907857Y-64285714D01*
X136050714Y-64571428D01*
X136193571Y-64714285D01*
X136479285Y-64857142D01*
X137050714Y-64857142D01*
X137336428Y-64714285D01*
X137479285Y-64571428D01*
X137622142Y-64285714D01*
X137622142Y-61857142D01*
X138622142Y-61857142D02*
X140336428Y-61857142D01*
X139479285Y-64857142D02*
X139479285Y-61857142D01*
X141907857Y-61857142D02*
X142479285Y-61857142D01*
X142765000Y-62000000D01*
X143050714Y-62285714D01*
X143193571Y-62857142D01*
X143193571Y-63857142D01*
X143050714Y-64428571D01*
X142765000Y-64714285D01*
X142479285Y-64857142D01*
X141907857Y-64857142D01*
X141622142Y-64714285D01*
X141336428Y-64428571D01*
X141193571Y-63857142D01*
X141193571Y-62857142D01*
X141336428Y-62285714D01*
X141622142Y-62000000D01*
X141907857Y-61857142D01*
X146336428Y-61857142D02*
X148050714Y-61857142D01*
X147193571Y-64857142D02*
X147193571Y-61857142D01*
X149050714Y-64857142D02*
X149050714Y-61857142D01*
X149050714Y-63285714D02*
X150765000Y-63285714D01*
X150765000Y-64857142D02*
X150765000Y-61857142D01*
X152193571Y-63285714D02*
X153193571Y-63285714D01*
X153622142Y-64857142D02*
X152193571Y-64857142D01*
X152193571Y-61857142D01*
X153622142Y-61857142D01*
X156622142Y-64857142D02*
X155622142Y-63428571D01*
X154907857Y-64857142D02*
X154907857Y-61857142D01*
X156050714Y-61857142D01*
X156336428Y-62000000D01*
X156479285Y-62142857D01*
X156622142Y-62428571D01*
X156622142Y-62857142D01*
X156479285Y-63142857D01*
X156336428Y-63285714D01*
X156050714Y-63428571D01*
X154907857Y-63428571D01*
X157907857Y-64857142D02*
X157907857Y-61857142D01*
X158907857Y-64000000D01*
X159907857Y-61857142D01*
X159907857Y-64857142D01*
X161907857Y-61857142D02*
X162479285Y-61857142D01*
X162765000Y-62000000D01*
X163050714Y-62285714D01*
X163193571Y-62857142D01*
X163193571Y-63857142D01*
X163050714Y-64428571D01*
X162765000Y-64714285D01*
X162479285Y-64857142D01*
X161907857Y-64857142D01*
X161622142Y-64714285D01*
X161336428Y-64428571D01*
X161193571Y-63857142D01*
X161193571Y-62857142D01*
X161336428Y-62285714D01*
X161622142Y-62000000D01*
X161907857Y-61857142D01*
X164336428Y-64714285D02*
X164765000Y-64857142D01*
X165479285Y-64857142D01*
X165765000Y-64714285D01*
X165907857Y-64571428D01*
X166050714Y-64285714D01*
X166050714Y-64000000D01*
X165907857Y-63714285D01*
X165765000Y-63571428D01*
X165479285Y-63428571D01*
X164907857Y-63285714D01*
X164622142Y-63142857D01*
X164479285Y-63000000D01*
X164336428Y-62714285D01*
X164336428Y-62428571D01*
X164479285Y-62142857D01*
X164622142Y-62000000D01*
X164907857Y-61857142D01*
X165622142Y-61857142D01*
X166050714Y-62000000D01*
X166907857Y-61857142D02*
X168622142Y-61857142D01*
X167765000Y-64857142D02*
X167765000Y-61857142D01*
X169479285Y-64000000D02*
X170907857Y-64000000D01*
X169193571Y-64857142D02*
X170193571Y-61857142D01*
X171193571Y-64857142D01*
X171765000Y-61857142D02*
X173479285Y-61857142D01*
X172622142Y-64857142D02*
X172622142Y-61857142D01*
D11*
G04 #@! TO.C,1K_OHM1*
X154585000Y-94785000D02*
X154585000Y-99525000D01*
X154585000Y-99525000D02*
X166725000Y-99525000D01*
X166725000Y-99525000D02*
X166725000Y-94785000D01*
X166725000Y-94785000D02*
X154585000Y-94785000D01*
X154475000Y-97155000D02*
X154585000Y-97155000D01*
X166835000Y-97155000D02*
X166725000Y-97155000D01*
D12*
G04 #@! TO.C,TRIAC1*
X150495000Y-75565000D02*
X155575000Y-75565000D01*
X158115000Y-78105000D02*
X158115000Y-90805000D01*
X158115000Y-90805000D02*
X147955000Y-90805000D01*
X147955000Y-90805000D02*
X147955000Y-78105000D01*
X147955000Y-90805000D02*
X147955000Y-93345000D01*
X147955000Y-93345000D02*
X158115000Y-93345000D01*
X158115000Y-93345000D02*
X158115000Y-90805000D01*
X147955000Y-78105000D02*
X150495000Y-75565000D01*
X150495000Y-75565000D02*
X155575000Y-75565000D01*
X155575000Y-75565000D02*
X158115000Y-78105000D01*
X154831051Y-78105000D02*
G75*
G03X154831051Y-78105000I-1796051J0D01*
G01*
X147955000Y-80645000D02*
X158115000Y-80645000D01*
D11*
G04 #@! TO.C,MOC1*
X164100000Y-78800000D02*
G75*
G02X166100000Y-78800000I1000000J0D01*
G01*
X166100000Y-78800000D02*
X167750000Y-78800000D01*
X167750000Y-78800000D02*
X167750000Y-71060000D01*
X167750000Y-71060000D02*
X162450000Y-71060000D01*
X162450000Y-71060000D02*
X162450000Y-78800000D01*
X162450000Y-78800000D02*
X164100000Y-78800000D01*
G04 #@! TO.C,220_OHM1*
X155670000Y-72795000D02*
X155670000Y-73125000D01*
X155670000Y-73125000D02*
X149130000Y-73125000D01*
X149130000Y-73125000D02*
X149130000Y-72795000D01*
X155670000Y-70715000D02*
X155670000Y-70385000D01*
X155670000Y-70385000D02*
X149130000Y-70385000D01*
X149130000Y-70385000D02*
X149130000Y-70715000D01*
D12*
G04 #@! TO.C,ESP1*
X130810000Y-73660000D02*
X130810000Y-69850000D01*
X135890000Y-73660000D02*
X130810000Y-73660000D01*
X135890000Y-69850000D02*
X135890000Y-73660000D01*
X138430000Y-100330000D02*
X138430000Y-102870000D01*
X135890000Y-100330000D02*
X138430000Y-100330000D01*
X135890000Y-102870000D02*
X135890000Y-100330000D01*
X133350000Y-102870000D02*
X135890000Y-102870000D01*
X133350000Y-100330000D02*
X133350000Y-102870000D01*
X130810000Y-100330000D02*
X133350000Y-100330000D01*
X130810000Y-102870000D02*
X130810000Y-100330000D01*
X128270000Y-102870000D02*
X130810000Y-102870000D01*
X128270000Y-100330000D02*
X128270000Y-102870000D01*
X138430000Y-99060000D02*
X138430000Y-97790000D01*
X128270000Y-99060000D02*
X138430000Y-99060000D01*
X128270000Y-87630000D02*
X128270000Y-99060000D01*
X138430000Y-87630000D02*
X128270000Y-87630000D01*
X138430000Y-97790000D02*
X138430000Y-87630000D01*
X127000000Y-104140000D02*
X138430000Y-104140000D01*
X127000000Y-86360000D02*
X127000000Y-104140000D01*
X128270000Y-86360000D02*
X127000000Y-86360000D01*
X139700000Y-86360000D02*
X128270000Y-86360000D01*
X139700000Y-104140000D02*
X139700000Y-86360000D01*
X146050000Y-69850000D02*
X146050000Y-104140000D01*
X120650000Y-69850000D02*
X146050000Y-69850000D01*
X120650000Y-104140000D02*
X120650000Y-69850000D01*
X146050000Y-104140000D02*
X120650000Y-104140000D01*
G04 #@! TO.C,TouchUp1*
X178217102Y-132715000D02*
G75*
G03X178217102Y-132715000I-3592102J0D01*
G01*
X180975000Y-122555000D02*
X180975000Y-137795000D01*
X168275000Y-122555000D02*
X180975000Y-122555000D01*
X168275000Y-137795000D02*
X168275000Y-122555000D01*
X180975000Y-137795000D02*
X168275000Y-137795000D01*
G04 #@! TO.C,DHT1*
X184150000Y-96520000D02*
X184150000Y-81280000D01*
X181610000Y-96520000D02*
X184150000Y-96520000D01*
X181610000Y-81280000D02*
X181610000Y-96520000D01*
X179070000Y-81280000D02*
X181610000Y-81280000D01*
X179070000Y-96520000D02*
X179070000Y-81280000D01*
X176530000Y-96520000D02*
X179070000Y-96520000D01*
X176530000Y-81280000D02*
X176530000Y-96520000D01*
X173990000Y-81280000D02*
X173990000Y-93980000D01*
X186690000Y-81280000D02*
X173990000Y-81280000D01*
X186690000Y-96520000D02*
X186690000Y-81280000D01*
X173990000Y-96520000D02*
X186690000Y-96520000D01*
X173990000Y-93980000D02*
X173990000Y-96520000D01*
X186690000Y-93980000D02*
X173990000Y-93980000D01*
X186690000Y-91440000D02*
X186690000Y-93980000D01*
X173990000Y-91440000D02*
X186690000Y-91440000D01*
X173990000Y-88900000D02*
X173990000Y-91440000D01*
X186690000Y-88900000D02*
X173990000Y-88900000D01*
X186690000Y-86360000D02*
X186690000Y-88900000D01*
X173990000Y-86360000D02*
X186690000Y-86360000D01*
X173990000Y-83820000D02*
X173990000Y-86360000D01*
X186690000Y-83820000D02*
X173990000Y-83820000D01*
X186690000Y-81280000D02*
X186690000Y-83820000D01*
X173990000Y-81280000D02*
X186690000Y-81280000D01*
X182880000Y-76200000D02*
G75*
G03X182880000Y-76200000I-2540000J0D01*
G01*
X189230000Y-104140000D02*
X189230000Y-99060000D01*
X171450000Y-104140000D02*
X189230000Y-104140000D01*
X171450000Y-99060000D02*
X171450000Y-104140000D01*
X171450000Y-99060000D02*
X171450000Y-73660000D01*
X189230000Y-99060000D02*
X171450000Y-99060000D01*
X189230000Y-73660000D02*
X189230000Y-99060000D01*
X171450000Y-73660000D02*
X189230000Y-73660000D01*
G04 #@! TO.C,TouchDown1*
X129957102Y-132715000D02*
G75*
G03X129957102Y-132715000I-3592102J0D01*
G01*
X132715000Y-122555000D02*
X132715000Y-137795000D01*
X120015000Y-122555000D02*
X132715000Y-122555000D01*
X120015000Y-137795000D02*
X120015000Y-122555000D01*
X132715000Y-137795000D02*
X120015000Y-137795000D01*
G04 #@! TO.C,TFT1*
X111760000Y-107950000D02*
X116840000Y-107950000D01*
X116840000Y-69850000D02*
X116840000Y-107950000D01*
X111760000Y-69850000D02*
X116840000Y-69850000D01*
X111760000Y-107950000D02*
X111760000Y-69850000D01*
G04 #@! TO.C,1K_OHM1*
X157964523Y-94237380D02*
X157393095Y-94237380D01*
X157678809Y-94237380D02*
X157678809Y-93237380D01*
X157583571Y-93380238D01*
X157488333Y-93475476D01*
X157393095Y-93523095D01*
X158393095Y-94237380D02*
X158393095Y-93237380D01*
X158964523Y-94237380D02*
X158535952Y-93665952D01*
X158964523Y-93237380D02*
X158393095Y-93808809D01*
X159155000Y-94332619D02*
X159916904Y-94332619D01*
X160345476Y-93237380D02*
X160535952Y-93237380D01*
X160631190Y-93285000D01*
X160726428Y-93380238D01*
X160774047Y-93570714D01*
X160774047Y-93904047D01*
X160726428Y-94094523D01*
X160631190Y-94189761D01*
X160535952Y-94237380D01*
X160345476Y-94237380D01*
X160250238Y-94189761D01*
X160155000Y-94094523D01*
X160107380Y-93904047D01*
X160107380Y-93570714D01*
X160155000Y-93380238D01*
X160250238Y-93285000D01*
X160345476Y-93237380D01*
X161202619Y-94237380D02*
X161202619Y-93237380D01*
X161202619Y-93713571D02*
X161774047Y-93713571D01*
X161774047Y-94237380D02*
X161774047Y-93237380D01*
X162250238Y-94237380D02*
X162250238Y-93237380D01*
X162583571Y-93951666D01*
X162916904Y-93237380D01*
X162916904Y-94237380D01*
X163916904Y-94237380D02*
X163345476Y-94237380D01*
X163631190Y-94237380D02*
X163631190Y-93237380D01*
X163535952Y-93380238D01*
X163440714Y-93475476D01*
X163345476Y-93523095D01*
G04 #@! TO.C,TRIAC1*
X150606428Y-86947380D02*
X151177857Y-86947380D01*
X150892142Y-87947380D02*
X150892142Y-86947380D01*
X152082619Y-87947380D02*
X151749285Y-87471190D01*
X151511190Y-87947380D02*
X151511190Y-86947380D01*
X151892142Y-86947380D01*
X151987380Y-86995000D01*
X152035000Y-87042619D01*
X152082619Y-87137857D01*
X152082619Y-87280714D01*
X152035000Y-87375952D01*
X151987380Y-87423571D01*
X151892142Y-87471190D01*
X151511190Y-87471190D01*
X152511190Y-87947380D02*
X152511190Y-86947380D01*
X152939761Y-87661666D02*
X153415952Y-87661666D01*
X152844523Y-87947380D02*
X153177857Y-86947380D01*
X153511190Y-87947380D01*
X154415952Y-87852142D02*
X154368333Y-87899761D01*
X154225476Y-87947380D01*
X154130238Y-87947380D01*
X153987380Y-87899761D01*
X153892142Y-87804523D01*
X153844523Y-87709285D01*
X153796904Y-87518809D01*
X153796904Y-87375952D01*
X153844523Y-87185476D01*
X153892142Y-87090238D01*
X153987380Y-86995000D01*
X154130238Y-86947380D01*
X154225476Y-86947380D01*
X154368333Y-86995000D01*
X154415952Y-87042619D01*
X155368333Y-87947380D02*
X154796904Y-87947380D01*
X155082619Y-87947380D02*
X155082619Y-86947380D01*
X154987380Y-87090238D01*
X154892142Y-87185476D01*
X154796904Y-87233095D01*
G04 #@! TO.C,MOC1*
X163266666Y-80462380D02*
X163266666Y-79462380D01*
X163600000Y-80176666D01*
X163933333Y-79462380D01*
X163933333Y-80462380D01*
X164600000Y-79462380D02*
X164790476Y-79462380D01*
X164885714Y-79510000D01*
X164980952Y-79605238D01*
X165028571Y-79795714D01*
X165028571Y-80129047D01*
X164980952Y-80319523D01*
X164885714Y-80414761D01*
X164790476Y-80462380D01*
X164600000Y-80462380D01*
X164504761Y-80414761D01*
X164409523Y-80319523D01*
X164361904Y-80129047D01*
X164361904Y-79795714D01*
X164409523Y-79605238D01*
X164504761Y-79510000D01*
X164600000Y-79462380D01*
X166028571Y-80367142D02*
X165980952Y-80414761D01*
X165838095Y-80462380D01*
X165742857Y-80462380D01*
X165600000Y-80414761D01*
X165504761Y-80319523D01*
X165457142Y-80224285D01*
X165409523Y-80033809D01*
X165409523Y-79890952D01*
X165457142Y-79700476D01*
X165504761Y-79605238D01*
X165600000Y-79510000D01*
X165742857Y-79462380D01*
X165838095Y-79462380D01*
X165980952Y-79510000D01*
X166028571Y-79557619D01*
X166980952Y-80462380D02*
X166409523Y-80462380D01*
X166695238Y-80462380D02*
X166695238Y-79462380D01*
X166600000Y-79605238D01*
X166504761Y-79700476D01*
X166409523Y-79748095D01*
X161838095Y-82367380D02*
X161838095Y-81367380D01*
X162171428Y-82081666D01*
X162504761Y-81367380D01*
X162504761Y-82367380D01*
X163171428Y-81367380D02*
X163361904Y-81367380D01*
X163457142Y-81415000D01*
X163552380Y-81510238D01*
X163600000Y-81700714D01*
X163600000Y-82034047D01*
X163552380Y-82224523D01*
X163457142Y-82319761D01*
X163361904Y-82367380D01*
X163171428Y-82367380D01*
X163076190Y-82319761D01*
X162980952Y-82224523D01*
X162933333Y-82034047D01*
X162933333Y-81700714D01*
X162980952Y-81510238D01*
X163076190Y-81415000D01*
X163171428Y-81367380D01*
X164600000Y-82272142D02*
X164552380Y-82319761D01*
X164409523Y-82367380D01*
X164314285Y-82367380D01*
X164171428Y-82319761D01*
X164076190Y-82224523D01*
X164028571Y-82129285D01*
X163980952Y-81938809D01*
X163980952Y-81795952D01*
X164028571Y-81605476D01*
X164076190Y-81510238D01*
X164171428Y-81415000D01*
X164314285Y-81367380D01*
X164409523Y-81367380D01*
X164552380Y-81415000D01*
X164600000Y-81462619D01*
X164933333Y-81367380D02*
X165552380Y-81367380D01*
X165219047Y-81748333D01*
X165361904Y-81748333D01*
X165457142Y-81795952D01*
X165504761Y-81843571D01*
X165552380Y-81938809D01*
X165552380Y-82176904D01*
X165504761Y-82272142D01*
X165457142Y-82319761D01*
X165361904Y-82367380D01*
X165076190Y-82367380D01*
X164980952Y-82319761D01*
X164933333Y-82272142D01*
X166171428Y-81367380D02*
X166266666Y-81367380D01*
X166361904Y-81415000D01*
X166409523Y-81462619D01*
X166457142Y-81557857D01*
X166504761Y-81748333D01*
X166504761Y-81986428D01*
X166457142Y-82176904D01*
X166409523Y-82272142D01*
X166361904Y-82319761D01*
X166266666Y-82367380D01*
X166171428Y-82367380D01*
X166076190Y-82319761D01*
X166028571Y-82272142D01*
X165980952Y-82176904D01*
X165933333Y-81986428D01*
X165933333Y-81748333D01*
X165980952Y-81557857D01*
X166028571Y-81462619D01*
X166076190Y-81415000D01*
X166171428Y-81367380D01*
X166885714Y-81462619D02*
X166933333Y-81415000D01*
X167028571Y-81367380D01*
X167266666Y-81367380D01*
X167361904Y-81415000D01*
X167409523Y-81462619D01*
X167457142Y-81557857D01*
X167457142Y-81653095D01*
X167409523Y-81795952D01*
X166838095Y-82367380D01*
X167457142Y-82367380D01*
X168409523Y-82367380D02*
X167838095Y-82367380D01*
X168123809Y-82367380D02*
X168123809Y-81367380D01*
X168028571Y-81510238D01*
X167933333Y-81605476D01*
X167838095Y-81653095D01*
G04 #@! TO.C,220_OHM1*
X148685714Y-73672619D02*
X148733333Y-73625000D01*
X148828571Y-73577380D01*
X149066666Y-73577380D01*
X149161904Y-73625000D01*
X149209523Y-73672619D01*
X149257142Y-73767857D01*
X149257142Y-73863095D01*
X149209523Y-74005952D01*
X148638095Y-74577380D01*
X149257142Y-74577380D01*
X149638095Y-73672619D02*
X149685714Y-73625000D01*
X149780952Y-73577380D01*
X150019047Y-73577380D01*
X150114285Y-73625000D01*
X150161904Y-73672619D01*
X150209523Y-73767857D01*
X150209523Y-73863095D01*
X150161904Y-74005952D01*
X149590476Y-74577380D01*
X150209523Y-74577380D01*
X150828571Y-73577380D02*
X150923809Y-73577380D01*
X151019047Y-73625000D01*
X151066666Y-73672619D01*
X151114285Y-73767857D01*
X151161904Y-73958333D01*
X151161904Y-74196428D01*
X151114285Y-74386904D01*
X151066666Y-74482142D01*
X151019047Y-74529761D01*
X150923809Y-74577380D01*
X150828571Y-74577380D01*
X150733333Y-74529761D01*
X150685714Y-74482142D01*
X150638095Y-74386904D01*
X150590476Y-74196428D01*
X150590476Y-73958333D01*
X150638095Y-73767857D01*
X150685714Y-73672619D01*
X150733333Y-73625000D01*
X150828571Y-73577380D01*
X151352380Y-74672619D02*
X152114285Y-74672619D01*
X152542857Y-73577380D02*
X152733333Y-73577380D01*
X152828571Y-73625000D01*
X152923809Y-73720238D01*
X152971428Y-73910714D01*
X152971428Y-74244047D01*
X152923809Y-74434523D01*
X152828571Y-74529761D01*
X152733333Y-74577380D01*
X152542857Y-74577380D01*
X152447619Y-74529761D01*
X152352380Y-74434523D01*
X152304761Y-74244047D01*
X152304761Y-73910714D01*
X152352380Y-73720238D01*
X152447619Y-73625000D01*
X152542857Y-73577380D01*
X153400000Y-74577380D02*
X153400000Y-73577380D01*
X153400000Y-74053571D02*
X153971428Y-74053571D01*
X153971428Y-74577380D02*
X153971428Y-73577380D01*
X154447619Y-74577380D02*
X154447619Y-73577380D01*
X154780952Y-74291666D01*
X155114285Y-73577380D01*
X155114285Y-74577380D01*
X156114285Y-74577380D02*
X155542857Y-74577380D01*
X155828571Y-74577380D02*
X155828571Y-73577380D01*
X155733333Y-73720238D01*
X155638095Y-73815476D01*
X155542857Y-73863095D01*
G04 #@! TO.C,ESP1*
X131683333Y-71683571D02*
X132016666Y-71683571D01*
X132159523Y-72207380D02*
X131683333Y-72207380D01*
X131683333Y-71207380D01*
X132159523Y-71207380D01*
X132540476Y-72159761D02*
X132683333Y-72207380D01*
X132921428Y-72207380D01*
X133016666Y-72159761D01*
X133064285Y-72112142D01*
X133111904Y-72016904D01*
X133111904Y-71921666D01*
X133064285Y-71826428D01*
X133016666Y-71778809D01*
X132921428Y-71731190D01*
X132730952Y-71683571D01*
X132635714Y-71635952D01*
X132588095Y-71588333D01*
X132540476Y-71493095D01*
X132540476Y-71397857D01*
X132588095Y-71302619D01*
X132635714Y-71255000D01*
X132730952Y-71207380D01*
X132969047Y-71207380D01*
X133111904Y-71255000D01*
X133540476Y-72207380D02*
X133540476Y-71207380D01*
X133921428Y-71207380D01*
X134016666Y-71255000D01*
X134064285Y-71302619D01*
X134111904Y-71397857D01*
X134111904Y-71540714D01*
X134064285Y-71635952D01*
X134016666Y-71683571D01*
X133921428Y-71731190D01*
X133540476Y-71731190D01*
X135064285Y-72207380D02*
X134492857Y-72207380D01*
X134778571Y-72207380D02*
X134778571Y-71207380D01*
X134683333Y-71350238D01*
X134588095Y-71445476D01*
X134492857Y-71493095D01*
X141001904Y-78192380D02*
X141620952Y-78192380D01*
X141287619Y-78573333D01*
X141430476Y-78573333D01*
X141525714Y-78620952D01*
X141573333Y-78668571D01*
X141620952Y-78763809D01*
X141620952Y-79001904D01*
X141573333Y-79097142D01*
X141525714Y-79144761D01*
X141430476Y-79192380D01*
X141144761Y-79192380D01*
X141049523Y-79144761D01*
X141001904Y-79097142D01*
X141906666Y-78192380D02*
X142240000Y-79192380D01*
X142573333Y-78192380D01*
X142811428Y-78192380D02*
X143430476Y-78192380D01*
X143097142Y-78573333D01*
X143240000Y-78573333D01*
X143335238Y-78620952D01*
X143382857Y-78668571D01*
X143430476Y-78763809D01*
X143430476Y-79001904D01*
X143382857Y-79097142D01*
X143335238Y-79144761D01*
X143240000Y-79192380D01*
X142954285Y-79192380D01*
X142859047Y-79144761D01*
X142811428Y-79097142D01*
X141501904Y-81732380D02*
X141501904Y-80732380D01*
X141740000Y-80732380D01*
X141882857Y-80780000D01*
X141978095Y-80875238D01*
X142025714Y-80970476D01*
X142073333Y-81160952D01*
X142073333Y-81303809D01*
X142025714Y-81494285D01*
X141978095Y-81589523D01*
X141882857Y-81684761D01*
X141740000Y-81732380D01*
X141501904Y-81732380D01*
X142644761Y-81160952D02*
X142549523Y-81113333D01*
X142501904Y-81065714D01*
X142454285Y-80970476D01*
X142454285Y-80922857D01*
X142501904Y-80827619D01*
X142549523Y-80780000D01*
X142644761Y-80732380D01*
X142835238Y-80732380D01*
X142930476Y-80780000D01*
X142978095Y-80827619D01*
X143025714Y-80922857D01*
X143025714Y-80970476D01*
X142978095Y-81065714D01*
X142930476Y-81113333D01*
X142835238Y-81160952D01*
X142644761Y-81160952D01*
X142549523Y-81208571D01*
X142501904Y-81256190D01*
X142454285Y-81351428D01*
X142454285Y-81541904D01*
X142501904Y-81637142D01*
X142549523Y-81684761D01*
X142644761Y-81732380D01*
X142835238Y-81732380D01*
X142930476Y-81684761D01*
X142978095Y-81637142D01*
X143025714Y-81541904D01*
X143025714Y-81351428D01*
X142978095Y-81256190D01*
X142930476Y-81208571D01*
X142835238Y-81160952D01*
X141501904Y-84272380D02*
X141501904Y-83272380D01*
X141740000Y-83272380D01*
X141882857Y-83320000D01*
X141978095Y-83415238D01*
X142025714Y-83510476D01*
X142073333Y-83700952D01*
X142073333Y-83843809D01*
X142025714Y-84034285D01*
X141978095Y-84129523D01*
X141882857Y-84224761D01*
X141740000Y-84272380D01*
X141501904Y-84272380D01*
X142406666Y-83272380D02*
X143073333Y-83272380D01*
X142644761Y-84272380D01*
X141501904Y-86812380D02*
X141501904Y-85812380D01*
X141740000Y-85812380D01*
X141882857Y-85860000D01*
X141978095Y-85955238D01*
X142025714Y-86050476D01*
X142073333Y-86240952D01*
X142073333Y-86383809D01*
X142025714Y-86574285D01*
X141978095Y-86669523D01*
X141882857Y-86764761D01*
X141740000Y-86812380D01*
X141501904Y-86812380D01*
X142930476Y-85812380D02*
X142740000Y-85812380D01*
X142644761Y-85860000D01*
X142597142Y-85907619D01*
X142501904Y-86050476D01*
X142454285Y-86240952D01*
X142454285Y-86621904D01*
X142501904Y-86717142D01*
X142549523Y-86764761D01*
X142644761Y-86812380D01*
X142835238Y-86812380D01*
X142930476Y-86764761D01*
X142978095Y-86717142D01*
X143025714Y-86621904D01*
X143025714Y-86383809D01*
X142978095Y-86288571D01*
X142930476Y-86240952D01*
X142835238Y-86193333D01*
X142644761Y-86193333D01*
X142549523Y-86240952D01*
X142501904Y-86288571D01*
X142454285Y-86383809D01*
X141501904Y-89352380D02*
X141501904Y-88352380D01*
X141740000Y-88352380D01*
X141882857Y-88400000D01*
X141978095Y-88495238D01*
X142025714Y-88590476D01*
X142073333Y-88780952D01*
X142073333Y-88923809D01*
X142025714Y-89114285D01*
X141978095Y-89209523D01*
X141882857Y-89304761D01*
X141740000Y-89352380D01*
X141501904Y-89352380D01*
X142978095Y-88352380D02*
X142501904Y-88352380D01*
X142454285Y-88828571D01*
X142501904Y-88780952D01*
X142597142Y-88733333D01*
X142835238Y-88733333D01*
X142930476Y-88780952D01*
X142978095Y-88828571D01*
X143025714Y-88923809D01*
X143025714Y-89161904D01*
X142978095Y-89257142D01*
X142930476Y-89304761D01*
X142835238Y-89352380D01*
X142597142Y-89352380D01*
X142501904Y-89304761D01*
X142454285Y-89257142D01*
X141501904Y-91892380D02*
X141501904Y-90892380D01*
X141740000Y-90892380D01*
X141882857Y-90940000D01*
X141978095Y-91035238D01*
X142025714Y-91130476D01*
X142073333Y-91320952D01*
X142073333Y-91463809D01*
X142025714Y-91654285D01*
X141978095Y-91749523D01*
X141882857Y-91844761D01*
X141740000Y-91892380D01*
X141501904Y-91892380D01*
X142692380Y-90892380D02*
X142787619Y-90892380D01*
X142882857Y-90940000D01*
X142930476Y-90987619D01*
X142978095Y-91082857D01*
X143025714Y-91273333D01*
X143025714Y-91511428D01*
X142978095Y-91701904D01*
X142930476Y-91797142D01*
X142882857Y-91844761D01*
X142787619Y-91892380D01*
X142692380Y-91892380D01*
X142597142Y-91844761D01*
X142549523Y-91797142D01*
X142501904Y-91701904D01*
X142454285Y-91511428D01*
X142454285Y-91273333D01*
X142501904Y-91082857D01*
X142549523Y-90987619D01*
X142597142Y-90940000D01*
X142692380Y-90892380D01*
X141525714Y-94146666D02*
X142001904Y-94146666D01*
X141430476Y-94432380D02*
X141763809Y-93432380D01*
X142097142Y-94432380D01*
X142620952Y-93432380D02*
X142716190Y-93432380D01*
X142811428Y-93480000D01*
X142859047Y-93527619D01*
X142906666Y-93622857D01*
X142954285Y-93813333D01*
X142954285Y-94051428D01*
X142906666Y-94241904D01*
X142859047Y-94337142D01*
X142811428Y-94384761D01*
X142716190Y-94432380D01*
X142620952Y-94432380D01*
X142525714Y-94384761D01*
X142478095Y-94337142D01*
X142430476Y-94241904D01*
X142382857Y-94051428D01*
X142382857Y-93813333D01*
X142430476Y-93622857D01*
X142478095Y-93527619D01*
X142525714Y-93480000D01*
X142620952Y-93432380D01*
X141692380Y-96972380D02*
X141359047Y-96496190D01*
X141120952Y-96972380D02*
X141120952Y-95972380D01*
X141501904Y-95972380D01*
X141597142Y-96020000D01*
X141644761Y-96067619D01*
X141692380Y-96162857D01*
X141692380Y-96305714D01*
X141644761Y-96400952D01*
X141597142Y-96448571D01*
X141501904Y-96496190D01*
X141120952Y-96496190D01*
X142073333Y-96924761D02*
X142216190Y-96972380D01*
X142454285Y-96972380D01*
X142549523Y-96924761D01*
X142597142Y-96877142D01*
X142644761Y-96781904D01*
X142644761Y-96686666D01*
X142597142Y-96591428D01*
X142549523Y-96543809D01*
X142454285Y-96496190D01*
X142263809Y-96448571D01*
X142168571Y-96400952D01*
X142120952Y-96353333D01*
X142073333Y-96258095D01*
X142073333Y-96162857D01*
X142120952Y-96067619D01*
X142168571Y-96020000D01*
X142263809Y-95972380D01*
X142501904Y-95972380D01*
X142644761Y-96020000D01*
X142930476Y-95972380D02*
X143501904Y-95972380D01*
X143216190Y-96972380D02*
X143216190Y-95972380D01*
X124269523Y-78192380D02*
X123793333Y-78192380D01*
X123745714Y-78668571D01*
X123793333Y-78620952D01*
X123888571Y-78573333D01*
X124126666Y-78573333D01*
X124221904Y-78620952D01*
X124269523Y-78668571D01*
X124317142Y-78763809D01*
X124317142Y-79001904D01*
X124269523Y-79097142D01*
X124221904Y-79144761D01*
X124126666Y-79192380D01*
X123888571Y-79192380D01*
X123793333Y-79144761D01*
X123745714Y-79097142D01*
X124602857Y-78192380D02*
X124936190Y-79192380D01*
X125269523Y-78192380D01*
X123698095Y-80780000D02*
X123602857Y-80732380D01*
X123460000Y-80732380D01*
X123317142Y-80780000D01*
X123221904Y-80875238D01*
X123174285Y-80970476D01*
X123126666Y-81160952D01*
X123126666Y-81303809D01*
X123174285Y-81494285D01*
X123221904Y-81589523D01*
X123317142Y-81684761D01*
X123460000Y-81732380D01*
X123555238Y-81732380D01*
X123698095Y-81684761D01*
X123745714Y-81637142D01*
X123745714Y-81303809D01*
X123555238Y-81303809D01*
X124174285Y-81732380D02*
X124174285Y-80732380D01*
X124745714Y-81732380D01*
X124745714Y-80732380D01*
X125221904Y-81732380D02*
X125221904Y-80732380D01*
X125460000Y-80732380D01*
X125602857Y-80780000D01*
X125698095Y-80875238D01*
X125745714Y-80970476D01*
X125793333Y-81160952D01*
X125793333Y-81303809D01*
X125745714Y-81494285D01*
X125698095Y-81589523D01*
X125602857Y-81684761D01*
X125460000Y-81732380D01*
X125221904Y-81732380D01*
X123721904Y-84272380D02*
X123721904Y-83272380D01*
X123960000Y-83272380D01*
X124102857Y-83320000D01*
X124198095Y-83415238D01*
X124245714Y-83510476D01*
X124293333Y-83700952D01*
X124293333Y-83843809D01*
X124245714Y-84034285D01*
X124198095Y-84129523D01*
X124102857Y-84224761D01*
X123960000Y-84272380D01*
X123721904Y-84272380D01*
X125150476Y-83605714D02*
X125150476Y-84272380D01*
X124912380Y-83224761D02*
X124674285Y-83939047D01*
X125293333Y-83939047D01*
X123721904Y-86812380D02*
X123721904Y-85812380D01*
X123960000Y-85812380D01*
X124102857Y-85860000D01*
X124198095Y-85955238D01*
X124245714Y-86050476D01*
X124293333Y-86240952D01*
X124293333Y-86383809D01*
X124245714Y-86574285D01*
X124198095Y-86669523D01*
X124102857Y-86764761D01*
X123960000Y-86812380D01*
X123721904Y-86812380D01*
X124626666Y-85812380D02*
X125245714Y-85812380D01*
X124912380Y-86193333D01*
X125055238Y-86193333D01*
X125150476Y-86240952D01*
X125198095Y-86288571D01*
X125245714Y-86383809D01*
X125245714Y-86621904D01*
X125198095Y-86717142D01*
X125150476Y-86764761D01*
X125055238Y-86812380D01*
X124769523Y-86812380D01*
X124674285Y-86764761D01*
X124626666Y-86717142D01*
X123721904Y-89352380D02*
X123721904Y-88352380D01*
X123960000Y-88352380D01*
X124102857Y-88400000D01*
X124198095Y-88495238D01*
X124245714Y-88590476D01*
X124293333Y-88780952D01*
X124293333Y-88923809D01*
X124245714Y-89114285D01*
X124198095Y-89209523D01*
X124102857Y-89304761D01*
X123960000Y-89352380D01*
X123721904Y-89352380D01*
X124674285Y-88447619D02*
X124721904Y-88400000D01*
X124817142Y-88352380D01*
X125055238Y-88352380D01*
X125150476Y-88400000D01*
X125198095Y-88447619D01*
X125245714Y-88542857D01*
X125245714Y-88638095D01*
X125198095Y-88780952D01*
X124626666Y-89352380D01*
X125245714Y-89352380D01*
X123721904Y-91892380D02*
X123721904Y-90892380D01*
X123960000Y-90892380D01*
X124102857Y-90940000D01*
X124198095Y-91035238D01*
X124245714Y-91130476D01*
X124293333Y-91320952D01*
X124293333Y-91463809D01*
X124245714Y-91654285D01*
X124198095Y-91749523D01*
X124102857Y-91844761D01*
X123960000Y-91892380D01*
X123721904Y-91892380D01*
X125245714Y-91892380D02*
X124674285Y-91892380D01*
X124960000Y-91892380D02*
X124960000Y-90892380D01*
X124864761Y-91035238D01*
X124769523Y-91130476D01*
X124674285Y-91178095D01*
X124293333Y-94432380D02*
X123960000Y-93956190D01*
X123721904Y-94432380D02*
X123721904Y-93432380D01*
X124102857Y-93432380D01*
X124198095Y-93480000D01*
X124245714Y-93527619D01*
X124293333Y-93622857D01*
X124293333Y-93765714D01*
X124245714Y-93860952D01*
X124198095Y-93908571D01*
X124102857Y-93956190D01*
X123721904Y-93956190D01*
X124626666Y-93432380D02*
X125293333Y-94432380D01*
X125293333Y-93432380D02*
X124626666Y-94432380D01*
X123698095Y-95972380D02*
X124269523Y-95972380D01*
X123983809Y-96972380D02*
X123983809Y-95972380D01*
X124507619Y-95972380D02*
X125174285Y-96972380D01*
X125174285Y-95972380D02*
X124507619Y-96972380D01*
G04 #@! TO.C,Hole6*
X184150238Y-111577380D02*
X184150238Y-110577380D01*
X184150238Y-111053571D02*
X184721666Y-111053571D01*
X184721666Y-111577380D02*
X184721666Y-110577380D01*
X185340714Y-111577380D02*
X185245476Y-111529761D01*
X185197857Y-111482142D01*
X185150238Y-111386904D01*
X185150238Y-111101190D01*
X185197857Y-111005952D01*
X185245476Y-110958333D01*
X185340714Y-110910714D01*
X185483571Y-110910714D01*
X185578809Y-110958333D01*
X185626428Y-111005952D01*
X185674047Y-111101190D01*
X185674047Y-111386904D01*
X185626428Y-111482142D01*
X185578809Y-111529761D01*
X185483571Y-111577380D01*
X185340714Y-111577380D01*
X186245476Y-111577380D02*
X186150238Y-111529761D01*
X186102619Y-111434523D01*
X186102619Y-110577380D01*
X187007380Y-111529761D02*
X186912142Y-111577380D01*
X186721666Y-111577380D01*
X186626428Y-111529761D01*
X186578809Y-111434523D01*
X186578809Y-111053571D01*
X186626428Y-110958333D01*
X186721666Y-110910714D01*
X186912142Y-110910714D01*
X187007380Y-110958333D01*
X187055000Y-111053571D01*
X187055000Y-111148809D01*
X186578809Y-111244047D01*
X187912142Y-110577380D02*
X187721666Y-110577380D01*
X187626428Y-110625000D01*
X187578809Y-110672619D01*
X187483571Y-110815476D01*
X187435952Y-111005952D01*
X187435952Y-111386904D01*
X187483571Y-111482142D01*
X187531190Y-111529761D01*
X187626428Y-111577380D01*
X187816904Y-111577380D01*
X187912142Y-111529761D01*
X187959761Y-111482142D01*
X188007380Y-111386904D01*
X188007380Y-111148809D01*
X187959761Y-111053571D01*
X187912142Y-111005952D01*
X187816904Y-110958333D01*
X187626428Y-110958333D01*
X187531190Y-111005952D01*
X187483571Y-111053571D01*
X187435952Y-111148809D01*
G04 #@! TO.C,Hole5*
X179070238Y-70937380D02*
X179070238Y-69937380D01*
X179070238Y-70413571D02*
X179641666Y-70413571D01*
X179641666Y-70937380D02*
X179641666Y-69937380D01*
X180260714Y-70937380D02*
X180165476Y-70889761D01*
X180117857Y-70842142D01*
X180070238Y-70746904D01*
X180070238Y-70461190D01*
X180117857Y-70365952D01*
X180165476Y-70318333D01*
X180260714Y-70270714D01*
X180403571Y-70270714D01*
X180498809Y-70318333D01*
X180546428Y-70365952D01*
X180594047Y-70461190D01*
X180594047Y-70746904D01*
X180546428Y-70842142D01*
X180498809Y-70889761D01*
X180403571Y-70937380D01*
X180260714Y-70937380D01*
X181165476Y-70937380D02*
X181070238Y-70889761D01*
X181022619Y-70794523D01*
X181022619Y-69937380D01*
X181927380Y-70889761D02*
X181832142Y-70937380D01*
X181641666Y-70937380D01*
X181546428Y-70889761D01*
X181498809Y-70794523D01*
X181498809Y-70413571D01*
X181546428Y-70318333D01*
X181641666Y-70270714D01*
X181832142Y-70270714D01*
X181927380Y-70318333D01*
X181975000Y-70413571D01*
X181975000Y-70508809D01*
X181498809Y-70604047D01*
X182879761Y-69937380D02*
X182403571Y-69937380D01*
X182355952Y-70413571D01*
X182403571Y-70365952D01*
X182498809Y-70318333D01*
X182736904Y-70318333D01*
X182832142Y-70365952D01*
X182879761Y-70413571D01*
X182927380Y-70508809D01*
X182927380Y-70746904D01*
X182879761Y-70842142D01*
X182832142Y-70889761D01*
X182736904Y-70937380D01*
X182498809Y-70937380D01*
X182403571Y-70889761D01*
X182355952Y-70842142D01*
G04 #@! TO.C,TouchUp1*
X171101190Y-127087380D02*
X171672619Y-127087380D01*
X171386904Y-128087380D02*
X171386904Y-127087380D01*
X172148809Y-128087380D02*
X172053571Y-128039761D01*
X172005952Y-127992142D01*
X171958333Y-127896904D01*
X171958333Y-127611190D01*
X172005952Y-127515952D01*
X172053571Y-127468333D01*
X172148809Y-127420714D01*
X172291666Y-127420714D01*
X172386904Y-127468333D01*
X172434523Y-127515952D01*
X172482142Y-127611190D01*
X172482142Y-127896904D01*
X172434523Y-127992142D01*
X172386904Y-128039761D01*
X172291666Y-128087380D01*
X172148809Y-128087380D01*
X173339285Y-127420714D02*
X173339285Y-128087380D01*
X172910714Y-127420714D02*
X172910714Y-127944523D01*
X172958333Y-128039761D01*
X173053571Y-128087380D01*
X173196428Y-128087380D01*
X173291666Y-128039761D01*
X173339285Y-127992142D01*
X174244047Y-128039761D02*
X174148809Y-128087380D01*
X173958333Y-128087380D01*
X173863095Y-128039761D01*
X173815476Y-127992142D01*
X173767857Y-127896904D01*
X173767857Y-127611190D01*
X173815476Y-127515952D01*
X173863095Y-127468333D01*
X173958333Y-127420714D01*
X174148809Y-127420714D01*
X174244047Y-127468333D01*
X174672619Y-128087380D02*
X174672619Y-127087380D01*
X175101190Y-128087380D02*
X175101190Y-127563571D01*
X175053571Y-127468333D01*
X174958333Y-127420714D01*
X174815476Y-127420714D01*
X174720238Y-127468333D01*
X174672619Y-127515952D01*
X175577380Y-127087380D02*
X175577380Y-127896904D01*
X175625000Y-127992142D01*
X175672619Y-128039761D01*
X175767857Y-128087380D01*
X175958333Y-128087380D01*
X176053571Y-128039761D01*
X176101190Y-127992142D01*
X176148809Y-127896904D01*
X176148809Y-127087380D01*
X176625000Y-127420714D02*
X176625000Y-128420714D01*
X176625000Y-127468333D02*
X176720238Y-127420714D01*
X176910714Y-127420714D01*
X177005952Y-127468333D01*
X177053571Y-127515952D01*
X177101190Y-127611190D01*
X177101190Y-127896904D01*
X177053571Y-127992142D01*
X177005952Y-128039761D01*
X176910714Y-128087380D01*
X176720238Y-128087380D01*
X176625000Y-128039761D01*
X178053571Y-128087380D02*
X177482142Y-128087380D01*
X177767857Y-128087380D02*
X177767857Y-127087380D01*
X177672619Y-127230238D01*
X177577380Y-127325476D01*
X177482142Y-127373095D01*
X171585000Y-123316904D02*
X171537380Y-123412142D01*
X171537380Y-123555000D01*
X171585000Y-123697857D01*
X171680238Y-123793095D01*
X171775476Y-123840714D01*
X171965952Y-123888333D01*
X172108809Y-123888333D01*
X172299285Y-123840714D01*
X172394523Y-123793095D01*
X172489761Y-123697857D01*
X172537380Y-123555000D01*
X172537380Y-123459761D01*
X172489761Y-123316904D01*
X172442142Y-123269285D01*
X172108809Y-123269285D01*
X172108809Y-123459761D01*
X172537380Y-122840714D02*
X171537380Y-122840714D01*
X172537380Y-122269285D01*
X171537380Y-122269285D01*
X172537380Y-121793095D02*
X171537380Y-121793095D01*
X171537380Y-121555000D01*
X171585000Y-121412142D01*
X171680238Y-121316904D01*
X171775476Y-121269285D01*
X171965952Y-121221666D01*
X172108809Y-121221666D01*
X172299285Y-121269285D01*
X172394523Y-121316904D01*
X172489761Y-121412142D01*
X172537380Y-121555000D01*
X172537380Y-121793095D01*
X175077380Y-123078809D02*
X174077380Y-123078809D01*
X174077380Y-122412142D02*
X174077380Y-122221666D01*
X174125000Y-122126428D01*
X174220238Y-122031190D01*
X174410714Y-121983571D01*
X174744047Y-121983571D01*
X174934523Y-122031190D01*
X175029761Y-122126428D01*
X175077380Y-122221666D01*
X175077380Y-122412142D01*
X175029761Y-122507380D01*
X174934523Y-122602619D01*
X174744047Y-122650238D01*
X174410714Y-122650238D01*
X174220238Y-122602619D01*
X174125000Y-122507380D01*
X174077380Y-122412142D01*
X176617380Y-123888333D02*
X177617380Y-123555000D01*
X176617380Y-123221666D01*
X177522142Y-122316904D02*
X177569761Y-122364523D01*
X177617380Y-122507380D01*
X177617380Y-122602619D01*
X177569761Y-122745476D01*
X177474523Y-122840714D01*
X177379285Y-122888333D01*
X177188809Y-122935952D01*
X177045952Y-122935952D01*
X176855476Y-122888333D01*
X176760238Y-122840714D01*
X176665000Y-122745476D01*
X176617380Y-122602619D01*
X176617380Y-122507380D01*
X176665000Y-122364523D01*
X176712619Y-122316904D01*
X177522142Y-121316904D02*
X177569761Y-121364523D01*
X177617380Y-121507380D01*
X177617380Y-121602619D01*
X177569761Y-121745476D01*
X177474523Y-121840714D01*
X177379285Y-121888333D01*
X177188809Y-121935952D01*
X177045952Y-121935952D01*
X176855476Y-121888333D01*
X176760238Y-121840714D01*
X176665000Y-121745476D01*
X176617380Y-121602619D01*
X176617380Y-121507380D01*
X176665000Y-121364523D01*
X176712619Y-121316904D01*
X172267857Y-132167380D02*
X172839285Y-132167380D01*
X172553571Y-133167380D02*
X172553571Y-132167380D01*
X173363095Y-132167380D02*
X173553571Y-132167380D01*
X173648809Y-132215000D01*
X173744047Y-132310238D01*
X173791666Y-132500714D01*
X173791666Y-132834047D01*
X173744047Y-133024523D01*
X173648809Y-133119761D01*
X173553571Y-133167380D01*
X173363095Y-133167380D01*
X173267857Y-133119761D01*
X173172619Y-133024523D01*
X173125000Y-132834047D01*
X173125000Y-132500714D01*
X173172619Y-132310238D01*
X173267857Y-132215000D01*
X173363095Y-132167380D01*
X174220238Y-132167380D02*
X174220238Y-132976904D01*
X174267857Y-133072142D01*
X174315476Y-133119761D01*
X174410714Y-133167380D01*
X174601190Y-133167380D01*
X174696428Y-133119761D01*
X174744047Y-133072142D01*
X174791666Y-132976904D01*
X174791666Y-132167380D01*
X175839285Y-133072142D02*
X175791666Y-133119761D01*
X175648809Y-133167380D01*
X175553571Y-133167380D01*
X175410714Y-133119761D01*
X175315476Y-133024523D01*
X175267857Y-132929285D01*
X175220238Y-132738809D01*
X175220238Y-132595952D01*
X175267857Y-132405476D01*
X175315476Y-132310238D01*
X175410714Y-132215000D01*
X175553571Y-132167380D01*
X175648809Y-132167380D01*
X175791666Y-132215000D01*
X175839285Y-132262619D01*
X176267857Y-133167380D02*
X176267857Y-132167380D01*
X176267857Y-132643571D02*
X176839285Y-132643571D01*
X176839285Y-133167380D02*
X176839285Y-132167380D01*
G04 #@! TO.C,Hole4*
X184785238Y-133167380D02*
X184785238Y-132167380D01*
X184785238Y-132643571D02*
X185356666Y-132643571D01*
X185356666Y-133167380D02*
X185356666Y-132167380D01*
X185975714Y-133167380D02*
X185880476Y-133119761D01*
X185832857Y-133072142D01*
X185785238Y-132976904D01*
X185785238Y-132691190D01*
X185832857Y-132595952D01*
X185880476Y-132548333D01*
X185975714Y-132500714D01*
X186118571Y-132500714D01*
X186213809Y-132548333D01*
X186261428Y-132595952D01*
X186309047Y-132691190D01*
X186309047Y-132976904D01*
X186261428Y-133072142D01*
X186213809Y-133119761D01*
X186118571Y-133167380D01*
X185975714Y-133167380D01*
X186880476Y-133167380D02*
X186785238Y-133119761D01*
X186737619Y-133024523D01*
X186737619Y-132167380D01*
X187642380Y-133119761D02*
X187547142Y-133167380D01*
X187356666Y-133167380D01*
X187261428Y-133119761D01*
X187213809Y-133024523D01*
X187213809Y-132643571D01*
X187261428Y-132548333D01*
X187356666Y-132500714D01*
X187547142Y-132500714D01*
X187642380Y-132548333D01*
X187690000Y-132643571D01*
X187690000Y-132738809D01*
X187213809Y-132834047D01*
X188547142Y-132500714D02*
X188547142Y-133167380D01*
X188309047Y-132119761D02*
X188070952Y-132834047D01*
X188690000Y-132834047D01*
G04 #@! TO.C,Hole3*
X112395238Y-133167380D02*
X112395238Y-132167380D01*
X112395238Y-132643571D02*
X112966666Y-132643571D01*
X112966666Y-133167380D02*
X112966666Y-132167380D01*
X113585714Y-133167380D02*
X113490476Y-133119761D01*
X113442857Y-133072142D01*
X113395238Y-132976904D01*
X113395238Y-132691190D01*
X113442857Y-132595952D01*
X113490476Y-132548333D01*
X113585714Y-132500714D01*
X113728571Y-132500714D01*
X113823809Y-132548333D01*
X113871428Y-132595952D01*
X113919047Y-132691190D01*
X113919047Y-132976904D01*
X113871428Y-133072142D01*
X113823809Y-133119761D01*
X113728571Y-133167380D01*
X113585714Y-133167380D01*
X114490476Y-133167380D02*
X114395238Y-133119761D01*
X114347619Y-133024523D01*
X114347619Y-132167380D01*
X115252380Y-133119761D02*
X115157142Y-133167380D01*
X114966666Y-133167380D01*
X114871428Y-133119761D01*
X114823809Y-133024523D01*
X114823809Y-132643571D01*
X114871428Y-132548333D01*
X114966666Y-132500714D01*
X115157142Y-132500714D01*
X115252380Y-132548333D01*
X115300000Y-132643571D01*
X115300000Y-132738809D01*
X114823809Y-132834047D01*
X115633333Y-132167380D02*
X116252380Y-132167380D01*
X115919047Y-132548333D01*
X116061904Y-132548333D01*
X116157142Y-132595952D01*
X116204761Y-132643571D01*
X116252380Y-132738809D01*
X116252380Y-132976904D01*
X116204761Y-133072142D01*
X116157142Y-133119761D01*
X116061904Y-133167380D01*
X115776190Y-133167380D01*
X115680952Y-133119761D01*
X115633333Y-133072142D01*
G04 #@! TO.C,Hole2*
X179705238Y-64587380D02*
X179705238Y-63587380D01*
X179705238Y-64063571D02*
X180276666Y-64063571D01*
X180276666Y-64587380D02*
X180276666Y-63587380D01*
X180895714Y-64587380D02*
X180800476Y-64539761D01*
X180752857Y-64492142D01*
X180705238Y-64396904D01*
X180705238Y-64111190D01*
X180752857Y-64015952D01*
X180800476Y-63968333D01*
X180895714Y-63920714D01*
X181038571Y-63920714D01*
X181133809Y-63968333D01*
X181181428Y-64015952D01*
X181229047Y-64111190D01*
X181229047Y-64396904D01*
X181181428Y-64492142D01*
X181133809Y-64539761D01*
X181038571Y-64587380D01*
X180895714Y-64587380D01*
X181800476Y-64587380D02*
X181705238Y-64539761D01*
X181657619Y-64444523D01*
X181657619Y-63587380D01*
X182562380Y-64539761D02*
X182467142Y-64587380D01*
X182276666Y-64587380D01*
X182181428Y-64539761D01*
X182133809Y-64444523D01*
X182133809Y-64063571D01*
X182181428Y-63968333D01*
X182276666Y-63920714D01*
X182467142Y-63920714D01*
X182562380Y-63968333D01*
X182610000Y-64063571D01*
X182610000Y-64158809D01*
X182133809Y-64254047D01*
X182990952Y-63682619D02*
X183038571Y-63635000D01*
X183133809Y-63587380D01*
X183371904Y-63587380D01*
X183467142Y-63635000D01*
X183514761Y-63682619D01*
X183562380Y-63777857D01*
X183562380Y-63873095D01*
X183514761Y-64015952D01*
X182943333Y-64587380D01*
X183562380Y-64587380D01*
G04 #@! TO.C,Hole1*
X117475238Y-64587380D02*
X117475238Y-63587380D01*
X117475238Y-64063571D02*
X118046666Y-64063571D01*
X118046666Y-64587380D02*
X118046666Y-63587380D01*
X118665714Y-64587380D02*
X118570476Y-64539761D01*
X118522857Y-64492142D01*
X118475238Y-64396904D01*
X118475238Y-64111190D01*
X118522857Y-64015952D01*
X118570476Y-63968333D01*
X118665714Y-63920714D01*
X118808571Y-63920714D01*
X118903809Y-63968333D01*
X118951428Y-64015952D01*
X118999047Y-64111190D01*
X118999047Y-64396904D01*
X118951428Y-64492142D01*
X118903809Y-64539761D01*
X118808571Y-64587380D01*
X118665714Y-64587380D01*
X119570476Y-64587380D02*
X119475238Y-64539761D01*
X119427619Y-64444523D01*
X119427619Y-63587380D01*
X120332380Y-64539761D02*
X120237142Y-64587380D01*
X120046666Y-64587380D01*
X119951428Y-64539761D01*
X119903809Y-64444523D01*
X119903809Y-64063571D01*
X119951428Y-63968333D01*
X120046666Y-63920714D01*
X120237142Y-63920714D01*
X120332380Y-63968333D01*
X120380000Y-64063571D01*
X120380000Y-64158809D01*
X119903809Y-64254047D01*
X121332380Y-64587380D02*
X120760952Y-64587380D01*
X121046666Y-64587380D02*
X121046666Y-63587380D01*
X120951428Y-63730238D01*
X120856190Y-63825476D01*
X120760952Y-63873095D01*
G04 #@! TO.C,DHT1*
X178697142Y-80462380D02*
X178697142Y-79462380D01*
X178935238Y-79462380D01*
X179078095Y-79510000D01*
X179173333Y-79605238D01*
X179220952Y-79700476D01*
X179268571Y-79890952D01*
X179268571Y-80033809D01*
X179220952Y-80224285D01*
X179173333Y-80319523D01*
X179078095Y-80414761D01*
X178935238Y-80462380D01*
X178697142Y-80462380D01*
X179697142Y-80462380D02*
X179697142Y-79462380D01*
X179697142Y-79938571D02*
X180268571Y-79938571D01*
X180268571Y-80462380D02*
X180268571Y-79462380D01*
X180601904Y-79462380D02*
X181173333Y-79462380D01*
X180887619Y-80462380D02*
X180887619Y-79462380D01*
X182030476Y-80462380D02*
X181459047Y-80462380D01*
X181744761Y-80462380D02*
X181744761Y-79462380D01*
X181649523Y-79605238D01*
X181554285Y-79700476D01*
X181459047Y-79748095D01*
X183650000Y-104901904D02*
X183602380Y-104997142D01*
X183602380Y-105140000D01*
X183650000Y-105282857D01*
X183745238Y-105378095D01*
X183840476Y-105425714D01*
X184030952Y-105473333D01*
X184173809Y-105473333D01*
X184364285Y-105425714D01*
X184459523Y-105378095D01*
X184554761Y-105282857D01*
X184602380Y-105140000D01*
X184602380Y-105044761D01*
X184554761Y-104901904D01*
X184507142Y-104854285D01*
X184173809Y-104854285D01*
X184173809Y-105044761D01*
X184602380Y-104425714D02*
X183602380Y-104425714D01*
X184602380Y-103854285D01*
X183602380Y-103854285D01*
X184602380Y-103378095D02*
X183602380Y-103378095D01*
X183602380Y-103140000D01*
X183650000Y-102997142D01*
X183745238Y-102901904D01*
X183840476Y-102854285D01*
X184030952Y-102806666D01*
X184173809Y-102806666D01*
X184364285Y-102854285D01*
X184459523Y-102901904D01*
X184554761Y-102997142D01*
X184602380Y-103140000D01*
X184602380Y-103378095D01*
X182062380Y-104925714D02*
X181062380Y-104925714D01*
X182062380Y-104354285D01*
X181062380Y-104354285D01*
X181967142Y-103306666D02*
X182014761Y-103354285D01*
X182062380Y-103497142D01*
X182062380Y-103592380D01*
X182014761Y-103735238D01*
X181919523Y-103830476D01*
X181824285Y-103878095D01*
X181633809Y-103925714D01*
X181490952Y-103925714D01*
X181300476Y-103878095D01*
X181205238Y-103830476D01*
X181110000Y-103735238D01*
X181062380Y-103592380D01*
X181062380Y-103497142D01*
X181110000Y-103354285D01*
X181157619Y-103306666D01*
X179522380Y-105640000D02*
X178522380Y-105640000D01*
X178522380Y-105401904D01*
X178570000Y-105259047D01*
X178665238Y-105163809D01*
X178760476Y-105116190D01*
X178950952Y-105068571D01*
X179093809Y-105068571D01*
X179284285Y-105116190D01*
X179379523Y-105163809D01*
X179474761Y-105259047D01*
X179522380Y-105401904D01*
X179522380Y-105640000D01*
X179236666Y-104687619D02*
X179236666Y-104211428D01*
X179522380Y-104782857D02*
X178522380Y-104449523D01*
X179522380Y-104116190D01*
X178522380Y-103925714D02*
X178522380Y-103354285D01*
X179522380Y-103640000D02*
X178522380Y-103640000D01*
X179236666Y-103068571D02*
X179236666Y-102592380D01*
X179522380Y-103163809D02*
X178522380Y-102830476D01*
X179522380Y-102497142D01*
X175982380Y-105473333D02*
X176982380Y-105140000D01*
X175982380Y-104806666D01*
X176887142Y-103901904D02*
X176934761Y-103949523D01*
X176982380Y-104092380D01*
X176982380Y-104187619D01*
X176934761Y-104330476D01*
X176839523Y-104425714D01*
X176744285Y-104473333D01*
X176553809Y-104520952D01*
X176410952Y-104520952D01*
X176220476Y-104473333D01*
X176125238Y-104425714D01*
X176030000Y-104330476D01*
X175982380Y-104187619D01*
X175982380Y-104092380D01*
X176030000Y-103949523D01*
X176077619Y-103901904D01*
X176887142Y-102901904D02*
X176934761Y-102949523D01*
X176982380Y-103092380D01*
X176982380Y-103187619D01*
X176934761Y-103330476D01*
X176839523Y-103425714D01*
X176744285Y-103473333D01*
X176553809Y-103520952D01*
X176410952Y-103520952D01*
X176220476Y-103473333D01*
X176125238Y-103425714D01*
X176030000Y-103330476D01*
X175982380Y-103187619D01*
X175982380Y-103092380D01*
X176030000Y-102949523D01*
X176077619Y-102901904D01*
G04 #@! TO.C,TouchDown1*
X121888809Y-127087380D02*
X122460238Y-127087380D01*
X122174523Y-128087380D02*
X122174523Y-127087380D01*
X122936428Y-128087380D02*
X122841190Y-128039761D01*
X122793571Y-127992142D01*
X122745952Y-127896904D01*
X122745952Y-127611190D01*
X122793571Y-127515952D01*
X122841190Y-127468333D01*
X122936428Y-127420714D01*
X123079285Y-127420714D01*
X123174523Y-127468333D01*
X123222142Y-127515952D01*
X123269761Y-127611190D01*
X123269761Y-127896904D01*
X123222142Y-127992142D01*
X123174523Y-128039761D01*
X123079285Y-128087380D01*
X122936428Y-128087380D01*
X124126904Y-127420714D02*
X124126904Y-128087380D01*
X123698333Y-127420714D02*
X123698333Y-127944523D01*
X123745952Y-128039761D01*
X123841190Y-128087380D01*
X123984047Y-128087380D01*
X124079285Y-128039761D01*
X124126904Y-127992142D01*
X125031666Y-128039761D02*
X124936428Y-128087380D01*
X124745952Y-128087380D01*
X124650714Y-128039761D01*
X124603095Y-127992142D01*
X124555476Y-127896904D01*
X124555476Y-127611190D01*
X124603095Y-127515952D01*
X124650714Y-127468333D01*
X124745952Y-127420714D01*
X124936428Y-127420714D01*
X125031666Y-127468333D01*
X125460238Y-128087380D02*
X125460238Y-127087380D01*
X125888809Y-128087380D02*
X125888809Y-127563571D01*
X125841190Y-127468333D01*
X125745952Y-127420714D01*
X125603095Y-127420714D01*
X125507857Y-127468333D01*
X125460238Y-127515952D01*
X126365000Y-128087380D02*
X126365000Y-127087380D01*
X126603095Y-127087380D01*
X126745952Y-127135000D01*
X126841190Y-127230238D01*
X126888809Y-127325476D01*
X126936428Y-127515952D01*
X126936428Y-127658809D01*
X126888809Y-127849285D01*
X126841190Y-127944523D01*
X126745952Y-128039761D01*
X126603095Y-128087380D01*
X126365000Y-128087380D01*
X127507857Y-128087380D02*
X127412619Y-128039761D01*
X127365000Y-127992142D01*
X127317380Y-127896904D01*
X127317380Y-127611190D01*
X127365000Y-127515952D01*
X127412619Y-127468333D01*
X127507857Y-127420714D01*
X127650714Y-127420714D01*
X127745952Y-127468333D01*
X127793571Y-127515952D01*
X127841190Y-127611190D01*
X127841190Y-127896904D01*
X127793571Y-127992142D01*
X127745952Y-128039761D01*
X127650714Y-128087380D01*
X127507857Y-128087380D01*
X128174523Y-127420714D02*
X128365000Y-128087380D01*
X128555476Y-127611190D01*
X128745952Y-128087380D01*
X128936428Y-127420714D01*
X129317380Y-127420714D02*
X129317380Y-128087380D01*
X129317380Y-127515952D02*
X129365000Y-127468333D01*
X129460238Y-127420714D01*
X129603095Y-127420714D01*
X129698333Y-127468333D01*
X129745952Y-127563571D01*
X129745952Y-128087380D01*
X130745952Y-128087380D02*
X130174523Y-128087380D01*
X130460238Y-128087380D02*
X130460238Y-127087380D01*
X130365000Y-127230238D01*
X130269761Y-127325476D01*
X130174523Y-127373095D01*
X123325000Y-123316904D02*
X123277380Y-123412142D01*
X123277380Y-123555000D01*
X123325000Y-123697857D01*
X123420238Y-123793095D01*
X123515476Y-123840714D01*
X123705952Y-123888333D01*
X123848809Y-123888333D01*
X124039285Y-123840714D01*
X124134523Y-123793095D01*
X124229761Y-123697857D01*
X124277380Y-123555000D01*
X124277380Y-123459761D01*
X124229761Y-123316904D01*
X124182142Y-123269285D01*
X123848809Y-123269285D01*
X123848809Y-123459761D01*
X124277380Y-122840714D02*
X123277380Y-122840714D01*
X124277380Y-122269285D01*
X123277380Y-122269285D01*
X124277380Y-121793095D02*
X123277380Y-121793095D01*
X123277380Y-121555000D01*
X123325000Y-121412142D01*
X123420238Y-121316904D01*
X123515476Y-121269285D01*
X123705952Y-121221666D01*
X123848809Y-121221666D01*
X124039285Y-121269285D01*
X124134523Y-121316904D01*
X124229761Y-121412142D01*
X124277380Y-121555000D01*
X124277380Y-121793095D01*
X126817380Y-123078809D02*
X125817380Y-123078809D01*
X125817380Y-122412142D02*
X125817380Y-122221666D01*
X125865000Y-122126428D01*
X125960238Y-122031190D01*
X126150714Y-121983571D01*
X126484047Y-121983571D01*
X126674523Y-122031190D01*
X126769761Y-122126428D01*
X126817380Y-122221666D01*
X126817380Y-122412142D01*
X126769761Y-122507380D01*
X126674523Y-122602619D01*
X126484047Y-122650238D01*
X126150714Y-122650238D01*
X125960238Y-122602619D01*
X125865000Y-122507380D01*
X125817380Y-122412142D01*
X128357380Y-123888333D02*
X129357380Y-123555000D01*
X128357380Y-123221666D01*
X129262142Y-122316904D02*
X129309761Y-122364523D01*
X129357380Y-122507380D01*
X129357380Y-122602619D01*
X129309761Y-122745476D01*
X129214523Y-122840714D01*
X129119285Y-122888333D01*
X128928809Y-122935952D01*
X128785952Y-122935952D01*
X128595476Y-122888333D01*
X128500238Y-122840714D01*
X128405000Y-122745476D01*
X128357380Y-122602619D01*
X128357380Y-122507380D01*
X128405000Y-122364523D01*
X128452619Y-122316904D01*
X129262142Y-121316904D02*
X129309761Y-121364523D01*
X129357380Y-121507380D01*
X129357380Y-121602619D01*
X129309761Y-121745476D01*
X129214523Y-121840714D01*
X129119285Y-121888333D01*
X128928809Y-121935952D01*
X128785952Y-121935952D01*
X128595476Y-121888333D01*
X128500238Y-121840714D01*
X128405000Y-121745476D01*
X128357380Y-121602619D01*
X128357380Y-121507380D01*
X128405000Y-121364523D01*
X128452619Y-121316904D01*
X124007857Y-132167380D02*
X124579285Y-132167380D01*
X124293571Y-133167380D02*
X124293571Y-132167380D01*
X125103095Y-132167380D02*
X125293571Y-132167380D01*
X125388809Y-132215000D01*
X125484047Y-132310238D01*
X125531666Y-132500714D01*
X125531666Y-132834047D01*
X125484047Y-133024523D01*
X125388809Y-133119761D01*
X125293571Y-133167380D01*
X125103095Y-133167380D01*
X125007857Y-133119761D01*
X124912619Y-133024523D01*
X124865000Y-132834047D01*
X124865000Y-132500714D01*
X124912619Y-132310238D01*
X125007857Y-132215000D01*
X125103095Y-132167380D01*
X125960238Y-132167380D02*
X125960238Y-132976904D01*
X126007857Y-133072142D01*
X126055476Y-133119761D01*
X126150714Y-133167380D01*
X126341190Y-133167380D01*
X126436428Y-133119761D01*
X126484047Y-133072142D01*
X126531666Y-132976904D01*
X126531666Y-132167380D01*
X127579285Y-133072142D02*
X127531666Y-133119761D01*
X127388809Y-133167380D01*
X127293571Y-133167380D01*
X127150714Y-133119761D01*
X127055476Y-133024523D01*
X127007857Y-132929285D01*
X126960238Y-132738809D01*
X126960238Y-132595952D01*
X127007857Y-132405476D01*
X127055476Y-132310238D01*
X127150714Y-132215000D01*
X127293571Y-132167380D01*
X127388809Y-132167380D01*
X127531666Y-132215000D01*
X127579285Y-132262619D01*
X128007857Y-133167380D02*
X128007857Y-132167380D01*
X128007857Y-132643571D02*
X128579285Y-132643571D01*
X128579285Y-133167380D02*
X128579285Y-132167380D01*
G04 #@! TO.C,TFT1*
X112728571Y-68667380D02*
X113300000Y-68667380D01*
X113014285Y-69667380D02*
X113014285Y-68667380D01*
X113966666Y-69143571D02*
X113633333Y-69143571D01*
X113633333Y-69667380D02*
X113633333Y-68667380D01*
X114109523Y-68667380D01*
X114347619Y-68667380D02*
X114919047Y-68667380D01*
X114633333Y-69667380D02*
X114633333Y-68667380D01*
X115776190Y-69667380D02*
X115204761Y-69667380D01*
X115490476Y-69667380D02*
X115490476Y-68667380D01*
X115395238Y-68810238D01*
X115300000Y-68905476D01*
X115204761Y-68953095D01*
X109402857Y-104862380D02*
X109974285Y-104862380D01*
X109688571Y-105862380D02*
X109688571Y-104862380D01*
X110498095Y-104862380D02*
X110688571Y-104862380D01*
X110783809Y-104910000D01*
X110879047Y-105005238D01*
X110926666Y-105195714D01*
X110926666Y-105529047D01*
X110879047Y-105719523D01*
X110783809Y-105814761D01*
X110688571Y-105862380D01*
X110498095Y-105862380D01*
X110402857Y-105814761D01*
X110307619Y-105719523D01*
X110260000Y-105529047D01*
X110260000Y-105195714D01*
X110307619Y-105005238D01*
X110402857Y-104910000D01*
X110498095Y-104862380D01*
X111355238Y-104862380D02*
X111355238Y-105671904D01*
X111402857Y-105767142D01*
X111450476Y-105814761D01*
X111545714Y-105862380D01*
X111736190Y-105862380D01*
X111831428Y-105814761D01*
X111879047Y-105767142D01*
X111926666Y-105671904D01*
X111926666Y-104862380D01*
X112974285Y-105767142D02*
X112926666Y-105814761D01*
X112783809Y-105862380D01*
X112688571Y-105862380D01*
X112545714Y-105814761D01*
X112450476Y-105719523D01*
X112402857Y-105624285D01*
X112355238Y-105433809D01*
X112355238Y-105290952D01*
X112402857Y-105100476D01*
X112450476Y-105005238D01*
X112545714Y-104910000D01*
X112688571Y-104862380D01*
X112783809Y-104862380D01*
X112926666Y-104910000D01*
X112974285Y-104957619D01*
X113402857Y-105862380D02*
X113402857Y-104862380D01*
X113402857Y-105338571D02*
X113974285Y-105338571D01*
X113974285Y-105862380D02*
X113974285Y-104862380D01*
X109402857Y-102322380D02*
X109974285Y-102322380D01*
X109688571Y-103322380D02*
X109688571Y-102322380D01*
X110498095Y-102322380D02*
X110688571Y-102322380D01*
X110783809Y-102370000D01*
X110879047Y-102465238D01*
X110926666Y-102655714D01*
X110926666Y-102989047D01*
X110879047Y-103179523D01*
X110783809Y-103274761D01*
X110688571Y-103322380D01*
X110498095Y-103322380D01*
X110402857Y-103274761D01*
X110307619Y-103179523D01*
X110260000Y-102989047D01*
X110260000Y-102655714D01*
X110307619Y-102465238D01*
X110402857Y-102370000D01*
X110498095Y-102322380D01*
X111355238Y-102322380D02*
X111355238Y-103131904D01*
X111402857Y-103227142D01*
X111450476Y-103274761D01*
X111545714Y-103322380D01*
X111736190Y-103322380D01*
X111831428Y-103274761D01*
X111879047Y-103227142D01*
X111926666Y-103131904D01*
X111926666Y-102322380D01*
X112974285Y-103227142D02*
X112926666Y-103274761D01*
X112783809Y-103322380D01*
X112688571Y-103322380D01*
X112545714Y-103274761D01*
X112450476Y-103179523D01*
X112402857Y-103084285D01*
X112355238Y-102893809D01*
X112355238Y-102750952D01*
X112402857Y-102560476D01*
X112450476Y-102465238D01*
X112545714Y-102370000D01*
X112688571Y-102322380D01*
X112783809Y-102322380D01*
X112926666Y-102370000D01*
X112974285Y-102417619D01*
X113402857Y-103322380D02*
X113402857Y-102322380D01*
X113402857Y-102798571D02*
X113974285Y-102798571D01*
X113974285Y-103322380D02*
X113974285Y-102322380D01*
X109402857Y-99782380D02*
X109974285Y-99782380D01*
X109688571Y-100782380D02*
X109688571Y-99782380D01*
X110498095Y-99782380D02*
X110688571Y-99782380D01*
X110783809Y-99830000D01*
X110879047Y-99925238D01*
X110926666Y-100115714D01*
X110926666Y-100449047D01*
X110879047Y-100639523D01*
X110783809Y-100734761D01*
X110688571Y-100782380D01*
X110498095Y-100782380D01*
X110402857Y-100734761D01*
X110307619Y-100639523D01*
X110260000Y-100449047D01*
X110260000Y-100115714D01*
X110307619Y-99925238D01*
X110402857Y-99830000D01*
X110498095Y-99782380D01*
X111355238Y-99782380D02*
X111355238Y-100591904D01*
X111402857Y-100687142D01*
X111450476Y-100734761D01*
X111545714Y-100782380D01*
X111736190Y-100782380D01*
X111831428Y-100734761D01*
X111879047Y-100687142D01*
X111926666Y-100591904D01*
X111926666Y-99782380D01*
X112974285Y-100687142D02*
X112926666Y-100734761D01*
X112783809Y-100782380D01*
X112688571Y-100782380D01*
X112545714Y-100734761D01*
X112450476Y-100639523D01*
X112402857Y-100544285D01*
X112355238Y-100353809D01*
X112355238Y-100210952D01*
X112402857Y-100020476D01*
X112450476Y-99925238D01*
X112545714Y-99830000D01*
X112688571Y-99782380D01*
X112783809Y-99782380D01*
X112926666Y-99830000D01*
X112974285Y-99877619D01*
X113402857Y-100782380D02*
X113402857Y-99782380D01*
X113402857Y-100258571D02*
X113974285Y-100258571D01*
X113974285Y-100782380D02*
X113974285Y-99782380D01*
X109402857Y-97242380D02*
X109974285Y-97242380D01*
X109688571Y-98242380D02*
X109688571Y-97242380D01*
X110498095Y-97242380D02*
X110688571Y-97242380D01*
X110783809Y-97290000D01*
X110879047Y-97385238D01*
X110926666Y-97575714D01*
X110926666Y-97909047D01*
X110879047Y-98099523D01*
X110783809Y-98194761D01*
X110688571Y-98242380D01*
X110498095Y-98242380D01*
X110402857Y-98194761D01*
X110307619Y-98099523D01*
X110260000Y-97909047D01*
X110260000Y-97575714D01*
X110307619Y-97385238D01*
X110402857Y-97290000D01*
X110498095Y-97242380D01*
X111355238Y-97242380D02*
X111355238Y-98051904D01*
X111402857Y-98147142D01*
X111450476Y-98194761D01*
X111545714Y-98242380D01*
X111736190Y-98242380D01*
X111831428Y-98194761D01*
X111879047Y-98147142D01*
X111926666Y-98051904D01*
X111926666Y-97242380D01*
X112974285Y-98147142D02*
X112926666Y-98194761D01*
X112783809Y-98242380D01*
X112688571Y-98242380D01*
X112545714Y-98194761D01*
X112450476Y-98099523D01*
X112402857Y-98004285D01*
X112355238Y-97813809D01*
X112355238Y-97670952D01*
X112402857Y-97480476D01*
X112450476Y-97385238D01*
X112545714Y-97290000D01*
X112688571Y-97242380D01*
X112783809Y-97242380D01*
X112926666Y-97290000D01*
X112974285Y-97337619D01*
X113402857Y-98242380D02*
X113402857Y-97242380D01*
X113402857Y-97718571D02*
X113974285Y-97718571D01*
X113974285Y-98242380D02*
X113974285Y-97242380D01*
X109402857Y-94702380D02*
X109974285Y-94702380D01*
X109688571Y-95702380D02*
X109688571Y-94702380D01*
X110498095Y-94702380D02*
X110688571Y-94702380D01*
X110783809Y-94750000D01*
X110879047Y-94845238D01*
X110926666Y-95035714D01*
X110926666Y-95369047D01*
X110879047Y-95559523D01*
X110783809Y-95654761D01*
X110688571Y-95702380D01*
X110498095Y-95702380D01*
X110402857Y-95654761D01*
X110307619Y-95559523D01*
X110260000Y-95369047D01*
X110260000Y-95035714D01*
X110307619Y-94845238D01*
X110402857Y-94750000D01*
X110498095Y-94702380D01*
X111355238Y-94702380D02*
X111355238Y-95511904D01*
X111402857Y-95607142D01*
X111450476Y-95654761D01*
X111545714Y-95702380D01*
X111736190Y-95702380D01*
X111831428Y-95654761D01*
X111879047Y-95607142D01*
X111926666Y-95511904D01*
X111926666Y-94702380D01*
X112974285Y-95607142D02*
X112926666Y-95654761D01*
X112783809Y-95702380D01*
X112688571Y-95702380D01*
X112545714Y-95654761D01*
X112450476Y-95559523D01*
X112402857Y-95464285D01*
X112355238Y-95273809D01*
X112355238Y-95130952D01*
X112402857Y-94940476D01*
X112450476Y-94845238D01*
X112545714Y-94750000D01*
X112688571Y-94702380D01*
X112783809Y-94702380D01*
X112926666Y-94750000D01*
X112974285Y-94797619D01*
X113402857Y-95702380D02*
X113402857Y-94702380D01*
X113402857Y-95178571D02*
X113974285Y-95178571D01*
X113974285Y-95702380D02*
X113974285Y-94702380D01*
X110188571Y-93162380D02*
X110188571Y-92162380D01*
X110521904Y-92876666D01*
X110855238Y-92162380D01*
X110855238Y-93162380D01*
X111331428Y-93162380D02*
X111331428Y-92162380D01*
X111760000Y-93114761D02*
X111902857Y-93162380D01*
X112140952Y-93162380D01*
X112236190Y-93114761D01*
X112283809Y-93067142D01*
X112331428Y-92971904D01*
X112331428Y-92876666D01*
X112283809Y-92781428D01*
X112236190Y-92733809D01*
X112140952Y-92686190D01*
X111950476Y-92638571D01*
X111855238Y-92590952D01*
X111807619Y-92543333D01*
X111760000Y-92448095D01*
X111760000Y-92352857D01*
X111807619Y-92257619D01*
X111855238Y-92210000D01*
X111950476Y-92162380D01*
X112188571Y-92162380D01*
X112331428Y-92210000D01*
X112950476Y-92162380D02*
X113140952Y-92162380D01*
X113236190Y-92210000D01*
X113331428Y-92305238D01*
X113379047Y-92495714D01*
X113379047Y-92829047D01*
X113331428Y-93019523D01*
X113236190Y-93114761D01*
X113140952Y-93162380D01*
X112950476Y-93162380D01*
X112855238Y-93114761D01*
X112760000Y-93019523D01*
X112712380Y-92829047D01*
X112712380Y-92495714D01*
X112760000Y-92305238D01*
X112855238Y-92210000D01*
X112950476Y-92162380D01*
X111117142Y-90622380D02*
X110640952Y-90622380D01*
X110640952Y-89622380D01*
X111450476Y-90098571D02*
X111783809Y-90098571D01*
X111926666Y-90622380D02*
X111450476Y-90622380D01*
X111450476Y-89622380D01*
X111926666Y-89622380D01*
X112355238Y-90622380D02*
X112355238Y-89622380D01*
X112593333Y-89622380D01*
X112736190Y-89670000D01*
X112831428Y-89765238D01*
X112879047Y-89860476D01*
X112926666Y-90050952D01*
X112926666Y-90193809D01*
X112879047Y-90384285D01*
X112831428Y-90479523D01*
X112736190Y-90574761D01*
X112593333Y-90622380D01*
X112355238Y-90622380D01*
X110474285Y-88034761D02*
X110617142Y-88082380D01*
X110855238Y-88082380D01*
X110950476Y-88034761D01*
X110998095Y-87987142D01*
X111045714Y-87891904D01*
X111045714Y-87796666D01*
X110998095Y-87701428D01*
X110950476Y-87653809D01*
X110855238Y-87606190D01*
X110664761Y-87558571D01*
X110569523Y-87510952D01*
X110521904Y-87463333D01*
X110474285Y-87368095D01*
X110474285Y-87272857D01*
X110521904Y-87177619D01*
X110569523Y-87130000D01*
X110664761Y-87082380D01*
X110902857Y-87082380D01*
X111045714Y-87130000D01*
X112045714Y-87987142D02*
X111998095Y-88034761D01*
X111855238Y-88082380D01*
X111760000Y-88082380D01*
X111617142Y-88034761D01*
X111521904Y-87939523D01*
X111474285Y-87844285D01*
X111426666Y-87653809D01*
X111426666Y-87510952D01*
X111474285Y-87320476D01*
X111521904Y-87225238D01*
X111617142Y-87130000D01*
X111760000Y-87082380D01*
X111855238Y-87082380D01*
X111998095Y-87130000D01*
X112045714Y-87177619D01*
X112474285Y-88082380D02*
X112474285Y-87082380D01*
X113045714Y-88082380D02*
X112617142Y-87510952D01*
X113045714Y-87082380D02*
X112474285Y-87653809D01*
X110188571Y-85542380D02*
X110188571Y-84542380D01*
X110521904Y-85256666D01*
X110855238Y-84542380D01*
X110855238Y-85542380D01*
X111521904Y-84542380D02*
X111712380Y-84542380D01*
X111807619Y-84590000D01*
X111902857Y-84685238D01*
X111950476Y-84875714D01*
X111950476Y-85209047D01*
X111902857Y-85399523D01*
X111807619Y-85494761D01*
X111712380Y-85542380D01*
X111521904Y-85542380D01*
X111426666Y-85494761D01*
X111331428Y-85399523D01*
X111283809Y-85209047D01*
X111283809Y-84875714D01*
X111331428Y-84685238D01*
X111426666Y-84590000D01*
X111521904Y-84542380D01*
X112331428Y-85494761D02*
X112474285Y-85542380D01*
X112712380Y-85542380D01*
X112807619Y-85494761D01*
X112855238Y-85447142D01*
X112902857Y-85351904D01*
X112902857Y-85256666D01*
X112855238Y-85161428D01*
X112807619Y-85113809D01*
X112712380Y-85066190D01*
X112521904Y-85018571D01*
X112426666Y-84970952D01*
X112379047Y-84923333D01*
X112331428Y-84828095D01*
X112331428Y-84732857D01*
X112379047Y-84637619D01*
X112426666Y-84590000D01*
X112521904Y-84542380D01*
X112760000Y-84542380D01*
X112902857Y-84590000D01*
X113331428Y-85542380D02*
X113331428Y-84542380D01*
X110998095Y-83002380D02*
X110998095Y-82002380D01*
X111236190Y-82002380D01*
X111379047Y-82050000D01*
X111474285Y-82145238D01*
X111521904Y-82240476D01*
X111569523Y-82430952D01*
X111569523Y-82573809D01*
X111521904Y-82764285D01*
X111474285Y-82859523D01*
X111379047Y-82954761D01*
X111236190Y-83002380D01*
X110998095Y-83002380D01*
X112569523Y-82907142D02*
X112521904Y-82954761D01*
X112379047Y-83002380D01*
X112283809Y-83002380D01*
X112140952Y-82954761D01*
X112045714Y-82859523D01*
X111998095Y-82764285D01*
X111950476Y-82573809D01*
X111950476Y-82430952D01*
X111998095Y-82240476D01*
X112045714Y-82145238D01*
X112140952Y-82050000D01*
X112283809Y-82002380D01*
X112379047Y-82002380D01*
X112521904Y-82050000D01*
X112569523Y-82097619D01*
X111212380Y-80462380D02*
X110879047Y-79986190D01*
X110640952Y-80462380D02*
X110640952Y-79462380D01*
X111021904Y-79462380D01*
X111117142Y-79510000D01*
X111164761Y-79557619D01*
X111212380Y-79652857D01*
X111212380Y-79795714D01*
X111164761Y-79890952D01*
X111117142Y-79938571D01*
X111021904Y-79986190D01*
X110640952Y-79986190D01*
X111593333Y-80414761D02*
X111736190Y-80462380D01*
X111974285Y-80462380D01*
X112069523Y-80414761D01*
X112117142Y-80367142D01*
X112164761Y-80271904D01*
X112164761Y-80176666D01*
X112117142Y-80081428D01*
X112069523Y-80033809D01*
X111974285Y-79986190D01*
X111783809Y-79938571D01*
X111688571Y-79890952D01*
X111640952Y-79843333D01*
X111593333Y-79748095D01*
X111593333Y-79652857D01*
X111640952Y-79557619D01*
X111688571Y-79510000D01*
X111783809Y-79462380D01*
X112021904Y-79462380D01*
X112164761Y-79510000D01*
X112450476Y-79462380D02*
X113021904Y-79462380D01*
X112736190Y-80462380D02*
X112736190Y-79462380D01*
X111593333Y-77827142D02*
X111545714Y-77874761D01*
X111402857Y-77922380D01*
X111307619Y-77922380D01*
X111164761Y-77874761D01*
X111069523Y-77779523D01*
X111021904Y-77684285D01*
X110974285Y-77493809D01*
X110974285Y-77350952D01*
X111021904Y-77160476D01*
X111069523Y-77065238D01*
X111164761Y-76970000D01*
X111307619Y-76922380D01*
X111402857Y-76922380D01*
X111545714Y-76970000D01*
X111593333Y-77017619D01*
X111974285Y-77874761D02*
X112117142Y-77922380D01*
X112355238Y-77922380D01*
X112450476Y-77874761D01*
X112498095Y-77827142D01*
X112545714Y-77731904D01*
X112545714Y-77636666D01*
X112498095Y-77541428D01*
X112450476Y-77493809D01*
X112355238Y-77446190D01*
X112164761Y-77398571D01*
X112069523Y-77350952D01*
X112021904Y-77303333D01*
X111974285Y-77208095D01*
X111974285Y-77112857D01*
X112021904Y-77017619D01*
X112069523Y-76970000D01*
X112164761Y-76922380D01*
X112402857Y-76922380D01*
X112545714Y-76970000D01*
X110998095Y-74430000D02*
X110902857Y-74382380D01*
X110760000Y-74382380D01*
X110617142Y-74430000D01*
X110521904Y-74525238D01*
X110474285Y-74620476D01*
X110426666Y-74810952D01*
X110426666Y-74953809D01*
X110474285Y-75144285D01*
X110521904Y-75239523D01*
X110617142Y-75334761D01*
X110760000Y-75382380D01*
X110855238Y-75382380D01*
X110998095Y-75334761D01*
X111045714Y-75287142D01*
X111045714Y-74953809D01*
X110855238Y-74953809D01*
X111474285Y-75382380D02*
X111474285Y-74382380D01*
X112045714Y-75382380D01*
X112045714Y-74382380D01*
X112521904Y-75382380D02*
X112521904Y-74382380D01*
X112760000Y-74382380D01*
X112902857Y-74430000D01*
X112998095Y-74525238D01*
X113045714Y-74620476D01*
X113093333Y-74810952D01*
X113093333Y-74953809D01*
X113045714Y-75144285D01*
X112998095Y-75239523D01*
X112902857Y-75334761D01*
X112760000Y-75382380D01*
X112521904Y-75382380D01*
X110426666Y-71842380D02*
X110760000Y-72842380D01*
X111093333Y-71842380D01*
X111998095Y-72747142D02*
X111950476Y-72794761D01*
X111807619Y-72842380D01*
X111712380Y-72842380D01*
X111569523Y-72794761D01*
X111474285Y-72699523D01*
X111426666Y-72604285D01*
X111379047Y-72413809D01*
X111379047Y-72270952D01*
X111426666Y-72080476D01*
X111474285Y-71985238D01*
X111569523Y-71890000D01*
X111712380Y-71842380D01*
X111807619Y-71842380D01*
X111950476Y-71890000D01*
X111998095Y-71937619D01*
X112998095Y-72747142D02*
X112950476Y-72794761D01*
X112807619Y-72842380D01*
X112712380Y-72842380D01*
X112569523Y-72794761D01*
X112474285Y-72699523D01*
X112426666Y-72604285D01*
X112379047Y-72413809D01*
X112379047Y-72270952D01*
X112426666Y-72080476D01*
X112474285Y-71985238D01*
X112569523Y-71890000D01*
X112712380Y-71842380D01*
X112807619Y-71842380D01*
X112950476Y-71890000D01*
X112998095Y-71937619D01*
G04 #@! TD*
M02*
