G04 #@! TF.GenerationSoftware,KiCad,Pcbnew,(5.0.1)-3*
G04 #@! TF.CreationDate,2019-02-20T08:20:08+01:00*
G04 #@! TF.ProjectId,THERMOSTAT,544845524D4F535441542E6B69636164,rev?*
G04 #@! TF.SameCoordinates,Original*
G04 #@! TF.FileFunction,Legend,Bot*
G04 #@! TF.FilePolarity,Positive*
%FSLAX46Y46*%
G04 Gerber Fmt 4.6, Leading zero omitted, Abs format (unit mm)*
G04 Created by KiCad (PCBNEW (5.0.1)-3) date 2/20/2019 8:20:08 AM*
%MOMM*%
%LPD*%
G01*
G04 APERTURE LIST*
%ADD10C,0.300000*%
%ADD11C,0.150000*%
G04 APERTURE END LIST*
D10*
X135703571Y-111030000D02*
X137203571Y-111530000D01*
X135703571Y-112030000D01*
X137060714Y-113387142D02*
X137132142Y-113315714D01*
X137203571Y-113101428D01*
X137203571Y-112958571D01*
X137132142Y-112744285D01*
X136989285Y-112601428D01*
X136846428Y-112530000D01*
X136560714Y-112458571D01*
X136346428Y-112458571D01*
X136060714Y-112530000D01*
X135917857Y-112601428D01*
X135775000Y-112744285D01*
X135703571Y-112958571D01*
X135703571Y-113101428D01*
X135775000Y-113315714D01*
X135846428Y-113387142D01*
X137060714Y-114887142D02*
X137132142Y-114815714D01*
X137203571Y-114601428D01*
X137203571Y-114458571D01*
X137132142Y-114244285D01*
X136989285Y-114101428D01*
X136846428Y-114030000D01*
X136560714Y-113958571D01*
X136346428Y-113958571D01*
X136060714Y-114030000D01*
X135917857Y-114101428D01*
X135775000Y-114244285D01*
X135703571Y-114458571D01*
X135703571Y-114601428D01*
X135775000Y-114815714D01*
X135846428Y-114887142D01*
X142283571Y-111415000D02*
X140783571Y-111415000D01*
X140783571Y-111772142D01*
X140855000Y-111986428D01*
X140997857Y-112129285D01*
X141140714Y-112200714D01*
X141426428Y-112272142D01*
X141640714Y-112272142D01*
X141926428Y-112200714D01*
X142069285Y-112129285D01*
X142212142Y-111986428D01*
X142283571Y-111772142D01*
X142283571Y-111415000D01*
X141855000Y-112843571D02*
X141855000Y-113557857D01*
X142283571Y-112700714D02*
X140783571Y-113200714D01*
X142283571Y-113700714D01*
X140783571Y-113986428D02*
X140783571Y-114843571D01*
X142283571Y-114415000D02*
X140783571Y-114415000D01*
X141855000Y-115272142D02*
X141855000Y-115986428D01*
X142283571Y-115129285D02*
X140783571Y-115629285D01*
X142283571Y-116129285D01*
X145300000Y-111887142D02*
X145228571Y-111744285D01*
X145228571Y-111530000D01*
X145300000Y-111315714D01*
X145442857Y-111172857D01*
X145585714Y-111101428D01*
X145871428Y-111030000D01*
X146085714Y-111030000D01*
X146371428Y-111101428D01*
X146514285Y-111172857D01*
X146657142Y-111315714D01*
X146728571Y-111530000D01*
X146728571Y-111672857D01*
X146657142Y-111887142D01*
X146585714Y-111958571D01*
X146085714Y-111958571D01*
X146085714Y-111672857D01*
X146728571Y-112601428D02*
X145228571Y-112601428D01*
X146728571Y-113458571D01*
X145228571Y-113458571D01*
X146728571Y-114172857D02*
X145228571Y-114172857D01*
X145228571Y-114530000D01*
X145300000Y-114744285D01*
X145442857Y-114887142D01*
X145585714Y-114958571D01*
X145871428Y-115030000D01*
X146085714Y-115030000D01*
X146371428Y-114958571D01*
X146514285Y-114887142D01*
X146657142Y-114744285D01*
X146728571Y-114530000D01*
X146728571Y-114172857D01*
X165778571Y-112050000D02*
X165778571Y-111335714D01*
X164278571Y-111335714D01*
X165921428Y-112192857D02*
X165921428Y-113335714D01*
X164278571Y-113978571D02*
X164278571Y-114264285D01*
X164350000Y-114407142D01*
X164492857Y-114550000D01*
X164778571Y-114621428D01*
X165278571Y-114621428D01*
X165564285Y-114550000D01*
X165707142Y-114407142D01*
X165778571Y-114264285D01*
X165778571Y-113978571D01*
X165707142Y-113835714D01*
X165564285Y-113692857D01*
X165278571Y-113621428D01*
X164778571Y-113621428D01*
X164492857Y-113692857D01*
X164350000Y-113835714D01*
X164278571Y-113978571D01*
X164278571Y-115264285D02*
X165492857Y-115264285D01*
X165635714Y-115335714D01*
X165707142Y-115407142D01*
X165778571Y-115550000D01*
X165778571Y-115835714D01*
X165707142Y-115978571D01*
X165635714Y-116050000D01*
X165492857Y-116121428D01*
X164278571Y-116121428D01*
X164278571Y-116621428D02*
X164278571Y-117478571D01*
X165778571Y-117050000D02*
X164278571Y-117050000D01*
X160698571Y-111331428D02*
X159198571Y-111331428D01*
X160698571Y-112188571D01*
X159198571Y-112188571D01*
X155618571Y-111780000D02*
X155618571Y-111065714D01*
X154118571Y-111065714D01*
X155761428Y-111922857D02*
X155761428Y-113065714D01*
X155618571Y-113422857D02*
X154118571Y-113422857D01*
X155618571Y-114137142D02*
X154118571Y-114137142D01*
X155618571Y-114994285D01*
X154118571Y-114994285D01*
D11*
G04 #@! TO.C,HLKPM01*
X167640000Y-77470000D02*
X133350000Y-77470000D01*
X133350000Y-77470000D02*
X133350000Y-97790000D01*
X133350000Y-97790000D02*
X167640000Y-97790000D01*
X167640000Y-97790000D02*
X167640000Y-77470000D01*
G04 #@! TO.C,DHTEXT1*
X133985000Y-100330000D02*
X133985000Y-109220000D01*
X147955000Y-100330000D02*
X133985000Y-100330000D01*
X147955000Y-109220000D02*
X147955000Y-100330000D01*
X133985000Y-109220000D02*
X147955000Y-109220000D01*
G04 #@! TO.C,TERMINAL1*
X153035000Y-100330000D02*
X153035000Y-109220000D01*
X167005000Y-100330000D02*
X153035000Y-100330000D01*
X167005000Y-109220000D02*
X167005000Y-100330000D01*
X153035000Y-109220000D02*
X167005000Y-109220000D01*
G04 #@! TO.C,HLKPM01*
X153074285Y-88582380D02*
X153074285Y-87582380D01*
X153074285Y-88058571D02*
X152502857Y-88058571D01*
X152502857Y-88582380D02*
X152502857Y-87582380D01*
X151550476Y-88582380D02*
X152026666Y-88582380D01*
X152026666Y-87582380D01*
X151217142Y-88582380D02*
X151217142Y-87582380D01*
X150645714Y-88582380D02*
X151074285Y-88010952D01*
X150645714Y-87582380D02*
X151217142Y-88153809D01*
X150217142Y-88582380D02*
X150217142Y-87582380D01*
X149836190Y-87582380D01*
X149740952Y-87630000D01*
X149693333Y-87677619D01*
X149645714Y-87772857D01*
X149645714Y-87915714D01*
X149693333Y-88010952D01*
X149740952Y-88058571D01*
X149836190Y-88106190D01*
X150217142Y-88106190D01*
X149217142Y-88582380D02*
X149217142Y-87582380D01*
X148883809Y-88296666D01*
X148550476Y-87582380D01*
X148550476Y-88582380D01*
X147883809Y-87582380D02*
X147788571Y-87582380D01*
X147693333Y-87630000D01*
X147645714Y-87677619D01*
X147598095Y-87772857D01*
X147550476Y-87963333D01*
X147550476Y-88201428D01*
X147598095Y-88391904D01*
X147645714Y-88487142D01*
X147693333Y-88534761D01*
X147788571Y-88582380D01*
X147883809Y-88582380D01*
X147979047Y-88534761D01*
X148026666Y-88487142D01*
X148074285Y-88391904D01*
X148121904Y-88201428D01*
X148121904Y-87963333D01*
X148074285Y-87772857D01*
X148026666Y-87677619D01*
X147979047Y-87630000D01*
X147883809Y-87582380D01*
X146598095Y-88582380D02*
X147169523Y-88582380D01*
X146883809Y-88582380D02*
X146883809Y-87582380D01*
X146979047Y-87725238D01*
X147074285Y-87820476D01*
X147169523Y-87868095D01*
X140961904Y-80081428D02*
X140200000Y-80081428D01*
X139866666Y-79462380D02*
X139533333Y-80462380D01*
X139200000Y-79462380D01*
X138723809Y-80462380D02*
X138819047Y-80414761D01*
X138866666Y-80367142D01*
X138914285Y-80271904D01*
X138914285Y-79986190D01*
X138866666Y-79890952D01*
X138819047Y-79843333D01*
X138723809Y-79795714D01*
X138580952Y-79795714D01*
X138485714Y-79843333D01*
X138438095Y-79890952D01*
X138390476Y-79986190D01*
X138390476Y-80271904D01*
X138438095Y-80367142D01*
X138485714Y-80414761D01*
X138580952Y-80462380D01*
X138723809Y-80462380D01*
X140961904Y-95321428D02*
X140200000Y-95321428D01*
X140580952Y-95702380D02*
X140580952Y-94940476D01*
X139866666Y-94702380D02*
X139533333Y-95702380D01*
X139200000Y-94702380D01*
X138723809Y-95702380D02*
X138819047Y-95654761D01*
X138866666Y-95607142D01*
X138914285Y-95511904D01*
X138914285Y-95226190D01*
X138866666Y-95130952D01*
X138819047Y-95083333D01*
X138723809Y-95035714D01*
X138580952Y-95035714D01*
X138485714Y-95083333D01*
X138438095Y-95130952D01*
X138390476Y-95226190D01*
X138390476Y-95511904D01*
X138438095Y-95607142D01*
X138485714Y-95654761D01*
X138580952Y-95702380D01*
X138723809Y-95702380D01*
X163298095Y-90336666D02*
X162821904Y-90336666D01*
X163393333Y-90622380D02*
X163060000Y-89622380D01*
X162726666Y-90622380D01*
X161821904Y-90527142D02*
X161869523Y-90574761D01*
X162012380Y-90622380D01*
X162107619Y-90622380D01*
X162250476Y-90574761D01*
X162345714Y-90479523D01*
X162393333Y-90384285D01*
X162440952Y-90193809D01*
X162440952Y-90050952D01*
X162393333Y-89860476D01*
X162345714Y-89765238D01*
X162250476Y-89670000D01*
X162107619Y-89622380D01*
X162012380Y-89622380D01*
X161869523Y-89670000D01*
X161821904Y-89717619D01*
X163298095Y-85256666D02*
X162821904Y-85256666D01*
X163393333Y-85542380D02*
X163060000Y-84542380D01*
X162726666Y-85542380D01*
X161821904Y-85447142D02*
X161869523Y-85494761D01*
X162012380Y-85542380D01*
X162107619Y-85542380D01*
X162250476Y-85494761D01*
X162345714Y-85399523D01*
X162393333Y-85304285D01*
X162440952Y-85113809D01*
X162440952Y-84970952D01*
X162393333Y-84780476D01*
X162345714Y-84685238D01*
X162250476Y-84590000D01*
X162107619Y-84542380D01*
X162012380Y-84542380D01*
X161869523Y-84590000D01*
X161821904Y-84637619D01*
G04 #@! TO.C,DHTEXT1*
X143922380Y-105227380D02*
X143922380Y-104227380D01*
X143684285Y-104227380D01*
X143541428Y-104275000D01*
X143446190Y-104370238D01*
X143398571Y-104465476D01*
X143350952Y-104655952D01*
X143350952Y-104798809D01*
X143398571Y-104989285D01*
X143446190Y-105084523D01*
X143541428Y-105179761D01*
X143684285Y-105227380D01*
X143922380Y-105227380D01*
X142922380Y-105227380D02*
X142922380Y-104227380D01*
X142922380Y-104703571D02*
X142350952Y-104703571D01*
X142350952Y-105227380D02*
X142350952Y-104227380D01*
X142017619Y-104227380D02*
X141446190Y-104227380D01*
X141731904Y-105227380D02*
X141731904Y-104227380D01*
X141112857Y-104703571D02*
X140779523Y-104703571D01*
X140636666Y-105227380D02*
X141112857Y-105227380D01*
X141112857Y-104227380D01*
X140636666Y-104227380D01*
X140303333Y-104227380D02*
X139636666Y-105227380D01*
X139636666Y-104227380D02*
X140303333Y-105227380D01*
X139398571Y-104227380D02*
X138827142Y-104227380D01*
X139112857Y-105227380D02*
X139112857Y-104227380D01*
X137970000Y-105227380D02*
X138541428Y-105227380D01*
X138255714Y-105227380D02*
X138255714Y-104227380D01*
X138350952Y-104370238D01*
X138446190Y-104465476D01*
X138541428Y-104513095D01*
G04 #@! TO.C,TERMINAL1*
X163900952Y-104227380D02*
X163329523Y-104227380D01*
X163615238Y-105227380D02*
X163615238Y-104227380D01*
X162996190Y-104703571D02*
X162662857Y-104703571D01*
X162520000Y-105227380D02*
X162996190Y-105227380D01*
X162996190Y-104227380D01*
X162520000Y-104227380D01*
X161520000Y-105227380D02*
X161853333Y-104751190D01*
X162091428Y-105227380D02*
X162091428Y-104227380D01*
X161710476Y-104227380D01*
X161615238Y-104275000D01*
X161567619Y-104322619D01*
X161520000Y-104417857D01*
X161520000Y-104560714D01*
X161567619Y-104655952D01*
X161615238Y-104703571D01*
X161710476Y-104751190D01*
X162091428Y-104751190D01*
X161091428Y-105227380D02*
X161091428Y-104227380D01*
X160758095Y-104941666D01*
X160424761Y-104227380D01*
X160424761Y-105227380D01*
X159948571Y-105227380D02*
X159948571Y-104227380D01*
X159472380Y-105227380D02*
X159472380Y-104227380D01*
X158900952Y-105227380D01*
X158900952Y-104227380D01*
X158472380Y-104941666D02*
X157996190Y-104941666D01*
X158567619Y-105227380D02*
X158234285Y-104227380D01*
X157900952Y-105227380D01*
X157091428Y-105227380D02*
X157567619Y-105227380D01*
X157567619Y-104227380D01*
X156234285Y-105227380D02*
X156805714Y-105227380D01*
X156520000Y-105227380D02*
X156520000Y-104227380D01*
X156615238Y-104370238D01*
X156710476Y-104465476D01*
X156805714Y-104513095D01*
G04 #@! TD*
M02*
