G04 #@! TF.GenerationSoftware,KiCad,Pcbnew,(5.0.1)-3*
G04 #@! TF.CreationDate,2019-02-20T08:20:08+01:00*
G04 #@! TF.ProjectId,THERMOSTAT,544845524D4F535441542E6B69636164,rev?*
G04 #@! TF.SameCoordinates,Original*
G04 #@! TF.FileFunction,Copper,L1,Top,Signal*
G04 #@! TF.FilePolarity,Positive*
%FSLAX46Y46*%
G04 Gerber Fmt 4.6, Leading zero omitted, Abs format (unit mm)*
G04 Created by KiCad (PCBNEW (5.0.1)-3) date 2/20/2019 8:20:08 AM*
%MOMM*%
%LPD*%
G01*
G04 APERTURE LIST*
G04 #@! TA.AperFunction,ComponentPad*
%ADD10C,1.600000*%
G04 #@! TD*
G04 #@! TA.AperFunction,ComponentPad*
%ADD11C,1.778000*%
G04 #@! TD*
G04 #@! TA.AperFunction,ComponentPad*
%ADD12R,1.800000X1.800000*%
G04 #@! TD*
G04 #@! TA.AperFunction,ComponentPad*
%ADD13C,1.800000*%
G04 #@! TD*
G04 #@! TA.AperFunction,ComponentPad*
%ADD14O,1.600000X1.600000*%
G04 #@! TD*
G04 #@! TA.AperFunction,Conductor*
%ADD15C,0.300000*%
G04 #@! TD*
G04 #@! TA.AperFunction,Conductor*
%ADD16C,0.500000*%
G04 #@! TD*
G04 #@! TA.AperFunction,Conductor*
%ADD17C,1.000000*%
G04 #@! TD*
G04 APERTURE END LIST*
D10*
G04 #@! TO.P,1K_OHM1,1*
G04 #@! TO.N,Net-(1K_OHM1-Pad1)*
X153035000Y-97155000D03*
G04 #@! TO.P,1K_OHM1,2*
G04 #@! TO.N,Net-(1K_OHM1-Pad2)*
X168275000Y-97155000D03*
G04 #@! TD*
D11*
G04 #@! TO.P,TRIAC1,1*
G04 #@! TO.N,Net-(TERMINAL1-Pad3)*
X150495000Y-92075000D03*
G04 #@! TO.P,TRIAC1,2*
G04 #@! TO.N,Net-(1K_OHM1-Pad1)*
X153035000Y-92075000D03*
G04 #@! TO.P,TRIAC1,3*
G04 #@! TO.N,Net-(MOC1-Pad4)*
X155575000Y-92075000D03*
G04 #@! TD*
D10*
G04 #@! TO.P,HLKPM01,3*
G04 #@! TO.N,Net-(DHT1-Pad4)*
X135890000Y-80010000D03*
G04 #@! TO.P,HLKPM01,4*
G04 #@! TO.N,Net-(DHT1-Pad1)*
X135890000Y-95250000D03*
G04 #@! TO.P,HLKPM01,1*
G04 #@! TO.N,Net-(HLKPM01-Pad1)*
X165100000Y-85090000D03*
G04 #@! TO.P,HLKPM01,2*
G04 #@! TO.N,Net-(1K_OHM1-Pad1)*
X165100000Y-90170000D03*
G04 #@! TD*
D12*
G04 #@! TO.P,MOC1,1*
G04 #@! TO.N,Net-(220_OHM1-Pad1)*
X168910000Y-77470000D03*
D13*
G04 #@! TO.P,MOC1,4*
G04 #@! TO.N,Net-(MOC1-Pad4)*
X161290000Y-72390000D03*
G04 #@! TO.P,MOC1,2*
G04 #@! TO.N,Net-(DHT1-Pad4)*
X168910000Y-74930000D03*
G04 #@! TO.P,MOC1,5*
G04 #@! TO.N,Net-(MOC1-Pad5)*
X161290000Y-74930000D03*
G04 #@! TO.P,MOC1,3*
G04 #@! TO.N,Net-(MOC1-Pad3)*
X168910000Y-72390000D03*
G04 #@! TO.P,MOC1,6*
G04 #@! TO.N,Net-(1K_OHM1-Pad2)*
X161290000Y-77470000D03*
G04 #@! TD*
D10*
G04 #@! TO.P,220_OHM1,1*
G04 #@! TO.N,Net-(220_OHM1-Pad1)*
X156210000Y-71755000D03*
D14*
G04 #@! TO.P,220_OHM1,2*
G04 #@! TO.N,Net-(220_OHM1-Pad2)*
X148590000Y-71755000D03*
G04 #@! TD*
D13*
G04 #@! TO.P,ESP1,16*
G04 #@! TO.N,Net-(ESP1-Pad16)*
X144780000Y-78740000D03*
G04 #@! TO.P,ESP1,15*
G04 #@! TO.N,Net-(220_OHM1-Pad2)*
X144780000Y-81280000D03*
G04 #@! TO.P,ESP1,14*
G04 #@! TO.N,Net-(ESP1-Pad14)*
X144780000Y-83820000D03*
G04 #@! TO.P,ESP1,13*
G04 #@! TO.N,Net-(DHT1-Pad2)*
X144780000Y-86360000D03*
G04 #@! TO.P,ESP1,12*
G04 #@! TO.N,Net-(ESP1-Pad12)*
X144780000Y-88900000D03*
G04 #@! TO.P,ESP1,11*
G04 #@! TO.N,Net-(ESP1-Pad11)*
X144780000Y-91440000D03*
G04 #@! TO.P,ESP1,10*
G04 #@! TO.N,Net-(ESP1-Pad10)*
X144780000Y-93980000D03*
G04 #@! TO.P,ESP1,9*
G04 #@! TO.N,Net-(ESP1-Pad9)*
X144780000Y-96520000D03*
G04 #@! TO.P,ESP1,8*
G04 #@! TO.N,Net-(DHT1-Pad1)*
X121920000Y-78740000D03*
G04 #@! TO.P,ESP1,7*
G04 #@! TO.N,Net-(DHT1-Pad4)*
X121920000Y-81280000D03*
G04 #@! TO.P,ESP1,6*
G04 #@! TO.N,Net-(ESP1-Pad6)*
X121920000Y-83820000D03*
G04 #@! TO.P,ESP1,5*
G04 #@! TO.N,Net-(ESP1-Pad5)*
X121920000Y-86360000D03*
G04 #@! TO.P,ESP1,4*
G04 #@! TO.N,Net-(ESP1-Pad4)*
X121920000Y-88900000D03*
G04 #@! TO.P,ESP1,3*
G04 #@! TO.N,Net-(ESP1-Pad3)*
X121920000Y-91440000D03*
G04 #@! TO.P,ESP1,2*
G04 #@! TO.N,Net-(ESP1-Pad2)*
X121920000Y-93980000D03*
G04 #@! TO.P,ESP1,1*
G04 #@! TO.N,Net-(ESP1-Pad1)*
X121920000Y-96520000D03*
G04 #@! TD*
G04 #@! TO.P,DHTEXT1,3*
G04 #@! TO.N,Net-(DHT1-Pad4)*
X146050000Y-107315000D03*
G04 #@! TO.P,DHTEXT1,2*
G04 #@! TO.N,Net-(DHT1-Pad2)*
X140970000Y-107315000D03*
G04 #@! TO.P,DHTEXT1,1*
G04 #@! TO.N,Net-(DHT1-Pad1)*
X135890000Y-107315000D03*
G04 #@! TO.P,DHTEXT1,3*
G04 #@! TO.N,Net-(DHT1-Pad4)*
X146050000Y-102235000D03*
G04 #@! TO.P,DHTEXT1,2*
G04 #@! TO.N,Net-(DHT1-Pad2)*
X140970000Y-102235000D03*
G04 #@! TO.P,DHTEXT1,1*
G04 #@! TO.N,Net-(DHT1-Pad1)*
X135890000Y-102235000D03*
G04 #@! TD*
G04 #@! TO.P,TERMINAL1,3*
G04 #@! TO.N,Net-(TERMINAL1-Pad3)*
X165100000Y-107315000D03*
G04 #@! TO.P,TERMINAL1,2*
G04 #@! TO.N,Net-(HLKPM01-Pad1)*
X160020000Y-107315000D03*
G04 #@! TO.P,TERMINAL1,1*
G04 #@! TO.N,Net-(1K_OHM1-Pad1)*
X154940000Y-107315000D03*
G04 #@! TO.P,TERMINAL1,3*
G04 #@! TO.N,Net-(TERMINAL1-Pad3)*
X165100000Y-102235000D03*
G04 #@! TO.P,TERMINAL1,2*
G04 #@! TO.N,Net-(HLKPM01-Pad1)*
X160020000Y-102235000D03*
G04 #@! TO.P,TERMINAL1,1*
G04 #@! TO.N,Net-(1K_OHM1-Pad1)*
X154940000Y-102235000D03*
G04 #@! TD*
G04 #@! TO.P,TouchUp1,3*
G04 #@! TO.N,Net-(DHT1-Pad4)*
X172085000Y-125095000D03*
G04 #@! TO.P,TouchUp1,2*
G04 #@! TO.N,Net-(ESP1-Pad4)*
X174625000Y-125095000D03*
G04 #@! TO.P,TouchUp1,1*
G04 #@! TO.N,Net-(DHT1-Pad1)*
X177165000Y-125095000D03*
G04 #@! TD*
G04 #@! TO.P,DHT1,4*
G04 #@! TO.N,Net-(DHT1-Pad4)*
X184150000Y-101600000D03*
G04 #@! TO.P,DHT1,3*
G04 #@! TO.N,Net-(DHT1-Pad3)*
X181610000Y-101600000D03*
G04 #@! TO.P,DHT1,2*
G04 #@! TO.N,Net-(DHT1-Pad2)*
X179070000Y-101600000D03*
G04 #@! TO.P,DHT1,1*
G04 #@! TO.N,Net-(DHT1-Pad1)*
X176530000Y-101600000D03*
G04 #@! TD*
G04 #@! TO.P,TouchDown1,3*
G04 #@! TO.N,Net-(DHT1-Pad4)*
X123825000Y-125095000D03*
G04 #@! TO.P,TouchDown1,2*
G04 #@! TO.N,Net-(ESP1-Pad11)*
X126365000Y-125095000D03*
G04 #@! TO.P,TouchDown1,1*
G04 #@! TO.N,Net-(DHT1-Pad1)*
X128905000Y-125095000D03*
G04 #@! TD*
G04 #@! TO.P,TFT1,14*
G04 #@! TO.N,Net-(TFT1-Pad14)*
X114300000Y-105410000D03*
G04 #@! TO.P,TFT1,13*
G04 #@! TO.N,Net-(TFT1-Pad13)*
X114300000Y-102870000D03*
G04 #@! TO.P,TFT1,12*
G04 #@! TO.N,Net-(TFT1-Pad12)*
X114300000Y-100330000D03*
G04 #@! TO.P,TFT1,11*
G04 #@! TO.N,Net-(TFT1-Pad11)*
X114300000Y-97790000D03*
G04 #@! TO.P,TFT1,10*
G04 #@! TO.N,Net-(TFT1-Pad10)*
X114300000Y-95250000D03*
G04 #@! TO.P,TFT1,9*
G04 #@! TO.N,Net-(TFT1-Pad9)*
X114300000Y-92710000D03*
G04 #@! TO.P,TFT1,8*
G04 #@! TO.N,Net-(ESP1-Pad2)*
X114300000Y-90170000D03*
G04 #@! TO.P,TFT1,7*
G04 #@! TO.N,Net-(ESP1-Pad12)*
X114300000Y-87630000D03*
G04 #@! TO.P,TFT1,6*
G04 #@! TO.N,Net-(ESP1-Pad14)*
X114300000Y-85090000D03*
G04 #@! TO.P,TFT1,5*
G04 #@! TO.N,Net-(ESP1-Pad6)*
X114300000Y-82550000D03*
G04 #@! TO.P,TFT1,4*
G04 #@! TO.N,Net-(ESP1-Pad9)*
X114300000Y-80010000D03*
G04 #@! TO.P,TFT1,3*
G04 #@! TO.N,Net-(ESP1-Pad3)*
X114300000Y-77470000D03*
G04 #@! TO.P,TFT1,2*
G04 #@! TO.N,Net-(DHT1-Pad4)*
X114300000Y-74930000D03*
G04 #@! TO.P,TFT1,1*
G04 #@! TO.N,Net-(DHT1-Pad1)*
X114300000Y-72390000D03*
G04 #@! TD*
D15*
G04 #@! TO.N,Net-(ESP1-Pad3)*
X113027208Y-77470000D02*
X111760000Y-78737208D01*
X114300000Y-77470000D02*
X113027208Y-77470000D01*
X117475000Y-109220000D02*
X118745000Y-107950000D01*
X111760000Y-78737208D02*
X111760000Y-107950000D01*
X117475000Y-109220000D02*
X113030000Y-109220000D01*
X111760000Y-107950000D02*
X113030000Y-109220000D01*
X118745000Y-93345000D02*
X118745000Y-107950000D01*
X120015000Y-91440000D02*
X118745000Y-92710000D01*
X121920000Y-91440000D02*
X120015000Y-91440000D01*
X118745000Y-92710000D02*
X118745000Y-93345000D01*
D16*
G04 #@! TO.N,Net-(DHT1-Pad2)*
X140970000Y-113030000D02*
X140970000Y-107315000D01*
X146685000Y-118745000D02*
X140970000Y-113030000D01*
X170180000Y-118745000D02*
X146685000Y-118745000D01*
X179070000Y-101600000D02*
X179070000Y-109855000D01*
X179070000Y-109855000D02*
X170180000Y-118745000D01*
X140970000Y-107315000D02*
X140970000Y-102235000D01*
X142240000Y-86360000D02*
X140970000Y-87630000D01*
X144780000Y-86360000D02*
X142240000Y-86360000D01*
X140970000Y-102235000D02*
X140970000Y-87630000D01*
D15*
G04 #@! TO.N,Net-(ESP1-Pad6)*
X114300000Y-82550000D02*
X118110000Y-82550000D01*
X118110000Y-82550000D02*
X119380000Y-83820000D01*
X119380000Y-83820000D02*
X121920000Y-83820000D01*
D17*
G04 #@! TO.N,Net-(220_OHM1-Pad1)*
X156210000Y-71755000D02*
X156210000Y-69215000D01*
X156210000Y-69215000D02*
X157480000Y-67945000D01*
X157480000Y-67945000D02*
X169545000Y-67945000D01*
X169545000Y-67945000D02*
X172720000Y-71120000D01*
X172720000Y-71120000D02*
X172720000Y-76200000D01*
X171450000Y-77470000D02*
X168910000Y-77470000D01*
X172720000Y-76200000D02*
X171450000Y-77470000D01*
G04 #@! TO.N,Net-(220_OHM1-Pad2)*
X144780000Y-81280000D02*
X146685000Y-81280000D01*
X148590000Y-79375000D02*
X148590000Y-71755000D01*
X146685000Y-81280000D02*
X148590000Y-79375000D01*
G04 #@! TO.N,Net-(1K_OHM1-Pad1)*
X154940000Y-107315000D02*
X154940000Y-102235000D01*
X153035000Y-93980000D02*
X153035000Y-92075000D01*
X153035000Y-92075000D02*
X153035000Y-97155000D01*
X153035000Y-100330000D02*
X154940000Y-102235000D01*
X153035000Y-97155000D02*
X153035000Y-100330000D01*
X153035000Y-92075000D02*
X153035000Y-89535000D01*
X153035000Y-89535000D02*
X153670000Y-88900000D01*
X161925000Y-88900000D02*
X163195000Y-90170000D01*
X153670000Y-88900000D02*
X161925000Y-88900000D01*
X163195000Y-90170000D02*
X165100000Y-90170000D01*
G04 #@! TO.N,Net-(DHT1-Pad1)*
X177165000Y-125095000D02*
X177165000Y-131445000D01*
X177165000Y-131445000D02*
X173355000Y-135255000D01*
X131445000Y-135255000D02*
X128905000Y-132715000D01*
X128905000Y-132715000D02*
X128905000Y-125095000D01*
X123190000Y-63500000D02*
X130175000Y-63500000D01*
X173355000Y-135255000D02*
X153035000Y-135255000D01*
X153035000Y-135255000D02*
X131445000Y-135255000D01*
X130175000Y-63500000D02*
X146050000Y-63500000D01*
X146050000Y-63500000D02*
X147320000Y-63500000D01*
X121920000Y-64770000D02*
X123190000Y-63500000D01*
X147320000Y-63500000D02*
X160020000Y-63500000D01*
X135890000Y-95250000D02*
X135890000Y-102235000D01*
X135890000Y-102235000D02*
X135890000Y-107315000D01*
X135890000Y-85725000D02*
X135890000Y-95250000D01*
X176530000Y-101600000D02*
X176530000Y-71120000D01*
X168910000Y-63500000D02*
X164465000Y-63500000D01*
X176530000Y-71120000D02*
X168910000Y-63500000D01*
X160020000Y-63500000D02*
X164465000Y-63500000D01*
X164465000Y-63500000D02*
X165100000Y-63500000D01*
X121920000Y-78740000D02*
X128905000Y-78740000D01*
X128905000Y-78740000D02*
X135890000Y-85725000D01*
X118745000Y-74295000D02*
X118745000Y-77470000D01*
X120015000Y-78740000D02*
X118745000Y-77470000D01*
X121920000Y-78740000D02*
X120015000Y-78740000D01*
X118745000Y-67945000D02*
X121920000Y-64770000D01*
X118745000Y-74295000D02*
X118745000Y-67945000D01*
X114300000Y-72390000D02*
X118745000Y-72390000D01*
X128905000Y-121920000D02*
X135890000Y-114935000D01*
X128905000Y-125095000D02*
X128905000Y-121920000D01*
X135890000Y-114935000D02*
X135890000Y-107315000D01*
G04 #@! TO.N,Net-(TERMINAL1-Pad3)*
X150495000Y-93332235D02*
X149225000Y-94602235D01*
X150495000Y-92075000D02*
X150495000Y-93332235D01*
X165100000Y-107315000D02*
X165100000Y-109220000D01*
X165100000Y-109220000D02*
X160655000Y-113665000D01*
X153670000Y-113665000D02*
X160655000Y-113665000D01*
X151130000Y-111125000D02*
X151130000Y-100965000D01*
X151130000Y-111125000D02*
X153670000Y-113665000D01*
X151130000Y-100965000D02*
X149225000Y-99060000D01*
X149225000Y-99060000D02*
X149225000Y-94602235D01*
X165100000Y-107315000D02*
X165100000Y-102235000D01*
G04 #@! TD*
M02*
