M48
;DRILL file {KiCad (5.0.1)-3} date 2/20/2019 8:20:04 AM
;FORMAT={-:-/ absolute / inch / decimal}
FMAT,2
INCH,TZ
T1C0.0394
T2C0.0400
%
G90
G05
M72
T1
X4.8Y-3.1
X4.8Y-3.2
X4.8Y-3.3
X4.8Y-3.4
X4.8Y-3.5
X4.8Y-3.6
X4.8Y-3.7
X4.8Y-3.8
X5.7Y-3.1
X5.7Y-3.2
X5.7Y-3.3
X5.7Y-3.4
X5.7Y-3.5
X5.7Y-3.6
X5.7Y-3.7
X5.7Y-3.8
X6.35Y-2.85
X6.35Y-2.95
X6.35Y-3.05
X6.65Y-2.85
X6.65Y-2.95
X6.65Y-3.05
X5.85Y-2.825
X6.15Y-2.825
X6.775Y-4.925
X6.875Y-4.925
X6.975Y-4.925
X4.5Y-2.85
X4.5Y-2.95
X4.5Y-3.05
X4.5Y-3.15
X4.5Y-3.25
X4.5Y-3.35
X4.5Y-3.45
X4.5Y-3.55
X4.5Y-3.65
X4.5Y-3.75
X4.5Y-3.85
X4.5Y-3.95
X4.5Y-4.05
X4.5Y-4.15
X5.35Y-4.025
X5.35Y-4.225
X5.55Y-4.025
X5.55Y-4.225
X5.75Y-4.025
X5.75Y-4.225
X5.35Y-3.15
X5.35Y-3.75
X6.5Y-3.35
X6.5Y-3.55
X6.025Y-3.825
X6.625Y-3.825
X4.875Y-4.925
X4.975Y-4.925
X5.075Y-4.925
X6.95Y-4.
X7.05Y-4.
X7.15Y-4.
X7.25Y-4.
X6.1Y-4.025
X6.1Y-4.225
X6.3Y-4.025
X6.3Y-4.225
X6.5Y-4.025
X6.5Y-4.225
T2
X5.925Y-3.625
X6.025Y-3.625
X6.125Y-3.625
T0
M30
