M48
;DRILL file {KiCad (5.0.1)-3} date 11/11/2018 1:08:18 PM
;FORMAT={-:-/ absolute / inch / decimal}
FMAT,2
INCH,TZ
T1C0.0157
T2C0.0300
%
G90
G05
M72
T1
X0.475Y-0.65
T2
X0.225Y-2.3
X0.325Y-2.3
X0.425Y-2.3
X1.525Y-0.5
X1.525Y-0.7
X1.725Y-0.5
X1.725Y-0.7
X1.525Y-0.95
X1.525Y-1.25
X1.525Y-1.65
X1.525Y-1.75
X2.725Y-2.3
X2.825Y-2.3
X2.925Y-2.3
X0.4Y-0.8
X0.4Y-0.9
X0.4Y-1.
X0.4Y-1.1
X0.4Y-1.2
X0.4Y-1.3
X0.4Y-1.4
X0.4Y-1.5
X1.3Y-0.8
X1.3Y-0.9
X1.3Y-1.
X1.3Y-1.1
X1.3Y-1.2
X1.3Y-1.3
X1.3Y-1.4
X1.3Y-1.5
X1.825Y-0.95
X1.825Y-1.15
X2.025Y-0.95
X2.025Y-1.15
X1.825Y-1.55
X1.825Y-1.75
X2.025Y-1.55
X2.025Y-1.75
X1.2Y-0.275
X1.2Y-0.5
X2.25Y-0.125
X2.25Y-0.325
X2.6Y-1.65
X2.7Y-1.65
X2.8Y-1.65
X2.9Y-1.65
X0.15Y-0.475
X0.15Y-0.575
X0.15Y-0.675
X0.15Y-0.775
X0.15Y-0.875
X0.15Y-0.975
X0.15Y-1.075
X0.15Y-1.175
X0.15Y-1.275
X0.15Y-1.375
X0.15Y-1.475
X0.15Y-1.575
X0.15Y-1.675
X0.15Y-1.775
X1.475Y-2.3
X1.575Y-2.3
X1.675Y-2.3
T0
M30
