G04 #@! TF.GenerationSoftware,KiCad,Pcbnew,(5.0.1)-3*
G04 #@! TF.CreationDate,2018-11-11T13:08:13+01:00*
G04 #@! TF.ProjectId,THERMOSTAT,544845524D4F535441542E6B69636164,rev?*
G04 #@! TF.SameCoordinates,Original*
G04 #@! TF.FileFunction,Legend,Top*
G04 #@! TF.FilePolarity,Positive*
%FSLAX46Y46*%
G04 Gerber Fmt 4.6, Leading zero omitted, Abs format (unit mm)*
G04 Created by KiCad (PCBNEW (5.0.1)-3) date 11/11/2018 1:08:13 PM*
%MOMM*%
%LPD*%
G01*
G04 APERTURE LIST*
%ADD10C,0.300000*%
%ADD11C,0.150000*%
G04 APERTURE END LIST*
D10*
X26076428Y-78640714D02*
X26005000Y-78712142D01*
X25790714Y-78783571D01*
X25647857Y-78783571D01*
X25433571Y-78712142D01*
X25290714Y-78569285D01*
X25219285Y-78426428D01*
X25147857Y-78140714D01*
X25147857Y-77926428D01*
X25219285Y-77640714D01*
X25290714Y-77497857D01*
X25433571Y-77355000D01*
X25647857Y-77283571D01*
X25790714Y-77283571D01*
X26005000Y-77355000D01*
X26076428Y-77426428D01*
X26933571Y-78783571D02*
X26790714Y-78712142D01*
X26719285Y-78640714D01*
X26647857Y-78497857D01*
X26647857Y-78069285D01*
X26719285Y-77926428D01*
X26790714Y-77855000D01*
X26933571Y-77783571D01*
X27147857Y-77783571D01*
X27290714Y-77855000D01*
X27362142Y-77926428D01*
X27433571Y-78069285D01*
X27433571Y-78497857D01*
X27362142Y-78640714D01*
X27290714Y-78712142D01*
X27147857Y-78783571D01*
X26933571Y-78783571D01*
X28076428Y-77783571D02*
X28076428Y-79283571D01*
X28076428Y-77855000D02*
X28219285Y-77783571D01*
X28505000Y-77783571D01*
X28647857Y-77855000D01*
X28719285Y-77926428D01*
X28790714Y-78069285D01*
X28790714Y-78497857D01*
X28719285Y-78640714D01*
X28647857Y-78712142D01*
X28505000Y-78783571D01*
X28219285Y-78783571D01*
X28076428Y-78712142D01*
X29290714Y-77783571D02*
X29647857Y-78783571D01*
X30005000Y-77783571D02*
X29647857Y-78783571D01*
X29505000Y-79140714D01*
X29433571Y-79212142D01*
X29290714Y-79283571D01*
X30576428Y-78783571D02*
X30576428Y-77783571D01*
X30576428Y-78069285D02*
X30647857Y-77926428D01*
X30719285Y-77855000D01*
X30862142Y-77783571D01*
X31005000Y-77783571D01*
X31505000Y-78783571D02*
X31505000Y-77783571D01*
X31505000Y-77283571D02*
X31433571Y-77355000D01*
X31505000Y-77426428D01*
X31576428Y-77355000D01*
X31505000Y-77283571D01*
X31505000Y-77426428D01*
X32862142Y-77783571D02*
X32862142Y-78997857D01*
X32790714Y-79140714D01*
X32719285Y-79212142D01*
X32576428Y-79283571D01*
X32362142Y-79283571D01*
X32219285Y-79212142D01*
X32862142Y-78712142D02*
X32719285Y-78783571D01*
X32433571Y-78783571D01*
X32290714Y-78712142D01*
X32219285Y-78640714D01*
X32147857Y-78497857D01*
X32147857Y-78069285D01*
X32219285Y-77926428D01*
X32290714Y-77855000D01*
X32433571Y-77783571D01*
X32719285Y-77783571D01*
X32862142Y-77855000D01*
X33576428Y-78783571D02*
X33576428Y-77283571D01*
X34219285Y-78783571D02*
X34219285Y-77997857D01*
X34147857Y-77855000D01*
X34005000Y-77783571D01*
X33790714Y-77783571D01*
X33647857Y-77855000D01*
X33576428Y-77926428D01*
X34719285Y-77783571D02*
X35290714Y-77783571D01*
X34933571Y-77283571D02*
X34933571Y-78569285D01*
X35005000Y-78712142D01*
X35147857Y-78783571D01*
X35290714Y-78783571D01*
X36862142Y-77426428D02*
X36933571Y-77355000D01*
X37076428Y-77283571D01*
X37433571Y-77283571D01*
X37576428Y-77355000D01*
X37647857Y-77426428D01*
X37719285Y-77569285D01*
X37719285Y-77712142D01*
X37647857Y-77926428D01*
X36790714Y-78783571D01*
X37719285Y-78783571D01*
X38647857Y-77283571D02*
X38790714Y-77283571D01*
X38933571Y-77355000D01*
X39005000Y-77426428D01*
X39076428Y-77569285D01*
X39147857Y-77855000D01*
X39147857Y-78212142D01*
X39076428Y-78497857D01*
X39005000Y-78640714D01*
X38933571Y-78712142D01*
X38790714Y-78783571D01*
X38647857Y-78783571D01*
X38505000Y-78712142D01*
X38433571Y-78640714D01*
X38362142Y-78497857D01*
X38290714Y-78212142D01*
X38290714Y-77855000D01*
X38362142Y-77569285D01*
X38433571Y-77426428D01*
X38505000Y-77355000D01*
X38647857Y-77283571D01*
X40576428Y-78783571D02*
X39719285Y-78783571D01*
X40147857Y-78783571D02*
X40147857Y-77283571D01*
X40005000Y-77497857D01*
X39862142Y-77640714D01*
X39719285Y-77712142D01*
X41433571Y-77926428D02*
X41290714Y-77855000D01*
X41219285Y-77783571D01*
X41147857Y-77640714D01*
X41147857Y-77569285D01*
X41219285Y-77426428D01*
X41290714Y-77355000D01*
X41433571Y-77283571D01*
X41719285Y-77283571D01*
X41862142Y-77355000D01*
X41933571Y-77426428D01*
X42005000Y-77569285D01*
X42005000Y-77640714D01*
X41933571Y-77783571D01*
X41862142Y-77855000D01*
X41719285Y-77926428D01*
X41433571Y-77926428D01*
X41290714Y-77997857D01*
X41219285Y-78069285D01*
X41147857Y-78212142D01*
X41147857Y-78497857D01*
X41219285Y-78640714D01*
X41290714Y-78712142D01*
X41433571Y-78783571D01*
X41719285Y-78783571D01*
X41862142Y-78712142D01*
X41933571Y-78640714D01*
X42005000Y-78497857D01*
X42005000Y-78212142D01*
X41933571Y-78069285D01*
X41862142Y-77997857D01*
X41719285Y-77926428D01*
X42719285Y-78712142D02*
X42719285Y-78783571D01*
X42647857Y-78926428D01*
X42576428Y-78997857D01*
X45362142Y-78640714D02*
X45290714Y-78712142D01*
X45076428Y-78783571D01*
X44933571Y-78783571D01*
X44719285Y-78712142D01*
X44576428Y-78569285D01*
X44505000Y-78426428D01*
X44433571Y-78140714D01*
X44433571Y-77926428D01*
X44505000Y-77640714D01*
X44576428Y-77497857D01*
X44719285Y-77355000D01*
X44933571Y-77283571D01*
X45076428Y-77283571D01*
X45290714Y-77355000D01*
X45362142Y-77426428D01*
X46290714Y-77283571D02*
X46576428Y-77283571D01*
X46719285Y-77355000D01*
X46862142Y-77497857D01*
X46933571Y-77783571D01*
X46933571Y-78283571D01*
X46862142Y-78569285D01*
X46719285Y-78712142D01*
X46576428Y-78783571D01*
X46290714Y-78783571D01*
X46147857Y-78712142D01*
X46005000Y-78569285D01*
X45933571Y-78283571D01*
X45933571Y-77783571D01*
X46005000Y-77497857D01*
X46147857Y-77355000D01*
X46290714Y-77283571D01*
X47433571Y-77283571D02*
X48433571Y-77283571D01*
X47433571Y-78783571D01*
X48433571Y-78783571D01*
X49290714Y-78069285D02*
X49290714Y-78783571D01*
X48790714Y-77283571D02*
X49290714Y-78069285D01*
X49790714Y-77283571D01*
X51433571Y-78783571D02*
X51433571Y-77283571D01*
X52147857Y-77783571D02*
X52147857Y-78783571D01*
X52147857Y-77926428D02*
X52219285Y-77855000D01*
X52362142Y-77783571D01*
X52576428Y-77783571D01*
X52719285Y-77855000D01*
X52790714Y-77997857D01*
X52790714Y-78783571D01*
X54147857Y-78712142D02*
X54005000Y-78783571D01*
X53719285Y-78783571D01*
X53576428Y-78712142D01*
X53505000Y-78640714D01*
X53433571Y-78497857D01*
X53433571Y-78069285D01*
X53505000Y-77926428D01*
X53576428Y-77855000D01*
X53719285Y-77783571D01*
X54005000Y-77783571D01*
X54147857Y-77855000D01*
X54790714Y-78640714D02*
X54862142Y-78712142D01*
X54790714Y-78783571D01*
X54719285Y-78712142D01*
X54790714Y-78640714D01*
X54790714Y-78783571D01*
X21647857Y-75366428D02*
X21505000Y-75509285D01*
X21076428Y-75652142D01*
X20790714Y-75652142D01*
X20362142Y-75509285D01*
X20076428Y-75223571D01*
X19933571Y-74937857D01*
X19790714Y-74366428D01*
X19790714Y-73937857D01*
X19933571Y-73366428D01*
X20076428Y-73080714D01*
X20362142Y-72795000D01*
X20790714Y-72652142D01*
X21076428Y-72652142D01*
X21505000Y-72795000D01*
X21647857Y-72937857D01*
X23505000Y-72652142D02*
X24076428Y-72652142D01*
X24362142Y-72795000D01*
X24647857Y-73080714D01*
X24790714Y-73652142D01*
X24790714Y-74652142D01*
X24647857Y-75223571D01*
X24362142Y-75509285D01*
X24076428Y-75652142D01*
X23505000Y-75652142D01*
X23219285Y-75509285D01*
X22933571Y-75223571D01*
X22790714Y-74652142D01*
X22790714Y-73652142D01*
X22933571Y-73080714D01*
X23219285Y-72795000D01*
X23505000Y-72652142D01*
X25790714Y-72652142D02*
X27790714Y-72652142D01*
X25790714Y-75652142D01*
X27790714Y-75652142D01*
X29504999Y-74223571D02*
X29504999Y-75652142D01*
X28504999Y-72652142D02*
X29504999Y-74223571D01*
X30504999Y-72652142D01*
X33362142Y-72652142D02*
X35076428Y-72652142D01*
X34219285Y-75652142D02*
X34219285Y-72652142D01*
X36076428Y-75652142D02*
X36076428Y-72652142D01*
X36076428Y-74080714D02*
X37790714Y-74080714D01*
X37790714Y-75652142D02*
X37790714Y-72652142D01*
X39219285Y-74080714D02*
X40219285Y-74080714D01*
X40647857Y-75652142D02*
X39219285Y-75652142D01*
X39219285Y-72652142D01*
X40647857Y-72652142D01*
X43647857Y-75652142D02*
X42647857Y-74223571D01*
X41933571Y-75652142D02*
X41933571Y-72652142D01*
X43076428Y-72652142D01*
X43362142Y-72795000D01*
X43505000Y-72937857D01*
X43647857Y-73223571D01*
X43647857Y-73652142D01*
X43505000Y-73937857D01*
X43362142Y-74080714D01*
X43076428Y-74223571D01*
X41933571Y-74223571D01*
X44933571Y-75652142D02*
X44933571Y-72652142D01*
X45933571Y-74795000D01*
X46933571Y-72652142D01*
X46933571Y-75652142D01*
X48933571Y-72652142D02*
X49505000Y-72652142D01*
X49790714Y-72795000D01*
X50076428Y-73080714D01*
X50219285Y-73652142D01*
X50219285Y-74652142D01*
X50076428Y-75223571D01*
X49790714Y-75509285D01*
X49505000Y-75652142D01*
X48933571Y-75652142D01*
X48647857Y-75509285D01*
X48362142Y-75223571D01*
X48219285Y-74652142D01*
X48219285Y-73652142D01*
X48362142Y-73080714D01*
X48647857Y-72795000D01*
X48933571Y-72652142D01*
X51362142Y-75509285D02*
X51790714Y-75652142D01*
X52504999Y-75652142D01*
X52790714Y-75509285D01*
X52933571Y-75366428D01*
X53076428Y-75080714D01*
X53076428Y-74795000D01*
X52933571Y-74509285D01*
X52790714Y-74366428D01*
X52504999Y-74223571D01*
X51933571Y-74080714D01*
X51647857Y-73937857D01*
X51504999Y-73795000D01*
X51362142Y-73509285D01*
X51362142Y-73223571D01*
X51504999Y-72937857D01*
X51647857Y-72795000D01*
X51933571Y-72652142D01*
X52647857Y-72652142D01*
X53076428Y-72795000D01*
X53933571Y-72652142D02*
X55647857Y-72652142D01*
X54790714Y-75652142D02*
X54790714Y-72652142D01*
X56505000Y-74795000D02*
X57933571Y-74795000D01*
X56219285Y-75652142D02*
X57219285Y-72652142D01*
X58219285Y-75652142D01*
X58790714Y-72652142D02*
X60505000Y-72652142D01*
X59647857Y-75652142D02*
X59647857Y-72652142D01*
X39624285Y-7433571D02*
X40124285Y-8933571D01*
X40624285Y-7433571D01*
X41910000Y-8933571D02*
X41052857Y-8933571D01*
X41481428Y-8933571D02*
X41481428Y-7433571D01*
X41338571Y-7647857D01*
X41195714Y-7790714D01*
X41052857Y-7862142D01*
X42552857Y-8790714D02*
X42624285Y-8862142D01*
X42552857Y-8933571D01*
X42481428Y-8862142D01*
X42552857Y-8790714D01*
X42552857Y-8933571D01*
X43552857Y-7433571D02*
X43695714Y-7433571D01*
X43838571Y-7505000D01*
X43910000Y-7576428D01*
X43981428Y-7719285D01*
X44052857Y-8005000D01*
X44052857Y-8362142D01*
X43981428Y-8647857D01*
X43910000Y-8790714D01*
X43838571Y-8862142D01*
X43695714Y-8933571D01*
X43552857Y-8933571D01*
X43410000Y-8862142D01*
X43338571Y-8790714D01*
X43267142Y-8647857D01*
X43195714Y-8362142D01*
X43195714Y-8005000D01*
X43267142Y-7719285D01*
X43338571Y-7576428D01*
X43410000Y-7505000D01*
X43552857Y-7433571D01*
X22917857Y-4881428D02*
X22775000Y-5024285D01*
X22346428Y-5167142D01*
X22060714Y-5167142D01*
X21632142Y-5024285D01*
X21346428Y-4738571D01*
X21203571Y-4452857D01*
X21060714Y-3881428D01*
X21060714Y-3452857D01*
X21203571Y-2881428D01*
X21346428Y-2595714D01*
X21632142Y-2310000D01*
X22060714Y-2167142D01*
X22346428Y-2167142D01*
X22775000Y-2310000D01*
X22917857Y-2452857D01*
X24775000Y-2167142D02*
X25346428Y-2167142D01*
X25632142Y-2310000D01*
X25917857Y-2595714D01*
X26060714Y-3167142D01*
X26060714Y-4167142D01*
X25917857Y-4738571D01*
X25632142Y-5024285D01*
X25346428Y-5167142D01*
X24775000Y-5167142D01*
X24489285Y-5024285D01*
X24203571Y-4738571D01*
X24060714Y-4167142D01*
X24060714Y-3167142D01*
X24203571Y-2595714D01*
X24489285Y-2310000D01*
X24775000Y-2167142D01*
X27060714Y-2167142D02*
X29060714Y-2167142D01*
X27060714Y-5167142D01*
X29060714Y-5167142D01*
X30774999Y-3738571D02*
X30774999Y-5167142D01*
X29774999Y-2167142D02*
X30774999Y-3738571D01*
X31774999Y-2167142D01*
X34632142Y-2167142D02*
X36346428Y-2167142D01*
X35489285Y-5167142D02*
X35489285Y-2167142D01*
X37346428Y-5167142D02*
X37346428Y-2167142D01*
X37346428Y-3595714D02*
X39060714Y-3595714D01*
X39060714Y-5167142D02*
X39060714Y-2167142D01*
X40489285Y-3595714D02*
X41489285Y-3595714D01*
X41917857Y-5167142D02*
X40489285Y-5167142D01*
X40489285Y-2167142D01*
X41917857Y-2167142D01*
X44917857Y-5167142D02*
X43917857Y-3738571D01*
X43203571Y-5167142D02*
X43203571Y-2167142D01*
X44346428Y-2167142D01*
X44632142Y-2310000D01*
X44775000Y-2452857D01*
X44917857Y-2738571D01*
X44917857Y-3167142D01*
X44775000Y-3452857D01*
X44632142Y-3595714D01*
X44346428Y-3738571D01*
X43203571Y-3738571D01*
X46203571Y-5167142D02*
X46203571Y-2167142D01*
X47203571Y-4310000D01*
X48203571Y-2167142D01*
X48203571Y-5167142D01*
X50203571Y-2167142D02*
X50775000Y-2167142D01*
X51060714Y-2310000D01*
X51346428Y-2595714D01*
X51489285Y-3167142D01*
X51489285Y-4167142D01*
X51346428Y-4738571D01*
X51060714Y-5024285D01*
X50775000Y-5167142D01*
X50203571Y-5167142D01*
X49917857Y-5024285D01*
X49632142Y-4738571D01*
X49489285Y-4167142D01*
X49489285Y-3167142D01*
X49632142Y-2595714D01*
X49917857Y-2310000D01*
X50203571Y-2167142D01*
X52632142Y-5024285D02*
X53060714Y-5167142D01*
X53774999Y-5167142D01*
X54060714Y-5024285D01*
X54203571Y-4881428D01*
X54346428Y-4595714D01*
X54346428Y-4310000D01*
X54203571Y-4024285D01*
X54060714Y-3881428D01*
X53774999Y-3738571D01*
X53203571Y-3595714D01*
X52917857Y-3452857D01*
X52774999Y-3310000D01*
X52632142Y-3024285D01*
X52632142Y-2738571D01*
X52774999Y-2452857D01*
X52917857Y-2310000D01*
X53203571Y-2167142D01*
X53917857Y-2167142D01*
X54346428Y-2310000D01*
X55203571Y-2167142D02*
X56917857Y-2167142D01*
X56060714Y-5167142D02*
X56060714Y-2167142D01*
X57775000Y-4310000D02*
X59203571Y-4310000D01*
X57489285Y-5167142D02*
X58489285Y-2167142D01*
X59489285Y-5167142D01*
X60060714Y-2167142D02*
X61775000Y-2167142D01*
X60917857Y-5167142D02*
X60917857Y-2167142D01*
D11*
G04 #@! TO.C,ACDC1*
X58420000Y0D02*
X58420000Y-20955000D01*
X58420000Y-20955000D02*
X28575000Y-20955000D01*
X28575000Y-20955000D02*
X28575000Y0D01*
X28575000Y0D02*
X58420000Y0D01*
G04 #@! TO.C,TouchUp1*
X78105000Y-71120000D02*
X65405000Y-71120000D01*
X65405000Y-71120000D02*
X65405000Y-55880000D01*
X65405000Y-55880000D02*
X78105000Y-55880000D01*
X78105000Y-55880000D02*
X78105000Y-71120000D01*
X75347102Y-66040000D02*
G75*
G03X75347102Y-66040000I-3592102J0D01*
G01*
G04 #@! TO.C,ESP1*
X8890000Y-12700000D02*
X34290000Y-12700000D01*
X34290000Y-12700000D02*
X34290000Y-46990000D01*
X34290000Y-46990000D02*
X8890000Y-46990000D01*
X8890000Y-46990000D02*
X8890000Y-12700000D01*
X15240000Y-12700000D02*
X15240000Y-30480000D01*
X15240000Y-30480000D02*
X26670000Y-30480000D01*
X26670000Y-30480000D02*
X27940000Y-30480000D01*
X27940000Y-30480000D02*
X27940000Y-12700000D01*
X27940000Y-12700000D02*
X16510000Y-12700000D01*
X16510000Y-19050000D02*
X16510000Y-29210000D01*
X16510000Y-29210000D02*
X26670000Y-29210000D01*
X26670000Y-29210000D02*
X26670000Y-17780000D01*
X26670000Y-17780000D02*
X16510000Y-17780000D01*
X16510000Y-17780000D02*
X16510000Y-19050000D01*
X26670000Y-16510000D02*
X26670000Y-13970000D01*
X26670000Y-13970000D02*
X24130000Y-13970000D01*
X24130000Y-13970000D02*
X24130000Y-16510000D01*
X24130000Y-16510000D02*
X21590000Y-16510000D01*
X21590000Y-16510000D02*
X21590000Y-13970000D01*
X21590000Y-13970000D02*
X19050000Y-13970000D01*
X19050000Y-13970000D02*
X19050000Y-16510000D01*
X19050000Y-16510000D02*
X16510000Y-16510000D01*
X16510000Y-16510000D02*
X16510000Y-13970000D01*
X19050000Y-46990000D02*
X19050000Y-43180000D01*
X19050000Y-43180000D02*
X24130000Y-43180000D01*
X24130000Y-43180000D02*
X24130000Y-46990000D01*
G04 #@! TO.C,DHT1*
X60960000Y-13970000D02*
X78740000Y-13970000D01*
X78740000Y-13970000D02*
X78740000Y-39370000D01*
X78740000Y-39370000D02*
X60960000Y-39370000D01*
X60960000Y-39370000D02*
X60960000Y-13970000D01*
X60960000Y-39370000D02*
X60960000Y-44450000D01*
X60960000Y-44450000D02*
X78740000Y-44450000D01*
X78740000Y-44450000D02*
X78740000Y-39370000D01*
X72390000Y-16510000D02*
G75*
G03X72390000Y-16510000I-2540000J0D01*
G01*
X63500000Y-21590000D02*
X76200000Y-21590000D01*
X76200000Y-21590000D02*
X76200000Y-24130000D01*
X76200000Y-24130000D02*
X63500000Y-24130000D01*
X63500000Y-24130000D02*
X63500000Y-26670000D01*
X63500000Y-26670000D02*
X76200000Y-26670000D01*
X76200000Y-26670000D02*
X76200000Y-29210000D01*
X76200000Y-29210000D02*
X63500000Y-29210000D01*
X63500000Y-29210000D02*
X63500000Y-31750000D01*
X63500000Y-31750000D02*
X76200000Y-31750000D01*
X76200000Y-31750000D02*
X76200000Y-34290000D01*
X76200000Y-34290000D02*
X63500000Y-34290000D01*
X63500000Y-34290000D02*
X63500000Y-36830000D01*
X63500000Y-36830000D02*
X76200000Y-36830000D01*
X76200000Y-36830000D02*
X76200000Y-21590000D01*
X76200000Y-21590000D02*
X63500000Y-21590000D01*
X63500000Y-21590000D02*
X63500000Y-34290000D01*
X66040000Y-21590000D02*
X66040000Y-36830000D01*
X66040000Y-36830000D02*
X68580000Y-36830000D01*
X68580000Y-36830000D02*
X68580000Y-21590000D01*
X68580000Y-21590000D02*
X71120000Y-21590000D01*
X71120000Y-21590000D02*
X71120000Y-36830000D01*
X71120000Y-36830000D02*
X73660000Y-36830000D01*
X73660000Y-36830000D02*
X73660000Y-21590000D01*
G04 #@! TO.C,LOUT1*
X46355000Y-31750000D02*
X53975000Y-31750000D01*
X53975000Y-31750000D02*
X53975000Y-21590000D01*
X53975000Y-21590000D02*
X43815000Y-21590000D01*
X43815000Y-21590000D02*
X43815000Y-31750000D01*
X43815000Y-31750000D02*
X46355000Y-31750000D01*
G04 #@! TO.C,ACIN1*
X43815000Y-46990000D02*
X46355000Y-46990000D01*
X43815000Y-36830000D02*
X43815000Y-46990000D01*
X53975000Y-36830000D02*
X43815000Y-36830000D01*
X53975000Y-46990000D02*
X53975000Y-36830000D01*
X46355000Y-46990000D02*
X53975000Y-46990000D01*
G04 #@! TO.C,5VIN1*
X38735000Y-20320000D02*
X46355000Y-20320000D01*
X46355000Y-20320000D02*
X46355000Y-10160000D01*
X46355000Y-10160000D02*
X36195000Y-10160000D01*
X36195000Y-10160000D02*
X36195000Y-20320000D01*
X36195000Y-20320000D02*
X38735000Y-20320000D01*
G04 #@! TO.C,TouchMenu1*
X43597102Y-66040000D02*
G75*
G03X43597102Y-66040000I-3592102J0D01*
G01*
X46355000Y-55880000D02*
X46355000Y-71120000D01*
X33655000Y-55880000D02*
X46355000Y-55880000D01*
X33655000Y-71120000D02*
X33655000Y-55880000D01*
X46355000Y-71120000D02*
X33655000Y-71120000D01*
G04 #@! TO.C,TouchDown1*
X14605000Y-71120000D02*
X1905000Y-71120000D01*
X1905000Y-71120000D02*
X1905000Y-55880000D01*
X1905000Y-55880000D02*
X14605000Y-55880000D01*
X14605000Y-55880000D02*
X14605000Y-71120000D01*
X11847102Y-66040000D02*
G75*
G03X11847102Y-66040000I-3592102J0D01*
G01*
G04 #@! TO.C,TFT1*
X1270000Y-47625000D02*
X1270000Y-9525000D01*
X1270000Y-9525000D02*
X6350000Y-9525000D01*
X6350000Y-9525000D02*
X6350000Y-47625000D01*
X1270000Y-47625000D02*
X6350000Y-47625000D01*
G04 #@! TO.C,OMRON1*
X36195000Y-21590000D02*
X36195000Y-46990000D01*
X36195000Y-46990000D02*
X41275000Y-46990000D01*
X41275000Y-46990000D02*
X41275000Y-21590000D01*
X41275000Y-21590000D02*
X36195000Y-21590000D01*
G04 #@! TO.C,ACDC1*
X48426666Y-13009285D02*
X48426666Y-12533095D01*
X48712380Y-13104523D02*
X47712380Y-12771190D01*
X48712380Y-12437857D01*
X48617142Y-11533095D02*
X48664761Y-11580714D01*
X48712380Y-11723571D01*
X48712380Y-11818809D01*
X48664761Y-11961666D01*
X48569523Y-12056904D01*
X48474285Y-12104523D01*
X48283809Y-12152142D01*
X48140952Y-12152142D01*
X47950476Y-12104523D01*
X47855238Y-12056904D01*
X47760000Y-11961666D01*
X47712380Y-11818809D01*
X47712380Y-11723571D01*
X47760000Y-11580714D01*
X47807619Y-11533095D01*
X48712380Y-11104523D02*
X47712380Y-11104523D01*
X47712380Y-10866428D01*
X47760000Y-10723571D01*
X47855238Y-10628333D01*
X47950476Y-10580714D01*
X48140952Y-10533095D01*
X48283809Y-10533095D01*
X48474285Y-10580714D01*
X48569523Y-10628333D01*
X48664761Y-10723571D01*
X48712380Y-10866428D01*
X48712380Y-11104523D01*
X48617142Y-9533095D02*
X48664761Y-9580714D01*
X48712380Y-9723571D01*
X48712380Y-9818809D01*
X48664761Y-9961666D01*
X48569523Y-10056904D01*
X48474285Y-10104523D01*
X48283809Y-10152142D01*
X48140952Y-10152142D01*
X47950476Y-10104523D01*
X47855238Y-10056904D01*
X47760000Y-9961666D01*
X47712380Y-9818809D01*
X47712380Y-9723571D01*
X47760000Y-9580714D01*
X47807619Y-9533095D01*
X48712380Y-8580714D02*
X48712380Y-9152142D01*
X48712380Y-8866428D02*
X47712380Y-8866428D01*
X47855238Y-8961666D01*
X47950476Y-9056904D01*
X47998095Y-9152142D01*
X55062380Y-3341666D02*
X55062380Y-3817857D01*
X54062380Y-3817857D01*
X55062380Y-2484523D02*
X55062380Y-3055952D01*
X55062380Y-2770238D02*
X54062380Y-2770238D01*
X54205238Y-2865476D01*
X54300476Y-2960714D01*
X54348095Y-3055952D01*
X55062380Y-8540714D02*
X54062380Y-8540714D01*
X55062380Y-7969285D01*
X54062380Y-7969285D01*
X33091428Y-8270714D02*
X33091428Y-7508809D01*
X33472380Y-7889761D02*
X32710476Y-7889761D01*
X32472380Y-6556428D02*
X32472380Y-7032619D01*
X32948571Y-7080238D01*
X32900952Y-7032619D01*
X32853333Y-6937380D01*
X32853333Y-6699285D01*
X32900952Y-6604047D01*
X32948571Y-6556428D01*
X33043809Y-6508809D01*
X33281904Y-6508809D01*
X33377142Y-6556428D01*
X33424761Y-6604047D01*
X33472380Y-6699285D01*
X33472380Y-6937380D01*
X33424761Y-7032619D01*
X33377142Y-7080238D01*
X32472380Y-6223095D02*
X33472380Y-5889761D01*
X32472380Y-5556428D01*
X33091428Y-13985714D02*
X33091428Y-13223809D01*
X32472380Y-12271428D02*
X32472380Y-12747619D01*
X32948571Y-12795238D01*
X32900952Y-12747619D01*
X32853333Y-12652380D01*
X32853333Y-12414285D01*
X32900952Y-12319047D01*
X32948571Y-12271428D01*
X33043809Y-12223809D01*
X33281904Y-12223809D01*
X33377142Y-12271428D01*
X33424761Y-12319047D01*
X33472380Y-12414285D01*
X33472380Y-12652380D01*
X33424761Y-12747619D01*
X33377142Y-12795238D01*
X32472380Y-11938095D02*
X33472380Y-11604761D01*
X32472380Y-11271428D01*
G04 #@! TO.C,Hole6*
X73660238Y-43242380D02*
X73660238Y-42242380D01*
X73660238Y-42718571D02*
X74231666Y-42718571D01*
X74231666Y-43242380D02*
X74231666Y-42242380D01*
X74850714Y-43242380D02*
X74755476Y-43194761D01*
X74707857Y-43147142D01*
X74660238Y-43051904D01*
X74660238Y-42766190D01*
X74707857Y-42670952D01*
X74755476Y-42623333D01*
X74850714Y-42575714D01*
X74993571Y-42575714D01*
X75088809Y-42623333D01*
X75136428Y-42670952D01*
X75184047Y-42766190D01*
X75184047Y-43051904D01*
X75136428Y-43147142D01*
X75088809Y-43194761D01*
X74993571Y-43242380D01*
X74850714Y-43242380D01*
X75755476Y-43242380D02*
X75660238Y-43194761D01*
X75612619Y-43099523D01*
X75612619Y-42242380D01*
X76517380Y-43194761D02*
X76422142Y-43242380D01*
X76231666Y-43242380D01*
X76136428Y-43194761D01*
X76088809Y-43099523D01*
X76088809Y-42718571D01*
X76136428Y-42623333D01*
X76231666Y-42575714D01*
X76422142Y-42575714D01*
X76517380Y-42623333D01*
X76565000Y-42718571D01*
X76565000Y-42813809D01*
X76088809Y-42909047D01*
X77422142Y-42242380D02*
X77231666Y-42242380D01*
X77136428Y-42290000D01*
X77088809Y-42337619D01*
X76993571Y-42480476D01*
X76945952Y-42670952D01*
X76945952Y-43051904D01*
X76993571Y-43147142D01*
X77041190Y-43194761D01*
X77136428Y-43242380D01*
X77326904Y-43242380D01*
X77422142Y-43194761D01*
X77469761Y-43147142D01*
X77517380Y-43051904D01*
X77517380Y-42813809D01*
X77469761Y-42718571D01*
X77422142Y-42670952D01*
X77326904Y-42623333D01*
X77136428Y-42623333D01*
X77041190Y-42670952D01*
X76993571Y-42718571D01*
X76945952Y-42813809D01*
G04 #@! TO.C,Hole5*
X73660238Y-6412380D02*
X73660238Y-5412380D01*
X73660238Y-5888571D02*
X74231666Y-5888571D01*
X74231666Y-6412380D02*
X74231666Y-5412380D01*
X74850714Y-6412380D02*
X74755476Y-6364761D01*
X74707857Y-6317142D01*
X74660238Y-6221904D01*
X74660238Y-5936190D01*
X74707857Y-5840952D01*
X74755476Y-5793333D01*
X74850714Y-5745714D01*
X74993571Y-5745714D01*
X75088809Y-5793333D01*
X75136428Y-5840952D01*
X75184047Y-5936190D01*
X75184047Y-6221904D01*
X75136428Y-6317142D01*
X75088809Y-6364761D01*
X74993571Y-6412380D01*
X74850714Y-6412380D01*
X75755476Y-6412380D02*
X75660238Y-6364761D01*
X75612619Y-6269523D01*
X75612619Y-5412380D01*
X76517380Y-6364761D02*
X76422142Y-6412380D01*
X76231666Y-6412380D01*
X76136428Y-6364761D01*
X76088809Y-6269523D01*
X76088809Y-5888571D01*
X76136428Y-5793333D01*
X76231666Y-5745714D01*
X76422142Y-5745714D01*
X76517380Y-5793333D01*
X76565000Y-5888571D01*
X76565000Y-5983809D01*
X76088809Y-6079047D01*
X77469761Y-5412380D02*
X76993571Y-5412380D01*
X76945952Y-5888571D01*
X76993571Y-5840952D01*
X77088809Y-5793333D01*
X77326904Y-5793333D01*
X77422142Y-5840952D01*
X77469761Y-5888571D01*
X77517380Y-5983809D01*
X77517380Y-6221904D01*
X77469761Y-6317142D01*
X77422142Y-6364761D01*
X77326904Y-6412380D01*
X77088809Y-6412380D01*
X76993571Y-6364761D01*
X76945952Y-6317142D01*
G04 #@! TO.C,TouchUp1*
X68231190Y-60412380D02*
X68802619Y-60412380D01*
X68516904Y-61412380D02*
X68516904Y-60412380D01*
X69278809Y-61412380D02*
X69183571Y-61364761D01*
X69135952Y-61317142D01*
X69088333Y-61221904D01*
X69088333Y-60936190D01*
X69135952Y-60840952D01*
X69183571Y-60793333D01*
X69278809Y-60745714D01*
X69421666Y-60745714D01*
X69516904Y-60793333D01*
X69564523Y-60840952D01*
X69612142Y-60936190D01*
X69612142Y-61221904D01*
X69564523Y-61317142D01*
X69516904Y-61364761D01*
X69421666Y-61412380D01*
X69278809Y-61412380D01*
X70469285Y-60745714D02*
X70469285Y-61412380D01*
X70040714Y-60745714D02*
X70040714Y-61269523D01*
X70088333Y-61364761D01*
X70183571Y-61412380D01*
X70326428Y-61412380D01*
X70421666Y-61364761D01*
X70469285Y-61317142D01*
X71374047Y-61364761D02*
X71278809Y-61412380D01*
X71088333Y-61412380D01*
X70993095Y-61364761D01*
X70945476Y-61317142D01*
X70897857Y-61221904D01*
X70897857Y-60936190D01*
X70945476Y-60840952D01*
X70993095Y-60793333D01*
X71088333Y-60745714D01*
X71278809Y-60745714D01*
X71374047Y-60793333D01*
X71802619Y-61412380D02*
X71802619Y-60412380D01*
X72231190Y-61412380D02*
X72231190Y-60888571D01*
X72183571Y-60793333D01*
X72088333Y-60745714D01*
X71945476Y-60745714D01*
X71850238Y-60793333D01*
X71802619Y-60840952D01*
X72707380Y-60412380D02*
X72707380Y-61221904D01*
X72755000Y-61317142D01*
X72802619Y-61364761D01*
X72897857Y-61412380D01*
X73088333Y-61412380D01*
X73183571Y-61364761D01*
X73231190Y-61317142D01*
X73278809Y-61221904D01*
X73278809Y-60412380D01*
X73755000Y-60745714D02*
X73755000Y-61745714D01*
X73755000Y-60793333D02*
X73850238Y-60745714D01*
X74040714Y-60745714D01*
X74135952Y-60793333D01*
X74183571Y-60840952D01*
X74231190Y-60936190D01*
X74231190Y-61221904D01*
X74183571Y-61317142D01*
X74135952Y-61364761D01*
X74040714Y-61412380D01*
X73850238Y-61412380D01*
X73755000Y-61364761D01*
X75183571Y-61412380D02*
X74612142Y-61412380D01*
X74897857Y-61412380D02*
X74897857Y-60412380D01*
X74802619Y-60555238D01*
X74707380Y-60650476D01*
X74612142Y-60698095D01*
X69524857Y-65492380D02*
X70096285Y-65492380D01*
X69810571Y-66492380D02*
X69810571Y-65492380D01*
X70620095Y-65492380D02*
X70810571Y-65492380D01*
X70905809Y-65540000D01*
X71001047Y-65635238D01*
X71048666Y-65825714D01*
X71048666Y-66159047D01*
X71001047Y-66349523D01*
X70905809Y-66444761D01*
X70810571Y-66492380D01*
X70620095Y-66492380D01*
X70524857Y-66444761D01*
X70429619Y-66349523D01*
X70382000Y-66159047D01*
X70382000Y-65825714D01*
X70429619Y-65635238D01*
X70524857Y-65540000D01*
X70620095Y-65492380D01*
X71477238Y-65492380D02*
X71477238Y-66301904D01*
X71524857Y-66397142D01*
X71572476Y-66444761D01*
X71667714Y-66492380D01*
X71858190Y-66492380D01*
X71953428Y-66444761D01*
X72001047Y-66397142D01*
X72048666Y-66301904D01*
X72048666Y-65492380D01*
X73096285Y-66397142D02*
X73048666Y-66444761D01*
X72905809Y-66492380D01*
X72810571Y-66492380D01*
X72667714Y-66444761D01*
X72572476Y-66349523D01*
X72524857Y-66254285D01*
X72477238Y-66063809D01*
X72477238Y-65920952D01*
X72524857Y-65730476D01*
X72572476Y-65635238D01*
X72667714Y-65540000D01*
X72810571Y-65492380D01*
X72905809Y-65492380D01*
X73048666Y-65540000D01*
X73096285Y-65587619D01*
X73524857Y-66492380D02*
X73524857Y-65492380D01*
X73524857Y-65968571D02*
X74096285Y-65968571D01*
X74096285Y-66492380D02*
X74096285Y-65492380D01*
X73747380Y-57213333D02*
X74747380Y-56880000D01*
X73747380Y-56546666D01*
X74652142Y-55641904D02*
X74699761Y-55689523D01*
X74747380Y-55832380D01*
X74747380Y-55927619D01*
X74699761Y-56070476D01*
X74604523Y-56165714D01*
X74509285Y-56213333D01*
X74318809Y-56260952D01*
X74175952Y-56260952D01*
X73985476Y-56213333D01*
X73890238Y-56165714D01*
X73795000Y-56070476D01*
X73747380Y-55927619D01*
X73747380Y-55832380D01*
X73795000Y-55689523D01*
X73842619Y-55641904D01*
X74652142Y-54641904D02*
X74699761Y-54689523D01*
X74747380Y-54832380D01*
X74747380Y-54927619D01*
X74699761Y-55070476D01*
X74604523Y-55165714D01*
X74509285Y-55213333D01*
X74318809Y-55260952D01*
X74175952Y-55260952D01*
X73985476Y-55213333D01*
X73890238Y-55165714D01*
X73795000Y-55070476D01*
X73747380Y-54927619D01*
X73747380Y-54832380D01*
X73795000Y-54689523D01*
X73842619Y-54641904D01*
X72207380Y-56403809D02*
X71207380Y-56403809D01*
X71207380Y-55737142D02*
X71207380Y-55546666D01*
X71255000Y-55451428D01*
X71350238Y-55356190D01*
X71540714Y-55308571D01*
X71874047Y-55308571D01*
X72064523Y-55356190D01*
X72159761Y-55451428D01*
X72207380Y-55546666D01*
X72207380Y-55737142D01*
X72159761Y-55832380D01*
X72064523Y-55927619D01*
X71874047Y-55975238D01*
X71540714Y-55975238D01*
X71350238Y-55927619D01*
X71255000Y-55832380D01*
X71207380Y-55737142D01*
X68715000Y-56641904D02*
X68667380Y-56737142D01*
X68667380Y-56880000D01*
X68715000Y-57022857D01*
X68810238Y-57118095D01*
X68905476Y-57165714D01*
X69095952Y-57213333D01*
X69238809Y-57213333D01*
X69429285Y-57165714D01*
X69524523Y-57118095D01*
X69619761Y-57022857D01*
X69667380Y-56880000D01*
X69667380Y-56784761D01*
X69619761Y-56641904D01*
X69572142Y-56594285D01*
X69238809Y-56594285D01*
X69238809Y-56784761D01*
X69667380Y-56165714D02*
X68667380Y-56165714D01*
X69667380Y-55594285D01*
X68667380Y-55594285D01*
X69667380Y-55118095D02*
X68667380Y-55118095D01*
X68667380Y-54880000D01*
X68715000Y-54737142D01*
X68810238Y-54641904D01*
X68905476Y-54594285D01*
X69095952Y-54546666D01*
X69238809Y-54546666D01*
X69429285Y-54594285D01*
X69524523Y-54641904D01*
X69619761Y-54737142D01*
X69667380Y-54880000D01*
X69667380Y-55118095D01*
G04 #@! TO.C,ESP1*
X23338332Y-26523570D02*
X23671665Y-26523570D01*
X23814522Y-27047379D02*
X23338332Y-27047379D01*
X23338332Y-26047379D01*
X23814522Y-26047379D01*
X24195475Y-26999760D02*
X24338332Y-27047379D01*
X24576427Y-27047379D01*
X24671665Y-26999760D01*
X24719284Y-26952141D01*
X24766903Y-26856903D01*
X24766903Y-26761665D01*
X24719284Y-26666427D01*
X24671665Y-26618808D01*
X24576427Y-26571189D01*
X24385951Y-26523570D01*
X24290713Y-26475951D01*
X24243094Y-26428332D01*
X24195475Y-26333094D01*
X24195475Y-26237856D01*
X24243094Y-26142618D01*
X24290713Y-26094999D01*
X24385951Y-26047379D01*
X24624046Y-26047379D01*
X24766903Y-26094999D01*
X25195475Y-27047379D02*
X25195475Y-26047379D01*
X25576427Y-26047379D01*
X25671665Y-26094999D01*
X25719284Y-26142618D01*
X25766903Y-26237856D01*
X25766903Y-26380713D01*
X25719284Y-26475951D01*
X25671665Y-26523570D01*
X25576427Y-26571189D01*
X25195475Y-26571189D01*
X26719284Y-27047379D02*
X26147856Y-27047379D01*
X26433570Y-27047379D02*
X26433570Y-26047379D01*
X26338332Y-26190237D01*
X26243094Y-26285475D01*
X26147856Y-26333094D01*
X29718095Y-19772380D02*
X30289523Y-19772380D01*
X30003809Y-20772380D02*
X30003809Y-19772380D01*
X30527619Y-19772380D02*
X31194285Y-20772380D01*
X31194285Y-19772380D02*
X30527619Y-20772380D01*
X30313333Y-23312380D02*
X29980000Y-22836190D01*
X29741904Y-23312380D02*
X29741904Y-22312380D01*
X30122857Y-22312380D01*
X30218095Y-22360000D01*
X30265714Y-22407619D01*
X30313333Y-22502857D01*
X30313333Y-22645714D01*
X30265714Y-22740952D01*
X30218095Y-22788571D01*
X30122857Y-22836190D01*
X29741904Y-22836190D01*
X30646666Y-22312380D02*
X31313333Y-23312380D01*
X31313333Y-22312380D02*
X30646666Y-23312380D01*
X29741904Y-25852380D02*
X29741904Y-24852380D01*
X29980000Y-24852380D01*
X30122857Y-24900000D01*
X30218095Y-24995238D01*
X30265714Y-25090476D01*
X30313333Y-25280952D01*
X30313333Y-25423809D01*
X30265714Y-25614285D01*
X30218095Y-25709523D01*
X30122857Y-25804761D01*
X29980000Y-25852380D01*
X29741904Y-25852380D01*
X31265714Y-25852380D02*
X30694285Y-25852380D01*
X30980000Y-25852380D02*
X30980000Y-24852380D01*
X30884761Y-24995238D01*
X30789523Y-25090476D01*
X30694285Y-25138095D01*
X29741904Y-28392380D02*
X29741904Y-27392380D01*
X29980000Y-27392380D01*
X30122857Y-27440000D01*
X30218095Y-27535238D01*
X30265714Y-27630476D01*
X30313333Y-27820952D01*
X30313333Y-27963809D01*
X30265714Y-28154285D01*
X30218095Y-28249523D01*
X30122857Y-28344761D01*
X29980000Y-28392380D01*
X29741904Y-28392380D01*
X30694285Y-27487619D02*
X30741904Y-27440000D01*
X30837142Y-27392380D01*
X31075238Y-27392380D01*
X31170476Y-27440000D01*
X31218095Y-27487619D01*
X31265714Y-27582857D01*
X31265714Y-27678095D01*
X31218095Y-27820952D01*
X30646666Y-28392380D01*
X31265714Y-28392380D01*
X29741904Y-30932380D02*
X29741904Y-29932380D01*
X29980000Y-29932380D01*
X30122857Y-29980000D01*
X30218095Y-30075238D01*
X30265714Y-30170476D01*
X30313333Y-30360952D01*
X30313333Y-30503809D01*
X30265714Y-30694285D01*
X30218095Y-30789523D01*
X30122857Y-30884761D01*
X29980000Y-30932380D01*
X29741904Y-30932380D01*
X30646666Y-29932380D02*
X31265714Y-29932380D01*
X30932380Y-30313333D01*
X31075238Y-30313333D01*
X31170476Y-30360952D01*
X31218095Y-30408571D01*
X31265714Y-30503809D01*
X31265714Y-30741904D01*
X31218095Y-30837142D01*
X31170476Y-30884761D01*
X31075238Y-30932380D01*
X30789523Y-30932380D01*
X30694285Y-30884761D01*
X30646666Y-30837142D01*
X29741904Y-33472380D02*
X29741904Y-32472380D01*
X29980000Y-32472380D01*
X30122857Y-32520000D01*
X30218095Y-32615238D01*
X30265714Y-32710476D01*
X30313333Y-32900952D01*
X30313333Y-33043809D01*
X30265714Y-33234285D01*
X30218095Y-33329523D01*
X30122857Y-33424761D01*
X29980000Y-33472380D01*
X29741904Y-33472380D01*
X31170476Y-32805714D02*
X31170476Y-33472380D01*
X30932380Y-32424761D02*
X30694285Y-33139047D01*
X31313333Y-33139047D01*
X29718095Y-35060000D02*
X29622857Y-35012380D01*
X29480000Y-35012380D01*
X29337142Y-35060000D01*
X29241904Y-35155238D01*
X29194285Y-35250476D01*
X29146666Y-35440952D01*
X29146666Y-35583809D01*
X29194285Y-35774285D01*
X29241904Y-35869523D01*
X29337142Y-35964761D01*
X29480000Y-36012380D01*
X29575238Y-36012380D01*
X29718095Y-35964761D01*
X29765714Y-35917142D01*
X29765714Y-35583809D01*
X29575238Y-35583809D01*
X30194285Y-36012380D02*
X30194285Y-35012380D01*
X30765714Y-36012380D01*
X30765714Y-35012380D01*
X31241904Y-36012380D02*
X31241904Y-35012380D01*
X31480000Y-35012380D01*
X31622857Y-35060000D01*
X31718095Y-35155238D01*
X31765714Y-35250476D01*
X31813333Y-35440952D01*
X31813333Y-35583809D01*
X31765714Y-35774285D01*
X31718095Y-35869523D01*
X31622857Y-35964761D01*
X31480000Y-36012380D01*
X31241904Y-36012380D01*
X30289523Y-37552380D02*
X29813333Y-37552380D01*
X29765714Y-38028571D01*
X29813333Y-37980952D01*
X29908571Y-37933333D01*
X30146666Y-37933333D01*
X30241904Y-37980952D01*
X30289523Y-38028571D01*
X30337142Y-38123809D01*
X30337142Y-38361904D01*
X30289523Y-38457142D01*
X30241904Y-38504761D01*
X30146666Y-38552380D01*
X29908571Y-38552380D01*
X29813333Y-38504761D01*
X29765714Y-38457142D01*
X30622857Y-37552380D02*
X30956190Y-38552380D01*
X31289523Y-37552380D01*
X12152380Y-20772380D02*
X11819047Y-20296190D01*
X11580952Y-20772380D02*
X11580952Y-19772380D01*
X11961904Y-19772380D01*
X12057142Y-19820000D01*
X12104761Y-19867619D01*
X12152380Y-19962857D01*
X12152380Y-20105714D01*
X12104761Y-20200952D01*
X12057142Y-20248571D01*
X11961904Y-20296190D01*
X11580952Y-20296190D01*
X12533333Y-20724761D02*
X12676190Y-20772380D01*
X12914285Y-20772380D01*
X13009523Y-20724761D01*
X13057142Y-20677142D01*
X13104761Y-20581904D01*
X13104761Y-20486666D01*
X13057142Y-20391428D01*
X13009523Y-20343809D01*
X12914285Y-20296190D01*
X12723809Y-20248571D01*
X12628571Y-20200952D01*
X12580952Y-20153333D01*
X12533333Y-20058095D01*
X12533333Y-19962857D01*
X12580952Y-19867619D01*
X12628571Y-19820000D01*
X12723809Y-19772380D01*
X12961904Y-19772380D01*
X13104761Y-19820000D01*
X13390476Y-19772380D02*
X13961904Y-19772380D01*
X13676190Y-20772380D02*
X13676190Y-19772380D01*
X11985714Y-23026666D02*
X12461904Y-23026666D01*
X11890476Y-23312380D02*
X12223809Y-22312380D01*
X12557142Y-23312380D01*
X13080952Y-22312380D02*
X13176190Y-22312380D01*
X13271428Y-22360000D01*
X13319047Y-22407619D01*
X13366666Y-22502857D01*
X13414285Y-22693333D01*
X13414285Y-22931428D01*
X13366666Y-23121904D01*
X13319047Y-23217142D01*
X13271428Y-23264761D01*
X13176190Y-23312380D01*
X13080952Y-23312380D01*
X12985714Y-23264761D01*
X12938095Y-23217142D01*
X12890476Y-23121904D01*
X12842857Y-22931428D01*
X12842857Y-22693333D01*
X12890476Y-22502857D01*
X12938095Y-22407619D01*
X12985714Y-22360000D01*
X13080952Y-22312380D01*
X11961904Y-25852380D02*
X11961904Y-24852380D01*
X12200000Y-24852380D01*
X12342857Y-24900000D01*
X12438095Y-24995238D01*
X12485714Y-25090476D01*
X12533333Y-25280952D01*
X12533333Y-25423809D01*
X12485714Y-25614285D01*
X12438095Y-25709523D01*
X12342857Y-25804761D01*
X12200000Y-25852380D01*
X11961904Y-25852380D01*
X13152380Y-24852380D02*
X13247619Y-24852380D01*
X13342857Y-24900000D01*
X13390476Y-24947619D01*
X13438095Y-25042857D01*
X13485714Y-25233333D01*
X13485714Y-25471428D01*
X13438095Y-25661904D01*
X13390476Y-25757142D01*
X13342857Y-25804761D01*
X13247619Y-25852380D01*
X13152380Y-25852380D01*
X13057142Y-25804761D01*
X13009523Y-25757142D01*
X12961904Y-25661904D01*
X12914285Y-25471428D01*
X12914285Y-25233333D01*
X12961904Y-25042857D01*
X13009523Y-24947619D01*
X13057142Y-24900000D01*
X13152380Y-24852380D01*
X11961904Y-28392380D02*
X11961904Y-27392380D01*
X12200000Y-27392380D01*
X12342857Y-27440000D01*
X12438095Y-27535238D01*
X12485714Y-27630476D01*
X12533333Y-27820952D01*
X12533333Y-27963809D01*
X12485714Y-28154285D01*
X12438095Y-28249523D01*
X12342857Y-28344761D01*
X12200000Y-28392380D01*
X11961904Y-28392380D01*
X13438095Y-27392380D02*
X12961904Y-27392380D01*
X12914285Y-27868571D01*
X12961904Y-27820952D01*
X13057142Y-27773333D01*
X13295238Y-27773333D01*
X13390476Y-27820952D01*
X13438095Y-27868571D01*
X13485714Y-27963809D01*
X13485714Y-28201904D01*
X13438095Y-28297142D01*
X13390476Y-28344761D01*
X13295238Y-28392380D01*
X13057142Y-28392380D01*
X12961904Y-28344761D01*
X12914285Y-28297142D01*
X11961904Y-30932380D02*
X11961904Y-29932380D01*
X12200000Y-29932380D01*
X12342857Y-29980000D01*
X12438095Y-30075238D01*
X12485714Y-30170476D01*
X12533333Y-30360952D01*
X12533333Y-30503809D01*
X12485714Y-30694285D01*
X12438095Y-30789523D01*
X12342857Y-30884761D01*
X12200000Y-30932380D01*
X11961904Y-30932380D01*
X13390476Y-29932380D02*
X13200000Y-29932380D01*
X13104761Y-29980000D01*
X13057142Y-30027619D01*
X12961904Y-30170476D01*
X12914285Y-30360952D01*
X12914285Y-30741904D01*
X12961904Y-30837142D01*
X13009523Y-30884761D01*
X13104761Y-30932380D01*
X13295238Y-30932380D01*
X13390476Y-30884761D01*
X13438095Y-30837142D01*
X13485714Y-30741904D01*
X13485714Y-30503809D01*
X13438095Y-30408571D01*
X13390476Y-30360952D01*
X13295238Y-30313333D01*
X13104761Y-30313333D01*
X13009523Y-30360952D01*
X12961904Y-30408571D01*
X12914285Y-30503809D01*
X11961904Y-33472380D02*
X11961904Y-32472380D01*
X12200000Y-32472380D01*
X12342857Y-32520000D01*
X12438095Y-32615238D01*
X12485714Y-32710476D01*
X12533333Y-32900952D01*
X12533333Y-33043809D01*
X12485714Y-33234285D01*
X12438095Y-33329523D01*
X12342857Y-33424761D01*
X12200000Y-33472380D01*
X11961904Y-33472380D01*
X12866666Y-32472380D02*
X13533333Y-32472380D01*
X13104761Y-33472380D01*
X11961904Y-36012380D02*
X11961904Y-35012380D01*
X12200000Y-35012380D01*
X12342857Y-35060000D01*
X12438095Y-35155238D01*
X12485714Y-35250476D01*
X12533333Y-35440952D01*
X12533333Y-35583809D01*
X12485714Y-35774285D01*
X12438095Y-35869523D01*
X12342857Y-35964761D01*
X12200000Y-36012380D01*
X11961904Y-36012380D01*
X13104761Y-35440952D02*
X13009523Y-35393333D01*
X12961904Y-35345714D01*
X12914285Y-35250476D01*
X12914285Y-35202857D01*
X12961904Y-35107619D01*
X13009523Y-35060000D01*
X13104761Y-35012380D01*
X13295238Y-35012380D01*
X13390476Y-35060000D01*
X13438095Y-35107619D01*
X13485714Y-35202857D01*
X13485714Y-35250476D01*
X13438095Y-35345714D01*
X13390476Y-35393333D01*
X13295238Y-35440952D01*
X13104761Y-35440952D01*
X13009523Y-35488571D01*
X12961904Y-35536190D01*
X12914285Y-35631428D01*
X12914285Y-35821904D01*
X12961904Y-35917142D01*
X13009523Y-35964761D01*
X13104761Y-36012380D01*
X13295238Y-36012380D01*
X13390476Y-35964761D01*
X13438095Y-35917142D01*
X13485714Y-35821904D01*
X13485714Y-35631428D01*
X13438095Y-35536190D01*
X13390476Y-35488571D01*
X13295238Y-35440952D01*
X11461904Y-37552380D02*
X12080952Y-37552380D01*
X11747619Y-37933333D01*
X11890476Y-37933333D01*
X11985714Y-37980952D01*
X12033333Y-38028571D01*
X12080952Y-38123809D01*
X12080952Y-38361904D01*
X12033333Y-38457142D01*
X11985714Y-38504761D01*
X11890476Y-38552380D01*
X11604761Y-38552380D01*
X11509523Y-38504761D01*
X11461904Y-38457142D01*
X12366666Y-37552380D02*
X12700000Y-38552380D01*
X13033333Y-37552380D01*
X13271428Y-37552380D02*
X13890476Y-37552380D01*
X13557142Y-37933333D01*
X13700000Y-37933333D01*
X13795238Y-37980952D01*
X13842857Y-38028571D01*
X13890476Y-38123809D01*
X13890476Y-38361904D01*
X13842857Y-38457142D01*
X13795238Y-38504761D01*
X13700000Y-38552380D01*
X13414285Y-38552380D01*
X13319047Y-38504761D01*
X13271428Y-38457142D01*
G04 #@! TO.C,Hole4*
X69215238Y-76652380D02*
X69215238Y-75652380D01*
X69215238Y-76128571D02*
X69786666Y-76128571D01*
X69786666Y-76652380D02*
X69786666Y-75652380D01*
X70405714Y-76652380D02*
X70310476Y-76604761D01*
X70262857Y-76557142D01*
X70215238Y-76461904D01*
X70215238Y-76176190D01*
X70262857Y-76080952D01*
X70310476Y-76033333D01*
X70405714Y-75985714D01*
X70548571Y-75985714D01*
X70643809Y-76033333D01*
X70691428Y-76080952D01*
X70739047Y-76176190D01*
X70739047Y-76461904D01*
X70691428Y-76557142D01*
X70643809Y-76604761D01*
X70548571Y-76652380D01*
X70405714Y-76652380D01*
X71310476Y-76652380D02*
X71215238Y-76604761D01*
X71167619Y-76509523D01*
X71167619Y-75652380D01*
X72072380Y-76604761D02*
X71977142Y-76652380D01*
X71786666Y-76652380D01*
X71691428Y-76604761D01*
X71643809Y-76509523D01*
X71643809Y-76128571D01*
X71691428Y-76033333D01*
X71786666Y-75985714D01*
X71977142Y-75985714D01*
X72072380Y-76033333D01*
X72120000Y-76128571D01*
X72120000Y-76223809D01*
X71643809Y-76319047D01*
X72977142Y-75985714D02*
X72977142Y-76652380D01*
X72739047Y-75604761D02*
X72500952Y-76319047D01*
X73120000Y-76319047D01*
G04 #@! TO.C,Hole3*
X6985238Y-76652380D02*
X6985238Y-75652380D01*
X6985238Y-76128571D02*
X7556666Y-76128571D01*
X7556666Y-76652380D02*
X7556666Y-75652380D01*
X8175714Y-76652380D02*
X8080476Y-76604761D01*
X8032857Y-76557142D01*
X7985238Y-76461904D01*
X7985238Y-76176190D01*
X8032857Y-76080952D01*
X8080476Y-76033333D01*
X8175714Y-75985714D01*
X8318571Y-75985714D01*
X8413809Y-76033333D01*
X8461428Y-76080952D01*
X8509047Y-76176190D01*
X8509047Y-76461904D01*
X8461428Y-76557142D01*
X8413809Y-76604761D01*
X8318571Y-76652380D01*
X8175714Y-76652380D01*
X9080476Y-76652380D02*
X8985238Y-76604761D01*
X8937619Y-76509523D01*
X8937619Y-75652380D01*
X9842380Y-76604761D02*
X9747142Y-76652380D01*
X9556666Y-76652380D01*
X9461428Y-76604761D01*
X9413809Y-76509523D01*
X9413809Y-76128571D01*
X9461428Y-76033333D01*
X9556666Y-75985714D01*
X9747142Y-75985714D01*
X9842380Y-76033333D01*
X9890000Y-76128571D01*
X9890000Y-76223809D01*
X9413809Y-76319047D01*
X10223333Y-75652380D02*
X10842380Y-75652380D01*
X10509047Y-76033333D01*
X10651904Y-76033333D01*
X10747142Y-76080952D01*
X10794761Y-76128571D01*
X10842380Y-76223809D01*
X10842380Y-76461904D01*
X10794761Y-76557142D01*
X10747142Y-76604761D01*
X10651904Y-76652380D01*
X10366190Y-76652380D01*
X10270952Y-76604761D01*
X10223333Y-76557142D01*
G04 #@! TO.C,Hole2*
X69215238Y-4262380D02*
X69215238Y-3262380D01*
X69215238Y-3738571D02*
X69786666Y-3738571D01*
X69786666Y-4262380D02*
X69786666Y-3262380D01*
X70405714Y-4262380D02*
X70310476Y-4214761D01*
X70262857Y-4167142D01*
X70215238Y-4071904D01*
X70215238Y-3786190D01*
X70262857Y-3690952D01*
X70310476Y-3643333D01*
X70405714Y-3595714D01*
X70548571Y-3595714D01*
X70643809Y-3643333D01*
X70691428Y-3690952D01*
X70739047Y-3786190D01*
X70739047Y-4071904D01*
X70691428Y-4167142D01*
X70643809Y-4214761D01*
X70548571Y-4262380D01*
X70405714Y-4262380D01*
X71310476Y-4262380D02*
X71215238Y-4214761D01*
X71167619Y-4119523D01*
X71167619Y-3262380D01*
X72072380Y-4214761D02*
X71977142Y-4262380D01*
X71786666Y-4262380D01*
X71691428Y-4214761D01*
X71643809Y-4119523D01*
X71643809Y-3738571D01*
X71691428Y-3643333D01*
X71786666Y-3595714D01*
X71977142Y-3595714D01*
X72072380Y-3643333D01*
X72120000Y-3738571D01*
X72120000Y-3833809D01*
X71643809Y-3929047D01*
X72500952Y-3357619D02*
X72548571Y-3310000D01*
X72643809Y-3262380D01*
X72881904Y-3262380D01*
X72977142Y-3310000D01*
X73024761Y-3357619D01*
X73072380Y-3452857D01*
X73072380Y-3548095D01*
X73024761Y-3690952D01*
X72453333Y-4262380D01*
X73072380Y-4262380D01*
G04 #@! TO.C,Hole1*
X6985238Y-4262380D02*
X6985238Y-3262380D01*
X6985238Y-3738571D02*
X7556666Y-3738571D01*
X7556666Y-4262380D02*
X7556666Y-3262380D01*
X8175714Y-4262380D02*
X8080476Y-4214761D01*
X8032857Y-4167142D01*
X7985238Y-4071904D01*
X7985238Y-3786190D01*
X8032857Y-3690952D01*
X8080476Y-3643333D01*
X8175714Y-3595714D01*
X8318571Y-3595714D01*
X8413809Y-3643333D01*
X8461428Y-3690952D01*
X8509047Y-3786190D01*
X8509047Y-4071904D01*
X8461428Y-4167142D01*
X8413809Y-4214761D01*
X8318571Y-4262380D01*
X8175714Y-4262380D01*
X9080476Y-4262380D02*
X8985238Y-4214761D01*
X8937619Y-4119523D01*
X8937619Y-3262380D01*
X9842380Y-4214761D02*
X9747142Y-4262380D01*
X9556666Y-4262380D01*
X9461428Y-4214761D01*
X9413809Y-4119523D01*
X9413809Y-3738571D01*
X9461428Y-3643333D01*
X9556666Y-3595714D01*
X9747142Y-3595714D01*
X9842380Y-3643333D01*
X9890000Y-3738571D01*
X9890000Y-3833809D01*
X9413809Y-3929047D01*
X10842380Y-4262380D02*
X10270952Y-4262380D01*
X10556666Y-4262380D02*
X10556666Y-3262380D01*
X10461428Y-3405238D01*
X10366190Y-3500476D01*
X10270952Y-3548095D01*
G04 #@! TO.C,DHT1*
X69477142Y-27122380D02*
X69477142Y-26122380D01*
X69715238Y-26122380D01*
X69858095Y-26170000D01*
X69953333Y-26265238D01*
X70000952Y-26360476D01*
X70048571Y-26550952D01*
X70048571Y-26693809D01*
X70000952Y-26884285D01*
X69953333Y-26979523D01*
X69858095Y-27074761D01*
X69715238Y-27122380D01*
X69477142Y-27122380D01*
X70477142Y-27122380D02*
X70477142Y-26122380D01*
X70477142Y-26598571D02*
X71048571Y-26598571D01*
X71048571Y-27122380D02*
X71048571Y-26122380D01*
X71381904Y-26122380D02*
X71953333Y-26122380D01*
X71667619Y-27122380D02*
X71667619Y-26122380D01*
X72810476Y-27122380D02*
X72239047Y-27122380D01*
X72524761Y-27122380D02*
X72524761Y-26122380D01*
X72429523Y-26265238D01*
X72334285Y-26360476D01*
X72239047Y-26408095D01*
X65492380Y-45783333D02*
X66492380Y-45450000D01*
X65492380Y-45116666D01*
X66397142Y-44211904D02*
X66444761Y-44259523D01*
X66492380Y-44402380D01*
X66492380Y-44497619D01*
X66444761Y-44640476D01*
X66349523Y-44735714D01*
X66254285Y-44783333D01*
X66063809Y-44830952D01*
X65920952Y-44830952D01*
X65730476Y-44783333D01*
X65635238Y-44735714D01*
X65540000Y-44640476D01*
X65492380Y-44497619D01*
X65492380Y-44402380D01*
X65540000Y-44259523D01*
X65587619Y-44211904D01*
X66397142Y-43211904D02*
X66444761Y-43259523D01*
X66492380Y-43402380D01*
X66492380Y-43497619D01*
X66444761Y-43640476D01*
X66349523Y-43735714D01*
X66254285Y-43783333D01*
X66063809Y-43830952D01*
X65920952Y-43830952D01*
X65730476Y-43783333D01*
X65635238Y-43735714D01*
X65540000Y-43640476D01*
X65492380Y-43497619D01*
X65492380Y-43402380D01*
X65540000Y-43259523D01*
X65587619Y-43211904D01*
X69032380Y-45950000D02*
X68032380Y-45950000D01*
X68032380Y-45711904D01*
X68080000Y-45569047D01*
X68175238Y-45473809D01*
X68270476Y-45426190D01*
X68460952Y-45378571D01*
X68603809Y-45378571D01*
X68794285Y-45426190D01*
X68889523Y-45473809D01*
X68984761Y-45569047D01*
X69032380Y-45711904D01*
X69032380Y-45950000D01*
X68746666Y-44997619D02*
X68746666Y-44521428D01*
X69032380Y-45092857D02*
X68032380Y-44759523D01*
X69032380Y-44426190D01*
X68032380Y-44235714D02*
X68032380Y-43664285D01*
X69032380Y-43950000D02*
X68032380Y-43950000D01*
X68746666Y-43378571D02*
X68746666Y-42902380D01*
X69032380Y-43473809D02*
X68032380Y-43140476D01*
X69032380Y-42807142D01*
X71572380Y-45235714D02*
X70572380Y-45235714D01*
X71572380Y-44664285D01*
X70572380Y-44664285D01*
X71477142Y-43616666D02*
X71524761Y-43664285D01*
X71572380Y-43807142D01*
X71572380Y-43902380D01*
X71524761Y-44045238D01*
X71429523Y-44140476D01*
X71334285Y-44188095D01*
X71143809Y-44235714D01*
X71000952Y-44235714D01*
X70810476Y-44188095D01*
X70715238Y-44140476D01*
X70620000Y-44045238D01*
X70572380Y-43902380D01*
X70572380Y-43807142D01*
X70620000Y-43664285D01*
X70667619Y-43616666D01*
X73160000Y-45211904D02*
X73112380Y-45307142D01*
X73112380Y-45450000D01*
X73160000Y-45592857D01*
X73255238Y-45688095D01*
X73350476Y-45735714D01*
X73540952Y-45783333D01*
X73683809Y-45783333D01*
X73874285Y-45735714D01*
X73969523Y-45688095D01*
X74064761Y-45592857D01*
X74112380Y-45450000D01*
X74112380Y-45354761D01*
X74064761Y-45211904D01*
X74017142Y-45164285D01*
X73683809Y-45164285D01*
X73683809Y-45354761D01*
X74112380Y-44735714D02*
X73112380Y-44735714D01*
X74112380Y-44164285D01*
X73112380Y-44164285D01*
X74112380Y-43688095D02*
X73112380Y-43688095D01*
X73112380Y-43450000D01*
X73160000Y-43307142D01*
X73255238Y-43211904D01*
X73350476Y-43164285D01*
X73540952Y-43116666D01*
X73683809Y-43116666D01*
X73874285Y-43164285D01*
X73969523Y-43211904D01*
X74064761Y-43307142D01*
X74112380Y-43450000D01*
X74112380Y-43688095D01*
G04 #@! TO.C,LOUT1*
X47299761Y-23312380D02*
X46823571Y-23312380D01*
X46823571Y-22312380D01*
X47823571Y-22312380D02*
X48014047Y-22312380D01*
X48109285Y-22360000D01*
X48204523Y-22455238D01*
X48252142Y-22645714D01*
X48252142Y-22979047D01*
X48204523Y-23169523D01*
X48109285Y-23264761D01*
X48014047Y-23312380D01*
X47823571Y-23312380D01*
X47728333Y-23264761D01*
X47633095Y-23169523D01*
X47585476Y-22979047D01*
X47585476Y-22645714D01*
X47633095Y-22455238D01*
X47728333Y-22360000D01*
X47823571Y-22312380D01*
X48680714Y-22312380D02*
X48680714Y-23121904D01*
X48728333Y-23217142D01*
X48775952Y-23264761D01*
X48871190Y-23312380D01*
X49061666Y-23312380D01*
X49156904Y-23264761D01*
X49204523Y-23217142D01*
X49252142Y-23121904D01*
X49252142Y-22312380D01*
X49585476Y-22312380D02*
X50156904Y-22312380D01*
X49871190Y-23312380D02*
X49871190Y-22312380D01*
X51014047Y-23312380D02*
X50442619Y-23312380D01*
X50728333Y-23312380D02*
X50728333Y-22312380D01*
X50633095Y-22455238D01*
X50537857Y-22550476D01*
X50442619Y-22598095D01*
X49935000Y-27197381D02*
X49458809Y-27197381D01*
X49458809Y-26197381D01*
X50030238Y-27292620D02*
X50792142Y-27292620D01*
X51220714Y-26197381D02*
X51411190Y-26197381D01*
X51506428Y-26245001D01*
X51601666Y-26340239D01*
X51649285Y-26530715D01*
X51649285Y-26864048D01*
X51601666Y-27054524D01*
X51506428Y-27149762D01*
X51411190Y-27197381D01*
X51220714Y-27197381D01*
X51125476Y-27149762D01*
X51030238Y-27054524D01*
X50982619Y-26864048D01*
X50982619Y-26530715D01*
X51030238Y-26340239D01*
X51125476Y-26245001D01*
X51220714Y-26197381D01*
X52077857Y-26197381D02*
X52077857Y-27006905D01*
X52125476Y-27102143D01*
X52173095Y-27149762D01*
X52268333Y-27197381D01*
X52458809Y-27197381D01*
X52554047Y-27149762D01*
X52601666Y-27102143D01*
X52649285Y-27006905D01*
X52649285Y-26197381D01*
X52982619Y-26197381D02*
X53554047Y-26197381D01*
X53268333Y-27197381D02*
X53268333Y-26197381D01*
X46069285Y-27122380D02*
X46069285Y-26122380D01*
X46640714Y-27122380D01*
X46640714Y-26122380D01*
G04 #@! TO.C,ACIN1*
X46918809Y-47156666D02*
X47395000Y-47156666D01*
X46823571Y-47442380D02*
X47156904Y-46442380D01*
X47490238Y-47442380D01*
X48395000Y-47347142D02*
X48347380Y-47394761D01*
X48204523Y-47442380D01*
X48109285Y-47442380D01*
X47966428Y-47394761D01*
X47871190Y-47299523D01*
X47823571Y-47204285D01*
X47775952Y-47013809D01*
X47775952Y-46870952D01*
X47823571Y-46680476D01*
X47871190Y-46585238D01*
X47966428Y-46490000D01*
X48109285Y-46442380D01*
X48204523Y-46442380D01*
X48347380Y-46490000D01*
X48395000Y-46537619D01*
X48823571Y-47442380D02*
X48823571Y-46442380D01*
X49299761Y-47442380D02*
X49299761Y-46442380D01*
X49871190Y-47442380D01*
X49871190Y-46442380D01*
X50871190Y-47442380D02*
X50299761Y-47442380D01*
X50585476Y-47442380D02*
X50585476Y-46442380D01*
X50490238Y-46585238D01*
X50395000Y-46680476D01*
X50299761Y-46728095D01*
X46069285Y-42362380D02*
X46069285Y-41362380D01*
X46640714Y-42362380D01*
X46640714Y-41362380D01*
X50601666Y-42362380D02*
X50125476Y-42362380D01*
X50125476Y-41362380D01*
X50696904Y-42457619D02*
X51458809Y-42457619D01*
X51696904Y-42362380D02*
X51696904Y-41362380D01*
X52173095Y-42362380D02*
X52173095Y-41362380D01*
X52744523Y-42362380D01*
X52744523Y-41362380D01*
G04 #@! TO.C,5VIN1*
X39846428Y-10882380D02*
X39370238Y-10882380D01*
X39322619Y-11358571D01*
X39370238Y-11310952D01*
X39465476Y-11263333D01*
X39703571Y-11263333D01*
X39798809Y-11310952D01*
X39846428Y-11358571D01*
X39894047Y-11453809D01*
X39894047Y-11691904D01*
X39846428Y-11787142D01*
X39798809Y-11834761D01*
X39703571Y-11882380D01*
X39465476Y-11882380D01*
X39370238Y-11834761D01*
X39322619Y-11787142D01*
X40179761Y-10882380D02*
X40513095Y-11882380D01*
X40846428Y-10882380D01*
X41179761Y-11882380D02*
X41179761Y-10882380D01*
X41655952Y-11882380D02*
X41655952Y-10882380D01*
X42227380Y-11882380D01*
X42227380Y-10882380D01*
X43227380Y-11882380D02*
X42655952Y-11882380D01*
X42941666Y-11882380D02*
X42941666Y-10882380D01*
X42846428Y-11025238D01*
X42751190Y-11120476D01*
X42655952Y-11168095D01*
X42529285Y-15311428D02*
X43291190Y-15311428D01*
X42910238Y-15692380D02*
X42910238Y-14930476D01*
X44243571Y-14692380D02*
X43767380Y-14692380D01*
X43719761Y-15168571D01*
X43767380Y-15120952D01*
X43862619Y-15073333D01*
X44100714Y-15073333D01*
X44195952Y-15120952D01*
X44243571Y-15168571D01*
X44291190Y-15263809D01*
X44291190Y-15501904D01*
X44243571Y-15597142D01*
X44195952Y-15644761D01*
X44100714Y-15692380D01*
X43862619Y-15692380D01*
X43767380Y-15644761D01*
X43719761Y-15597142D01*
X44576904Y-14692380D02*
X44910238Y-15692380D01*
X45243571Y-14692380D01*
X37925476Y-15311428D02*
X38687380Y-15311428D01*
X39020714Y-14692380D02*
X39354047Y-15692380D01*
X39687380Y-14692380D01*
G04 #@! TO.C,TouchMenu1*
X35552619Y-60412380D02*
X36124047Y-60412380D01*
X35838333Y-61412380D02*
X35838333Y-60412380D01*
X36600238Y-61412380D02*
X36505000Y-61364761D01*
X36457380Y-61317142D01*
X36409761Y-61221904D01*
X36409761Y-60936190D01*
X36457380Y-60840952D01*
X36505000Y-60793333D01*
X36600238Y-60745714D01*
X36743095Y-60745714D01*
X36838333Y-60793333D01*
X36885952Y-60840952D01*
X36933571Y-60936190D01*
X36933571Y-61221904D01*
X36885952Y-61317142D01*
X36838333Y-61364761D01*
X36743095Y-61412380D01*
X36600238Y-61412380D01*
X37790714Y-60745714D02*
X37790714Y-61412380D01*
X37362142Y-60745714D02*
X37362142Y-61269523D01*
X37409761Y-61364761D01*
X37505000Y-61412380D01*
X37647857Y-61412380D01*
X37743095Y-61364761D01*
X37790714Y-61317142D01*
X38695476Y-61364761D02*
X38600238Y-61412380D01*
X38409761Y-61412380D01*
X38314523Y-61364761D01*
X38266904Y-61317142D01*
X38219285Y-61221904D01*
X38219285Y-60936190D01*
X38266904Y-60840952D01*
X38314523Y-60793333D01*
X38409761Y-60745714D01*
X38600238Y-60745714D01*
X38695476Y-60793333D01*
X39124047Y-61412380D02*
X39124047Y-60412380D01*
X39552619Y-61412380D02*
X39552619Y-60888571D01*
X39505000Y-60793333D01*
X39409761Y-60745714D01*
X39266904Y-60745714D01*
X39171666Y-60793333D01*
X39124047Y-60840952D01*
X40028809Y-61412380D02*
X40028809Y-60412380D01*
X40362142Y-61126666D01*
X40695476Y-60412380D01*
X40695476Y-61412380D01*
X41552619Y-61364761D02*
X41457380Y-61412380D01*
X41266904Y-61412380D01*
X41171666Y-61364761D01*
X41124047Y-61269523D01*
X41124047Y-60888571D01*
X41171666Y-60793333D01*
X41266904Y-60745714D01*
X41457380Y-60745714D01*
X41552619Y-60793333D01*
X41600238Y-60888571D01*
X41600238Y-60983809D01*
X41124047Y-61079047D01*
X42028809Y-60745714D02*
X42028809Y-61412380D01*
X42028809Y-60840952D02*
X42076428Y-60793333D01*
X42171666Y-60745714D01*
X42314523Y-60745714D01*
X42409761Y-60793333D01*
X42457380Y-60888571D01*
X42457380Y-61412380D01*
X43362142Y-60745714D02*
X43362142Y-61412380D01*
X42933571Y-60745714D02*
X42933571Y-61269523D01*
X42981190Y-61364761D01*
X43076428Y-61412380D01*
X43219285Y-61412380D01*
X43314523Y-61364761D01*
X43362142Y-61317142D01*
X44362142Y-61412380D02*
X43790714Y-61412380D01*
X44076428Y-61412380D02*
X44076428Y-60412380D01*
X43981190Y-60555238D01*
X43885952Y-60650476D01*
X43790714Y-60698095D01*
X36965000Y-56641904D02*
X36917380Y-56737142D01*
X36917380Y-56880000D01*
X36965000Y-57022857D01*
X37060238Y-57118095D01*
X37155476Y-57165714D01*
X37345952Y-57213333D01*
X37488809Y-57213333D01*
X37679285Y-57165714D01*
X37774523Y-57118095D01*
X37869761Y-57022857D01*
X37917380Y-56880000D01*
X37917380Y-56784761D01*
X37869761Y-56641904D01*
X37822142Y-56594285D01*
X37488809Y-56594285D01*
X37488809Y-56784761D01*
X37917380Y-56165714D02*
X36917380Y-56165714D01*
X37917380Y-55594285D01*
X36917380Y-55594285D01*
X37917380Y-55118095D02*
X36917380Y-55118095D01*
X36917380Y-54880000D01*
X36965000Y-54737142D01*
X37060238Y-54641904D01*
X37155476Y-54594285D01*
X37345952Y-54546666D01*
X37488809Y-54546666D01*
X37679285Y-54594285D01*
X37774523Y-54641904D01*
X37869761Y-54737142D01*
X37917380Y-54880000D01*
X37917380Y-55118095D01*
X40457380Y-56403809D02*
X39457380Y-56403809D01*
X39457380Y-55737142D02*
X39457380Y-55546666D01*
X39505000Y-55451428D01*
X39600238Y-55356190D01*
X39790714Y-55308571D01*
X40124047Y-55308571D01*
X40314523Y-55356190D01*
X40409761Y-55451428D01*
X40457380Y-55546666D01*
X40457380Y-55737142D01*
X40409761Y-55832380D01*
X40314523Y-55927619D01*
X40124047Y-55975238D01*
X39790714Y-55975238D01*
X39600238Y-55927619D01*
X39505000Y-55832380D01*
X39457380Y-55737142D01*
X41997380Y-57213333D02*
X42997380Y-56880000D01*
X41997380Y-56546666D01*
X42902142Y-55641904D02*
X42949761Y-55689523D01*
X42997380Y-55832380D01*
X42997380Y-55927619D01*
X42949761Y-56070476D01*
X42854523Y-56165714D01*
X42759285Y-56213333D01*
X42568809Y-56260952D01*
X42425952Y-56260952D01*
X42235476Y-56213333D01*
X42140238Y-56165714D01*
X42045000Y-56070476D01*
X41997380Y-55927619D01*
X41997380Y-55832380D01*
X42045000Y-55689523D01*
X42092619Y-55641904D01*
X42902142Y-54641904D02*
X42949761Y-54689523D01*
X42997380Y-54832380D01*
X42997380Y-54927619D01*
X42949761Y-55070476D01*
X42854523Y-55165714D01*
X42759285Y-55213333D01*
X42568809Y-55260952D01*
X42425952Y-55260952D01*
X42235476Y-55213333D01*
X42140238Y-55165714D01*
X42045000Y-55070476D01*
X41997380Y-54927619D01*
X41997380Y-54832380D01*
X42045000Y-54689523D01*
X42092619Y-54641904D01*
X37647857Y-65492380D02*
X38219285Y-65492380D01*
X37933571Y-66492380D02*
X37933571Y-65492380D01*
X38743095Y-65492380D02*
X38933571Y-65492380D01*
X39028809Y-65540000D01*
X39124047Y-65635238D01*
X39171666Y-65825714D01*
X39171666Y-66159047D01*
X39124047Y-66349523D01*
X39028809Y-66444761D01*
X38933571Y-66492380D01*
X38743095Y-66492380D01*
X38647857Y-66444761D01*
X38552619Y-66349523D01*
X38505000Y-66159047D01*
X38505000Y-65825714D01*
X38552619Y-65635238D01*
X38647857Y-65540000D01*
X38743095Y-65492380D01*
X39600238Y-65492380D02*
X39600238Y-66301904D01*
X39647857Y-66397142D01*
X39695476Y-66444761D01*
X39790714Y-66492380D01*
X39981190Y-66492380D01*
X40076428Y-66444761D01*
X40124047Y-66397142D01*
X40171666Y-66301904D01*
X40171666Y-65492380D01*
X41219285Y-66397142D02*
X41171666Y-66444761D01*
X41028809Y-66492380D01*
X40933571Y-66492380D01*
X40790714Y-66444761D01*
X40695476Y-66349523D01*
X40647857Y-66254285D01*
X40600238Y-66063809D01*
X40600238Y-65920952D01*
X40647857Y-65730476D01*
X40695476Y-65635238D01*
X40790714Y-65540000D01*
X40933571Y-65492380D01*
X41028809Y-65492380D01*
X41171666Y-65540000D01*
X41219285Y-65587619D01*
X41647857Y-66492380D02*
X41647857Y-65492380D01*
X41647857Y-65968571D02*
X42219285Y-65968571D01*
X42219285Y-66492380D02*
X42219285Y-65492380D01*
G04 #@! TO.C,TouchDown1*
X3778809Y-60412380D02*
X4350238Y-60412380D01*
X4064523Y-61412380D02*
X4064523Y-60412380D01*
X4826428Y-61412380D02*
X4731190Y-61364761D01*
X4683571Y-61317142D01*
X4635952Y-61221904D01*
X4635952Y-60936190D01*
X4683571Y-60840952D01*
X4731190Y-60793333D01*
X4826428Y-60745714D01*
X4969285Y-60745714D01*
X5064523Y-60793333D01*
X5112142Y-60840952D01*
X5159761Y-60936190D01*
X5159761Y-61221904D01*
X5112142Y-61317142D01*
X5064523Y-61364761D01*
X4969285Y-61412380D01*
X4826428Y-61412380D01*
X6016904Y-60745714D02*
X6016904Y-61412380D01*
X5588333Y-60745714D02*
X5588333Y-61269523D01*
X5635952Y-61364761D01*
X5731190Y-61412380D01*
X5874047Y-61412380D01*
X5969285Y-61364761D01*
X6016904Y-61317142D01*
X6921666Y-61364761D02*
X6826428Y-61412380D01*
X6635952Y-61412380D01*
X6540714Y-61364761D01*
X6493095Y-61317142D01*
X6445476Y-61221904D01*
X6445476Y-60936190D01*
X6493095Y-60840952D01*
X6540714Y-60793333D01*
X6635952Y-60745714D01*
X6826428Y-60745714D01*
X6921666Y-60793333D01*
X7350238Y-61412380D02*
X7350238Y-60412380D01*
X7778809Y-61412380D02*
X7778809Y-60888571D01*
X7731190Y-60793333D01*
X7635952Y-60745714D01*
X7493095Y-60745714D01*
X7397857Y-60793333D01*
X7350238Y-60840952D01*
X8255000Y-61412380D02*
X8255000Y-60412380D01*
X8493095Y-60412380D01*
X8635952Y-60460000D01*
X8731190Y-60555238D01*
X8778809Y-60650476D01*
X8826428Y-60840952D01*
X8826428Y-60983809D01*
X8778809Y-61174285D01*
X8731190Y-61269523D01*
X8635952Y-61364761D01*
X8493095Y-61412380D01*
X8255000Y-61412380D01*
X9397857Y-61412380D02*
X9302619Y-61364761D01*
X9255000Y-61317142D01*
X9207380Y-61221904D01*
X9207380Y-60936190D01*
X9255000Y-60840952D01*
X9302619Y-60793333D01*
X9397857Y-60745714D01*
X9540714Y-60745714D01*
X9635952Y-60793333D01*
X9683571Y-60840952D01*
X9731190Y-60936190D01*
X9731190Y-61221904D01*
X9683571Y-61317142D01*
X9635952Y-61364761D01*
X9540714Y-61412380D01*
X9397857Y-61412380D01*
X10064523Y-60745714D02*
X10255000Y-61412380D01*
X10445476Y-60936190D01*
X10635952Y-61412380D01*
X10826428Y-60745714D01*
X11207380Y-60745714D02*
X11207380Y-61412380D01*
X11207380Y-60840952D02*
X11255000Y-60793333D01*
X11350238Y-60745714D01*
X11493095Y-60745714D01*
X11588333Y-60793333D01*
X11635952Y-60888571D01*
X11635952Y-61412380D01*
X12635952Y-61412380D02*
X12064523Y-61412380D01*
X12350238Y-61412380D02*
X12350238Y-60412380D01*
X12255000Y-60555238D01*
X12159761Y-60650476D01*
X12064523Y-60698095D01*
X5897857Y-65492380D02*
X6469285Y-65492380D01*
X6183571Y-66492380D02*
X6183571Y-65492380D01*
X6993095Y-65492380D02*
X7183571Y-65492380D01*
X7278809Y-65540000D01*
X7374047Y-65635238D01*
X7421666Y-65825714D01*
X7421666Y-66159047D01*
X7374047Y-66349523D01*
X7278809Y-66444761D01*
X7183571Y-66492380D01*
X6993095Y-66492380D01*
X6897857Y-66444761D01*
X6802619Y-66349523D01*
X6755000Y-66159047D01*
X6755000Y-65825714D01*
X6802619Y-65635238D01*
X6897857Y-65540000D01*
X6993095Y-65492380D01*
X7850238Y-65492380D02*
X7850238Y-66301904D01*
X7897857Y-66397142D01*
X7945476Y-66444761D01*
X8040714Y-66492380D01*
X8231190Y-66492380D01*
X8326428Y-66444761D01*
X8374047Y-66397142D01*
X8421666Y-66301904D01*
X8421666Y-65492380D01*
X9469285Y-66397142D02*
X9421666Y-66444761D01*
X9278809Y-66492380D01*
X9183571Y-66492380D01*
X9040714Y-66444761D01*
X8945476Y-66349523D01*
X8897857Y-66254285D01*
X8850238Y-66063809D01*
X8850238Y-65920952D01*
X8897857Y-65730476D01*
X8945476Y-65635238D01*
X9040714Y-65540000D01*
X9183571Y-65492380D01*
X9278809Y-65492380D01*
X9421666Y-65540000D01*
X9469285Y-65587619D01*
X9897857Y-66492380D02*
X9897857Y-65492380D01*
X9897857Y-65968571D02*
X10469285Y-65968571D01*
X10469285Y-66492380D02*
X10469285Y-65492380D01*
X10247380Y-57213333D02*
X11247380Y-56880000D01*
X10247380Y-56546666D01*
X11152142Y-55641904D02*
X11199761Y-55689523D01*
X11247380Y-55832380D01*
X11247380Y-55927619D01*
X11199761Y-56070476D01*
X11104523Y-56165714D01*
X11009285Y-56213333D01*
X10818809Y-56260952D01*
X10675952Y-56260952D01*
X10485476Y-56213333D01*
X10390238Y-56165714D01*
X10295000Y-56070476D01*
X10247380Y-55927619D01*
X10247380Y-55832380D01*
X10295000Y-55689523D01*
X10342619Y-55641904D01*
X11152142Y-54641904D02*
X11199761Y-54689523D01*
X11247380Y-54832380D01*
X11247380Y-54927619D01*
X11199761Y-55070476D01*
X11104523Y-55165714D01*
X11009285Y-55213333D01*
X10818809Y-55260952D01*
X10675952Y-55260952D01*
X10485476Y-55213333D01*
X10390238Y-55165714D01*
X10295000Y-55070476D01*
X10247380Y-54927619D01*
X10247380Y-54832380D01*
X10295000Y-54689523D01*
X10342619Y-54641904D01*
X8707380Y-56403809D02*
X7707380Y-56403809D01*
X7707380Y-55737142D02*
X7707380Y-55546666D01*
X7755000Y-55451428D01*
X7850238Y-55356190D01*
X8040714Y-55308571D01*
X8374047Y-55308571D01*
X8564523Y-55356190D01*
X8659761Y-55451428D01*
X8707380Y-55546666D01*
X8707380Y-55737142D01*
X8659761Y-55832380D01*
X8564523Y-55927619D01*
X8374047Y-55975238D01*
X8040714Y-55975238D01*
X7850238Y-55927619D01*
X7755000Y-55832380D01*
X7707380Y-55737142D01*
X5215000Y-56641904D02*
X5167380Y-56737142D01*
X5167380Y-56880000D01*
X5215000Y-57022857D01*
X5310238Y-57118095D01*
X5405476Y-57165714D01*
X5595952Y-57213333D01*
X5738809Y-57213333D01*
X5929285Y-57165714D01*
X6024523Y-57118095D01*
X6119761Y-57022857D01*
X6167380Y-56880000D01*
X6167380Y-56784761D01*
X6119761Y-56641904D01*
X6072142Y-56594285D01*
X5738809Y-56594285D01*
X5738809Y-56784761D01*
X6167380Y-56165714D02*
X5167380Y-56165714D01*
X6167380Y-55594285D01*
X5167380Y-55594285D01*
X6167380Y-55118095D02*
X5167380Y-55118095D01*
X5167380Y-54880000D01*
X5215000Y-54737142D01*
X5310238Y-54641904D01*
X5405476Y-54594285D01*
X5595952Y-54546666D01*
X5738809Y-54546666D01*
X5929285Y-54594285D01*
X6024523Y-54641904D01*
X6119761Y-54737142D01*
X6167380Y-54880000D01*
X6167380Y-55118095D01*
G04 #@! TO.C,TFT1*
X2238571Y-47077380D02*
X2810000Y-47077380D01*
X2524285Y-48077380D02*
X2524285Y-47077380D01*
X3476666Y-47553571D02*
X3143333Y-47553571D01*
X3143333Y-48077380D02*
X3143333Y-47077380D01*
X3619523Y-47077380D01*
X3857619Y-47077380D02*
X4429047Y-47077380D01*
X4143333Y-48077380D02*
X4143333Y-47077380D01*
X5286190Y-48077380D02*
X4714761Y-48077380D01*
X5000476Y-48077380D02*
X5000476Y-47077380D01*
X4905238Y-47220238D01*
X4810000Y-47315476D01*
X4714761Y-47363095D01*
X5016666Y-11517380D02*
X5349999Y-12517380D01*
X5683333Y-11517380D01*
X6588095Y-12422142D02*
X6540476Y-12469761D01*
X6397619Y-12517380D01*
X6302380Y-12517380D01*
X6159523Y-12469761D01*
X6064285Y-12374523D01*
X6016666Y-12279285D01*
X5969047Y-12088809D01*
X5969047Y-11945952D01*
X6016666Y-11755476D01*
X6064285Y-11660238D01*
X6159523Y-11565000D01*
X6302380Y-11517380D01*
X6397619Y-11517380D01*
X6540476Y-11565000D01*
X6588095Y-11612619D01*
X7588095Y-12422142D02*
X7540476Y-12469761D01*
X7397619Y-12517380D01*
X7302380Y-12517380D01*
X7159523Y-12469761D01*
X7064285Y-12374523D01*
X7016666Y-12279285D01*
X6969047Y-12088809D01*
X6969047Y-11945952D01*
X7016666Y-11755476D01*
X7064285Y-11660238D01*
X7159523Y-11565000D01*
X7302380Y-11517380D01*
X7397619Y-11517380D01*
X7540476Y-11565000D01*
X7588095Y-11612619D01*
X5588095Y-14105000D02*
X5492857Y-14057380D01*
X5349999Y-14057380D01*
X5207142Y-14105000D01*
X5111904Y-14200238D01*
X5064285Y-14295476D01*
X5016666Y-14485952D01*
X5016666Y-14628809D01*
X5064285Y-14819285D01*
X5111904Y-14914523D01*
X5207142Y-15009761D01*
X5349999Y-15057380D01*
X5445238Y-15057380D01*
X5588095Y-15009761D01*
X5635714Y-14962142D01*
X5635714Y-14628809D01*
X5445238Y-14628809D01*
X6064285Y-15057380D02*
X6064285Y-14057380D01*
X6635714Y-15057380D01*
X6635714Y-14057380D01*
X7111904Y-15057380D02*
X7111904Y-14057380D01*
X7350000Y-14057380D01*
X7492857Y-14105000D01*
X7588095Y-14200238D01*
X7635714Y-14295476D01*
X7683333Y-14485952D01*
X7683333Y-14628809D01*
X7635714Y-14819285D01*
X7588095Y-14914523D01*
X7492857Y-15009761D01*
X7350000Y-15057380D01*
X7111904Y-15057380D01*
X5548333Y-17502142D02*
X5500714Y-17549761D01*
X5357857Y-17597380D01*
X5262619Y-17597380D01*
X5119761Y-17549761D01*
X5024523Y-17454523D01*
X4976904Y-17359285D01*
X4929285Y-17168809D01*
X4929285Y-17025952D01*
X4976904Y-16835476D01*
X5024523Y-16740238D01*
X5119761Y-16645000D01*
X5262619Y-16597380D01*
X5357857Y-16597380D01*
X5500714Y-16645000D01*
X5548333Y-16692619D01*
X5929285Y-17549761D02*
X6072142Y-17597380D01*
X6310238Y-17597380D01*
X6405476Y-17549761D01*
X6453095Y-17502142D01*
X6500714Y-17406904D01*
X6500714Y-17311666D01*
X6453095Y-17216428D01*
X6405476Y-17168809D01*
X6310238Y-17121190D01*
X6119761Y-17073571D01*
X6024523Y-17025952D01*
X5976904Y-16978333D01*
X5929285Y-16883095D01*
X5929285Y-16787857D01*
X5976904Y-16692619D01*
X6024523Y-16645000D01*
X6119761Y-16597380D01*
X6357857Y-16597380D01*
X6500714Y-16645000D01*
X5802380Y-20137380D02*
X5469047Y-19661190D01*
X5230952Y-20137380D02*
X5230952Y-19137380D01*
X5611904Y-19137380D01*
X5707142Y-19185000D01*
X5754761Y-19232619D01*
X5802380Y-19327857D01*
X5802380Y-19470714D01*
X5754761Y-19565952D01*
X5707142Y-19613571D01*
X5611904Y-19661190D01*
X5230952Y-19661190D01*
X6183333Y-20089761D02*
X6326190Y-20137380D01*
X6564285Y-20137380D01*
X6659523Y-20089761D01*
X6707142Y-20042142D01*
X6754761Y-19946904D01*
X6754761Y-19851666D01*
X6707142Y-19756428D01*
X6659523Y-19708809D01*
X6564285Y-19661190D01*
X6373809Y-19613571D01*
X6278571Y-19565952D01*
X6230952Y-19518333D01*
X6183333Y-19423095D01*
X6183333Y-19327857D01*
X6230952Y-19232619D01*
X6278571Y-19185000D01*
X6373809Y-19137380D01*
X6611904Y-19137380D01*
X6754761Y-19185000D01*
X7040476Y-19137380D02*
X7611904Y-19137380D01*
X7326190Y-20137380D02*
X7326190Y-19137380D01*
X4953095Y-22677380D02*
X4953095Y-21677380D01*
X5191190Y-21677380D01*
X5334047Y-21725000D01*
X5429285Y-21820238D01*
X5476904Y-21915476D01*
X5524523Y-22105952D01*
X5524523Y-22248809D01*
X5476904Y-22439285D01*
X5429285Y-22534523D01*
X5334047Y-22629761D01*
X5191190Y-22677380D01*
X4953095Y-22677380D01*
X6524523Y-22582142D02*
X6476904Y-22629761D01*
X6334047Y-22677380D01*
X6238809Y-22677380D01*
X6095952Y-22629761D01*
X6000714Y-22534523D01*
X5953095Y-22439285D01*
X5905476Y-22248809D01*
X5905476Y-22105952D01*
X5953095Y-21915476D01*
X6000714Y-21820238D01*
X6095952Y-21725000D01*
X6238809Y-21677380D01*
X6334047Y-21677380D01*
X6476904Y-21725000D01*
X6524523Y-21772619D01*
X4778571Y-25217380D02*
X4778571Y-24217380D01*
X5111904Y-24931666D01*
X5445238Y-24217380D01*
X5445238Y-25217380D01*
X6111904Y-24217380D02*
X6302380Y-24217380D01*
X6397619Y-24265000D01*
X6492857Y-24360238D01*
X6540476Y-24550714D01*
X6540476Y-24884047D01*
X6492857Y-25074523D01*
X6397619Y-25169761D01*
X6302380Y-25217380D01*
X6111904Y-25217380D01*
X6016666Y-25169761D01*
X5921428Y-25074523D01*
X5873809Y-24884047D01*
X5873809Y-24550714D01*
X5921428Y-24360238D01*
X6016666Y-24265000D01*
X6111904Y-24217380D01*
X6921428Y-25169761D02*
X7064285Y-25217380D01*
X7302380Y-25217380D01*
X7397619Y-25169761D01*
X7445238Y-25122142D01*
X7492857Y-25026904D01*
X7492857Y-24931666D01*
X7445238Y-24836428D01*
X7397619Y-24788809D01*
X7302380Y-24741190D01*
X7111904Y-24693571D01*
X7016666Y-24645952D01*
X6969047Y-24598333D01*
X6921428Y-24503095D01*
X6921428Y-24407857D01*
X6969047Y-24312619D01*
X7016666Y-24265000D01*
X7111904Y-24217380D01*
X7350000Y-24217380D01*
X7492857Y-24265000D01*
X7921428Y-25217380D02*
X7921428Y-24217380D01*
X5064285Y-27709761D02*
X5207142Y-27757380D01*
X5445238Y-27757380D01*
X5540476Y-27709761D01*
X5588095Y-27662142D01*
X5635714Y-27566904D01*
X5635714Y-27471666D01*
X5588095Y-27376428D01*
X5540476Y-27328809D01*
X5445238Y-27281190D01*
X5254761Y-27233571D01*
X5159523Y-27185952D01*
X5111904Y-27138333D01*
X5064285Y-27043095D01*
X5064285Y-26947857D01*
X5111904Y-26852619D01*
X5159523Y-26805000D01*
X5254761Y-26757380D01*
X5492857Y-26757380D01*
X5635714Y-26805000D01*
X6635714Y-27662142D02*
X6588095Y-27709761D01*
X6445238Y-27757380D01*
X6350000Y-27757380D01*
X6207142Y-27709761D01*
X6111904Y-27614523D01*
X6064285Y-27519285D01*
X6016666Y-27328809D01*
X6016666Y-27185952D01*
X6064285Y-26995476D01*
X6111904Y-26900238D01*
X6207142Y-26805000D01*
X6350000Y-26757380D01*
X6445238Y-26757380D01*
X6588095Y-26805000D01*
X6635714Y-26852619D01*
X7064285Y-27757380D02*
X7064285Y-26757380D01*
X7635714Y-27757380D02*
X7207142Y-27185952D01*
X7635714Y-26757380D02*
X7064285Y-27328809D01*
X5707142Y-30297380D02*
X5230952Y-30297380D01*
X5230952Y-29297380D01*
X6040476Y-29773571D02*
X6373809Y-29773571D01*
X6516666Y-30297380D02*
X6040476Y-30297380D01*
X6040476Y-29297380D01*
X6516666Y-29297380D01*
X6945238Y-30297380D02*
X6945238Y-29297380D01*
X7183333Y-29297380D01*
X7326190Y-29345000D01*
X7421428Y-29440238D01*
X7469047Y-29535476D01*
X7516666Y-29725952D01*
X7516666Y-29868809D01*
X7469047Y-30059285D01*
X7421428Y-30154523D01*
X7326190Y-30249761D01*
X7183333Y-30297380D01*
X6945238Y-30297380D01*
X4778571Y-32837380D02*
X4778571Y-31837380D01*
X5111904Y-32551666D01*
X5445238Y-31837380D01*
X5445238Y-32837380D01*
X5921428Y-32837380D02*
X5921428Y-31837380D01*
X6350000Y-32789761D02*
X6492857Y-32837380D01*
X6730952Y-32837380D01*
X6826190Y-32789761D01*
X6873809Y-32742142D01*
X6921428Y-32646904D01*
X6921428Y-32551666D01*
X6873809Y-32456428D01*
X6826190Y-32408809D01*
X6730952Y-32361190D01*
X6540476Y-32313571D01*
X6445238Y-32265952D01*
X6397619Y-32218333D01*
X6350000Y-32123095D01*
X6350000Y-32027857D01*
X6397619Y-31932619D01*
X6445238Y-31885000D01*
X6540476Y-31837380D01*
X6778571Y-31837380D01*
X6921428Y-31885000D01*
X7540476Y-31837380D02*
X7730952Y-31837380D01*
X7826190Y-31885000D01*
X7921428Y-31980238D01*
X7969047Y-32170714D01*
X7969047Y-32504047D01*
X7921428Y-32694523D01*
X7826190Y-32789761D01*
X7730952Y-32837380D01*
X7540476Y-32837380D01*
X7445238Y-32789761D01*
X7350000Y-32694523D01*
X7302380Y-32504047D01*
X7302380Y-32170714D01*
X7350000Y-31980238D01*
X7445238Y-31885000D01*
X7540476Y-31837380D01*
X4627857Y-34377380D02*
X5199285Y-34377380D01*
X4913571Y-35377380D02*
X4913571Y-34377380D01*
X5723095Y-34377380D02*
X5913571Y-34377380D01*
X6008809Y-34425000D01*
X6104047Y-34520238D01*
X6151666Y-34710714D01*
X6151666Y-35044047D01*
X6104047Y-35234523D01*
X6008809Y-35329761D01*
X5913571Y-35377380D01*
X5723095Y-35377380D01*
X5627857Y-35329761D01*
X5532619Y-35234523D01*
X5485000Y-35044047D01*
X5485000Y-34710714D01*
X5532619Y-34520238D01*
X5627857Y-34425000D01*
X5723095Y-34377380D01*
X6580238Y-34377380D02*
X6580238Y-35186904D01*
X6627857Y-35282142D01*
X6675476Y-35329761D01*
X6770714Y-35377380D01*
X6961190Y-35377380D01*
X7056428Y-35329761D01*
X7104047Y-35282142D01*
X7151666Y-35186904D01*
X7151666Y-34377380D01*
X8199285Y-35282142D02*
X8151666Y-35329761D01*
X8008809Y-35377380D01*
X7913571Y-35377380D01*
X7770714Y-35329761D01*
X7675476Y-35234523D01*
X7627857Y-35139285D01*
X7580238Y-34948809D01*
X7580238Y-34805952D01*
X7627857Y-34615476D01*
X7675476Y-34520238D01*
X7770714Y-34425000D01*
X7913571Y-34377380D01*
X8008809Y-34377380D01*
X8151666Y-34425000D01*
X8199285Y-34472619D01*
X8627857Y-35377380D02*
X8627857Y-34377380D01*
X8627857Y-34853571D02*
X9199285Y-34853571D01*
X9199285Y-35377380D02*
X9199285Y-34377380D01*
X4627857Y-36917380D02*
X5199285Y-36917380D01*
X4913571Y-37917380D02*
X4913571Y-36917380D01*
X5723095Y-36917380D02*
X5913571Y-36917380D01*
X6008809Y-36965000D01*
X6104047Y-37060238D01*
X6151666Y-37250714D01*
X6151666Y-37584047D01*
X6104047Y-37774523D01*
X6008809Y-37869761D01*
X5913571Y-37917380D01*
X5723095Y-37917380D01*
X5627857Y-37869761D01*
X5532619Y-37774523D01*
X5485000Y-37584047D01*
X5485000Y-37250714D01*
X5532619Y-37060238D01*
X5627857Y-36965000D01*
X5723095Y-36917380D01*
X6580238Y-36917380D02*
X6580238Y-37726904D01*
X6627857Y-37822142D01*
X6675476Y-37869761D01*
X6770714Y-37917380D01*
X6961190Y-37917380D01*
X7056428Y-37869761D01*
X7104047Y-37822142D01*
X7151666Y-37726904D01*
X7151666Y-36917380D01*
X8199285Y-37822142D02*
X8151666Y-37869761D01*
X8008809Y-37917380D01*
X7913571Y-37917380D01*
X7770714Y-37869761D01*
X7675476Y-37774523D01*
X7627857Y-37679285D01*
X7580238Y-37488809D01*
X7580238Y-37345952D01*
X7627857Y-37155476D01*
X7675476Y-37060238D01*
X7770714Y-36965000D01*
X7913571Y-36917380D01*
X8008809Y-36917380D01*
X8151666Y-36965000D01*
X8199285Y-37012619D01*
X8627857Y-37917380D02*
X8627857Y-36917380D01*
X8627857Y-37393571D02*
X9199285Y-37393571D01*
X9199285Y-37917380D02*
X9199285Y-36917380D01*
X4627857Y-39457380D02*
X5199285Y-39457380D01*
X4913571Y-40457380D02*
X4913571Y-39457380D01*
X5723095Y-39457380D02*
X5913571Y-39457380D01*
X6008809Y-39505000D01*
X6104047Y-39600238D01*
X6151666Y-39790714D01*
X6151666Y-40124047D01*
X6104047Y-40314523D01*
X6008809Y-40409761D01*
X5913571Y-40457380D01*
X5723095Y-40457380D01*
X5627857Y-40409761D01*
X5532619Y-40314523D01*
X5485000Y-40124047D01*
X5485000Y-39790714D01*
X5532619Y-39600238D01*
X5627857Y-39505000D01*
X5723095Y-39457380D01*
X6580238Y-39457380D02*
X6580238Y-40266904D01*
X6627857Y-40362142D01*
X6675476Y-40409761D01*
X6770714Y-40457380D01*
X6961190Y-40457380D01*
X7056428Y-40409761D01*
X7104047Y-40362142D01*
X7151666Y-40266904D01*
X7151666Y-39457380D01*
X8199285Y-40362142D02*
X8151666Y-40409761D01*
X8008809Y-40457380D01*
X7913571Y-40457380D01*
X7770714Y-40409761D01*
X7675476Y-40314523D01*
X7627857Y-40219285D01*
X7580238Y-40028809D01*
X7580238Y-39885952D01*
X7627857Y-39695476D01*
X7675476Y-39600238D01*
X7770714Y-39505000D01*
X7913571Y-39457380D01*
X8008809Y-39457380D01*
X8151666Y-39505000D01*
X8199285Y-39552619D01*
X8627857Y-40457380D02*
X8627857Y-39457380D01*
X8627857Y-39933571D02*
X9199285Y-39933571D01*
X9199285Y-40457380D02*
X9199285Y-39457380D01*
X4627857Y-41997380D02*
X5199285Y-41997380D01*
X4913571Y-42997380D02*
X4913571Y-41997380D01*
X5723095Y-41997380D02*
X5913571Y-41997380D01*
X6008809Y-42045000D01*
X6104047Y-42140238D01*
X6151666Y-42330714D01*
X6151666Y-42664047D01*
X6104047Y-42854523D01*
X6008809Y-42949761D01*
X5913571Y-42997380D01*
X5723095Y-42997380D01*
X5627857Y-42949761D01*
X5532619Y-42854523D01*
X5485000Y-42664047D01*
X5485000Y-42330714D01*
X5532619Y-42140238D01*
X5627857Y-42045000D01*
X5723095Y-41997380D01*
X6580238Y-41997380D02*
X6580238Y-42806904D01*
X6627857Y-42902142D01*
X6675476Y-42949761D01*
X6770714Y-42997380D01*
X6961190Y-42997380D01*
X7056428Y-42949761D01*
X7104047Y-42902142D01*
X7151666Y-42806904D01*
X7151666Y-41997380D01*
X8199285Y-42902142D02*
X8151666Y-42949761D01*
X8008809Y-42997380D01*
X7913571Y-42997380D01*
X7770714Y-42949761D01*
X7675476Y-42854523D01*
X7627857Y-42759285D01*
X7580238Y-42568809D01*
X7580238Y-42425952D01*
X7627857Y-42235476D01*
X7675476Y-42140238D01*
X7770714Y-42045000D01*
X7913571Y-41997380D01*
X8008809Y-41997380D01*
X8151666Y-42045000D01*
X8199285Y-42092619D01*
X8627857Y-42997380D02*
X8627857Y-41997380D01*
X8627857Y-42473571D02*
X9199285Y-42473571D01*
X9199285Y-42997380D02*
X9199285Y-41997380D01*
X4627857Y-44537380D02*
X5199285Y-44537380D01*
X4913571Y-45537380D02*
X4913571Y-44537380D01*
X5723095Y-44537380D02*
X5913571Y-44537380D01*
X6008809Y-44585000D01*
X6104047Y-44680238D01*
X6151666Y-44870714D01*
X6151666Y-45204047D01*
X6104047Y-45394523D01*
X6008809Y-45489761D01*
X5913571Y-45537380D01*
X5723095Y-45537380D01*
X5627857Y-45489761D01*
X5532619Y-45394523D01*
X5485000Y-45204047D01*
X5485000Y-44870714D01*
X5532619Y-44680238D01*
X5627857Y-44585000D01*
X5723095Y-44537380D01*
X6580238Y-44537380D02*
X6580238Y-45346904D01*
X6627857Y-45442142D01*
X6675476Y-45489761D01*
X6770714Y-45537380D01*
X6961190Y-45537380D01*
X7056428Y-45489761D01*
X7104047Y-45442142D01*
X7151666Y-45346904D01*
X7151666Y-44537380D01*
X8199285Y-45442142D02*
X8151666Y-45489761D01*
X8008809Y-45537380D01*
X7913571Y-45537380D01*
X7770714Y-45489761D01*
X7675476Y-45394523D01*
X7627857Y-45299285D01*
X7580238Y-45108809D01*
X7580238Y-44965952D01*
X7627857Y-44775476D01*
X7675476Y-44680238D01*
X7770714Y-44585000D01*
X7913571Y-44537380D01*
X8008809Y-44537380D01*
X8151666Y-44585000D01*
X8199285Y-44632619D01*
X8627857Y-45537380D02*
X8627857Y-44537380D01*
X8627857Y-45013571D02*
X9199285Y-45013571D01*
X9199285Y-45537380D02*
X9199285Y-44537380D01*
G04 #@! TO.C,OMRON1*
X39457380Y-40790476D02*
X39457380Y-40600000D01*
X39505000Y-40504761D01*
X39600238Y-40409523D01*
X39790714Y-40361904D01*
X40124047Y-40361904D01*
X40314523Y-40409523D01*
X40409761Y-40504761D01*
X40457380Y-40600000D01*
X40457380Y-40790476D01*
X40409761Y-40885714D01*
X40314523Y-40980952D01*
X40124047Y-41028571D01*
X39790714Y-41028571D01*
X39600238Y-40980952D01*
X39505000Y-40885714D01*
X39457380Y-40790476D01*
X40457380Y-39933333D02*
X39457380Y-39933333D01*
X40171666Y-39600000D01*
X39457380Y-39266666D01*
X40457380Y-39266666D01*
X40457380Y-38219047D02*
X39981190Y-38552380D01*
X40457380Y-38790476D02*
X39457380Y-38790476D01*
X39457380Y-38409523D01*
X39505000Y-38314285D01*
X39552619Y-38266666D01*
X39647857Y-38219047D01*
X39790714Y-38219047D01*
X39885952Y-38266666D01*
X39933571Y-38314285D01*
X39981190Y-38409523D01*
X39981190Y-38790476D01*
X39457380Y-37600000D02*
X39457380Y-37409523D01*
X39505000Y-37314285D01*
X39600238Y-37219047D01*
X39790714Y-37171428D01*
X40124047Y-37171428D01*
X40314523Y-37219047D01*
X40409761Y-37314285D01*
X40457380Y-37409523D01*
X40457380Y-37600000D01*
X40409761Y-37695238D01*
X40314523Y-37790476D01*
X40124047Y-37838095D01*
X39790714Y-37838095D01*
X39600238Y-37790476D01*
X39505000Y-37695238D01*
X39457380Y-37600000D01*
X40457380Y-36742857D02*
X39457380Y-36742857D01*
X40457380Y-36171428D01*
X39457380Y-36171428D01*
X40457380Y-35171428D02*
X40457380Y-35742857D01*
X40457380Y-35457142D02*
X39457380Y-35457142D01*
X39600238Y-35552380D01*
X39695476Y-35647619D01*
X39743095Y-35742857D01*
X41108333Y-24582380D02*
X40632142Y-24582380D01*
X40632142Y-23582380D01*
X41965476Y-24582380D02*
X41394047Y-24582380D01*
X41679761Y-24582380D02*
X41679761Y-23582380D01*
X41584523Y-23725238D01*
X41489285Y-23820476D01*
X41394047Y-23868095D01*
X41108333Y-32202380D02*
X40632142Y-32202380D01*
X40632142Y-31202380D01*
X41394047Y-31297619D02*
X41441666Y-31250000D01*
X41536904Y-31202380D01*
X41775000Y-31202380D01*
X41870238Y-31250000D01*
X41917857Y-31297619D01*
X41965476Y-31392857D01*
X41965476Y-31488095D01*
X41917857Y-31630952D01*
X41346428Y-32202380D01*
X41965476Y-32202380D01*
X41084523Y-41362380D02*
X40608333Y-41362380D01*
X40560714Y-41838571D01*
X40608333Y-41790952D01*
X40703571Y-41743333D01*
X40941666Y-41743333D01*
X41036904Y-41790952D01*
X41084523Y-41838571D01*
X41132142Y-41933809D01*
X41132142Y-42171904D01*
X41084523Y-42267142D01*
X41036904Y-42314761D01*
X40941666Y-42362380D01*
X40703571Y-42362380D01*
X40608333Y-42314761D01*
X40560714Y-42267142D01*
X41417857Y-41362380D02*
X41751190Y-42362380D01*
X42084523Y-41362380D01*
X40513095Y-43950000D02*
X40417857Y-43902380D01*
X40275000Y-43902380D01*
X40132142Y-43950000D01*
X40036904Y-44045238D01*
X39989285Y-44140476D01*
X39941666Y-44330952D01*
X39941666Y-44473809D01*
X39989285Y-44664285D01*
X40036904Y-44759523D01*
X40132142Y-44854761D01*
X40275000Y-44902380D01*
X40370238Y-44902380D01*
X40513095Y-44854761D01*
X40560714Y-44807142D01*
X40560714Y-44473809D01*
X40370238Y-44473809D01*
X40989285Y-44902380D02*
X40989285Y-43902380D01*
X41560714Y-44902380D01*
X41560714Y-43902380D01*
X42036904Y-44902380D02*
X42036904Y-43902380D01*
X42275000Y-43902380D01*
X42417857Y-43950000D01*
X42513095Y-44045238D01*
X42560714Y-44140476D01*
X42608333Y-44330952D01*
X42608333Y-44473809D01*
X42560714Y-44664285D01*
X42513095Y-44759523D01*
X42417857Y-44854761D01*
X42275000Y-44902380D01*
X42036904Y-44902380D01*
G04 #@! TD*
M02*
