G04 #@! TF.GenerationSoftware,KiCad,Pcbnew,(5.0.1)-3*
G04 #@! TF.CreationDate,2018-11-11T13:08:13+01:00*
G04 #@! TF.ProjectId,THERMOSTAT,544845524D4F535441542E6B69636164,rev?*
G04 #@! TF.SameCoordinates,Original*
G04 #@! TF.FileFunction,Soldermask,Bot*
G04 #@! TF.FilePolarity,Negative*
%FSLAX46Y46*%
G04 Gerber Fmt 4.6, Leading zero omitted, Abs format (unit mm)*
G04 Created by KiCad (PCBNEW (5.0.1)-3) date 11/11/2018 1:08:13 PM*
%MOMM*%
%LPD*%
G01*
G04 APERTURE LIST*
%ADD10C,0.100000*%
G04 APERTURE END LIST*
D10*
G36*
X76575256Y-74591298D02*
X76681579Y-74612447D01*
X76982042Y-74736903D01*
X77248852Y-74915180D01*
X77252454Y-74917587D01*
X77482413Y-75147546D01*
X77663098Y-75417960D01*
X77787553Y-75718422D01*
X77851000Y-76037389D01*
X77851000Y-76362611D01*
X77787553Y-76681578D01*
X77663098Y-76982040D01*
X77482413Y-77252454D01*
X77252454Y-77482413D01*
X77252451Y-77482415D01*
X76982042Y-77663097D01*
X76681579Y-77787553D01*
X76575256Y-77808702D01*
X76362611Y-77851000D01*
X76037389Y-77851000D01*
X75824744Y-77808702D01*
X75718421Y-77787553D01*
X75417958Y-77663097D01*
X75147549Y-77482415D01*
X75147546Y-77482413D01*
X74917587Y-77252454D01*
X74736902Y-76982040D01*
X74612447Y-76681578D01*
X74549000Y-76362611D01*
X74549000Y-76037389D01*
X74612447Y-75718422D01*
X74736902Y-75417960D01*
X74917587Y-75147546D01*
X75147546Y-74917587D01*
X75151148Y-74915180D01*
X75417958Y-74736903D01*
X75718421Y-74612447D01*
X75824744Y-74591298D01*
X76037389Y-74549000D01*
X76362611Y-74549000D01*
X76575256Y-74591298D01*
X76575256Y-74591298D01*
G37*
G36*
X4185256Y-74591298D02*
X4291579Y-74612447D01*
X4592042Y-74736903D01*
X4858852Y-74915180D01*
X4862454Y-74917587D01*
X5092413Y-75147546D01*
X5273098Y-75417960D01*
X5397553Y-75718422D01*
X5461000Y-76037389D01*
X5461000Y-76362611D01*
X5397553Y-76681578D01*
X5273098Y-76982040D01*
X5092413Y-77252454D01*
X4862454Y-77482413D01*
X4862451Y-77482415D01*
X4592042Y-77663097D01*
X4291579Y-77787553D01*
X4185256Y-77808702D01*
X3972611Y-77851000D01*
X3647389Y-77851000D01*
X3434744Y-77808702D01*
X3328421Y-77787553D01*
X3027958Y-77663097D01*
X2757549Y-77482415D01*
X2757546Y-77482413D01*
X2527587Y-77252454D01*
X2346902Y-76982040D01*
X2222447Y-76681578D01*
X2159000Y-76362611D01*
X2159000Y-76037389D01*
X2222447Y-75718422D01*
X2346902Y-75417960D01*
X2527587Y-75147546D01*
X2757546Y-74917587D01*
X2761148Y-74915180D01*
X3027958Y-74736903D01*
X3328421Y-74612447D01*
X3434744Y-74591298D01*
X3647389Y-74549000D01*
X3972611Y-74549000D01*
X4185256Y-74591298D01*
X4185256Y-74591298D01*
G37*
G36*
X74532142Y-57638242D02*
X74680102Y-57699530D01*
X74813258Y-57788502D01*
X74926498Y-57901742D01*
X75015470Y-58034898D01*
X75076758Y-58182858D01*
X75108000Y-58339925D01*
X75108000Y-58500075D01*
X75076758Y-58657142D01*
X75015470Y-58805102D01*
X74926498Y-58938258D01*
X74813258Y-59051498D01*
X74680102Y-59140470D01*
X74532142Y-59201758D01*
X74375075Y-59233000D01*
X74214925Y-59233000D01*
X74057858Y-59201758D01*
X73909898Y-59140470D01*
X73776742Y-59051498D01*
X73663502Y-58938258D01*
X73574530Y-58805102D01*
X73513242Y-58657142D01*
X73482000Y-58500075D01*
X73482000Y-58339925D01*
X73513242Y-58182858D01*
X73574530Y-58034898D01*
X73663502Y-57901742D01*
X73776742Y-57788502D01*
X73909898Y-57699530D01*
X74057858Y-57638242D01*
X74214925Y-57607000D01*
X74375075Y-57607000D01*
X74532142Y-57638242D01*
X74532142Y-57638242D01*
G37*
G36*
X37702142Y-57638242D02*
X37850102Y-57699530D01*
X37983258Y-57788502D01*
X38096498Y-57901742D01*
X38185470Y-58034898D01*
X38246758Y-58182858D01*
X38278000Y-58339925D01*
X38278000Y-58500075D01*
X38246758Y-58657142D01*
X38185470Y-58805102D01*
X38096498Y-58938258D01*
X37983258Y-59051498D01*
X37850102Y-59140470D01*
X37702142Y-59201758D01*
X37545075Y-59233000D01*
X37384925Y-59233000D01*
X37227858Y-59201758D01*
X37079898Y-59140470D01*
X36946742Y-59051498D01*
X36833502Y-58938258D01*
X36744530Y-58805102D01*
X36683242Y-58657142D01*
X36652000Y-58500075D01*
X36652000Y-58339925D01*
X36683242Y-58182858D01*
X36744530Y-58034898D01*
X36833502Y-57901742D01*
X36946742Y-57788502D01*
X37079898Y-57699530D01*
X37227858Y-57638242D01*
X37384925Y-57607000D01*
X37545075Y-57607000D01*
X37702142Y-57638242D01*
X37702142Y-57638242D01*
G37*
G36*
X40242142Y-57638242D02*
X40390102Y-57699530D01*
X40523258Y-57788502D01*
X40636498Y-57901742D01*
X40725470Y-58034898D01*
X40786758Y-58182858D01*
X40818000Y-58339925D01*
X40818000Y-58500075D01*
X40786758Y-58657142D01*
X40725470Y-58805102D01*
X40636498Y-58938258D01*
X40523258Y-59051498D01*
X40390102Y-59140470D01*
X40242142Y-59201758D01*
X40085075Y-59233000D01*
X39924925Y-59233000D01*
X39767858Y-59201758D01*
X39619898Y-59140470D01*
X39486742Y-59051498D01*
X39373502Y-58938258D01*
X39284530Y-58805102D01*
X39223242Y-58657142D01*
X39192000Y-58500075D01*
X39192000Y-58339925D01*
X39223242Y-58182858D01*
X39284530Y-58034898D01*
X39373502Y-57901742D01*
X39486742Y-57788502D01*
X39619898Y-57699530D01*
X39767858Y-57638242D01*
X39924925Y-57607000D01*
X40085075Y-57607000D01*
X40242142Y-57638242D01*
X40242142Y-57638242D01*
G37*
G36*
X11032142Y-57638242D02*
X11180102Y-57699530D01*
X11313258Y-57788502D01*
X11426498Y-57901742D01*
X11515470Y-58034898D01*
X11576758Y-58182858D01*
X11608000Y-58339925D01*
X11608000Y-58500075D01*
X11576758Y-58657142D01*
X11515470Y-58805102D01*
X11426498Y-58938258D01*
X11313258Y-59051498D01*
X11180102Y-59140470D01*
X11032142Y-59201758D01*
X10875075Y-59233000D01*
X10714925Y-59233000D01*
X10557858Y-59201758D01*
X10409898Y-59140470D01*
X10276742Y-59051498D01*
X10163502Y-58938258D01*
X10074530Y-58805102D01*
X10013242Y-58657142D01*
X9982000Y-58500075D01*
X9982000Y-58339925D01*
X10013242Y-58182858D01*
X10074530Y-58034898D01*
X10163502Y-57901742D01*
X10276742Y-57788502D01*
X10409898Y-57699530D01*
X10557858Y-57638242D01*
X10714925Y-57607000D01*
X10875075Y-57607000D01*
X11032142Y-57638242D01*
X11032142Y-57638242D01*
G37*
G36*
X8492142Y-57638242D02*
X8640102Y-57699530D01*
X8773258Y-57788502D01*
X8886498Y-57901742D01*
X8975470Y-58034898D01*
X9036758Y-58182858D01*
X9068000Y-58339925D01*
X9068000Y-58500075D01*
X9036758Y-58657142D01*
X8975470Y-58805102D01*
X8886498Y-58938258D01*
X8773258Y-59051498D01*
X8640102Y-59140470D01*
X8492142Y-59201758D01*
X8335075Y-59233000D01*
X8174925Y-59233000D01*
X8017858Y-59201758D01*
X7869898Y-59140470D01*
X7736742Y-59051498D01*
X7623502Y-58938258D01*
X7534530Y-58805102D01*
X7473242Y-58657142D01*
X7442000Y-58500075D01*
X7442000Y-58339925D01*
X7473242Y-58182858D01*
X7534530Y-58034898D01*
X7623502Y-57901742D01*
X7736742Y-57788502D01*
X7869898Y-57699530D01*
X8017858Y-57638242D01*
X8174925Y-57607000D01*
X8335075Y-57607000D01*
X8492142Y-57638242D01*
X8492142Y-57638242D01*
G37*
G36*
X5952142Y-57638242D02*
X6100102Y-57699530D01*
X6233258Y-57788502D01*
X6346498Y-57901742D01*
X6435470Y-58034898D01*
X6496758Y-58182858D01*
X6528000Y-58339925D01*
X6528000Y-58500075D01*
X6496758Y-58657142D01*
X6435470Y-58805102D01*
X6346498Y-58938258D01*
X6233258Y-59051498D01*
X6100102Y-59140470D01*
X5952142Y-59201758D01*
X5795075Y-59233000D01*
X5634925Y-59233000D01*
X5477858Y-59201758D01*
X5329898Y-59140470D01*
X5196742Y-59051498D01*
X5083502Y-58938258D01*
X4994530Y-58805102D01*
X4933242Y-58657142D01*
X4902000Y-58500075D01*
X4902000Y-58339925D01*
X4933242Y-58182858D01*
X4994530Y-58034898D01*
X5083502Y-57901742D01*
X5196742Y-57788502D01*
X5329898Y-57699530D01*
X5477858Y-57638242D01*
X5634925Y-57607000D01*
X5795075Y-57607000D01*
X5952142Y-57638242D01*
X5952142Y-57638242D01*
G37*
G36*
X69452142Y-57638242D02*
X69600102Y-57699530D01*
X69733258Y-57788502D01*
X69846498Y-57901742D01*
X69935470Y-58034898D01*
X69996758Y-58182858D01*
X70028000Y-58339925D01*
X70028000Y-58500075D01*
X69996758Y-58657142D01*
X69935470Y-58805102D01*
X69846498Y-58938258D01*
X69733258Y-59051498D01*
X69600102Y-59140470D01*
X69452142Y-59201758D01*
X69295075Y-59233000D01*
X69134925Y-59233000D01*
X68977858Y-59201758D01*
X68829898Y-59140470D01*
X68696742Y-59051498D01*
X68583502Y-58938258D01*
X68494530Y-58805102D01*
X68433242Y-58657142D01*
X68402000Y-58500075D01*
X68402000Y-58339925D01*
X68433242Y-58182858D01*
X68494530Y-58034898D01*
X68583502Y-57901742D01*
X68696742Y-57788502D01*
X68829898Y-57699530D01*
X68977858Y-57638242D01*
X69134925Y-57607000D01*
X69295075Y-57607000D01*
X69452142Y-57638242D01*
X69452142Y-57638242D01*
G37*
G36*
X71992142Y-57638242D02*
X72140102Y-57699530D01*
X72273258Y-57788502D01*
X72386498Y-57901742D01*
X72475470Y-58034898D01*
X72536758Y-58182858D01*
X72568000Y-58339925D01*
X72568000Y-58500075D01*
X72536758Y-58657142D01*
X72475470Y-58805102D01*
X72386498Y-58938258D01*
X72273258Y-59051498D01*
X72140102Y-59140470D01*
X71992142Y-59201758D01*
X71835075Y-59233000D01*
X71674925Y-59233000D01*
X71517858Y-59201758D01*
X71369898Y-59140470D01*
X71236742Y-59051498D01*
X71123502Y-58938258D01*
X71034530Y-58805102D01*
X70973242Y-58657142D01*
X70942000Y-58500075D01*
X70942000Y-58339925D01*
X70973242Y-58182858D01*
X71034530Y-58034898D01*
X71123502Y-57901742D01*
X71236742Y-57788502D01*
X71369898Y-57699530D01*
X71517858Y-57638242D01*
X71674925Y-57607000D01*
X71835075Y-57607000D01*
X71992142Y-57638242D01*
X71992142Y-57638242D01*
G37*
G36*
X42782142Y-57638242D02*
X42930102Y-57699530D01*
X43063258Y-57788502D01*
X43176498Y-57901742D01*
X43265470Y-58034898D01*
X43326758Y-58182858D01*
X43358000Y-58339925D01*
X43358000Y-58500075D01*
X43326758Y-58657142D01*
X43265470Y-58805102D01*
X43176498Y-58938258D01*
X43063258Y-59051498D01*
X42930102Y-59140470D01*
X42782142Y-59201758D01*
X42625075Y-59233000D01*
X42464925Y-59233000D01*
X42307858Y-59201758D01*
X42159898Y-59140470D01*
X42026742Y-59051498D01*
X41913502Y-58938258D01*
X41824530Y-58805102D01*
X41763242Y-58657142D01*
X41732000Y-58500075D01*
X41732000Y-58339925D01*
X41763242Y-58182858D01*
X41824530Y-58034898D01*
X41913502Y-57901742D01*
X42026742Y-57788502D01*
X42159898Y-57699530D01*
X42307858Y-57638242D01*
X42464925Y-57607000D01*
X42625075Y-57607000D01*
X42782142Y-57638242D01*
X42782142Y-57638242D01*
G37*
G36*
X75940256Y-45381298D02*
X76046579Y-45402447D01*
X76347042Y-45526903D01*
X76461315Y-45603258D01*
X76617454Y-45707587D01*
X76847413Y-45937546D01*
X77028098Y-46207960D01*
X77152553Y-46508422D01*
X77216000Y-46827389D01*
X77216000Y-47152611D01*
X77152553Y-47471578D01*
X77028098Y-47772040D01*
X76847413Y-48042454D01*
X76617454Y-48272413D01*
X76617451Y-48272415D01*
X76347042Y-48453097D01*
X76046579Y-48577553D01*
X75940256Y-48598702D01*
X75727611Y-48641000D01*
X75402389Y-48641000D01*
X75189744Y-48598702D01*
X75083421Y-48577553D01*
X74782958Y-48453097D01*
X74512549Y-48272415D01*
X74512546Y-48272413D01*
X74282587Y-48042454D01*
X74101902Y-47772040D01*
X73977447Y-47471578D01*
X73914000Y-47152611D01*
X73914000Y-46827389D01*
X73977447Y-46508422D01*
X74101902Y-46207960D01*
X74282587Y-45937546D01*
X74512546Y-45707587D01*
X74668685Y-45603258D01*
X74782958Y-45526903D01*
X75083421Y-45402447D01*
X75189744Y-45381298D01*
X75402389Y-45339000D01*
X75727611Y-45339000D01*
X75940256Y-45381298D01*
X75940256Y-45381298D01*
G37*
G36*
X4047142Y-44303242D02*
X4195102Y-44364530D01*
X4328258Y-44453502D01*
X4441498Y-44566742D01*
X4530470Y-44699898D01*
X4591758Y-44847858D01*
X4623000Y-45004925D01*
X4623000Y-45165075D01*
X4591758Y-45322142D01*
X4530470Y-45470102D01*
X4441498Y-45603258D01*
X4328258Y-45716498D01*
X4195102Y-45805470D01*
X4047142Y-45866758D01*
X3890075Y-45898000D01*
X3729925Y-45898000D01*
X3572858Y-45866758D01*
X3424898Y-45805470D01*
X3291742Y-45716498D01*
X3178502Y-45603258D01*
X3089530Y-45470102D01*
X3028242Y-45322142D01*
X2997000Y-45165075D01*
X2997000Y-45004925D01*
X3028242Y-44847858D01*
X3089530Y-44699898D01*
X3178502Y-44566742D01*
X3291742Y-44453502D01*
X3424898Y-44364530D01*
X3572858Y-44303242D01*
X3729925Y-44272000D01*
X3890075Y-44272000D01*
X4047142Y-44303242D01*
X4047142Y-44303242D01*
G37*
G36*
X51672142Y-43668242D02*
X51820102Y-43729530D01*
X51953258Y-43818502D01*
X52066498Y-43931742D01*
X52155470Y-44064898D01*
X52216758Y-44212858D01*
X52248000Y-44369925D01*
X52248000Y-44530075D01*
X52216758Y-44687142D01*
X52155470Y-44835102D01*
X52066498Y-44968258D01*
X51953258Y-45081498D01*
X51820102Y-45170470D01*
X51672142Y-45231758D01*
X51515075Y-45263000D01*
X51354925Y-45263000D01*
X51197858Y-45231758D01*
X51049898Y-45170470D01*
X50916742Y-45081498D01*
X50803502Y-44968258D01*
X50714530Y-44835102D01*
X50653242Y-44687142D01*
X50622000Y-44530075D01*
X50622000Y-44369925D01*
X50653242Y-44212858D01*
X50714530Y-44064898D01*
X50803502Y-43931742D01*
X50916742Y-43818502D01*
X51049898Y-43729530D01*
X51197858Y-43668242D01*
X51354925Y-43637000D01*
X51515075Y-43637000D01*
X51672142Y-43668242D01*
X51672142Y-43668242D01*
G37*
G36*
X46592142Y-43668242D02*
X46740102Y-43729530D01*
X46873258Y-43818502D01*
X46986498Y-43931742D01*
X47075470Y-44064898D01*
X47136758Y-44212858D01*
X47168000Y-44369925D01*
X47168000Y-44530075D01*
X47136758Y-44687142D01*
X47075470Y-44835102D01*
X46986498Y-44968258D01*
X46873258Y-45081498D01*
X46740102Y-45170470D01*
X46592142Y-45231758D01*
X46435075Y-45263000D01*
X46274925Y-45263000D01*
X46117858Y-45231758D01*
X45969898Y-45170470D01*
X45836742Y-45081498D01*
X45723502Y-44968258D01*
X45634530Y-44835102D01*
X45573242Y-44687142D01*
X45542000Y-44530075D01*
X45542000Y-44369925D01*
X45573242Y-44212858D01*
X45634530Y-44064898D01*
X45723502Y-43931742D01*
X45836742Y-43818502D01*
X45969898Y-43729530D01*
X46117858Y-43668242D01*
X46274925Y-43637000D01*
X46435075Y-43637000D01*
X46592142Y-43668242D01*
X46592142Y-43668242D01*
G37*
G36*
X38972142Y-43668242D02*
X39120102Y-43729530D01*
X39253258Y-43818502D01*
X39366498Y-43931742D01*
X39455470Y-44064898D01*
X39516758Y-44212858D01*
X39548000Y-44369925D01*
X39548000Y-44530075D01*
X39516758Y-44687142D01*
X39455470Y-44835102D01*
X39366498Y-44968258D01*
X39253258Y-45081498D01*
X39120102Y-45170470D01*
X38972142Y-45231758D01*
X38815075Y-45263000D01*
X38654925Y-45263000D01*
X38497858Y-45231758D01*
X38349898Y-45170470D01*
X38216742Y-45081498D01*
X38103502Y-44968258D01*
X38014530Y-44835102D01*
X37953242Y-44687142D01*
X37922000Y-44530075D01*
X37922000Y-44369925D01*
X37953242Y-44212858D01*
X38014530Y-44064898D01*
X38103502Y-43931742D01*
X38216742Y-43818502D01*
X38349898Y-43729530D01*
X38497858Y-43668242D01*
X38654925Y-43637000D01*
X38815075Y-43637000D01*
X38972142Y-43668242D01*
X38972142Y-43668242D01*
G37*
G36*
X4047142Y-41763242D02*
X4195102Y-41824530D01*
X4328258Y-41913502D01*
X4441498Y-42026742D01*
X4530470Y-42159898D01*
X4591758Y-42307858D01*
X4623000Y-42464925D01*
X4623000Y-42625075D01*
X4591758Y-42782142D01*
X4530470Y-42930102D01*
X4441498Y-43063258D01*
X4328258Y-43176498D01*
X4195102Y-43265470D01*
X4047142Y-43326758D01*
X3890075Y-43358000D01*
X3729925Y-43358000D01*
X3572858Y-43326758D01*
X3424898Y-43265470D01*
X3291742Y-43176498D01*
X3178502Y-43063258D01*
X3089530Y-42930102D01*
X3028242Y-42782142D01*
X2997000Y-42625075D01*
X2997000Y-42464925D01*
X3028242Y-42307858D01*
X3089530Y-42159898D01*
X3178502Y-42026742D01*
X3291742Y-41913502D01*
X3424898Y-41824530D01*
X3572858Y-41763242D01*
X3729925Y-41732000D01*
X3890075Y-41732000D01*
X4047142Y-41763242D01*
X4047142Y-41763242D01*
G37*
G36*
X71357142Y-41128242D02*
X71505102Y-41189530D01*
X71638258Y-41278502D01*
X71751498Y-41391742D01*
X71840470Y-41524898D01*
X71901758Y-41672858D01*
X71933000Y-41829925D01*
X71933000Y-41990075D01*
X71901758Y-42147142D01*
X71840470Y-42295102D01*
X71751498Y-42428258D01*
X71638258Y-42541498D01*
X71505102Y-42630470D01*
X71357142Y-42691758D01*
X71200075Y-42723000D01*
X71039925Y-42723000D01*
X70882858Y-42691758D01*
X70734898Y-42630470D01*
X70601742Y-42541498D01*
X70488502Y-42428258D01*
X70399530Y-42295102D01*
X70338242Y-42147142D01*
X70307000Y-41990075D01*
X70307000Y-41829925D01*
X70338242Y-41672858D01*
X70399530Y-41524898D01*
X70488502Y-41391742D01*
X70601742Y-41278502D01*
X70734898Y-41189530D01*
X70882858Y-41128242D01*
X71039925Y-41097000D01*
X71200075Y-41097000D01*
X71357142Y-41128242D01*
X71357142Y-41128242D01*
G37*
G36*
X73897142Y-41128242D02*
X74045102Y-41189530D01*
X74178258Y-41278502D01*
X74291498Y-41391742D01*
X74380470Y-41524898D01*
X74441758Y-41672858D01*
X74473000Y-41829925D01*
X74473000Y-41990075D01*
X74441758Y-42147142D01*
X74380470Y-42295102D01*
X74291498Y-42428258D01*
X74178258Y-42541498D01*
X74045102Y-42630470D01*
X73897142Y-42691758D01*
X73740075Y-42723000D01*
X73579925Y-42723000D01*
X73422858Y-42691758D01*
X73274898Y-42630470D01*
X73141742Y-42541498D01*
X73028502Y-42428258D01*
X72939530Y-42295102D01*
X72878242Y-42147142D01*
X72847000Y-41990075D01*
X72847000Y-41829925D01*
X72878242Y-41672858D01*
X72939530Y-41524898D01*
X73028502Y-41391742D01*
X73141742Y-41278502D01*
X73274898Y-41189530D01*
X73422858Y-41128242D01*
X73579925Y-41097000D01*
X73740075Y-41097000D01*
X73897142Y-41128242D01*
X73897142Y-41128242D01*
G37*
G36*
X68817142Y-41128242D02*
X68965102Y-41189530D01*
X69098258Y-41278502D01*
X69211498Y-41391742D01*
X69300470Y-41524898D01*
X69361758Y-41672858D01*
X69393000Y-41829925D01*
X69393000Y-41990075D01*
X69361758Y-42147142D01*
X69300470Y-42295102D01*
X69211498Y-42428258D01*
X69098258Y-42541498D01*
X68965102Y-42630470D01*
X68817142Y-42691758D01*
X68660075Y-42723000D01*
X68499925Y-42723000D01*
X68342858Y-42691758D01*
X68194898Y-42630470D01*
X68061742Y-42541498D01*
X67948502Y-42428258D01*
X67859530Y-42295102D01*
X67798242Y-42147142D01*
X67767000Y-41990075D01*
X67767000Y-41829925D01*
X67798242Y-41672858D01*
X67859530Y-41524898D01*
X67948502Y-41391742D01*
X68061742Y-41278502D01*
X68194898Y-41189530D01*
X68342858Y-41128242D01*
X68499925Y-41097000D01*
X68660075Y-41097000D01*
X68817142Y-41128242D01*
X68817142Y-41128242D01*
G37*
G36*
X38972142Y-41128242D02*
X39120102Y-41189530D01*
X39253258Y-41278502D01*
X39366498Y-41391742D01*
X39455470Y-41524898D01*
X39516758Y-41672858D01*
X39548000Y-41829925D01*
X39548000Y-41990075D01*
X39516758Y-42147142D01*
X39455470Y-42295102D01*
X39366498Y-42428258D01*
X39253258Y-42541498D01*
X39120102Y-42630470D01*
X38972142Y-42691758D01*
X38815075Y-42723000D01*
X38654925Y-42723000D01*
X38497858Y-42691758D01*
X38349898Y-42630470D01*
X38216742Y-42541498D01*
X38103502Y-42428258D01*
X38014530Y-42295102D01*
X37953242Y-42147142D01*
X37922000Y-41990075D01*
X37922000Y-41829925D01*
X37953242Y-41672858D01*
X38014530Y-41524898D01*
X38103502Y-41391742D01*
X38216742Y-41278502D01*
X38349898Y-41189530D01*
X38497858Y-41128242D01*
X38654925Y-41097000D01*
X38815075Y-41097000D01*
X38972142Y-41128242D01*
X38972142Y-41128242D01*
G37*
G36*
X66277142Y-41128242D02*
X66425102Y-41189530D01*
X66558258Y-41278502D01*
X66671498Y-41391742D01*
X66760470Y-41524898D01*
X66821758Y-41672858D01*
X66853000Y-41829925D01*
X66853000Y-41990075D01*
X66821758Y-42147142D01*
X66760470Y-42295102D01*
X66671498Y-42428258D01*
X66558258Y-42541498D01*
X66425102Y-42630470D01*
X66277142Y-42691758D01*
X66120075Y-42723000D01*
X65959925Y-42723000D01*
X65802858Y-42691758D01*
X65654898Y-42630470D01*
X65521742Y-42541498D01*
X65408502Y-42428258D01*
X65319530Y-42295102D01*
X65258242Y-42147142D01*
X65227000Y-41990075D01*
X65227000Y-41829925D01*
X65258242Y-41672858D01*
X65319530Y-41524898D01*
X65408502Y-41391742D01*
X65521742Y-41278502D01*
X65654898Y-41189530D01*
X65802858Y-41128242D01*
X65959925Y-41097000D01*
X66120075Y-41097000D01*
X66277142Y-41128242D01*
X66277142Y-41128242D01*
G37*
G36*
X4047142Y-39223242D02*
X4195102Y-39284530D01*
X4328258Y-39373502D01*
X4441498Y-39486742D01*
X4530470Y-39619898D01*
X4591758Y-39767858D01*
X4623000Y-39924925D01*
X4623000Y-40085075D01*
X4591758Y-40242142D01*
X4530470Y-40390102D01*
X4441498Y-40523258D01*
X4328258Y-40636498D01*
X4195102Y-40725470D01*
X4047142Y-40786758D01*
X3890075Y-40818000D01*
X3729925Y-40818000D01*
X3572858Y-40786758D01*
X3424898Y-40725470D01*
X3291742Y-40636498D01*
X3178502Y-40523258D01*
X3089530Y-40390102D01*
X3028242Y-40242142D01*
X2997000Y-40085075D01*
X2997000Y-39924925D01*
X3028242Y-39767858D01*
X3089530Y-39619898D01*
X3178502Y-39486742D01*
X3291742Y-39373502D01*
X3424898Y-39284530D01*
X3572858Y-39223242D01*
X3729925Y-39192000D01*
X3890075Y-39192000D01*
X4047142Y-39223242D01*
X4047142Y-39223242D01*
G37*
G36*
X51672142Y-38588242D02*
X51820102Y-38649530D01*
X51887130Y-38694317D01*
X51953257Y-38738501D01*
X52066499Y-38851743D01*
X52086554Y-38881758D01*
X52155470Y-38984898D01*
X52216758Y-39132858D01*
X52248000Y-39289925D01*
X52248000Y-39450075D01*
X52216758Y-39607142D01*
X52155470Y-39755102D01*
X52066498Y-39888258D01*
X51953258Y-40001498D01*
X51820102Y-40090470D01*
X51672142Y-40151758D01*
X51515075Y-40183000D01*
X51354925Y-40183000D01*
X51197858Y-40151758D01*
X51049898Y-40090470D01*
X50916742Y-40001498D01*
X50803502Y-39888258D01*
X50714530Y-39755102D01*
X50653242Y-39607142D01*
X50622000Y-39450075D01*
X50622000Y-39289925D01*
X50653242Y-39132858D01*
X50714530Y-38984898D01*
X50783446Y-38881758D01*
X50803501Y-38851743D01*
X50916743Y-38738501D01*
X50982870Y-38694317D01*
X51049898Y-38649530D01*
X51197858Y-38588242D01*
X51354925Y-38557000D01*
X51515075Y-38557000D01*
X51672142Y-38588242D01*
X51672142Y-38588242D01*
G37*
G36*
X46592142Y-38588242D02*
X46740102Y-38649530D01*
X46807130Y-38694317D01*
X46873257Y-38738501D01*
X46986499Y-38851743D01*
X47006554Y-38881758D01*
X47075470Y-38984898D01*
X47136758Y-39132858D01*
X47168000Y-39289925D01*
X47168000Y-39450075D01*
X47136758Y-39607142D01*
X47075470Y-39755102D01*
X46986498Y-39888258D01*
X46873258Y-40001498D01*
X46740102Y-40090470D01*
X46592142Y-40151758D01*
X46435075Y-40183000D01*
X46274925Y-40183000D01*
X46117858Y-40151758D01*
X45969898Y-40090470D01*
X45836742Y-40001498D01*
X45723502Y-39888258D01*
X45634530Y-39755102D01*
X45573242Y-39607142D01*
X45542000Y-39450075D01*
X45542000Y-39289925D01*
X45573242Y-39132858D01*
X45634530Y-38984898D01*
X45703446Y-38881758D01*
X45723501Y-38851743D01*
X45836743Y-38738501D01*
X45902870Y-38694317D01*
X45969898Y-38649530D01*
X46117858Y-38588242D01*
X46274925Y-38557000D01*
X46435075Y-38557000D01*
X46592142Y-38588242D01*
X46592142Y-38588242D01*
G37*
G36*
X10397142Y-37318242D02*
X10545102Y-37379530D01*
X10678258Y-37468502D01*
X10791498Y-37581742D01*
X10880470Y-37714898D01*
X10941758Y-37862858D01*
X10973000Y-38019925D01*
X10973000Y-38180075D01*
X10941758Y-38337142D01*
X10894354Y-38451583D01*
X10880471Y-38485100D01*
X10791499Y-38618257D01*
X10678257Y-38731499D01*
X10667776Y-38738502D01*
X10545102Y-38820470D01*
X10397142Y-38881758D01*
X10240075Y-38913000D01*
X10079925Y-38913000D01*
X9922858Y-38881758D01*
X9774898Y-38820470D01*
X9652224Y-38738502D01*
X9641743Y-38731499D01*
X9528501Y-38618257D01*
X9439529Y-38485100D01*
X9425646Y-38451583D01*
X9378242Y-38337142D01*
X9347000Y-38180075D01*
X9347000Y-38019925D01*
X9378242Y-37862858D01*
X9439530Y-37714898D01*
X9528502Y-37581742D01*
X9641742Y-37468502D01*
X9774898Y-37379530D01*
X9922858Y-37318242D01*
X10079925Y-37287000D01*
X10240075Y-37287000D01*
X10397142Y-37318242D01*
X10397142Y-37318242D01*
G37*
G36*
X33257142Y-37318242D02*
X33405102Y-37379530D01*
X33538258Y-37468502D01*
X33651498Y-37581742D01*
X33740470Y-37714898D01*
X33801758Y-37862858D01*
X33833000Y-38019925D01*
X33833000Y-38180075D01*
X33801758Y-38337142D01*
X33754354Y-38451583D01*
X33740471Y-38485100D01*
X33651499Y-38618257D01*
X33538257Y-38731499D01*
X33527776Y-38738502D01*
X33405102Y-38820470D01*
X33257142Y-38881758D01*
X33100075Y-38913000D01*
X32939925Y-38913000D01*
X32782858Y-38881758D01*
X32634898Y-38820470D01*
X32512224Y-38738502D01*
X32501743Y-38731499D01*
X32388501Y-38618257D01*
X32299529Y-38485100D01*
X32285646Y-38451583D01*
X32238242Y-38337142D01*
X32207000Y-38180075D01*
X32207000Y-38019925D01*
X32238242Y-37862858D01*
X32299530Y-37714898D01*
X32388502Y-37581742D01*
X32501742Y-37468502D01*
X32634898Y-37379530D01*
X32782858Y-37318242D01*
X32939925Y-37287000D01*
X33100075Y-37287000D01*
X33257142Y-37318242D01*
X33257142Y-37318242D01*
G37*
G36*
X4047142Y-36683242D02*
X4195102Y-36744530D01*
X4328258Y-36833502D01*
X4441498Y-36946742D01*
X4530470Y-37079898D01*
X4591758Y-37227858D01*
X4623000Y-37384925D01*
X4623000Y-37545075D01*
X4591758Y-37702142D01*
X4530470Y-37850102D01*
X4441498Y-37983258D01*
X4328258Y-38096498D01*
X4195102Y-38185470D01*
X4047142Y-38246758D01*
X3890075Y-38278000D01*
X3729925Y-38278000D01*
X3572858Y-38246758D01*
X3424898Y-38185470D01*
X3291742Y-38096498D01*
X3178502Y-37983258D01*
X3089530Y-37850102D01*
X3028242Y-37702142D01*
X2997000Y-37545075D01*
X2997000Y-37384925D01*
X3028242Y-37227858D01*
X3089530Y-37079898D01*
X3178502Y-36946742D01*
X3291742Y-36833502D01*
X3424898Y-36744530D01*
X3572858Y-36683242D01*
X3729925Y-36652000D01*
X3890075Y-36652000D01*
X4047142Y-36683242D01*
X4047142Y-36683242D01*
G37*
G36*
X33257142Y-34778242D02*
X33405102Y-34839530D01*
X33538258Y-34928502D01*
X33651498Y-35041742D01*
X33740470Y-35174898D01*
X33801758Y-35322858D01*
X33833000Y-35479925D01*
X33833000Y-35640075D01*
X33801758Y-35797142D01*
X33740470Y-35945102D01*
X33651498Y-36078258D01*
X33538258Y-36191498D01*
X33405102Y-36280470D01*
X33257142Y-36341758D01*
X33100075Y-36373000D01*
X32939925Y-36373000D01*
X32782858Y-36341758D01*
X32634898Y-36280470D01*
X32501742Y-36191498D01*
X32388502Y-36078258D01*
X32299530Y-35945102D01*
X32238242Y-35797142D01*
X32207000Y-35640075D01*
X32207000Y-35479925D01*
X32238242Y-35322858D01*
X32299530Y-35174898D01*
X32388502Y-35041742D01*
X32501742Y-34928502D01*
X32634898Y-34839530D01*
X32782858Y-34778242D01*
X32939925Y-34747000D01*
X33100075Y-34747000D01*
X33257142Y-34778242D01*
X33257142Y-34778242D01*
G37*
G36*
X10397142Y-34778242D02*
X10545102Y-34839530D01*
X10678258Y-34928502D01*
X10791498Y-35041742D01*
X10880470Y-35174898D01*
X10941758Y-35322858D01*
X10973000Y-35479925D01*
X10973000Y-35640075D01*
X10941758Y-35797142D01*
X10880470Y-35945102D01*
X10791498Y-36078258D01*
X10678258Y-36191498D01*
X10545102Y-36280470D01*
X10397142Y-36341758D01*
X10240075Y-36373000D01*
X10079925Y-36373000D01*
X9922858Y-36341758D01*
X9774898Y-36280470D01*
X9641742Y-36191498D01*
X9528502Y-36078258D01*
X9439530Y-35945102D01*
X9378242Y-35797142D01*
X9347000Y-35640075D01*
X9347000Y-35479925D01*
X9378242Y-35322858D01*
X9439530Y-35174898D01*
X9528502Y-35041742D01*
X9641742Y-34928502D01*
X9774898Y-34839530D01*
X9922858Y-34778242D01*
X10079925Y-34747000D01*
X10240075Y-34747000D01*
X10397142Y-34778242D01*
X10397142Y-34778242D01*
G37*
G36*
X4047142Y-34143242D02*
X4195102Y-34204530D01*
X4328258Y-34293502D01*
X4441498Y-34406742D01*
X4530470Y-34539898D01*
X4591758Y-34687858D01*
X4623000Y-34844925D01*
X4623000Y-35005075D01*
X4591758Y-35162142D01*
X4530470Y-35310102D01*
X4441498Y-35443258D01*
X4328258Y-35556498D01*
X4195102Y-35645470D01*
X4047142Y-35706758D01*
X3890075Y-35738000D01*
X3729925Y-35738000D01*
X3572858Y-35706758D01*
X3424898Y-35645470D01*
X3291742Y-35556498D01*
X3178502Y-35443258D01*
X3089530Y-35310102D01*
X3028242Y-35162142D01*
X2997000Y-35005075D01*
X2997000Y-34844925D01*
X3028242Y-34687858D01*
X3089530Y-34539898D01*
X3178502Y-34406742D01*
X3291742Y-34293502D01*
X3424898Y-34204530D01*
X3572858Y-34143242D01*
X3729925Y-34112000D01*
X3890075Y-34112000D01*
X4047142Y-34143242D01*
X4047142Y-34143242D01*
G37*
G36*
X33257142Y-32238242D02*
X33405102Y-32299530D01*
X33472130Y-32344317D01*
X33538257Y-32388501D01*
X33651499Y-32501743D01*
X33671554Y-32531758D01*
X33740470Y-32634898D01*
X33801758Y-32782858D01*
X33833000Y-32939925D01*
X33833000Y-33100075D01*
X33801758Y-33257142D01*
X33740470Y-33405102D01*
X33651498Y-33538258D01*
X33538258Y-33651498D01*
X33405102Y-33740470D01*
X33257142Y-33801758D01*
X33100075Y-33833000D01*
X32939925Y-33833000D01*
X32782858Y-33801758D01*
X32634898Y-33740470D01*
X32501742Y-33651498D01*
X32388502Y-33538258D01*
X32299530Y-33405102D01*
X32238242Y-33257142D01*
X32207000Y-33100075D01*
X32207000Y-32939925D01*
X32238242Y-32782858D01*
X32299530Y-32634898D01*
X32368446Y-32531758D01*
X32388501Y-32501743D01*
X32501743Y-32388501D01*
X32567870Y-32344317D01*
X32634898Y-32299530D01*
X32782858Y-32238242D01*
X32939925Y-32207000D01*
X33100075Y-32207000D01*
X33257142Y-32238242D01*
X33257142Y-32238242D01*
G37*
G36*
X10397142Y-32238242D02*
X10545102Y-32299530D01*
X10612130Y-32344317D01*
X10678257Y-32388501D01*
X10791499Y-32501743D01*
X10811554Y-32531758D01*
X10880470Y-32634898D01*
X10941758Y-32782858D01*
X10973000Y-32939925D01*
X10973000Y-33100075D01*
X10941758Y-33257142D01*
X10880470Y-33405102D01*
X10791498Y-33538258D01*
X10678258Y-33651498D01*
X10545102Y-33740470D01*
X10397142Y-33801758D01*
X10240075Y-33833000D01*
X10079925Y-33833000D01*
X9922858Y-33801758D01*
X9774898Y-33740470D01*
X9641742Y-33651498D01*
X9528502Y-33538258D01*
X9439530Y-33405102D01*
X9378242Y-33257142D01*
X9347000Y-33100075D01*
X9347000Y-32939925D01*
X9378242Y-32782858D01*
X9439530Y-32634898D01*
X9508446Y-32531758D01*
X9528501Y-32501743D01*
X9641743Y-32388501D01*
X9707870Y-32344317D01*
X9774898Y-32299530D01*
X9922858Y-32238242D01*
X10079925Y-32207000D01*
X10240075Y-32207000D01*
X10397142Y-32238242D01*
X10397142Y-32238242D01*
G37*
G36*
X4047142Y-31603242D02*
X4195102Y-31664530D01*
X4328258Y-31753502D01*
X4441498Y-31866742D01*
X4530470Y-31999898D01*
X4591758Y-32147858D01*
X4623000Y-32304925D01*
X4623000Y-32465075D01*
X4591758Y-32622142D01*
X4530470Y-32770102D01*
X4441498Y-32903258D01*
X4328258Y-33016498D01*
X4195102Y-33105470D01*
X4047142Y-33166758D01*
X3890075Y-33198000D01*
X3729925Y-33198000D01*
X3572858Y-33166758D01*
X3424898Y-33105470D01*
X3291742Y-33016498D01*
X3178502Y-32903258D01*
X3089530Y-32770102D01*
X3028242Y-32622142D01*
X2997000Y-32465075D01*
X2997000Y-32304925D01*
X3028242Y-32147858D01*
X3089530Y-31999898D01*
X3178502Y-31866742D01*
X3291742Y-31753502D01*
X3424898Y-31664530D01*
X3572858Y-31603242D01*
X3729925Y-31572000D01*
X3890075Y-31572000D01*
X4047142Y-31603242D01*
X4047142Y-31603242D01*
G37*
G36*
X38972142Y-30968242D02*
X39120102Y-31029530D01*
X39187130Y-31074317D01*
X39253257Y-31118501D01*
X39366499Y-31231743D01*
X39386554Y-31261758D01*
X39455470Y-31364898D01*
X39516758Y-31512858D01*
X39548000Y-31669925D01*
X39548000Y-31830075D01*
X39516758Y-31987142D01*
X39455470Y-32135102D01*
X39410683Y-32202130D01*
X39366499Y-32268257D01*
X39253257Y-32381499D01*
X39242776Y-32388502D01*
X39120102Y-32470470D01*
X38972142Y-32531758D01*
X38815075Y-32563000D01*
X38654925Y-32563000D01*
X38497858Y-32531758D01*
X38349898Y-32470470D01*
X38227224Y-32388502D01*
X38216743Y-32381499D01*
X38103501Y-32268257D01*
X38059317Y-32202130D01*
X38014530Y-32135102D01*
X37953242Y-31987142D01*
X37922000Y-31830075D01*
X37922000Y-31669925D01*
X37953242Y-31512858D01*
X38014530Y-31364898D01*
X38083446Y-31261758D01*
X38103501Y-31231743D01*
X38216743Y-31118501D01*
X38282870Y-31074317D01*
X38349898Y-31029530D01*
X38497858Y-30968242D01*
X38654925Y-30937000D01*
X38815075Y-30937000D01*
X38972142Y-30968242D01*
X38972142Y-30968242D01*
G37*
G36*
X33257142Y-29698242D02*
X33405102Y-29759530D01*
X33472130Y-29804317D01*
X33538257Y-29848501D01*
X33651499Y-29961743D01*
X33671554Y-29991758D01*
X33740470Y-30094898D01*
X33801758Y-30242858D01*
X33833000Y-30399925D01*
X33833000Y-30560075D01*
X33801758Y-30717142D01*
X33754354Y-30831583D01*
X33740471Y-30865100D01*
X33651499Y-30998257D01*
X33538257Y-31111499D01*
X33527776Y-31118502D01*
X33405102Y-31200470D01*
X33257142Y-31261758D01*
X33100075Y-31293000D01*
X32939925Y-31293000D01*
X32782858Y-31261758D01*
X32634898Y-31200470D01*
X32512224Y-31118502D01*
X32501743Y-31111499D01*
X32388501Y-30998257D01*
X32299529Y-30865100D01*
X32285646Y-30831583D01*
X32238242Y-30717142D01*
X32207000Y-30560075D01*
X32207000Y-30399925D01*
X32238242Y-30242858D01*
X32299530Y-30094898D01*
X32368446Y-29991758D01*
X32388501Y-29961743D01*
X32501743Y-29848501D01*
X32567870Y-29804317D01*
X32634898Y-29759530D01*
X32782858Y-29698242D01*
X32939925Y-29667000D01*
X33100075Y-29667000D01*
X33257142Y-29698242D01*
X33257142Y-29698242D01*
G37*
G36*
X10397142Y-29698242D02*
X10545102Y-29759530D01*
X10612130Y-29804317D01*
X10678257Y-29848501D01*
X10791499Y-29961743D01*
X10811554Y-29991758D01*
X10880470Y-30094898D01*
X10941758Y-30242858D01*
X10973000Y-30399925D01*
X10973000Y-30560075D01*
X10941758Y-30717142D01*
X10894354Y-30831583D01*
X10880471Y-30865100D01*
X10791499Y-30998257D01*
X10678257Y-31111499D01*
X10667776Y-31118502D01*
X10545102Y-31200470D01*
X10397142Y-31261758D01*
X10240075Y-31293000D01*
X10079925Y-31293000D01*
X9922858Y-31261758D01*
X9774898Y-31200470D01*
X9652224Y-31118502D01*
X9641743Y-31111499D01*
X9528501Y-30998257D01*
X9439529Y-30865100D01*
X9425646Y-30831583D01*
X9378242Y-30717142D01*
X9347000Y-30560075D01*
X9347000Y-30399925D01*
X9378242Y-30242858D01*
X9439530Y-30094898D01*
X9508446Y-29991758D01*
X9528501Y-29961743D01*
X9641743Y-29848501D01*
X9707870Y-29804317D01*
X9774898Y-29759530D01*
X9922858Y-29698242D01*
X10079925Y-29667000D01*
X10240075Y-29667000D01*
X10397142Y-29698242D01*
X10397142Y-29698242D01*
G37*
G36*
X4047142Y-29063242D02*
X4195102Y-29124530D01*
X4328258Y-29213502D01*
X4441498Y-29326742D01*
X4530470Y-29459898D01*
X4591758Y-29607858D01*
X4623000Y-29764925D01*
X4623000Y-29925075D01*
X4591758Y-30082142D01*
X4530470Y-30230102D01*
X4441498Y-30363258D01*
X4328258Y-30476498D01*
X4195102Y-30565470D01*
X4047142Y-30626758D01*
X3890075Y-30658000D01*
X3729925Y-30658000D01*
X3572858Y-30626758D01*
X3424898Y-30565470D01*
X3291742Y-30476498D01*
X3178502Y-30363258D01*
X3089530Y-30230102D01*
X3028242Y-30082142D01*
X2997000Y-29925075D01*
X2997000Y-29764925D01*
X3028242Y-29607858D01*
X3089530Y-29459898D01*
X3178502Y-29326742D01*
X3291742Y-29213502D01*
X3424898Y-29124530D01*
X3572858Y-29063242D01*
X3729925Y-29032000D01*
X3890075Y-29032000D01*
X4047142Y-29063242D01*
X4047142Y-29063242D01*
G37*
G36*
X51672142Y-28428242D02*
X51820102Y-28489530D01*
X51887130Y-28534317D01*
X51953257Y-28578501D01*
X52066499Y-28691743D01*
X52086554Y-28721758D01*
X52155470Y-28824898D01*
X52216758Y-28972858D01*
X52248000Y-29129925D01*
X52248000Y-29290075D01*
X52216758Y-29447142D01*
X52155470Y-29595102D01*
X52110683Y-29662130D01*
X52066499Y-29728257D01*
X51953257Y-29841499D01*
X51942776Y-29848502D01*
X51820102Y-29930470D01*
X51672142Y-29991758D01*
X51515075Y-30023000D01*
X51354925Y-30023000D01*
X51197858Y-29991758D01*
X51049898Y-29930470D01*
X50927224Y-29848502D01*
X50916743Y-29841499D01*
X50803501Y-29728257D01*
X50759317Y-29662130D01*
X50714530Y-29595102D01*
X50653242Y-29447142D01*
X50622000Y-29290075D01*
X50622000Y-29129925D01*
X50653242Y-28972858D01*
X50714530Y-28824898D01*
X50783446Y-28721758D01*
X50803501Y-28691743D01*
X50916743Y-28578501D01*
X50982870Y-28534317D01*
X51049898Y-28489530D01*
X51197858Y-28428242D01*
X51354925Y-28397000D01*
X51515075Y-28397000D01*
X51672142Y-28428242D01*
X51672142Y-28428242D01*
G37*
G36*
X46592142Y-28428242D02*
X46740102Y-28489530D01*
X46807130Y-28534317D01*
X46873257Y-28578501D01*
X46986499Y-28691743D01*
X47006554Y-28721758D01*
X47075470Y-28824898D01*
X47136758Y-28972858D01*
X47168000Y-29129925D01*
X47168000Y-29290075D01*
X47136758Y-29447142D01*
X47075470Y-29595102D01*
X47030683Y-29662130D01*
X46986499Y-29728257D01*
X46873257Y-29841499D01*
X46862776Y-29848502D01*
X46740102Y-29930470D01*
X46592142Y-29991758D01*
X46435075Y-30023000D01*
X46274925Y-30023000D01*
X46117858Y-29991758D01*
X45969898Y-29930470D01*
X45847224Y-29848502D01*
X45836743Y-29841499D01*
X45723501Y-29728257D01*
X45679317Y-29662130D01*
X45634530Y-29595102D01*
X45573242Y-29447142D01*
X45542000Y-29290075D01*
X45542000Y-29129925D01*
X45573242Y-28972858D01*
X45634530Y-28824898D01*
X45703446Y-28721758D01*
X45723501Y-28691743D01*
X45836743Y-28578501D01*
X45902870Y-28534317D01*
X45969898Y-28489530D01*
X46117858Y-28428242D01*
X46274925Y-28397000D01*
X46435075Y-28397000D01*
X46592142Y-28428242D01*
X46592142Y-28428242D01*
G37*
G36*
X33257142Y-27158242D02*
X33405102Y-27219530D01*
X33538258Y-27308502D01*
X33651498Y-27421742D01*
X33740470Y-27554898D01*
X33801758Y-27702858D01*
X33833000Y-27859925D01*
X33833000Y-28020075D01*
X33801758Y-28177142D01*
X33754354Y-28291583D01*
X33740471Y-28325100D01*
X33651499Y-28458257D01*
X33538257Y-28571499D01*
X33527776Y-28578502D01*
X33405102Y-28660470D01*
X33257142Y-28721758D01*
X33100075Y-28753000D01*
X32939925Y-28753000D01*
X32782858Y-28721758D01*
X32634898Y-28660470D01*
X32512224Y-28578502D01*
X32501743Y-28571499D01*
X32388501Y-28458257D01*
X32299529Y-28325100D01*
X32285646Y-28291583D01*
X32238242Y-28177142D01*
X32207000Y-28020075D01*
X32207000Y-27859925D01*
X32238242Y-27702858D01*
X32299530Y-27554898D01*
X32388502Y-27421742D01*
X32501742Y-27308502D01*
X32634898Y-27219530D01*
X32782858Y-27158242D01*
X32939925Y-27127000D01*
X33100075Y-27127000D01*
X33257142Y-27158242D01*
X33257142Y-27158242D01*
G37*
G36*
X10397142Y-27158242D02*
X10545102Y-27219530D01*
X10678258Y-27308502D01*
X10791498Y-27421742D01*
X10880470Y-27554898D01*
X10941758Y-27702858D01*
X10973000Y-27859925D01*
X10973000Y-28020075D01*
X10941758Y-28177142D01*
X10894354Y-28291583D01*
X10880471Y-28325100D01*
X10791499Y-28458257D01*
X10678257Y-28571499D01*
X10667776Y-28578502D01*
X10545102Y-28660470D01*
X10397142Y-28721758D01*
X10240075Y-28753000D01*
X10079925Y-28753000D01*
X9922858Y-28721758D01*
X9774898Y-28660470D01*
X9652224Y-28578502D01*
X9641743Y-28571499D01*
X9528501Y-28458257D01*
X9439529Y-28325100D01*
X9425646Y-28291583D01*
X9378242Y-28177142D01*
X9347000Y-28020075D01*
X9347000Y-27859925D01*
X9378242Y-27702858D01*
X9439530Y-27554898D01*
X9528502Y-27421742D01*
X9641742Y-27308502D01*
X9774898Y-27219530D01*
X9922858Y-27158242D01*
X10079925Y-27127000D01*
X10240075Y-27127000D01*
X10397142Y-27158242D01*
X10397142Y-27158242D01*
G37*
G36*
X4047142Y-26523242D02*
X4195102Y-26584530D01*
X4328258Y-26673502D01*
X4441498Y-26786742D01*
X4530470Y-26919898D01*
X4591758Y-27067858D01*
X4623000Y-27224925D01*
X4623000Y-27385075D01*
X4591758Y-27542142D01*
X4530470Y-27690102D01*
X4441498Y-27823258D01*
X4328258Y-27936498D01*
X4195102Y-28025470D01*
X4047142Y-28086758D01*
X3890075Y-28118000D01*
X3729925Y-28118000D01*
X3572858Y-28086758D01*
X3424898Y-28025470D01*
X3291742Y-27936498D01*
X3178502Y-27823258D01*
X3089530Y-27690102D01*
X3028242Y-27542142D01*
X2997000Y-27385075D01*
X2997000Y-27224925D01*
X3028242Y-27067858D01*
X3089530Y-26919898D01*
X3178502Y-26786742D01*
X3291742Y-26673502D01*
X3424898Y-26584530D01*
X3572858Y-26523242D01*
X3729925Y-26492000D01*
X3890075Y-26492000D01*
X4047142Y-26523242D01*
X4047142Y-26523242D01*
G37*
G36*
X33257142Y-24618242D02*
X33405102Y-24679530D01*
X33472130Y-24724317D01*
X33538257Y-24768501D01*
X33651499Y-24881743D01*
X33671554Y-24911758D01*
X33740470Y-25014898D01*
X33801758Y-25162858D01*
X33833000Y-25319925D01*
X33833000Y-25480075D01*
X33801758Y-25637142D01*
X33740470Y-25785102D01*
X33651498Y-25918258D01*
X33538258Y-26031498D01*
X33405102Y-26120470D01*
X33257142Y-26181758D01*
X33100075Y-26213000D01*
X32939925Y-26213000D01*
X32782858Y-26181758D01*
X32634898Y-26120470D01*
X32501742Y-26031498D01*
X32388502Y-25918258D01*
X32299530Y-25785102D01*
X32238242Y-25637142D01*
X32207000Y-25480075D01*
X32207000Y-25319925D01*
X32238242Y-25162858D01*
X32299530Y-25014898D01*
X32368446Y-24911758D01*
X32388501Y-24881743D01*
X32501743Y-24768501D01*
X32567870Y-24724317D01*
X32634898Y-24679530D01*
X32782858Y-24618242D01*
X32939925Y-24587000D01*
X33100075Y-24587000D01*
X33257142Y-24618242D01*
X33257142Y-24618242D01*
G37*
G36*
X10397142Y-24618242D02*
X10545102Y-24679530D01*
X10612130Y-24724317D01*
X10678257Y-24768501D01*
X10791499Y-24881743D01*
X10811554Y-24911758D01*
X10880470Y-25014898D01*
X10941758Y-25162858D01*
X10973000Y-25319925D01*
X10973000Y-25480075D01*
X10941758Y-25637142D01*
X10880470Y-25785102D01*
X10791498Y-25918258D01*
X10678258Y-26031498D01*
X10545102Y-26120470D01*
X10397142Y-26181758D01*
X10240075Y-26213000D01*
X10079925Y-26213000D01*
X9922858Y-26181758D01*
X9774898Y-26120470D01*
X9641742Y-26031498D01*
X9528502Y-25918258D01*
X9439530Y-25785102D01*
X9378242Y-25637142D01*
X9347000Y-25480075D01*
X9347000Y-25319925D01*
X9378242Y-25162858D01*
X9439530Y-25014898D01*
X9508446Y-24911758D01*
X9528501Y-24881743D01*
X9641743Y-24768501D01*
X9707870Y-24724317D01*
X9774898Y-24679530D01*
X9922858Y-24618242D01*
X10079925Y-24587000D01*
X10240075Y-24587000D01*
X10397142Y-24618242D01*
X10397142Y-24618242D01*
G37*
G36*
X4047142Y-23983242D02*
X4195102Y-24044530D01*
X4328258Y-24133502D01*
X4441498Y-24246742D01*
X4530470Y-24379898D01*
X4591758Y-24527858D01*
X4623000Y-24684925D01*
X4623000Y-24845075D01*
X4591758Y-25002142D01*
X4530470Y-25150102D01*
X4441498Y-25283258D01*
X4328258Y-25396498D01*
X4195102Y-25485470D01*
X4047142Y-25546758D01*
X3890075Y-25578000D01*
X3729925Y-25578000D01*
X3572858Y-25546758D01*
X3424898Y-25485470D01*
X3291742Y-25396498D01*
X3178502Y-25283258D01*
X3089530Y-25150102D01*
X3028242Y-25002142D01*
X2997000Y-24845075D01*
X2997000Y-24684925D01*
X3028242Y-24527858D01*
X3089530Y-24379898D01*
X3178502Y-24246742D01*
X3291742Y-24133502D01*
X3424898Y-24044530D01*
X3572858Y-23983242D01*
X3729925Y-23952000D01*
X3890075Y-23952000D01*
X4047142Y-23983242D01*
X4047142Y-23983242D01*
G37*
G36*
X51672142Y-23348242D02*
X51820102Y-23409530D01*
X51887130Y-23454317D01*
X51953257Y-23498501D01*
X52066499Y-23611743D01*
X52086554Y-23641758D01*
X52155470Y-23744898D01*
X52216758Y-23892858D01*
X52248000Y-24049925D01*
X52248000Y-24210075D01*
X52216758Y-24367142D01*
X52155470Y-24515102D01*
X52110683Y-24582130D01*
X52066499Y-24648257D01*
X51953257Y-24761499D01*
X51942776Y-24768502D01*
X51820102Y-24850470D01*
X51672142Y-24911758D01*
X51515075Y-24943000D01*
X51354925Y-24943000D01*
X51197858Y-24911758D01*
X51049898Y-24850470D01*
X50927224Y-24768502D01*
X50916743Y-24761499D01*
X50803501Y-24648257D01*
X50759317Y-24582130D01*
X50714530Y-24515102D01*
X50653242Y-24367142D01*
X50622000Y-24210075D01*
X50622000Y-24049925D01*
X50653242Y-23892858D01*
X50714530Y-23744898D01*
X50783446Y-23641758D01*
X50803501Y-23611743D01*
X50916743Y-23498501D01*
X50982870Y-23454317D01*
X51049898Y-23409530D01*
X51197858Y-23348242D01*
X51354925Y-23317000D01*
X51515075Y-23317000D01*
X51672142Y-23348242D01*
X51672142Y-23348242D01*
G37*
G36*
X46592142Y-23348242D02*
X46740102Y-23409530D01*
X46807130Y-23454317D01*
X46873257Y-23498501D01*
X46986499Y-23611743D01*
X47006554Y-23641758D01*
X47075470Y-23744898D01*
X47136758Y-23892858D01*
X47168000Y-24049925D01*
X47168000Y-24210075D01*
X47136758Y-24367142D01*
X47075470Y-24515102D01*
X47030683Y-24582130D01*
X46986499Y-24648257D01*
X46873257Y-24761499D01*
X46862776Y-24768502D01*
X46740102Y-24850470D01*
X46592142Y-24911758D01*
X46435075Y-24943000D01*
X46274925Y-24943000D01*
X46117858Y-24911758D01*
X45969898Y-24850470D01*
X45847224Y-24768502D01*
X45836743Y-24761499D01*
X45723501Y-24648257D01*
X45679317Y-24582130D01*
X45634530Y-24515102D01*
X45573242Y-24367142D01*
X45542000Y-24210075D01*
X45542000Y-24049925D01*
X45573242Y-23892858D01*
X45634530Y-23744898D01*
X45703446Y-23641758D01*
X45723501Y-23611743D01*
X45836743Y-23498501D01*
X45902870Y-23454317D01*
X45969898Y-23409530D01*
X46117858Y-23348242D01*
X46274925Y-23317000D01*
X46435075Y-23317000D01*
X46592142Y-23348242D01*
X46592142Y-23348242D01*
G37*
G36*
X38972142Y-23348242D02*
X39120102Y-23409530D01*
X39187130Y-23454317D01*
X39253257Y-23498501D01*
X39366499Y-23611743D01*
X39386554Y-23641758D01*
X39455470Y-23744898D01*
X39516758Y-23892858D01*
X39548000Y-24049925D01*
X39548000Y-24210075D01*
X39516758Y-24367142D01*
X39455470Y-24515102D01*
X39410683Y-24582130D01*
X39366499Y-24648257D01*
X39253257Y-24761499D01*
X39242776Y-24768502D01*
X39120102Y-24850470D01*
X38972142Y-24911758D01*
X38815075Y-24943000D01*
X38654925Y-24943000D01*
X38497858Y-24911758D01*
X38349898Y-24850470D01*
X38227224Y-24768502D01*
X38216743Y-24761499D01*
X38103501Y-24648257D01*
X38059317Y-24582130D01*
X38014530Y-24515102D01*
X37953242Y-24367142D01*
X37922000Y-24210075D01*
X37922000Y-24049925D01*
X37953242Y-23892858D01*
X38014530Y-23744898D01*
X38083446Y-23641758D01*
X38103501Y-23611743D01*
X38216743Y-23498501D01*
X38282870Y-23454317D01*
X38349898Y-23409530D01*
X38497858Y-23348242D01*
X38654925Y-23317000D01*
X38815075Y-23317000D01*
X38972142Y-23348242D01*
X38972142Y-23348242D01*
G37*
G36*
X33257142Y-22078242D02*
X33405102Y-22139530D01*
X33538258Y-22228502D01*
X33651498Y-22341742D01*
X33740470Y-22474898D01*
X33801758Y-22622858D01*
X33833000Y-22779925D01*
X33833000Y-22940075D01*
X33801758Y-23097142D01*
X33754354Y-23211583D01*
X33740471Y-23245100D01*
X33651499Y-23378257D01*
X33538257Y-23491499D01*
X33527776Y-23498502D01*
X33405102Y-23580470D01*
X33257142Y-23641758D01*
X33100075Y-23673000D01*
X32939925Y-23673000D01*
X32782858Y-23641758D01*
X32634898Y-23580470D01*
X32512224Y-23498502D01*
X32501743Y-23491499D01*
X32388501Y-23378257D01*
X32299529Y-23245100D01*
X32285646Y-23211583D01*
X32238242Y-23097142D01*
X32207000Y-22940075D01*
X32207000Y-22779925D01*
X32238242Y-22622858D01*
X32299530Y-22474898D01*
X32388502Y-22341742D01*
X32501742Y-22228502D01*
X32634898Y-22139530D01*
X32782858Y-22078242D01*
X32939925Y-22047000D01*
X33100075Y-22047000D01*
X33257142Y-22078242D01*
X33257142Y-22078242D01*
G37*
G36*
X10397142Y-22078242D02*
X10545102Y-22139530D01*
X10678258Y-22228502D01*
X10791498Y-22341742D01*
X10880470Y-22474898D01*
X10941758Y-22622858D01*
X10973000Y-22779925D01*
X10973000Y-22940075D01*
X10941758Y-23097142D01*
X10894354Y-23211583D01*
X10880471Y-23245100D01*
X10791499Y-23378257D01*
X10678257Y-23491499D01*
X10667776Y-23498502D01*
X10545102Y-23580470D01*
X10397142Y-23641758D01*
X10240075Y-23673000D01*
X10079925Y-23673000D01*
X9922858Y-23641758D01*
X9774898Y-23580470D01*
X9652224Y-23498502D01*
X9641743Y-23491499D01*
X9528501Y-23378257D01*
X9439529Y-23245100D01*
X9425646Y-23211583D01*
X9378242Y-23097142D01*
X9347000Y-22940075D01*
X9347000Y-22779925D01*
X9378242Y-22622858D01*
X9439530Y-22474898D01*
X9528502Y-22341742D01*
X9641742Y-22228502D01*
X9774898Y-22139530D01*
X9922858Y-22078242D01*
X10079925Y-22047000D01*
X10240075Y-22047000D01*
X10397142Y-22078242D01*
X10397142Y-22078242D01*
G37*
G36*
X4047142Y-21443242D02*
X4195102Y-21504530D01*
X4328258Y-21593502D01*
X4441498Y-21706742D01*
X4530470Y-21839898D01*
X4591758Y-21987858D01*
X4623000Y-22144925D01*
X4623000Y-22305075D01*
X4591758Y-22462142D01*
X4530470Y-22610102D01*
X4441498Y-22743258D01*
X4328258Y-22856498D01*
X4195102Y-22945470D01*
X4047142Y-23006758D01*
X3890075Y-23038000D01*
X3729925Y-23038000D01*
X3572858Y-23006758D01*
X3424898Y-22945470D01*
X3291742Y-22856498D01*
X3178502Y-22743258D01*
X3089530Y-22610102D01*
X3028242Y-22462142D01*
X2997000Y-22305075D01*
X2997000Y-22144925D01*
X3028242Y-21987858D01*
X3089530Y-21839898D01*
X3178502Y-21706742D01*
X3291742Y-21593502D01*
X3424898Y-21504530D01*
X3572858Y-21443242D01*
X3729925Y-21412000D01*
X3890075Y-21412000D01*
X4047142Y-21443242D01*
X4047142Y-21443242D01*
G37*
G36*
X33257142Y-19538242D02*
X33405102Y-19599530D01*
X33538258Y-19688502D01*
X33651498Y-19801742D01*
X33740470Y-19934898D01*
X33801758Y-20082858D01*
X33833000Y-20239925D01*
X33833000Y-20400075D01*
X33801758Y-20557142D01*
X33740470Y-20705102D01*
X33651498Y-20838258D01*
X33538258Y-20951498D01*
X33405102Y-21040470D01*
X33257142Y-21101758D01*
X33100075Y-21133000D01*
X32939925Y-21133000D01*
X32782858Y-21101758D01*
X32634898Y-21040470D01*
X32501742Y-20951498D01*
X32388502Y-20838258D01*
X32299530Y-20705102D01*
X32238242Y-20557142D01*
X32207000Y-20400075D01*
X32207000Y-20239925D01*
X32238242Y-20082858D01*
X32299530Y-19934898D01*
X32388502Y-19801742D01*
X32501742Y-19688502D01*
X32634898Y-19599530D01*
X32782858Y-19538242D01*
X32939925Y-19507000D01*
X33100075Y-19507000D01*
X33257142Y-19538242D01*
X33257142Y-19538242D01*
G37*
G36*
X10397142Y-19538242D02*
X10545102Y-19599530D01*
X10678258Y-19688502D01*
X10791498Y-19801742D01*
X10880470Y-19934898D01*
X10941758Y-20082858D01*
X10973000Y-20239925D01*
X10973000Y-20400075D01*
X10941758Y-20557142D01*
X10880470Y-20705102D01*
X10791498Y-20838258D01*
X10678258Y-20951498D01*
X10545102Y-21040470D01*
X10397142Y-21101758D01*
X10240075Y-21133000D01*
X10079925Y-21133000D01*
X9922858Y-21101758D01*
X9774898Y-21040470D01*
X9641742Y-20951498D01*
X9528502Y-20838258D01*
X9439530Y-20705102D01*
X9378242Y-20557142D01*
X9347000Y-20400075D01*
X9347000Y-20239925D01*
X9378242Y-20082858D01*
X9439530Y-19934898D01*
X9528502Y-19801742D01*
X9641742Y-19688502D01*
X9774898Y-19599530D01*
X9922858Y-19538242D01*
X10079925Y-19507000D01*
X10240075Y-19507000D01*
X10397142Y-19538242D01*
X10397142Y-19538242D01*
G37*
G36*
X4047142Y-18903242D02*
X4195102Y-18964530D01*
X4328258Y-19053502D01*
X4441498Y-19166742D01*
X4530470Y-19299898D01*
X4591758Y-19447858D01*
X4623000Y-19604925D01*
X4623000Y-19765075D01*
X4591758Y-19922142D01*
X4530470Y-20070102D01*
X4441498Y-20203258D01*
X4328258Y-20316498D01*
X4195102Y-20405470D01*
X4047142Y-20466758D01*
X3890075Y-20498000D01*
X3729925Y-20498000D01*
X3572858Y-20466758D01*
X3424898Y-20405470D01*
X3291742Y-20316498D01*
X3178502Y-20203258D01*
X3089530Y-20070102D01*
X3028242Y-19922142D01*
X2997000Y-19765075D01*
X2997000Y-19604925D01*
X3028242Y-19447858D01*
X3089530Y-19299898D01*
X3178502Y-19166742D01*
X3291742Y-19053502D01*
X3424898Y-18964530D01*
X3572858Y-18903242D01*
X3729925Y-18872000D01*
X3890075Y-18872000D01*
X4047142Y-18903242D01*
X4047142Y-18903242D01*
G37*
G36*
X38972142Y-16998242D02*
X39120102Y-17059530D01*
X39253258Y-17148502D01*
X39366498Y-17261742D01*
X39455470Y-17394898D01*
X39516758Y-17542858D01*
X39548000Y-17699925D01*
X39548000Y-17860075D01*
X39516758Y-18017142D01*
X39455470Y-18165102D01*
X39366498Y-18298258D01*
X39253258Y-18411498D01*
X39120102Y-18500470D01*
X38972142Y-18561758D01*
X38815075Y-18593000D01*
X38654925Y-18593000D01*
X38497858Y-18561758D01*
X38349898Y-18500470D01*
X38216742Y-18411498D01*
X38103502Y-18298258D01*
X38014530Y-18165102D01*
X37953242Y-18017142D01*
X37922000Y-17860075D01*
X37922000Y-17699925D01*
X37953242Y-17542858D01*
X38014530Y-17394898D01*
X38103502Y-17261742D01*
X38216742Y-17148502D01*
X38349898Y-17059530D01*
X38497858Y-16998242D01*
X38654925Y-16967000D01*
X38815075Y-16967000D01*
X38972142Y-16998242D01*
X38972142Y-16998242D01*
G37*
G36*
X44052142Y-16998242D02*
X44200102Y-17059530D01*
X44333258Y-17148502D01*
X44446498Y-17261742D01*
X44535470Y-17394898D01*
X44596758Y-17542858D01*
X44628000Y-17699925D01*
X44628000Y-17860075D01*
X44596758Y-18017142D01*
X44535470Y-18165102D01*
X44446498Y-18298258D01*
X44333258Y-18411498D01*
X44200102Y-18500470D01*
X44052142Y-18561758D01*
X43895075Y-18593000D01*
X43734925Y-18593000D01*
X43577858Y-18561758D01*
X43429898Y-18500470D01*
X43296742Y-18411498D01*
X43183502Y-18298258D01*
X43094530Y-18165102D01*
X43033242Y-18017142D01*
X43002000Y-17860075D01*
X43002000Y-17699925D01*
X43033242Y-17542858D01*
X43094530Y-17394898D01*
X43183502Y-17261742D01*
X43296742Y-17148502D01*
X43429898Y-17059530D01*
X43577858Y-16998242D01*
X43734925Y-16967000D01*
X43895075Y-16967000D01*
X44052142Y-16998242D01*
X44052142Y-16998242D01*
G37*
G36*
X4047142Y-16363242D02*
X4195102Y-16424530D01*
X4328258Y-16513502D01*
X4441498Y-16626742D01*
X4530470Y-16759898D01*
X4591758Y-16907858D01*
X4623000Y-17064925D01*
X4623000Y-17225075D01*
X4591758Y-17382142D01*
X4530470Y-17530102D01*
X4441498Y-17663258D01*
X4328258Y-17776498D01*
X4195102Y-17865470D01*
X4047142Y-17926758D01*
X3890075Y-17958000D01*
X3729925Y-17958000D01*
X3572858Y-17926758D01*
X3424898Y-17865470D01*
X3291742Y-17776498D01*
X3178502Y-17663258D01*
X3089530Y-17530102D01*
X3028242Y-17382142D01*
X2997000Y-17225075D01*
X2997000Y-17064925D01*
X3028242Y-16907858D01*
X3089530Y-16759898D01*
X3178502Y-16626742D01*
X3291742Y-16513502D01*
X3424898Y-16424530D01*
X3572858Y-16363242D01*
X3729925Y-16332000D01*
X3890075Y-16332000D01*
X4047142Y-16363242D01*
X4047142Y-16363242D01*
G37*
G36*
X4047142Y-13823242D02*
X4195102Y-13884530D01*
X4328258Y-13973502D01*
X4441498Y-14086742D01*
X4530470Y-14219898D01*
X4591758Y-14367858D01*
X4623000Y-14524925D01*
X4623000Y-14685075D01*
X4591758Y-14842142D01*
X4530470Y-14990102D01*
X4441498Y-15123258D01*
X4328258Y-15236498D01*
X4195102Y-15325470D01*
X4047142Y-15386758D01*
X3890075Y-15418000D01*
X3729925Y-15418000D01*
X3572858Y-15386758D01*
X3424898Y-15325470D01*
X3291742Y-15236498D01*
X3178502Y-15123258D01*
X3089530Y-14990102D01*
X3028242Y-14842142D01*
X2997000Y-14685075D01*
X2997000Y-14524925D01*
X3028242Y-14367858D01*
X3089530Y-14219898D01*
X3178502Y-14086742D01*
X3291742Y-13973502D01*
X3424898Y-13884530D01*
X3572858Y-13823242D01*
X3729925Y-13792000D01*
X3890075Y-13792000D01*
X4047142Y-13823242D01*
X4047142Y-13823242D01*
G37*
G36*
X38972142Y-11918242D02*
X39120102Y-11979530D01*
X39253258Y-12068502D01*
X39366498Y-12181742D01*
X39455470Y-12314898D01*
X39516758Y-12462858D01*
X39548000Y-12619925D01*
X39548000Y-12780075D01*
X39516758Y-12937142D01*
X39455470Y-13085102D01*
X39366498Y-13218258D01*
X39253258Y-13331498D01*
X39120102Y-13420470D01*
X38972142Y-13481758D01*
X38815075Y-13513000D01*
X38654925Y-13513000D01*
X38497858Y-13481758D01*
X38349898Y-13420470D01*
X38216742Y-13331498D01*
X38103502Y-13218258D01*
X38014530Y-13085102D01*
X37953242Y-12937142D01*
X37922000Y-12780075D01*
X37922000Y-12619925D01*
X37953242Y-12462858D01*
X38014530Y-12314898D01*
X38103502Y-12181742D01*
X38216742Y-12068502D01*
X38349898Y-11979530D01*
X38497858Y-11918242D01*
X38654925Y-11887000D01*
X38815075Y-11887000D01*
X38972142Y-11918242D01*
X38972142Y-11918242D01*
G37*
G36*
X44052142Y-11918242D02*
X44200102Y-11979530D01*
X44333258Y-12068502D01*
X44446498Y-12181742D01*
X44535470Y-12314898D01*
X44596758Y-12462858D01*
X44628000Y-12619925D01*
X44628000Y-12780075D01*
X44596758Y-12937142D01*
X44535470Y-13085102D01*
X44446498Y-13218258D01*
X44333258Y-13331498D01*
X44200102Y-13420470D01*
X44052142Y-13481758D01*
X43895075Y-13513000D01*
X43734925Y-13513000D01*
X43577858Y-13481758D01*
X43429898Y-13420470D01*
X43296742Y-13331498D01*
X43183502Y-13218258D01*
X43094530Y-13085102D01*
X43033242Y-12937142D01*
X43002000Y-12780075D01*
X43002000Y-12619925D01*
X43033242Y-12462858D01*
X43094530Y-12314898D01*
X43183502Y-12181742D01*
X43296742Y-12068502D01*
X43429898Y-11979530D01*
X43577858Y-11918242D01*
X43734925Y-11887000D01*
X43895075Y-11887000D01*
X44052142Y-11918242D01*
X44052142Y-11918242D01*
G37*
G36*
X30717142Y-11918242D02*
X30865102Y-11979530D01*
X30998258Y-12068502D01*
X31111498Y-12181742D01*
X31200470Y-12314898D01*
X31261758Y-12462858D01*
X31293000Y-12619925D01*
X31293000Y-12780075D01*
X31261758Y-12937142D01*
X31200470Y-13085102D01*
X31111498Y-13218258D01*
X30998258Y-13331498D01*
X30865102Y-13420470D01*
X30717142Y-13481758D01*
X30560075Y-13513000D01*
X30399925Y-13513000D01*
X30242858Y-13481758D01*
X30094898Y-13420470D01*
X29961742Y-13331498D01*
X29848502Y-13218258D01*
X29759530Y-13085102D01*
X29698242Y-12937142D01*
X29667000Y-12780075D01*
X29667000Y-12619925D01*
X29698242Y-12462858D01*
X29759530Y-12314898D01*
X29848502Y-12181742D01*
X29961742Y-12068502D01*
X30094898Y-11979530D01*
X30242858Y-11918242D01*
X30399925Y-11887000D01*
X30560075Y-11887000D01*
X30717142Y-11918242D01*
X30717142Y-11918242D01*
G37*
G36*
X4047142Y-11283242D02*
X4195102Y-11344530D01*
X4328258Y-11433502D01*
X4441498Y-11546742D01*
X4530470Y-11679898D01*
X4591758Y-11827858D01*
X4623000Y-11984925D01*
X4623000Y-12145075D01*
X4591758Y-12302142D01*
X4530470Y-12450102D01*
X4441498Y-12583258D01*
X4328258Y-12696498D01*
X4195102Y-12785470D01*
X4047142Y-12846758D01*
X3890075Y-12878000D01*
X3729925Y-12878000D01*
X3572858Y-12846758D01*
X3424898Y-12785470D01*
X3291742Y-12696498D01*
X3178502Y-12583258D01*
X3089530Y-12450102D01*
X3028242Y-12302142D01*
X2997000Y-12145075D01*
X2997000Y-11984925D01*
X3028242Y-11827858D01*
X3089530Y-11679898D01*
X3178502Y-11546742D01*
X3291742Y-11433502D01*
X3424898Y-11344530D01*
X3572858Y-11283242D01*
X3729925Y-11252000D01*
X3890075Y-11252000D01*
X4047142Y-11283242D01*
X4047142Y-11283242D01*
G37*
G36*
X75940256Y-8551298D02*
X76046579Y-8572447D01*
X76347042Y-8696903D01*
X76461315Y-8773258D01*
X76617454Y-8877587D01*
X76847413Y-9107546D01*
X77028098Y-9377960D01*
X77152553Y-9678422D01*
X77216000Y-9997389D01*
X77216000Y-10322611D01*
X77152553Y-10641578D01*
X77028098Y-10942040D01*
X76847413Y-11212454D01*
X76617454Y-11442413D01*
X76617451Y-11442415D01*
X76347042Y-11623097D01*
X76046579Y-11747553D01*
X75940256Y-11768702D01*
X75727611Y-11811000D01*
X75402389Y-11811000D01*
X75189744Y-11768702D01*
X75083421Y-11747553D01*
X74782958Y-11623097D01*
X74512549Y-11442415D01*
X74512546Y-11442413D01*
X74282587Y-11212454D01*
X74101902Y-10942040D01*
X73977447Y-10641578D01*
X73914000Y-10322611D01*
X73914000Y-9997389D01*
X73977447Y-9678422D01*
X74101902Y-9377960D01*
X74282587Y-9107546D01*
X74512546Y-8877587D01*
X74668685Y-8773258D01*
X74782958Y-8696903D01*
X75083421Y-8572447D01*
X75189744Y-8551298D01*
X75402389Y-8509000D01*
X75727611Y-8509000D01*
X75940256Y-8551298D01*
X75940256Y-8551298D01*
G37*
G36*
X57387142Y-7473242D02*
X57535102Y-7534530D01*
X57602130Y-7579317D01*
X57668257Y-7623501D01*
X57781499Y-7736743D01*
X57801554Y-7766758D01*
X57870470Y-7869898D01*
X57931758Y-8017858D01*
X57963000Y-8174925D01*
X57963000Y-8335075D01*
X57931758Y-8492142D01*
X57870470Y-8640102D01*
X57781498Y-8773258D01*
X57668258Y-8886498D01*
X57535102Y-8975470D01*
X57387142Y-9036758D01*
X57230075Y-9068000D01*
X57069925Y-9068000D01*
X56912858Y-9036758D01*
X56764898Y-8975470D01*
X56631742Y-8886498D01*
X56518502Y-8773258D01*
X56429530Y-8640102D01*
X56368242Y-8492142D01*
X56337000Y-8335075D01*
X56337000Y-8174925D01*
X56368242Y-8017858D01*
X56429530Y-7869898D01*
X56498446Y-7766758D01*
X56518501Y-7736743D01*
X56631743Y-7623501D01*
X56697870Y-7579317D01*
X56764898Y-7534530D01*
X56912858Y-7473242D01*
X57069925Y-7442000D01*
X57230075Y-7442000D01*
X57387142Y-7473242D01*
X57387142Y-7473242D01*
G37*
G36*
X30717142Y-6203242D02*
X30865102Y-6264530D01*
X30998258Y-6353502D01*
X31111498Y-6466742D01*
X31200470Y-6599898D01*
X31261758Y-6747858D01*
X31293000Y-6904925D01*
X31293000Y-7065075D01*
X31261758Y-7222142D01*
X31214354Y-7336583D01*
X31200471Y-7370100D01*
X31111499Y-7503257D01*
X30998257Y-7616499D01*
X30987776Y-7623502D01*
X30865102Y-7705470D01*
X30717142Y-7766758D01*
X30560075Y-7798000D01*
X30399925Y-7798000D01*
X30242858Y-7766758D01*
X30094898Y-7705470D01*
X29972224Y-7623502D01*
X29961743Y-7616499D01*
X29848501Y-7503257D01*
X29759529Y-7370100D01*
X29745646Y-7336583D01*
X29698242Y-7222142D01*
X29667000Y-7065075D01*
X29667000Y-6904925D01*
X29698242Y-6747858D01*
X29759530Y-6599898D01*
X29848502Y-6466742D01*
X29961742Y-6353502D01*
X30094898Y-6264530D01*
X30242858Y-6203242D01*
X30399925Y-6172000D01*
X30560075Y-6172000D01*
X30717142Y-6203242D01*
X30717142Y-6203242D01*
G37*
G36*
X76575256Y-2201298D02*
X76681579Y-2222447D01*
X76982042Y-2346903D01*
X77143115Y-2454529D01*
X77252454Y-2527587D01*
X77482413Y-2757546D01*
X77482415Y-2757549D01*
X77663097Y-3027958D01*
X77757172Y-3255074D01*
X77787553Y-3328422D01*
X77851000Y-3647389D01*
X77851000Y-3972611D01*
X77787553Y-4291578D01*
X77663098Y-4592040D01*
X77482413Y-4862454D01*
X77252454Y-5092413D01*
X77252451Y-5092415D01*
X76982042Y-5273097D01*
X76681579Y-5397553D01*
X76575256Y-5418702D01*
X76362611Y-5461000D01*
X76037389Y-5461000D01*
X75824744Y-5418702D01*
X75718421Y-5397553D01*
X75417958Y-5273097D01*
X75147549Y-5092415D01*
X75147546Y-5092413D01*
X74917587Y-4862454D01*
X74736902Y-4592040D01*
X74612447Y-4291578D01*
X74549000Y-3972611D01*
X74549000Y-3647389D01*
X74612447Y-3328422D01*
X74642829Y-3255074D01*
X74736903Y-3027958D01*
X74917585Y-2757549D01*
X74917587Y-2757546D01*
X75147546Y-2527587D01*
X75256885Y-2454529D01*
X75417958Y-2346903D01*
X75718421Y-2222447D01*
X75824744Y-2201298D01*
X76037389Y-2159000D01*
X76362611Y-2159000D01*
X76575256Y-2201298D01*
X76575256Y-2201298D01*
G37*
G36*
X4185256Y-2201298D02*
X4291579Y-2222447D01*
X4592042Y-2346903D01*
X4753115Y-2454529D01*
X4862454Y-2527587D01*
X5092413Y-2757546D01*
X5092415Y-2757549D01*
X5273097Y-3027958D01*
X5367172Y-3255074D01*
X5397553Y-3328422D01*
X5461000Y-3647389D01*
X5461000Y-3972611D01*
X5397553Y-4291578D01*
X5273098Y-4592040D01*
X5092413Y-4862454D01*
X4862454Y-5092413D01*
X4862451Y-5092415D01*
X4592042Y-5273097D01*
X4291579Y-5397553D01*
X4185256Y-5418702D01*
X3972611Y-5461000D01*
X3647389Y-5461000D01*
X3434744Y-5418702D01*
X3328421Y-5397553D01*
X3027958Y-5273097D01*
X2757549Y-5092415D01*
X2757546Y-5092413D01*
X2527587Y-4862454D01*
X2346902Y-4592040D01*
X2222447Y-4291578D01*
X2159000Y-3972611D01*
X2159000Y-3647389D01*
X2222447Y-3328422D01*
X2252829Y-3255074D01*
X2346903Y-3027958D01*
X2527585Y-2757549D01*
X2527587Y-2757546D01*
X2757546Y-2527587D01*
X2866885Y-2454529D01*
X3027958Y-2346903D01*
X3328421Y-2222447D01*
X3434744Y-2201298D01*
X3647389Y-2159000D01*
X3972611Y-2159000D01*
X4185256Y-2201298D01*
X4185256Y-2201298D01*
G37*
G36*
X57387142Y-2393242D02*
X57535102Y-2454530D01*
X57668258Y-2543502D01*
X57781498Y-2656742D01*
X57870470Y-2789898D01*
X57931758Y-2937858D01*
X57963000Y-3094925D01*
X57963000Y-3255075D01*
X57931758Y-3412142D01*
X57870470Y-3560102D01*
X57781498Y-3693258D01*
X57668258Y-3806498D01*
X57535102Y-3895470D01*
X57387142Y-3956758D01*
X57230075Y-3988000D01*
X57069925Y-3988000D01*
X56912858Y-3956758D01*
X56764898Y-3895470D01*
X56631742Y-3806498D01*
X56518502Y-3693258D01*
X56429530Y-3560102D01*
X56368242Y-3412142D01*
X56337000Y-3255075D01*
X56337000Y-3094925D01*
X56368242Y-2937858D01*
X56429530Y-2789898D01*
X56518502Y-2656742D01*
X56631742Y-2543502D01*
X56764898Y-2454530D01*
X56912858Y-2393242D01*
X57069925Y-2362000D01*
X57230075Y-2362000D01*
X57387142Y-2393242D01*
X57387142Y-2393242D01*
G37*
M02*
