G04 #@! TF.GenerationSoftware,KiCad,Pcbnew,(5.0.1)-3*
G04 #@! TF.CreationDate,2018-11-11T13:08:13+01:00*
G04 #@! TF.ProjectId,THERMOSTAT,544845524D4F535441542E6B69636164,rev?*
G04 #@! TF.SameCoordinates,Original*
G04 #@! TF.FileFunction,Copper,L2,Bot,Signal*
G04 #@! TF.FilePolarity,Positive*
%FSLAX46Y46*%
G04 Gerber Fmt 4.6, Leading zero omitted, Abs format (unit mm)*
G04 Created by KiCad (PCBNEW (5.0.1)-3) date 11/11/2018 1:08:13 PM*
%MOMM*%
%LPD*%
G01*
G04 APERTURE LIST*
G04 #@! TA.AperFunction,ComponentPad*
%ADD10C,1.524000*%
G04 #@! TD*
G04 #@! TA.AperFunction,ViaPad*
%ADD11C,0.800000*%
G04 #@! TD*
G04 #@! TA.AperFunction,Conductor*
%ADD12C,0.250000*%
G04 #@! TD*
G04 #@! TA.AperFunction,Conductor*
%ADD13C,1.000000*%
G04 #@! TD*
G04 #@! TA.AperFunction,Conductor*
%ADD14C,2.000000*%
G04 #@! TD*
G04 APERTURE END LIST*
D10*
G04 #@! TO.P,ACDC1,2*
G04 #@! TO.N,Net-(ACDC1-Pad2)*
X57150000Y-3175000D03*
G04 #@! TO.P,ACDC1,1*
G04 #@! TO.N,Net-(ACDC1-Pad1)*
X57150000Y-8255000D03*
G04 #@! TO.P,ACDC1,4*
G04 #@! TO.N,Net-(5VIN1-Pad1)*
X30480000Y-6985000D03*
G04 #@! TO.P,ACDC1,3*
G04 #@! TO.N,Net-(5VIN1-Pad2)*
X30480000Y-12700000D03*
G04 #@! TD*
G04 #@! TO.P,TouchUp1,1*
G04 #@! TO.N,Net-(5VIN1-Pad1)*
X74295000Y-58420000D03*
G04 #@! TO.P,TouchUp1,2*
G04 #@! TO.N,Net-(ESP1-Pad4)*
X71755000Y-58420000D03*
G04 #@! TO.P,TouchUp1,3*
G04 #@! TO.N,Net-(5VIN1-Pad2)*
X69215000Y-58420000D03*
G04 #@! TD*
G04 #@! TO.P,ESP1,1*
G04 #@! TO.N,Net-(ESP1-Pad1)*
X33020000Y-20320000D03*
G04 #@! TO.P,ESP1,2*
G04 #@! TO.N,Net-(ESP1-Pad2)*
X33020000Y-22860000D03*
G04 #@! TO.P,ESP1,3*
G04 #@! TO.N,Net-(ESP1-Pad3)*
X33020000Y-25400000D03*
G04 #@! TO.P,ESP1,4*
G04 #@! TO.N,Net-(ESP1-Pad4)*
X33020000Y-27940000D03*
G04 #@! TO.P,ESP1,5*
G04 #@! TO.N,Net-(DHT1-Pad2)*
X33020000Y-30480000D03*
G04 #@! TO.P,ESP1,6*
G04 #@! TO.N,Net-(ESP1-Pad6)*
X33020000Y-33020000D03*
G04 #@! TO.P,ESP1,7*
G04 #@! TO.N,Net-(5VIN1-Pad2)*
X33020000Y-35560000D03*
G04 #@! TO.P,ESP1,8*
G04 #@! TO.N,Net-(5VIN1-Pad1)*
X33020000Y-38100000D03*
G04 #@! TO.P,ESP1,9*
G04 #@! TO.N,Net-(ESP1-Pad9)*
X10160000Y-20320000D03*
G04 #@! TO.P,ESP1,10*
G04 #@! TO.N,Net-(ESP1-Pad10)*
X10160000Y-22860000D03*
G04 #@! TO.P,ESP1,11*
G04 #@! TO.N,Net-(ESP1-Pad11)*
X10160000Y-25400000D03*
G04 #@! TO.P,ESP1,12*
G04 #@! TO.N,Net-(ESP1-Pad12)*
X10160000Y-27940000D03*
G04 #@! TO.P,ESP1,13*
G04 #@! TO.N,Net-(ESP1-Pad13)*
X10160000Y-30480000D03*
G04 #@! TO.P,ESP1,14*
G04 #@! TO.N,Net-(ESP1-Pad14)*
X10160000Y-33020000D03*
G04 #@! TO.P,ESP1,15*
G04 #@! TO.N,Net-(ESP1-Pad15)*
X10160000Y-35560000D03*
G04 #@! TO.P,ESP1,16*
G04 #@! TO.N,Net-(ESP1-Pad16)*
X10160000Y-38100000D03*
G04 #@! TD*
G04 #@! TO.P,DHT1,1*
G04 #@! TO.N,Net-(5VIN1-Pad1)*
X66040000Y-41910000D03*
G04 #@! TO.P,DHT1,2*
G04 #@! TO.N,Net-(DHT1-Pad2)*
X68580000Y-41910000D03*
G04 #@! TO.P,DHT1,3*
G04 #@! TO.N,Net-(DHT1-Pad3)*
X71120000Y-41910000D03*
G04 #@! TO.P,DHT1,4*
G04 #@! TO.N,Net-(5VIN1-Pad2)*
X73660000Y-41910000D03*
G04 #@! TD*
G04 #@! TO.P,LOUT1,2*
G04 #@! TO.N,Net-(ACDC1-Pad1)*
X46355000Y-29210000D03*
X46355000Y-24130000D03*
G04 #@! TO.P,LOUT1,1*
G04 #@! TO.N,Net-(LOUT1-Pad1)*
X51435000Y-29210000D03*
X51435000Y-24130000D03*
G04 #@! TD*
G04 #@! TO.P,ACIN1,1*
G04 #@! TO.N,Net-(ACDC1-Pad2)*
X51435000Y-39370000D03*
X51435000Y-44450000D03*
G04 #@! TO.P,ACIN1,2*
G04 #@! TO.N,Net-(ACDC1-Pad1)*
X46355000Y-39370000D03*
X46355000Y-44450000D03*
G04 #@! TD*
G04 #@! TO.P,5VIN1,2*
G04 #@! TO.N,Net-(5VIN1-Pad2)*
X38735000Y-17780000D03*
X38735000Y-12700000D03*
G04 #@! TO.P,5VIN1,1*
G04 #@! TO.N,Net-(5VIN1-Pad1)*
X43815000Y-17780000D03*
X43815000Y-12700000D03*
G04 #@! TD*
G04 #@! TO.P,TouchMenu1,3*
G04 #@! TO.N,Net-(5VIN1-Pad2)*
X37465000Y-58420000D03*
G04 #@! TO.P,TouchMenu1,2*
G04 #@! TO.N,Net-(ESP1-Pad1)*
X40005000Y-58420000D03*
G04 #@! TO.P,TouchMenu1,1*
G04 #@! TO.N,Net-(5VIN1-Pad1)*
X42545000Y-58420000D03*
G04 #@! TD*
G04 #@! TO.P,TouchDown1,1*
G04 #@! TO.N,Net-(5VIN1-Pad1)*
X10795000Y-58420000D03*
G04 #@! TO.P,TouchDown1,2*
G04 #@! TO.N,Net-(ESP1-Pad11)*
X8255000Y-58420000D03*
G04 #@! TO.P,TouchDown1,3*
G04 #@! TO.N,Net-(5VIN1-Pad2)*
X5715000Y-58420000D03*
G04 #@! TD*
G04 #@! TO.P,TFT1,1*
G04 #@! TO.N,Net-(5VIN1-Pad1)*
X3810000Y-12065000D03*
G04 #@! TO.P,TFT1,2*
G04 #@! TO.N,Net-(5VIN1-Pad2)*
X3810000Y-14605000D03*
G04 #@! TO.P,TFT1,3*
G04 #@! TO.N,Net-(ESP1-Pad3)*
X3810000Y-17145000D03*
G04 #@! TO.P,TFT1,4*
G04 #@! TO.N,Net-(ESP1-Pad9)*
X3810000Y-19685000D03*
G04 #@! TO.P,TFT1,5*
G04 #@! TO.N,Net-(ESP1-Pad6)*
X3810000Y-22225000D03*
G04 #@! TO.P,TFT1,6*
G04 #@! TO.N,Net-(ESP1-Pad14)*
X3810000Y-24765000D03*
G04 #@! TO.P,TFT1,7*
G04 #@! TO.N,Net-(ESP1-Pad12)*
X3810000Y-27305000D03*
G04 #@! TO.P,TFT1,8*
G04 #@! TO.N,Net-(ESP1-Pad2)*
X3810000Y-29845000D03*
G04 #@! TO.P,TFT1,9*
G04 #@! TO.N,Net-(TFT1-Pad9)*
X3810000Y-32385000D03*
G04 #@! TO.P,TFT1,10*
G04 #@! TO.N,Net-(TFT1-Pad10)*
X3810000Y-34925000D03*
G04 #@! TO.P,TFT1,11*
G04 #@! TO.N,Net-(TFT1-Pad11)*
X3810000Y-37465000D03*
G04 #@! TO.P,TFT1,12*
G04 #@! TO.N,Net-(TFT1-Pad12)*
X3810000Y-40005000D03*
G04 #@! TO.P,TFT1,13*
G04 #@! TO.N,Net-(TFT1-Pad13)*
X3810000Y-42545000D03*
G04 #@! TO.P,TFT1,14*
G04 #@! TO.N,Net-(TFT1-Pad14)*
X3810000Y-45085000D03*
G04 #@! TD*
G04 #@! TO.P,OMRON1,1*
G04 #@! TO.N,Net-(ACDC1-Pad2)*
X38735000Y-24130000D03*
G04 #@! TO.P,OMRON1,2*
G04 #@! TO.N,Net-(LOUT1-Pad1)*
X38735000Y-31750000D03*
G04 #@! TO.P,OMRON1,3*
G04 #@! TO.N,Net-(ESP1-Pad15)*
X38735000Y-41910000D03*
G04 #@! TO.P,OMRON1,4*
G04 #@! TO.N,Net-(5VIN1-Pad2)*
X38735000Y-44450000D03*
G04 #@! TD*
D11*
G04 #@! TO.N,Net-(ESP1-Pad2)*
X12065000Y-16510000D03*
G04 #@! TD*
D12*
G04 #@! TO.N,Net-(ESP1-Pad1)*
X33020000Y-20320000D02*
X24765000Y-20320000D01*
X24765000Y-20320000D02*
X23495000Y-21590000D01*
X23495000Y-43815000D02*
X28575000Y-48895000D01*
X23495000Y-21590000D02*
X23495000Y-43815000D01*
X27940000Y-48260000D02*
X28575000Y-48895000D01*
X40005000Y-57150000D02*
X40005000Y-58420000D01*
X38100000Y-55245000D02*
X40005000Y-57150000D01*
X28575000Y-48895000D02*
X34925000Y-55245000D01*
X34925000Y-55245000D02*
X38100000Y-55245000D01*
G04 #@! TO.N,Net-(ESP1-Pad2)*
X12065000Y-16510000D02*
X12065000Y-16510000D01*
X33020000Y-22860000D02*
X34290000Y-22860000D01*
X34290000Y-22860000D02*
X34925000Y-22225000D01*
X34925000Y-17780000D02*
X33655000Y-16510000D01*
X34925000Y-22225000D02*
X34925000Y-17780000D01*
X33655000Y-16510000D02*
X12065000Y-16510000D01*
G04 #@! TO.N,Net-(ESP1-Pad3)*
X33781999Y-24638001D02*
X33020000Y-25400000D01*
X34416999Y-24638001D02*
X33781999Y-24638001D01*
X3810000Y-17145000D02*
X6350000Y-17145000D01*
X8255000Y-15240000D02*
X34290000Y-15240000D01*
X34290000Y-15240000D02*
X36195000Y-17145000D01*
X36195000Y-17145000D02*
X36195000Y-22860000D01*
X6350000Y-17145000D02*
X8255000Y-15240000D01*
X36195000Y-22860000D02*
X34416999Y-24638001D01*
G04 #@! TO.N,Net-(ESP1-Pad4)*
X26035000Y-42545000D02*
X31115000Y-47625000D01*
X26035000Y-32385000D02*
X26035000Y-42545000D01*
X30480000Y-27940000D02*
X26035000Y-32385000D01*
X33020000Y-27940000D02*
X30480000Y-27940000D01*
X30480000Y-46990000D02*
X31115000Y-47625000D01*
X31115000Y-47625000D02*
X37465000Y-53975000D01*
X71755000Y-57342370D02*
X68387630Y-53975000D01*
X71755000Y-58420000D02*
X71755000Y-57342370D01*
X68387630Y-53975000D02*
X60960000Y-53975000D01*
X37465000Y-53975000D02*
X60960000Y-53975000D01*
X60960000Y-53975000D02*
X61595000Y-53975000D01*
G04 #@! TO.N,Net-(DHT1-Pad2)*
X28575000Y-32385000D02*
X28575000Y-41910000D01*
X28575000Y-41910000D02*
X38735000Y-52070000D01*
X38735000Y-52070000D02*
X66675000Y-52070000D01*
X68580000Y-50165000D02*
X68580000Y-41910000D01*
X66675000Y-52070000D02*
X68580000Y-50165000D01*
X28575000Y-32385000D02*
X30480000Y-30480000D01*
X30480000Y-30480000D02*
X33020000Y-30480000D01*
G04 #@! TO.N,Net-(ESP1-Pad9)*
X9525000Y-19685000D02*
X10160000Y-20320000D01*
X3810000Y-19685000D02*
X9525000Y-19685000D01*
G04 #@! TO.N,Net-(ESP1-Pad11)*
X10160000Y-25400000D02*
X13335000Y-25400000D01*
X13335000Y-25400000D02*
X15240000Y-27305000D01*
X8255000Y-54610000D02*
X15240000Y-47625000D01*
X8255000Y-58420000D02*
X8255000Y-54610000D01*
X15240000Y-27305000D02*
X15240000Y-47625000D01*
G04 #@! TO.N,Net-(ESP1-Pad14)*
X8890000Y-33020000D02*
X10160000Y-33020000D01*
X7620000Y-31750000D02*
X8890000Y-33020000D01*
X7620000Y-27305000D02*
X7620000Y-31750000D01*
X5080000Y-24765000D02*
X7620000Y-27305000D01*
X3810000Y-24765000D02*
X5080000Y-24765000D01*
D13*
G04 #@! TO.N,Net-(5VIN1-Pad2)*
X58420000Y-46990000D02*
X59690000Y-45720000D01*
D12*
X12446000Y-65786000D02*
X12700000Y-66040000D01*
D13*
X12700000Y-66040000D02*
X15240000Y-66040000D01*
D12*
X37592000Y-65532000D02*
X38100000Y-66040000D01*
D13*
X38100000Y-66040000D02*
X41910000Y-66040000D01*
D12*
X62484000Y-65786000D02*
X62230000Y-66040000D01*
D13*
X62230000Y-66040000D02*
X67310000Y-66040000D01*
X41910000Y-66040000D02*
X43180000Y-66040000D01*
X43180000Y-66040000D02*
X62230000Y-66040000D01*
X15240000Y-66040000D02*
X17780000Y-66040000D01*
X57150000Y-48260000D02*
X58420000Y-46990000D01*
X2732370Y-14605000D02*
X1270000Y-16067370D01*
X3810000Y-14605000D02*
X2732370Y-14605000D01*
X1270000Y-16067370D02*
X1270000Y-55880000D01*
X17145000Y-2540000D02*
X19685000Y-2540000D01*
X5080000Y-14605000D02*
X17145000Y-2540000D01*
X3810000Y-14605000D02*
X5080000Y-14605000D01*
X19050000Y-2540000D02*
X19685000Y-2540000D01*
X37465000Y-58420000D02*
X37465000Y-66040000D01*
X17780000Y-66040000D02*
X37465000Y-66040000D01*
X37465000Y-66040000D02*
X38100000Y-66040000D01*
X37465000Y-44450000D02*
X40005000Y-44450000D01*
X36195000Y-43180000D02*
X37465000Y-44450000D01*
X36195000Y-37465000D02*
X36195000Y-43180000D01*
X33020000Y-35560000D02*
X34290000Y-35560000D01*
X34290000Y-35560000D02*
X36195000Y-37465000D01*
X59690000Y-45720000D02*
X59690000Y-39370000D01*
X59690000Y-39370000D02*
X63500000Y-35560000D01*
X40005000Y-44450000D02*
X40640000Y-44450000D01*
X40640000Y-44450000D02*
X41910000Y-45720000D01*
X41910000Y-45720000D02*
X44450000Y-48260000D01*
X57150000Y-48260000D02*
X44450000Y-48260000D01*
X6985000Y-66040000D02*
X12065000Y-66040000D01*
X1270000Y-60325000D02*
X6985000Y-66040000D01*
X11430000Y-66040000D02*
X12065000Y-66040000D01*
X12065000Y-66040000D02*
X12700000Y-66040000D01*
X5715000Y-58420000D02*
X1270000Y-58420000D01*
X1270000Y-55880000D02*
X1270000Y-58420000D01*
X1270000Y-58420000D02*
X1270000Y-60325000D01*
X69215000Y-58420000D02*
X69215000Y-66040000D01*
X67310000Y-66040000D02*
X69215000Y-66040000D01*
X76200000Y-55880000D02*
X75565000Y-55245000D01*
X69215000Y-66040000D02*
X74295000Y-66040000D01*
X74295000Y-66040000D02*
X77470000Y-62865000D01*
X77470000Y-57150000D02*
X74295000Y-53975000D01*
X77470000Y-62865000D02*
X77470000Y-57150000D01*
X75565000Y-55245000D02*
X74295000Y-53975000D01*
X74295000Y-53975000D02*
X70485000Y-50165000D01*
X70485000Y-46355000D02*
X73660000Y-43180000D01*
X70485000Y-50165000D02*
X70485000Y-46355000D01*
X73660000Y-43180000D02*
X73660000Y-41910000D01*
X38735000Y-17780000D02*
X38735000Y-12700000D01*
X38735000Y-12700000D02*
X38735000Y-11622370D01*
X22225000Y-2540000D02*
X22225000Y-10160000D01*
X19685000Y-2540000D02*
X22225000Y-2540000D01*
X24765000Y-12700000D02*
X30480000Y-12700000D01*
X22225000Y-10160000D02*
X24765000Y-12700000D01*
X73660000Y-38735000D02*
X70485000Y-35560000D01*
X63500000Y-35560000D02*
X70485000Y-35560000D01*
X73660000Y-41910000D02*
X73660000Y-38735000D01*
X38735000Y-4445000D02*
X36830000Y-2540000D01*
X38735000Y-5080000D02*
X38735000Y-4445000D01*
X22225000Y-2540000D02*
X36830000Y-2540000D01*
X38735000Y-11622370D02*
X38735000Y-5080000D01*
D14*
G04 #@! TO.N,Net-(ACDC1-Pad1)*
X46355000Y-24130000D02*
X46355000Y-29210000D01*
X46355000Y-29210000D02*
X46355000Y-34290000D01*
X46355000Y-34290000D02*
X46355000Y-39370000D01*
X46355000Y-44450000D02*
X46355000Y-39370000D01*
X46355000Y-24130000D02*
X46355000Y-21590000D01*
X46355000Y-21590000D02*
X50165000Y-17780000D01*
X50165000Y-17780000D02*
X55245000Y-17780000D01*
X57150000Y-15875000D02*
X57150000Y-8255000D01*
X55245000Y-17780000D02*
X57150000Y-15875000D01*
G04 #@! TD*
M02*
